<?xml version="1.0" encoding="UTF-8" standalone="no"?>
<!DOCTYPE svg PUBLIC "-//W3C//DTD SVG 1.1//EN"
 "http://www.w3.org/Graphics/SVG/1.1/DTD/svg11.dtd">
<!-- Generated by graphviz version 2.26.3 (20100126.1600)
 -->
<!-- Title: Perl Pages: 1 -->
<svg width="544pt" height="511pt"
 viewBox="0.00 0.00 544.00 511.00" xmlns="http://www.w3.org/2000/svg" xmlns:xlink="http://www.w3.org/1999/xlink">
<g id="graph1" class="graph" transform="scale(1 1) rotate(0) translate(4 507)">
<title>Perl</title>
<polygon fill="white" stroke="white" points="-4,5 -4,-507 541,-507 541,5 -4,5"/>
<text text-anchor="middle" x="268" y="-10.4" font-family="Times Roman,serif" font-size="14.00">Cluster set</text>
<g id="graph2" class="cluster"><title>cluster J</title>
<polygon fill="none" stroke="black" points="8,-35 8,-116 78,-116 78,-35 8,-35"/>
<text text-anchor="middle" x="43" y="-99.4" font-family="Times Roman,serif" font-size="14.00">Cluster J</text>
</g>
<g id="graph3" class="cluster"><title>cluster I</title>
<polygon fill="none" stroke="black" points="8,-124 8,-205 168,-205 168,-124 8,-124"/>
<text text-anchor="middle" x="88" y="-188.4" font-family="Times Roman,serif" font-size="14.00">Cluster I</text>
</g>
<g id="graph4" class="cluster"><title>cluster F</title>
<polygon fill="none" stroke="black" points="8,-213 8,-350 258,-350 258,-213 8,-213"/>
<text text-anchor="middle" x="133" y="-333.4" font-family="Times Roman,serif" font-size="14.00">Cluster F</text>
</g>
<g id="graph5" class="cluster"><title>cluster A</title>
<polygon fill="none" stroke="black" points="8,-358 8,-495 528,-495 528,-358 8,-358"/>
<text text-anchor="middle" x="268" y="-478.4" font-family="Times Roman,serif" font-size="14.00">Cluster A</text>
</g>
<!-- J -->
<g id="node2" class="node"><title>J</title>
<ellipse fill="bisque" stroke="bisque" cx="43" cy="-62" rx="27" ry="19.0919"/>
<text text-anchor="middle" x="43" y="-58.9" font-family="Times Roman,serif" font-size="14.00">J</text>
</g>
<!-- I -->
<g id="node4" class="node"><title>I</title>
<ellipse fill="aquamarine" stroke="aquamarine" cx="43" cy="-151" rx="27" ry="19.0919"/>
<text text-anchor="middle" x="43" y="-147.9" font-family="Times Roman,serif" font-size="14.00">I</text>
</g>
<!-- M -->
<g id="node5" class="node"><title>M</title>
<ellipse fill="lightgrey" stroke="black" cx="133" cy="-151" rx="27" ry="19.0919"/>
<text text-anchor="middle" x="133" y="-147.9" font-family="Times Roman,serif" font-size="14.00">M</text>
</g>
<!-- I&#45;&gt;M -->
<g id="edge4" class="edge"><title>I&#45;&gt;M</title>
<path fill="none" stroke="grey" d="M70.003,-151C78.0277,-151 86.9665,-151 95.5309,-151"/>
<polygon fill="grey" stroke="grey" points="95.7051,-154.5 105.705,-151 95.705,-147.5 95.7051,-154.5"/>
</g>
<!-- F -->
<g id="node8" class="node"><title>F</title>
<ellipse fill="lawngreen" stroke="lawngreen" cx="43" cy="-296" rx="27" ry="19.0919"/>
<text text-anchor="middle" x="43" y="-292.9" font-family="Times Roman,serif" font-size="14.00">F</text>
</g>
<!-- L -->
<g id="node9" class="node"><title>L</title>
<ellipse fill="lightgrey" stroke="black" cx="133" cy="-268" rx="27" ry="19.0919"/>
<text text-anchor="middle" x="133" y="-264.9" font-family="Times Roman,serif" font-size="14.00">L</text>
</g>
<!-- F&#45;&gt;L -->
<g id="edge7" class="edge"><title>F&#45;&gt;L</title>
<path fill="none" stroke="grey" d="M68.07,-288.2C77.4322,-285.288 88.2367,-281.926 98.3123,-278.792"/>
<polygon fill="grey" stroke="grey" points="99.5556,-282.07 108.064,-275.758 97.4761,-275.386 99.5556,-282.07"/>
</g>
<!-- H -->
<g id="node13" class="node"><title>H</title>
<ellipse fill="crimson" stroke="crimson" cx="223" cy="-268" rx="27" ry="19.0919"/>
<text text-anchor="middle" x="223" y="-264.9" font-family="Times Roman,serif" font-size="14.00">H</text>
</g>
<!-- L&#45;&gt;H -->
<g id="edge11" class="edge"><title>L&#45;&gt;H</title>
<path fill="none" stroke="grey" d="M160.003,-268C168.028,-268 176.967,-268 185.531,-268"/>
<polygon fill="grey" stroke="grey" points="185.705,-271.5 195.705,-268 185.705,-264.5 185.705,-271.5"/>
</g>
<!-- G -->
<g id="node11" class="node"><title>G</title>
<ellipse fill="coral" stroke="coral" cx="43" cy="-240" rx="27" ry="19.0919"/>
<text text-anchor="middle" x="43" y="-236.9" font-family="Times Roman,serif" font-size="14.00">G</text>
</g>
<!-- G&#45;&gt;L -->
<g id="edge9" class="edge"><title>G&#45;&gt;L</title>
<path fill="none" stroke="grey" d="M68.07,-247.8C77.4322,-250.712 88.2367,-254.074 98.3123,-257.208"/>
<polygon fill="grey" stroke="grey" points="97.4761,-260.614 108.064,-260.242 99.5556,-253.93 97.4761,-260.614"/>
</g>
<!-- A -->
<g id="node16" class="node"><title>A</title>
<ellipse fill="aquamarine" stroke="aquamarine" cx="43" cy="-441" rx="27" ry="19.0919"/>
<text text-anchor="middle" x="43" y="-437.9" font-family="Times Roman,serif" font-size="14.00">A</text>
</g>
<!-- K -->
<g id="node17" class="node"><title>K</title>
<ellipse fill="lightgrey" stroke="black" cx="133" cy="-413" rx="27" ry="19.0919"/>
<text text-anchor="middle" x="133" y="-409.9" font-family="Times Roman,serif" font-size="14.00">K</text>
</g>
<!-- A&#45;&gt;K -->
<g id="edge14" class="edge"><title>A&#45;&gt;K</title>
<path fill="none" stroke="grey" d="M68.07,-433.2C77.4322,-430.288 88.2367,-426.926 98.3123,-423.792"/>
<polygon fill="grey" stroke="grey" points="99.5556,-427.07 108.064,-420.758 97.4761,-420.386 99.5556,-427.07"/>
</g>
<!-- B -->
<g id="node19" class="node"><title>B</title>
<ellipse fill="yellow" stroke="yellow" cx="223" cy="-385" rx="27" ry="19.0919"/>
<text text-anchor="middle" x="223" y="-381.9" font-family="Times Roman,serif" font-size="14.00">B</text>
</g>
<!-- K&#45;&gt;B -->
<g id="edge22" class="edge"><title>K&#45;&gt;B</title>
<path fill="none" stroke="grey" d="M158.07,-405.2C167.432,-402.288 178.237,-398.926 188.312,-395.792"/>
<polygon fill="grey" stroke="grey" points="189.556,-399.07 198.064,-392.758 187.476,-392.386 189.556,-399.07"/>
</g>
<!-- E -->
<g id="node27" class="node"><title>E</title>
<ellipse fill="blueviolet" stroke="blueviolet" cx="223" cy="-441" rx="27" ry="19.0919"/>
<text text-anchor="middle" x="223" y="-437.9" font-family="Times Roman,serif" font-size="14.00">E</text>
</g>
<!-- K&#45;&gt;E -->
<g id="edge24" class="edge"><title>K&#45;&gt;E</title>
<path fill="none" stroke="grey" d="M158.07,-420.8C167.432,-423.712 178.237,-427.074 188.312,-430.208"/>
<polygon fill="grey" stroke="grey" points="187.476,-433.614 198.064,-433.242 189.556,-426.93 187.476,-433.614"/>
</g>
<!-- C -->
<g id="node20" class="node"><title>C</title>
<ellipse fill="pink" stroke="pink" cx="313" cy="-385" rx="27" ry="19.0919"/>
<text text-anchor="middle" x="313" y="-381.9" font-family="Times Roman,serif" font-size="14.00">C</text>
</g>
<!-- B&#45;&gt;C -->
<g id="edge16" class="edge"><title>B&#45;&gt;C</title>
<path fill="none" stroke="grey" d="M250.003,-385C258.028,-385 266.967,-385 275.531,-385"/>
<polygon fill="grey" stroke="grey" points="275.705,-388.5 285.705,-385 275.705,-381.5 275.705,-388.5"/>
</g>
<!-- X -->
<g id="node22" class="node"><title>X</title>
<ellipse fill="lightgrey" stroke="black" cx="403" cy="-385" rx="27" ry="19.0919"/>
<text text-anchor="middle" x="403" y="-381.9" font-family="Times Roman,serif" font-size="14.00">X</text>
</g>
<!-- C&#45;&gt;X -->
<g id="edge18" class="edge"><title>C&#45;&gt;X</title>
<path fill="none" stroke="grey" d="M340.003,-385C348.028,-385 356.967,-385 365.531,-385"/>
<polygon fill="grey" stroke="grey" points="365.705,-388.5 375.705,-385 365.705,-381.5 365.705,-388.5"/>
</g>
<!-- Y -->
<g id="node29" class="node"><title>Y</title>
<ellipse fill="lightgrey" stroke="black" cx="493" cy="-385" rx="27" ry="19.0919"/>
<text text-anchor="middle" x="493" y="-381.9" font-family="Times Roman,serif" font-size="14.00">Y</text>
</g>
<!-- X&#45;&gt;Y -->
<g id="edge26" class="edge"><title>X&#45;&gt;Y</title>
<path fill="none" stroke="grey" d="M430.003,-385C438.028,-385 446.967,-385 455.531,-385"/>
<polygon fill="grey" stroke="grey" points="455.705,-388.5 465.705,-385 455.705,-381.5 455.705,-388.5"/>
</g>
<!-- D -->
<g id="node24" class="node"><title>D</title>
<ellipse fill="bisque" stroke="bisque" cx="43" cy="-385" rx="27" ry="19.0919"/>
<text text-anchor="middle" x="43" y="-381.9" font-family="Times Roman,serif" font-size="14.00">D</text>
</g>
<!-- D&#45;&gt;K -->
<g id="edge20" class="edge"><title>D&#45;&gt;K</title>
<path fill="none" stroke="grey" d="M68.07,-392.8C77.4322,-395.712 88.2367,-399.074 98.3123,-402.208"/>
<polygon fill="grey" stroke="grey" points="97.4761,-405.614 108.064,-405.242 99.5556,-398.93 97.4761,-405.614"/>
</g>
</g>
</svg>
