<?xml version="1.0" encoding="UTF-8" standalone="no"?>
<!DOCTYPE svg PUBLIC "-//W3C//DTD SVG 1.1//EN"
 "http://www.w3.org/Graphics/SVG/1.1/DTD/svg11.dtd">
<!-- Generated by graphviz version 2.26.3 (20100126.1600)
 -->
<!-- Title: syntax Pages: 1 -->
<svg width="484pt" height="206pt"
 viewBox="0.00 0.00 484.00 206.00" xmlns="http://www.w3.org/2000/svg" xmlns:xlink="http://www.w3.org/1999/xlink">
<g id="graph1" class="graph" transform="scale(1 1) rotate(0) translate(4 202)">
<title>syntax</title>
<polygon fill="white" stroke="white" points="-4,5 -4,-202 481,-202 481,5 -4,5"/>
<text text-anchor="middle" x="238" y="-10.4" font-family="Times Roman,serif" font-size="14.00">Cluster set</text>
<g id="graph2" class="cluster"><title>cluster A</title>
<polygon fill="none" stroke="black" points="8,-35 8,-190 78,-190 78,-35 8,-35"/>
<text text-anchor="middle" x="43" y="-173.4" font-family="Times Roman,serif" font-size="14.00">Cluster A</text>
</g>
<g id="graph3" class="cluster"><title>cluster C</title>
<polygon fill="none" stroke="black" points="86,-35 86,-190 156,-190 156,-35 86,-35"/>
<text text-anchor="middle" x="121" y="-173.4" font-family="Times Roman,serif" font-size="14.00">Cluster C</text>
</g>
<g id="graph4" class="cluster"><title>cluster E</title>
<polygon fill="none" stroke="black" points="164,-35 164,-190 234,-190 234,-35 164,-35"/>
<text text-anchor="middle" x="199" y="-173.4" font-family="Times Roman,serif" font-size="14.00">Cluster E</text>
</g>
<g id="graph5" class="cluster"><title>cluster G</title>
<polygon fill="none" stroke="black" points="242,-35 242,-190 312,-190 312,-35 242,-35"/>
<text text-anchor="middle" x="277" y="-173.4" font-family="Times Roman,serif" font-size="14.00">Cluster G</text>
</g>
<g id="graph6" class="cluster"><title>cluster I</title>
<polygon fill="none" stroke="black" points="320,-35 320,-190 390,-190 390,-35 320,-35"/>
<text text-anchor="middle" x="355" y="-173.4" font-family="Times Roman,serif" font-size="14.00">Cluster I</text>
</g>
<g id="graph7" class="cluster"><title>cluster K</title>
<polygon fill="none" stroke="black" points="398,-35 398,-190 468,-190 468,-35 398,-35"/>
<text text-anchor="middle" x="433" y="-173.4" font-family="Times Roman,serif" font-size="14.00">Cluster K</text>
</g>
<!-- A -->
<g id="node2" class="node"><title>A</title>
<ellipse fill="none" stroke="orange" cx="43" cy="-136" rx="27" ry="19.0919"/>
<text text-anchor="middle" x="43" y="-132.9" font-family="Times Roman,serif" font-size="14.00">A</text>
</g>
<!-- B -->
<g id="node3" class="node"><title>B</title>
<ellipse fill="none" stroke="orange" cx="43" cy="-62" rx="27" ry="19.0919"/>
<text text-anchor="middle" x="43" y="-58.9" font-family="Times Roman,serif" font-size="14.00">B</text>
</g>
<!-- A&#45;&gt;B -->
<g id="edge3" class="edge"><title>A&#45;&gt;B</title>
<path fill="none" stroke="blue" d="M43,-116.943C43,-109.149 43,-99.9538 43,-91.3381"/>
<polygon fill="blue" stroke="blue" points="46.5001,-91.2494 43,-81.2495 39.5001,-91.2495 46.5001,-91.2494"/>
</g>
<!-- C -->
<g id="node6" class="node"><title>C</title>
<ellipse fill="none" stroke="orange" cx="121" cy="-136" rx="27" ry="19.0919"/>
<text text-anchor="middle" x="121" y="-132.9" font-family="Times Roman,serif" font-size="14.00">C</text>
</g>
<!-- D -->
<g id="node7" class="node"><title>D</title>
<ellipse fill="none" stroke="orange" cx="121" cy="-62" rx="27" ry="19.0919"/>
<text text-anchor="middle" x="121" y="-58.9" font-family="Times Roman,serif" font-size="14.00">D</text>
</g>
<!-- C&#45;&gt;D -->
<g id="edge6" class="edge"><title>C&#45;&gt;D</title>
<path fill="none" stroke="blue" d="M121,-116.943C121,-109.149 121,-99.9538 121,-91.3381"/>
<polygon fill="blue" stroke="blue" points="124.5,-91.2494 121,-81.2495 117.5,-91.2495 124.5,-91.2494"/>
</g>
<!-- E -->
<g id="node10" class="node"><title>E</title>
<ellipse fill="none" stroke="orange" cx="199" cy="-136" rx="27" ry="19.0919"/>
<text text-anchor="middle" x="199" y="-132.9" font-family="Times Roman,serif" font-size="14.00">E</text>
</g>
<!-- F -->
<g id="node11" class="node"><title>F</title>
<ellipse fill="none" stroke="orange" cx="199" cy="-62" rx="27" ry="19.0919"/>
<text text-anchor="middle" x="199" y="-58.9" font-family="Times Roman,serif" font-size="14.00">F</text>
</g>
<!-- E&#45;&gt;F -->
<g id="edge9" class="edge"><title>E&#45;&gt;F</title>
<path fill="none" stroke="blue" d="M199,-116.943C199,-109.149 199,-99.9538 199,-91.3381"/>
<polygon fill="blue" stroke="blue" points="202.5,-91.2494 199,-81.2495 195.5,-91.2495 202.5,-91.2494"/>
</g>
<!-- G -->
<g id="node14" class="node"><title>G</title>
<ellipse fill="none" stroke="orange" cx="277" cy="-136" rx="27" ry="19.0919"/>
<text text-anchor="middle" x="277" y="-132.9" font-family="Times Roman,serif" font-size="14.00">G</text>
</g>
<!-- H -->
<g id="node15" class="node"><title>H</title>
<ellipse fill="none" stroke="orange" cx="277" cy="-62" rx="27" ry="19.0919"/>
<text text-anchor="middle" x="277" y="-58.9" font-family="Times Roman,serif" font-size="14.00">H</text>
</g>
<!-- G&#45;&gt;H -->
<g id="edge12" class="edge"><title>G&#45;&gt;H</title>
<path fill="none" stroke="blue" d="M277,-116.943C277,-109.149 277,-99.9538 277,-91.3381"/>
<polygon fill="blue" stroke="blue" points="280.5,-91.2494 277,-81.2495 273.5,-91.2495 280.5,-91.2494"/>
</g>
<!-- I -->
<g id="node18" class="node"><title>I</title>
<ellipse fill="none" stroke="orange" cx="355" cy="-136" rx="27" ry="19.0919"/>
<text text-anchor="middle" x="355" y="-132.9" font-family="Times Roman,serif" font-size="14.00">I</text>
</g>
<!-- J -->
<g id="node19" class="node"><title>J</title>
<ellipse fill="none" stroke="orange" cx="355" cy="-62" rx="27" ry="19.0919"/>
<text text-anchor="middle" x="355" y="-58.9" font-family="Times Roman,serif" font-size="14.00">J</text>
</g>
<!-- I&#45;&gt;J -->
<g id="edge15" class="edge"><title>I&#45;&gt;J</title>
<path fill="none" stroke="blue" d="M355,-116.943C355,-109.149 355,-99.9538 355,-91.3381"/>
<polygon fill="blue" stroke="blue" points="358.5,-91.2494 355,-81.2495 351.5,-91.2495 358.5,-91.2494"/>
</g>
<!-- K -->
<g id="node22" class="node"><title>K</title>
<ellipse fill="none" stroke="orange" cx="433" cy="-136" rx="27" ry="19.0919"/>
<text text-anchor="middle" x="433" y="-132.9" font-family="Times Roman,serif" font-size="14.00">K</text>
</g>
<!-- L -->
<g id="node23" class="node"><title>L</title>
<ellipse fill="none" stroke="orange" cx="433" cy="-62" rx="27" ry="19.0919"/>
<text text-anchor="middle" x="433" y="-58.9" font-family="Times Roman,serif" font-size="14.00">L</text>
</g>
<!-- K&#45;&gt;L -->
<g id="edge18" class="edge"><title>K&#45;&gt;L</title>
<path fill="none" stroke="blue" d="M433,-116.943C433,-109.149 433,-99.9538 433,-91.3381"/>
<polygon fill="blue" stroke="blue" points="436.5,-91.2494 433,-81.2495 429.5,-91.2495 436.5,-91.2494"/>
</g>
</g>
</svg>
