<?xml version="1.0" encoding="UTF-8" standalone="no"?>
<!DOCTYPE svg PUBLIC "-//W3C//DTD SVG 1.1//EN"
 "http://www.w3.org/Graphics/SVG/1.1/DTD/svg11.dtd">
<!-- Generated by graphviz version 2.26.3 (20100126.1600)
 -->
<!-- Title: Perl Pages: 1 -->
<svg width="512pt" height="340pt"
 viewBox="0.00 0.00 512.00 340.00" xmlns="http://www.w3.org/2000/svg" xmlns:xlink="http://www.w3.org/1999/xlink">
<g id="graph1" class="graph" transform="scale(1 1) rotate(0) translate(4 336)">
<title>Perl</title>
<polygon fill="white" stroke="white" points="-4,5 -4,-336 509,-336 509,5 -4,5"/>
<!-- A -->
<g id="node1" class="node"><title>A</title>
<ellipse fill="aquamarine" stroke="aquamarine" cx="27" cy="-89" rx="27" ry="19.0919"/>
<text text-anchor="middle" x="27" y="-85.9" font-family="Times Roman,serif" font-size="14.00">A</text>
</g>
<!-- K -->
<g id="node6" class="node"><title>K</title>
<ellipse fill="lightgrey" stroke="black" cx="117" cy="-47" rx="27" ry="19.0919"/>
<text text-anchor="middle" x="117" y="-43.9" font-family="Times Roman,serif" font-size="14.00">K</text>
</g>
<!-- A&#45;&gt;K -->
<g id="edge4" class="edge"><title>A&#45;&gt;K</title>
<path fill="none" stroke="grey" d="M52.8335,-82.4706C79.7371,-75.6708 118,-66 118,-66"/>
</g>
<!-- B -->
<g id="node2" class="node"><title>B</title>
<ellipse fill="yellow" stroke="yellow" cx="207" cy="-75" rx="27" ry="19.0919"/>
<text text-anchor="middle" x="207" y="-71.9" font-family="Times Roman,serif" font-size="14.00">B</text>
</g>
<!-- C -->
<g id="node3" class="node"><title>C</title>
<ellipse fill="pink" stroke="pink" cx="297" cy="-75" rx="27" ry="19.0919"/>
<text text-anchor="middle" x="297" y="-71.9" font-family="Times Roman,serif" font-size="14.00">C</text>
</g>
<!-- B&#45;&gt;C -->
<g id="edge10" class="edge"><title>B&#45;&gt;C</title>
<path fill="none" stroke="grey" d="M234.003,-75C242.645,-75 252.347,-75 261.5,-75"/>
<ellipse fill="none" stroke="grey" cx="265.705" cy="-75" rx="4" ry="4"/>
</g>
<!-- X -->
<g id="node12" class="node"><title>X</title>
<ellipse fill="lightgrey" stroke="black" cx="387" cy="-75" rx="27" ry="19.0919"/>
<text text-anchor="middle" x="387" y="-71.9" font-family="Times Roman,serif" font-size="14.00">X</text>
</g>
<!-- C&#45;&gt;X -->
<g id="edge11" class="edge"><title>C&#45;&gt;X</title>
<path fill="none" stroke="grey" d="M324.003,-75C332.645,-75 342.347,-75 351.5,-75"/>
<ellipse fill="none" stroke="grey" cx="355.705" cy="-75" rx="4" ry="4"/>
</g>
<!-- D -->
<g id="node4" class="node"><title>D</title>
<ellipse fill="bisque" stroke="bisque" cx="27" cy="-33" rx="27" ry="19.0919"/>
<text text-anchor="middle" x="27" y="-29.9" font-family="Times Roman,serif" font-size="14.00">D</text>
</g>
<!-- D&#45;&gt;K -->
<g id="edge2" class="edge"><title>D&#45;&gt;K</title>
<path fill="none" stroke="grey" d="M51.3863,-41.8434C78.3416,-51.6184 118,-66 118,-66"/>
</g>
<!-- E -->
<g id="node5" class="node"><title>E</title>
<ellipse fill="blueviolet" stroke="blueviolet" cx="207" cy="-19" rx="27" ry="19.0919"/>
<text text-anchor="middle" x="207" y="-15.9" font-family="Times Roman,serif" font-size="14.00">E</text>
</g>
<!-- K&#45;&gt;B -->
<g id="edge6" class="edge"><title>K&#45;&gt;B</title>
<path fill="none" stroke="grey" d="M118,-66C118,-66 145.287,-68.7594 169.643,-71.2223"/>
<polygon fill="grey" stroke="grey" points="169.512,-74.7268 179.813,-72.2508 170.216,-67.7624 169.512,-74.7268"/>
</g>
<!-- K&#45;&gt;E -->
<g id="edge8" class="edge"><title>K&#45;&gt;E</title>
<path fill="none" stroke="grey" d="M118,-66C118,-66 150.24,-48.9745 175.911,-35.4177"/>
<polygon fill="grey" stroke="grey" points="177.792,-38.3827 185,-30.618 174.523,-32.1928 177.792,-38.3827"/>
</g>
<!-- Y -->
<g id="node13" class="node"><title>Y</title>
<ellipse fill="lightgrey" stroke="black" cx="477" cy="-75" rx="27" ry="19.0919"/>
<text text-anchor="middle" x="477" y="-71.9" font-family="Times Roman,serif" font-size="14.00">Y</text>
</g>
<!-- X&#45;&gt;Y -->
<g id="edge12" class="edge"><title>X&#45;&gt;Y</title>
<path fill="none" stroke="grey" d="M414.003,-75C422.645,-75 432.347,-75 441.5,-75"/>
<ellipse fill="none" stroke="grey" cx="445.705" cy="-75" rx="4" ry="4"/>
</g>
<!-- F -->
<g id="node14" class="node"><title>F</title>
<ellipse fill="lawngreen" stroke="lawngreen" cx="27" cy="-201" rx="27" ry="19.0919"/>
<text text-anchor="middle" x="27" y="-197.9" font-family="Times Roman,serif" font-size="14.00">F</text>
</g>
<!-- L -->
<g id="node17" class="node"><title>L</title>
<ellipse fill="lightgrey" stroke="black" cx="117" cy="-173" rx="27" ry="19.0919"/>
<text text-anchor="middle" x="117" y="-169.9" font-family="Times Roman,serif" font-size="14.00">L</text>
</g>
<!-- F&#45;&gt;L -->
<g id="edge14" class="edge"><title>F&#45;&gt;L</title>
<path fill="none" stroke="grey" d="M50.1011,-190.733C68.0813,-182.742 90,-173 90,-173"/>
</g>
<!-- G -->
<g id="node15" class="node"><title>G</title>
<ellipse fill="coral" stroke="coral" cx="27" cy="-145" rx="27" ry="19.0919"/>
<text text-anchor="middle" x="27" y="-141.9" font-family="Times Roman,serif" font-size="14.00">G</text>
</g>
<!-- G&#45;&gt;L -->
<g id="edge16" class="edge"><title>G&#45;&gt;L</title>
<path fill="none" stroke="grey" d="M50.1011,-155.267C68.0813,-163.258 90,-173 90,-173"/>
</g>
<!-- H -->
<g id="node16" class="node"><title>H</title>
<ellipse fill="crimson" stroke="crimson" cx="207" cy="-173" rx="27" ry="19.0919"/>
<text text-anchor="middle" x="207" y="-169.9" font-family="Times Roman,serif" font-size="14.00">H</text>
</g>
<!-- L&#45;&gt;H -->
<g id="edge18" class="edge"><title>L&#45;&gt;H</title>
<path fill="none" stroke="grey" d="M90,-173C90,-173 135.418,-173 169.659,-173"/>
<polygon fill="grey" stroke="grey" points="169.864,-176.5 179.864,-173 169.864,-169.5 169.864,-176.5"/>
</g>
<!-- I -->
<g id="node21" class="node"><title>I</title>
<ellipse fill="aquamarine" stroke="aquamarine" cx="27" cy="-257" rx="27" ry="19.0919"/>
<text text-anchor="middle" x="27" y="-253.9" font-family="Times Roman,serif" font-size="14.00">I</text>
</g>
<!-- M -->
<g id="node23" class="node"><title>M</title>
<ellipse fill="lightgrey" stroke="black" cx="117" cy="-257" rx="27" ry="19.0919"/>
<text text-anchor="middle" x="117" y="-253.9" font-family="Times Roman,serif" font-size="14.00">M</text>
</g>
<!-- I&#45;&gt;M -->
<g id="edge20" class="edge"><title>I&#45;&gt;M</title>
<path fill="none" stroke="grey" d="M54.003,-257C65.2905,-257 78.3867,-257 89.705,-257"/>
</g>
<!-- J -->
<g id="node22" class="node"><title>J</title>
<ellipse fill="bisque" stroke="bisque" cx="27" cy="-313" rx="27" ry="19.0919"/>
<text text-anchor="middle" x="27" y="-309.9" font-family="Times Roman,serif" font-size="14.00">J</text>
</g>
</g>
</svg>
