<?xml version="1.0" encoding="UTF-8" standalone="no"?>
<!DOCTYPE svg PUBLIC "-//W3C//DTD SVG 1.1//EN"
 "http://www.w3.org/Graphics/SVG/1.1/DTD/svg11.dtd">
<!-- Generated by graphviz version 2.29.20121107.0545 (20121107.0545)
 -->
<!-- Title: G Pages: 1 -->
<svg width="404pt" height="544pt"
 viewBox="0.00 0.00 404.00 544.00" xmlns="http://www.w3.org/2000/svg" xmlns:xlink="http://www.w3.org/1999/xlink">
<g id="graph0" class="graph" transform="scale(1 1) rotate(0) translate(4 540)">
<title>G</title>
<polygon fill="white" stroke="white" points="-4,5 -4,-540 401,-540 401,5 -4,5"/>
<text text-anchor="middle" x="198" y="-52.8" font-family="Times,serif" font-size="14.00">Starting node: Act_1</text>
<text text-anchor="middle" x="198" y="-37.8" font-family="Times,serif" font-size="14.00">Path length: 3</text>
<text text-anchor="middle" x="198" y="-22.8" font-family="Times,serif" font-size="14.00">Allow cycles: 0</text>
<text text-anchor="middle" x="198" y="-7.8" font-family="Times,serif" font-size="14.00">Solutions: 9</text>
<!-- 1 -->
<g id="node1" class="node"><title>1</title>
<ellipse fill="none" stroke="black" cx="33" cy="-86" rx="32.4942" ry="18"/>
<text text-anchor="middle" x="33" y="-82.3" font-family="Times,serif" font-size="14.00">Act_1</text>
</g>
<!-- 2 -->
<g id="node2" class="node"><title>2</title>
<ellipse fill="none" stroke="black" cx="139" cy="-86" rx="36.2938" ry="18"/>
<text text-anchor="middle" x="139" y="-82.3" font-family="Times,serif" font-size="14.00">Act_23</text>
</g>
<!-- 1&#45;&gt;2 -->
<g id="edge1" class="edge"><title>1&#45;&gt;2</title>
<path fill="none" stroke="black" d="M65.7685,-86C74.0979,-86 83.2477,-86 92.1534,-86"/>
<polygon fill="black" stroke="black" points="92.4319,-89.5001 102.432,-86 92.4318,-82.5001 92.4319,-89.5001"/>
</g>
<!-- 3 -->
<g id="node3" class="node"><title>3</title>
<ellipse fill="none" stroke="black" cx="249" cy="-86" rx="36.2938" ry="18"/>
<text text-anchor="middle" x="249" y="-82.3" font-family="Times,serif" font-size="14.00">Act_25</text>
</g>
<!-- 2&#45;&gt;3 -->
<g id="edge2" class="edge"><title>2&#45;&gt;3</title>
<path fill="none" stroke="black" d="M175.663,-86C184.141,-86 193.305,-86 202.168,-86"/>
<polygon fill="black" stroke="black" points="202.375,-89.5001 212.375,-86 202.375,-82.5001 202.375,-89.5001"/>
</g>
<!-- 4 -->
<g id="node4" class="node"><title>4</title>
<ellipse fill="none" stroke="black" cx="359" cy="-86" rx="36.2938" ry="18"/>
<text text-anchor="middle" x="359" y="-82.3" font-family="Times,serif" font-size="14.00">Act_24</text>
</g>
<!-- 3&#45;&gt;4 -->
<g id="edge3" class="edge"><title>3&#45;&gt;4</title>
<path fill="none" stroke="black" d="M285.663,-86C294.141,-86 303.305,-86 312.168,-86"/>
<polygon fill="black" stroke="black" points="312.375,-89.5001 322.375,-86 312.375,-82.5001 312.375,-89.5001"/>
</g>
<!-- 5 -->
<g id="node5" class="node"><title>5</title>
<ellipse fill="none" stroke="black" cx="33" cy="-140" rx="32.4942" ry="18"/>
<text text-anchor="middle" x="33" y="-136.3" font-family="Times,serif" font-size="14.00">Act_1</text>
</g>
<!-- 6 -->
<g id="node6" class="node"><title>6</title>
<ellipse fill="none" stroke="black" cx="139" cy="-140" rx="36.2938" ry="18"/>
<text text-anchor="middle" x="139" y="-136.3" font-family="Times,serif" font-size="14.00">Act_23</text>
</g>
<!-- 5&#45;&gt;6 -->
<g id="edge4" class="edge"><title>5&#45;&gt;6</title>
<path fill="none" stroke="black" d="M65.7685,-140C74.0979,-140 83.2477,-140 92.1534,-140"/>
<polygon fill="black" stroke="black" points="92.4319,-143.5 102.432,-140 92.4318,-136.5 92.4319,-143.5"/>
</g>
<!-- 7 -->
<g id="node7" class="node"><title>7</title>
<ellipse fill="none" stroke="black" cx="249" cy="-140" rx="36.2938" ry="18"/>
<text text-anchor="middle" x="249" y="-136.3" font-family="Times,serif" font-size="14.00">Act_25</text>
</g>
<!-- 6&#45;&gt;7 -->
<g id="edge5" class="edge"><title>6&#45;&gt;7</title>
<path fill="none" stroke="black" d="M175.663,-140C184.141,-140 193.305,-140 202.168,-140"/>
<polygon fill="black" stroke="black" points="202.375,-143.5 212.375,-140 202.375,-136.5 202.375,-143.5"/>
</g>
<!-- 8 -->
<g id="node8" class="node"><title>8</title>
<ellipse fill="none" stroke="black" cx="359" cy="-140" rx="32.4942" ry="18"/>
<text text-anchor="middle" x="359" y="-136.3" font-family="Times,serif" font-size="14.00">Act_3</text>
</g>
<!-- 7&#45;&gt;8 -->
<g id="edge6" class="edge"><title>7&#45;&gt;8</title>
<path fill="none" stroke="black" d="M285.663,-140C295.421,-140 306.086,-140 316.157,-140"/>
<polygon fill="black" stroke="black" points="316.373,-143.5 326.373,-140 316.373,-136.5 316.373,-143.5"/>
</g>
<!-- 9 -->
<g id="node9" class="node"><title>9</title>
<ellipse fill="none" stroke="black" cx="33" cy="-194" rx="32.4942" ry="18"/>
<text text-anchor="middle" x="33" y="-190.3" font-family="Times,serif" font-size="14.00">Act_1</text>
</g>
<!-- 10 -->
<g id="node10" class="node"><title>10</title>
<ellipse fill="none" stroke="black" cx="139" cy="-194" rx="36.2938" ry="18"/>
<text text-anchor="middle" x="139" y="-190.3" font-family="Times,serif" font-size="14.00">Act_23</text>
</g>
<!-- 9&#45;&gt;10 -->
<g id="edge7" class="edge"><title>9&#45;&gt;10</title>
<path fill="none" stroke="black" d="M65.7685,-194C74.0979,-194 83.2477,-194 92.1534,-194"/>
<polygon fill="black" stroke="black" points="92.4319,-197.5 102.432,-194 92.4318,-190.5 92.4319,-197.5"/>
</g>
<!-- 11 -->
<g id="node11" class="node"><title>11</title>
<ellipse fill="none" stroke="black" cx="249" cy="-194" rx="36.2938" ry="18"/>
<text text-anchor="middle" x="249" y="-190.3" font-family="Times,serif" font-size="14.00">Act_24</text>
</g>
<!-- 10&#45;&gt;11 -->
<g id="edge8" class="edge"><title>10&#45;&gt;11</title>
<path fill="none" stroke="black" d="M175.663,-194C184.141,-194 193.305,-194 202.168,-194"/>
<polygon fill="black" stroke="black" points="202.375,-197.5 212.375,-194 202.375,-190.5 202.375,-197.5"/>
</g>
<!-- 12 -->
<g id="node12" class="node"><title>12</title>
<ellipse fill="none" stroke="black" cx="359" cy="-194" rx="31.6951" ry="18"/>
<text text-anchor="middle" x="359" y="-190.3" font-family="Times,serif" font-size="14.00">Ext_3</text>
</g>
<!-- 11&#45;&gt;12 -->
<g id="edge9" class="edge"><title>11&#45;&gt;12</title>
<path fill="none" stroke="black" d="M285.663,-194C295.708,-194 306.715,-194 317.044,-194"/>
<polygon fill="black" stroke="black" points="317.087,-197.5 327.087,-194 317.087,-190.5 317.087,-197.5"/>
</g>
<!-- 13 -->
<g id="node13" class="node"><title>13</title>
<ellipse fill="none" stroke="black" cx="33" cy="-248" rx="32.4942" ry="18"/>
<text text-anchor="middle" x="33" y="-244.3" font-family="Times,serif" font-size="14.00">Act_1</text>
</g>
<!-- 14 -->
<g id="node14" class="node"><title>14</title>
<ellipse fill="none" stroke="black" cx="139" cy="-248" rx="36.2938" ry="18"/>
<text text-anchor="middle" x="139" y="-244.3" font-family="Times,serif" font-size="14.00">Act_23</text>
</g>
<!-- 13&#45;&gt;14 -->
<g id="edge10" class="edge"><title>13&#45;&gt;14</title>
<path fill="none" stroke="black" d="M65.7685,-248C74.0979,-248 83.2477,-248 92.1534,-248"/>
<polygon fill="black" stroke="black" points="92.4319,-251.5 102.432,-248 92.4318,-244.5 92.4319,-251.5"/>
</g>
<!-- 15 -->
<g id="node15" class="node"><title>15</title>
<ellipse fill="none" stroke="black" cx="249" cy="-248" rx="36.2938" ry="18"/>
<text text-anchor="middle" x="249" y="-244.3" font-family="Times,serif" font-size="14.00">Act_24</text>
</g>
<!-- 14&#45;&gt;15 -->
<g id="edge11" class="edge"><title>14&#45;&gt;15</title>
<path fill="none" stroke="black" d="M175.663,-248C184.141,-248 193.305,-248 202.168,-248"/>
<polygon fill="black" stroke="black" points="202.375,-251.5 212.375,-248 202.375,-244.5 202.375,-251.5"/>
</g>
<!-- 16 -->
<g id="node16" class="node"><title>16</title>
<ellipse fill="none" stroke="black" cx="359" cy="-248" rx="36.2938" ry="18"/>
<text text-anchor="middle" x="359" y="-244.3" font-family="Times,serif" font-size="14.00">Act_25</text>
</g>
<!-- 15&#45;&gt;16 -->
<g id="edge12" class="edge"><title>15&#45;&gt;16</title>
<path fill="none" stroke="black" d="M285.663,-248C294.141,-248 303.305,-248 312.168,-248"/>
<polygon fill="black" stroke="black" points="312.375,-251.5 322.375,-248 312.375,-244.5 312.375,-251.5"/>
</g>
<!-- 17 -->
<g id="node17" class="node"><title>17</title>
<ellipse fill="none" stroke="black" cx="33" cy="-302" rx="32.4942" ry="18"/>
<text text-anchor="middle" x="33" y="-298.3" font-family="Times,serif" font-size="14.00">Act_1</text>
</g>
<!-- 18 -->
<g id="node18" class="node"><title>18</title>
<ellipse fill="none" stroke="black" cx="139" cy="-302" rx="36.2938" ry="18"/>
<text text-anchor="middle" x="139" y="-298.3" font-family="Times,serif" font-size="14.00">Act_23</text>
</g>
<!-- 17&#45;&gt;18 -->
<g id="edge13" class="edge"><title>17&#45;&gt;18</title>
<path fill="none" stroke="black" d="M65.7685,-302C74.0979,-302 83.2477,-302 92.1534,-302"/>
<polygon fill="black" stroke="black" points="92.4319,-305.5 102.432,-302 92.4318,-298.5 92.4319,-305.5"/>
</g>
<!-- 19 -->
<g id="node19" class="node"><title>19</title>
<ellipse fill="none" stroke="black" cx="249" cy="-302" rx="36.2938" ry="18"/>
<text text-anchor="middle" x="249" y="-298.3" font-family="Times,serif" font-size="14.00">Act_24</text>
</g>
<!-- 18&#45;&gt;19 -->
<g id="edge14" class="edge"><title>18&#45;&gt;19</title>
<path fill="none" stroke="black" d="M175.663,-302C184.141,-302 193.305,-302 202.168,-302"/>
<polygon fill="black" stroke="black" points="202.375,-305.5 212.375,-302 202.375,-298.5 202.375,-305.5"/>
</g>
<!-- 20 -->
<g id="node20" class="node"><title>20</title>
<ellipse fill="none" stroke="black" cx="359" cy="-302" rx="36.2938" ry="18"/>
<text text-anchor="middle" x="359" y="-298.3" font-family="Times,serif" font-size="14.00">Act_22</text>
</g>
<!-- 19&#45;&gt;20 -->
<g id="edge15" class="edge"><title>19&#45;&gt;20</title>
<path fill="none" stroke="black" d="M285.663,-302C294.141,-302 303.305,-302 312.168,-302"/>
<polygon fill="black" stroke="black" points="312.375,-305.5 322.375,-302 312.375,-298.5 312.375,-305.5"/>
</g>
<!-- 21 -->
<g id="node21" class="node"><title>21</title>
<ellipse fill="none" stroke="black" cx="33" cy="-356" rx="32.4942" ry="18"/>
<text text-anchor="middle" x="33" y="-352.3" font-family="Times,serif" font-size="14.00">Act_1</text>
</g>
<!-- 22 -->
<g id="node22" class="node"><title>22</title>
<ellipse fill="none" stroke="black" cx="139" cy="-356" rx="36.2938" ry="18"/>
<text text-anchor="middle" x="139" y="-352.3" font-family="Times,serif" font-size="14.00">Act_23</text>
</g>
<!-- 21&#45;&gt;22 -->
<g id="edge16" class="edge"><title>21&#45;&gt;22</title>
<path fill="none" stroke="black" d="M65.7685,-356C74.0979,-356 83.2477,-356 92.1534,-356"/>
<polygon fill="black" stroke="black" points="92.4319,-359.5 102.432,-356 92.4318,-352.5 92.4319,-359.5"/>
</g>
<!-- 23 -->
<g id="node23" class="node"><title>23</title>
<ellipse fill="none" stroke="black" cx="249" cy="-356" rx="36.2938" ry="18"/>
<text text-anchor="middle" x="249" y="-352.3" font-family="Times,serif" font-size="14.00">Act_22</text>
</g>
<!-- 22&#45;&gt;23 -->
<g id="edge17" class="edge"><title>22&#45;&gt;23</title>
<path fill="none" stroke="black" d="M175.663,-356C184.141,-356 193.305,-356 202.168,-356"/>
<polygon fill="black" stroke="black" points="202.375,-359.5 212.375,-356 202.375,-352.5 202.375,-359.5"/>
</g>
<!-- 24 -->
<g id="node24" class="node"><title>24</title>
<ellipse fill="none" stroke="black" cx="359" cy="-356" rx="36.2938" ry="18"/>
<text text-anchor="middle" x="359" y="-352.3" font-family="Times,serif" font-size="14.00">Act_24</text>
</g>
<!-- 23&#45;&gt;24 -->
<g id="edge18" class="edge"><title>23&#45;&gt;24</title>
<path fill="none" stroke="black" d="M285.663,-356C294.141,-356 303.305,-356 312.168,-356"/>
<polygon fill="black" stroke="black" points="312.375,-359.5 322.375,-356 312.375,-352.5 312.375,-359.5"/>
</g>
<!-- 25 -->
<g id="node25" class="node"><title>25</title>
<ellipse fill="none" stroke="black" cx="33" cy="-410" rx="32.4942" ry="18"/>
<text text-anchor="middle" x="33" y="-406.3" font-family="Times,serif" font-size="14.00">Act_1</text>
</g>
<!-- 26 -->
<g id="node26" class="node"><title>26</title>
<ellipse fill="none" stroke="black" cx="139" cy="-410" rx="36.2938" ry="18"/>
<text text-anchor="middle" x="139" y="-406.3" font-family="Times,serif" font-size="14.00">Act_23</text>
</g>
<!-- 25&#45;&gt;26 -->
<g id="edge19" class="edge"><title>25&#45;&gt;26</title>
<path fill="none" stroke="black" d="M65.7685,-410C74.0979,-410 83.2477,-410 92.1534,-410"/>
<polygon fill="black" stroke="black" points="92.4319,-413.5 102.432,-410 92.4318,-406.5 92.4319,-413.5"/>
</g>
<!-- 27 -->
<g id="node27" class="node"><title>27</title>
<ellipse fill="none" stroke="black" cx="249" cy="-410" rx="36.2938" ry="18"/>
<text text-anchor="middle" x="249" y="-406.3" font-family="Times,serif" font-size="14.00">Act_22</text>
</g>
<!-- 26&#45;&gt;27 -->
<g id="edge20" class="edge"><title>26&#45;&gt;27</title>
<path fill="none" stroke="black" d="M175.663,-410C184.141,-410 193.305,-410 202.168,-410"/>
<polygon fill="black" stroke="black" points="202.375,-413.5 212.375,-410 202.375,-406.5 202.375,-413.5"/>
</g>
<!-- 28 -->
<g id="node28" class="node"><title>28</title>
<ellipse fill="none" stroke="black" cx="359" cy="-410" rx="36.2938" ry="18"/>
<text text-anchor="middle" x="359" y="-406.3" font-family="Times,serif" font-size="14.00">Act_21</text>
</g>
<!-- 27&#45;&gt;28 -->
<g id="edge21" class="edge"><title>27&#45;&gt;28</title>
<path fill="none" stroke="black" d="M285.663,-410C294.141,-410 303.305,-410 312.168,-410"/>
<polygon fill="black" stroke="black" points="312.375,-413.5 322.375,-410 312.375,-406.5 312.375,-413.5"/>
</g>
<!-- 29 -->
<g id="node29" class="node"><title>29</title>
<ellipse fill="none" stroke="black" cx="33" cy="-464" rx="32.4942" ry="18"/>
<text text-anchor="middle" x="33" y="-460.3" font-family="Times,serif" font-size="14.00">Act_1</text>
</g>
<!-- 30 -->
<g id="node30" class="node"><title>30</title>
<ellipse fill="none" stroke="black" cx="139" cy="-464" rx="36.2938" ry="18"/>
<text text-anchor="middle" x="139" y="-460.3" font-family="Times,serif" font-size="14.00">Act_21</text>
</g>
<!-- 29&#45;&gt;30 -->
<g id="edge22" class="edge"><title>29&#45;&gt;30</title>
<path fill="none" stroke="black" d="M65.7685,-464C74.0979,-464 83.2477,-464 92.1534,-464"/>
<polygon fill="black" stroke="black" points="92.4319,-467.5 102.432,-464 92.4318,-460.5 92.4319,-467.5"/>
</g>
<!-- 31 -->
<g id="node31" class="node"><title>31</title>
<ellipse fill="none" stroke="black" cx="249" cy="-464" rx="36.2938" ry="18"/>
<text text-anchor="middle" x="249" y="-460.3" font-family="Times,serif" font-size="14.00">Act_22</text>
</g>
<!-- 30&#45;&gt;31 -->
<g id="edge23" class="edge"><title>30&#45;&gt;31</title>
<path fill="none" stroke="black" d="M175.663,-464C184.141,-464 193.305,-464 202.168,-464"/>
<polygon fill="black" stroke="black" points="202.375,-467.5 212.375,-464 202.375,-460.5 202.375,-467.5"/>
</g>
<!-- 32 -->
<g id="node32" class="node"><title>32</title>
<ellipse fill="none" stroke="black" cx="359" cy="-464" rx="36.2938" ry="18"/>
<text text-anchor="middle" x="359" y="-460.3" font-family="Times,serif" font-size="14.00">Act_24</text>
</g>
<!-- 31&#45;&gt;32 -->
<g id="edge24" class="edge"><title>31&#45;&gt;32</title>
<path fill="none" stroke="black" d="M285.663,-464C294.141,-464 303.305,-464 312.168,-464"/>
<polygon fill="black" stroke="black" points="312.375,-467.5 322.375,-464 312.375,-460.5 312.375,-467.5"/>
</g>
<!-- 33 -->
<g id="node33" class="node"><title>33</title>
<ellipse fill="none" stroke="black" cx="33" cy="-518" rx="32.4942" ry="18"/>
<text text-anchor="middle" x="33" y="-514.3" font-family="Times,serif" font-size="14.00">Act_1</text>
</g>
<!-- 34 -->
<g id="node34" class="node"><title>34</title>
<ellipse fill="none" stroke="black" cx="139" cy="-518" rx="36.2938" ry="18"/>
<text text-anchor="middle" x="139" y="-514.3" font-family="Times,serif" font-size="14.00">Act_21</text>
</g>
<!-- 33&#45;&gt;34 -->
<g id="edge25" class="edge"><title>33&#45;&gt;34</title>
<path fill="none" stroke="black" d="M65.7685,-518C74.0979,-518 83.2477,-518 92.1534,-518"/>
<polygon fill="black" stroke="black" points="92.4319,-521.5 102.432,-518 92.4318,-514.5 92.4319,-521.5"/>
</g>
<!-- 35 -->
<g id="node35" class="node"><title>35</title>
<ellipse fill="none" stroke="black" cx="249" cy="-518" rx="36.2938" ry="18"/>
<text text-anchor="middle" x="249" y="-514.3" font-family="Times,serif" font-size="14.00">Act_22</text>
</g>
<!-- 34&#45;&gt;35 -->
<g id="edge26" class="edge"><title>34&#45;&gt;35</title>
<path fill="none" stroke="black" d="M175.663,-518C184.141,-518 193.305,-518 202.168,-518"/>
<polygon fill="black" stroke="black" points="202.375,-521.5 212.375,-518 202.375,-514.5 202.375,-521.5"/>
</g>
<!-- 36 -->
<g id="node36" class="node"><title>36</title>
<ellipse fill="none" stroke="black" cx="359" cy="-518" rx="36.2938" ry="18"/>
<text text-anchor="middle" x="359" y="-514.3" font-family="Times,serif" font-size="14.00">Act_23</text>
</g>
<!-- 35&#45;&gt;36 -->
<g id="edge27" class="edge"><title>35&#45;&gt;36</title>
<path fill="none" stroke="black" d="M285.663,-518C294.141,-518 303.305,-518 312.168,-518"/>
<polygon fill="black" stroke="black" points="312.375,-521.5 322.375,-518 312.375,-514.5 312.375,-521.5"/>
</g>
</g>
</svg>
