<?xml version="1.0" encoding="UTF-8" standalone="no"?>
<!DOCTYPE svg PUBLIC "-//W3C//DTD SVG 1.1//EN"
 "http://www.w3.org/Graphics/SVG/1.1/DTD/svg11.dtd">
<!-- Generated by graphviz version 2.26.3 (20100126.1600)
 -->
<!-- Title: G Pages: 1 -->
<svg width="428pt" height="578pt"
 viewBox="0.00 0.00 428.00 578.00" xmlns="http://www.w3.org/2000/svg" xmlns:xlink="http://www.w3.org/1999/xlink">
<g id="graph1" class="graph" transform="scale(1 1) rotate(0) translate(4 574)">
<title>G</title>
<polygon fill="white" stroke="white" points="-4,5 -4,-574 425,-574 425,5 -4,5"/>
<text text-anchor="middle" x="210" y="-67.4" font-family="Times Roman,serif" font-size="14.00">Starting node: Act_1</text>
<text text-anchor="middle" x="210" y="-48.4" font-family="Times Roman,serif" font-size="14.00">Path length: 3</text>
<text text-anchor="middle" x="210" y="-29.4" font-family="Times Roman,serif" font-size="14.00">Allow cycles: 0</text>
<text text-anchor="middle" x="210" y="-10.4" font-family="Times Roman,serif" font-size="14.00">Solutions: 9</text>
<!-- 1 -->
<g id="node1" class="node"><title>1</title>
<ellipse fill="none" stroke="black" cx="36" cy="-103" rx="34.8574" ry="19.0919"/>
<text text-anchor="middle" x="36" y="-99.9" font-family="Times Roman,serif" font-size="14.00">Act_1</text>
</g>
<!-- 2 -->
<g id="node2" class="node"><title>2</title>
<ellipse fill="none" stroke="black" cx="148" cy="-103" rx="39.0967" ry="19.0919"/>
<text text-anchor="middle" x="148" y="-99.9" font-family="Times Roman,serif" font-size="14.00">Act_23</text>
</g>
<!-- 1&#45;&gt;2 -->
<g id="edge2" class="edge"><title>1&#45;&gt;2</title>
<path fill="none" stroke="black" d="M71.7454,-103C80.1199,-103 89.1928,-103 98.0605,-103"/>
<polygon fill="black" stroke="black" points="98.3221,-106.5 108.322,-103 98.3221,-99.5001 98.3221,-106.5"/>
</g>
<!-- 3 -->
<g id="node3" class="node"><title>3</title>
<ellipse fill="none" stroke="black" cx="264" cy="-103" rx="39.0967" ry="19.0919"/>
<text text-anchor="middle" x="264" y="-99.9" font-family="Times Roman,serif" font-size="14.00">Act_25</text>
</g>
<!-- 2&#45;&gt;3 -->
<g id="edge3" class="edge"><title>2&#45;&gt;3</title>
<path fill="none" stroke="black" d="M187.596,-103C196.088,-103 205.166,-103 213.993,-103"/>
<polygon fill="black" stroke="black" points="214.188,-106.5 224.188,-103 214.188,-99.5001 214.188,-106.5"/>
</g>
<!-- 4 -->
<g id="node4" class="node"><title>4</title>
<ellipse fill="none" stroke="black" cx="380" cy="-103" rx="34.8574" ry="19.0919"/>
<text text-anchor="middle" x="380" y="-99.9" font-family="Times Roman,serif" font-size="14.00">Act_3</text>
</g>
<!-- 3&#45;&gt;4 -->
<g id="edge4" class="edge"><title>3&#45;&gt;4</title>
<path fill="none" stroke="black" d="M303.596,-103C313.436,-103 324.064,-103 334.176,-103"/>
<polygon fill="black" stroke="black" points="334.471,-106.5 344.471,-103 334.471,-99.5001 334.471,-106.5"/>
</g>
<!-- 5 -->
<g id="node5" class="node"><title>5</title>
<ellipse fill="none" stroke="black" cx="36" cy="-159" rx="34.8574" ry="19.0919"/>
<text text-anchor="middle" x="36" y="-155.9" font-family="Times Roman,serif" font-size="14.00">Act_1</text>
</g>
<!-- 6 -->
<g id="node6" class="node"><title>6</title>
<ellipse fill="none" stroke="black" cx="148" cy="-159" rx="39.0967" ry="19.0919"/>
<text text-anchor="middle" x="148" y="-155.9" font-family="Times Roman,serif" font-size="14.00">Act_23</text>
</g>
<!-- 5&#45;&gt;6 -->
<g id="edge6" class="edge"><title>5&#45;&gt;6</title>
<path fill="none" stroke="black" d="M71.7454,-159C80.1199,-159 89.1928,-159 98.0605,-159"/>
<polygon fill="black" stroke="black" points="98.3221,-162.5 108.322,-159 98.3221,-155.5 98.3221,-162.5"/>
</g>
<!-- 7 -->
<g id="node7" class="node"><title>7</title>
<ellipse fill="none" stroke="black" cx="264" cy="-159" rx="39.0967" ry="19.0919"/>
<text text-anchor="middle" x="264" y="-155.9" font-family="Times Roman,serif" font-size="14.00">Act_25</text>
</g>
<!-- 6&#45;&gt;7 -->
<g id="edge7" class="edge"><title>6&#45;&gt;7</title>
<path fill="none" stroke="black" d="M187.596,-159C196.088,-159 205.166,-159 213.993,-159"/>
<polygon fill="black" stroke="black" points="214.188,-162.5 224.188,-159 214.188,-155.5 214.188,-162.5"/>
</g>
<!-- 8 -->
<g id="node8" class="node"><title>8</title>
<ellipse fill="none" stroke="black" cx="380" cy="-159" rx="39.0967" ry="19.0919"/>
<text text-anchor="middle" x="380" y="-155.9" font-family="Times Roman,serif" font-size="14.00">Act_24</text>
</g>
<!-- 7&#45;&gt;8 -->
<g id="edge8" class="edge"><title>7&#45;&gt;8</title>
<path fill="none" stroke="black" d="M303.596,-159C312.088,-159 321.166,-159 329.993,-159"/>
<polygon fill="black" stroke="black" points="330.188,-162.5 340.188,-159 330.188,-155.5 330.188,-162.5"/>
</g>
<!-- 9 -->
<g id="node9" class="node"><title>9</title>
<ellipse fill="none" stroke="black" cx="36" cy="-215" rx="34.8574" ry="19.0919"/>
<text text-anchor="middle" x="36" y="-211.9" font-family="Times Roman,serif" font-size="14.00">Act_1</text>
</g>
<!-- 10 -->
<g id="node10" class="node"><title>10</title>
<ellipse fill="none" stroke="black" cx="148" cy="-215" rx="39.0967" ry="19.0919"/>
<text text-anchor="middle" x="148" y="-211.9" font-family="Times Roman,serif" font-size="14.00">Act_23</text>
</g>
<!-- 9&#45;&gt;10 -->
<g id="edge10" class="edge"><title>9&#45;&gt;10</title>
<path fill="none" stroke="black" d="M71.7454,-215C80.1199,-215 89.1928,-215 98.0605,-215"/>
<polygon fill="black" stroke="black" points="98.3221,-218.5 108.322,-215 98.3221,-211.5 98.3221,-218.5"/>
</g>
<!-- 11 -->
<g id="node11" class="node"><title>11</title>
<ellipse fill="none" stroke="black" cx="264" cy="-215" rx="39.0967" ry="19.0919"/>
<text text-anchor="middle" x="264" y="-211.9" font-family="Times Roman,serif" font-size="14.00">Act_24</text>
</g>
<!-- 10&#45;&gt;11 -->
<g id="edge11" class="edge"><title>10&#45;&gt;11</title>
<path fill="none" stroke="black" d="M187.596,-215C196.088,-215 205.166,-215 213.993,-215"/>
<polygon fill="black" stroke="black" points="214.188,-218.5 224.188,-215 214.188,-211.5 214.188,-218.5"/>
</g>
<!-- 12 -->
<g id="node12" class="node"><title>12</title>
<ellipse fill="none" stroke="black" cx="380" cy="-215" rx="34.1461" ry="19.0919"/>
<text text-anchor="middle" x="380" y="-211.9" font-family="Times Roman,serif" font-size="14.00">Ext_3</text>
</g>
<!-- 11&#45;&gt;12 -->
<g id="edge12" class="edge"><title>11&#45;&gt;12</title>
<path fill="none" stroke="black" d="M303.596,-215C313.737,-215 324.714,-215 335.1,-215"/>
<polygon fill="black" stroke="black" points="335.237,-218.5 345.237,-215 335.237,-211.5 335.237,-218.5"/>
</g>
<!-- 13 -->
<g id="node13" class="node"><title>13</title>
<ellipse fill="none" stroke="black" cx="36" cy="-271" rx="34.8574" ry="19.0919"/>
<text text-anchor="middle" x="36" y="-267.9" font-family="Times Roman,serif" font-size="14.00">Act_1</text>
</g>
<!-- 14 -->
<g id="node14" class="node"><title>14</title>
<ellipse fill="none" stroke="black" cx="148" cy="-271" rx="39.0967" ry="19.0919"/>
<text text-anchor="middle" x="148" y="-267.9" font-family="Times Roman,serif" font-size="14.00">Act_23</text>
</g>
<!-- 13&#45;&gt;14 -->
<g id="edge14" class="edge"><title>13&#45;&gt;14</title>
<path fill="none" stroke="black" d="M71.7454,-271C80.1199,-271 89.1928,-271 98.0605,-271"/>
<polygon fill="black" stroke="black" points="98.3221,-274.5 108.322,-271 98.3221,-267.5 98.3221,-274.5"/>
</g>
<!-- 15 -->
<g id="node15" class="node"><title>15</title>
<ellipse fill="none" stroke="black" cx="264" cy="-271" rx="39.0967" ry="19.0919"/>
<text text-anchor="middle" x="264" y="-267.9" font-family="Times Roman,serif" font-size="14.00">Act_24</text>
</g>
<!-- 14&#45;&gt;15 -->
<g id="edge15" class="edge"><title>14&#45;&gt;15</title>
<path fill="none" stroke="black" d="M187.596,-271C196.088,-271 205.166,-271 213.993,-271"/>
<polygon fill="black" stroke="black" points="214.188,-274.5 224.188,-271 214.188,-267.5 214.188,-274.5"/>
</g>
<!-- 16 -->
<g id="node16" class="node"><title>16</title>
<ellipse fill="none" stroke="black" cx="380" cy="-271" rx="39.0967" ry="19.0919"/>
<text text-anchor="middle" x="380" y="-267.9" font-family="Times Roman,serif" font-size="14.00">Act_25</text>
</g>
<!-- 15&#45;&gt;16 -->
<g id="edge16" class="edge"><title>15&#45;&gt;16</title>
<path fill="none" stroke="black" d="M303.596,-271C312.088,-271 321.166,-271 329.993,-271"/>
<polygon fill="black" stroke="black" points="330.188,-274.5 340.188,-271 330.188,-267.5 330.188,-274.5"/>
</g>
<!-- 17 -->
<g id="node17" class="node"><title>17</title>
<ellipse fill="none" stroke="black" cx="36" cy="-327" rx="34.8574" ry="19.0919"/>
<text text-anchor="middle" x="36" y="-323.9" font-family="Times Roman,serif" font-size="14.00">Act_1</text>
</g>
<!-- 18 -->
<g id="node18" class="node"><title>18</title>
<ellipse fill="none" stroke="black" cx="148" cy="-327" rx="39.0967" ry="19.0919"/>
<text text-anchor="middle" x="148" y="-323.9" font-family="Times Roman,serif" font-size="14.00">Act_23</text>
</g>
<!-- 17&#45;&gt;18 -->
<g id="edge18" class="edge"><title>17&#45;&gt;18</title>
<path fill="none" stroke="black" d="M71.7454,-327C80.1199,-327 89.1928,-327 98.0605,-327"/>
<polygon fill="black" stroke="black" points="98.3221,-330.5 108.322,-327 98.3221,-323.5 98.3221,-330.5"/>
</g>
<!-- 19 -->
<g id="node19" class="node"><title>19</title>
<ellipse fill="none" stroke="black" cx="264" cy="-327" rx="39.0967" ry="19.0919"/>
<text text-anchor="middle" x="264" y="-323.9" font-family="Times Roman,serif" font-size="14.00">Act_24</text>
</g>
<!-- 18&#45;&gt;19 -->
<g id="edge19" class="edge"><title>18&#45;&gt;19</title>
<path fill="none" stroke="black" d="M187.596,-327C196.088,-327 205.166,-327 213.993,-327"/>
<polygon fill="black" stroke="black" points="214.188,-330.5 224.188,-327 214.188,-323.5 214.188,-330.5"/>
</g>
<!-- 20 -->
<g id="node20" class="node"><title>20</title>
<ellipse fill="none" stroke="black" cx="380" cy="-327" rx="39.0967" ry="19.0919"/>
<text text-anchor="middle" x="380" y="-323.9" font-family="Times Roman,serif" font-size="14.00">Act_22</text>
</g>
<!-- 19&#45;&gt;20 -->
<g id="edge20" class="edge"><title>19&#45;&gt;20</title>
<path fill="none" stroke="black" d="M303.596,-327C312.088,-327 321.166,-327 329.993,-327"/>
<polygon fill="black" stroke="black" points="330.188,-330.5 340.188,-327 330.188,-323.5 330.188,-330.5"/>
</g>
<!-- 21 -->
<g id="node21" class="node"><title>21</title>
<ellipse fill="none" stroke="black" cx="36" cy="-383" rx="34.8574" ry="19.0919"/>
<text text-anchor="middle" x="36" y="-379.9" font-family="Times Roman,serif" font-size="14.00">Act_1</text>
</g>
<!-- 22 -->
<g id="node22" class="node"><title>22</title>
<ellipse fill="none" stroke="black" cx="148" cy="-383" rx="39.0967" ry="19.0919"/>
<text text-anchor="middle" x="148" y="-379.9" font-family="Times Roman,serif" font-size="14.00">Act_23</text>
</g>
<!-- 21&#45;&gt;22 -->
<g id="edge22" class="edge"><title>21&#45;&gt;22</title>
<path fill="none" stroke="black" d="M71.7454,-383C80.1199,-383 89.1928,-383 98.0605,-383"/>
<polygon fill="black" stroke="black" points="98.3221,-386.5 108.322,-383 98.3221,-379.5 98.3221,-386.5"/>
</g>
<!-- 23 -->
<g id="node23" class="node"><title>23</title>
<ellipse fill="none" stroke="black" cx="264" cy="-383" rx="39.0967" ry="19.0919"/>
<text text-anchor="middle" x="264" y="-379.9" font-family="Times Roman,serif" font-size="14.00">Act_22</text>
</g>
<!-- 22&#45;&gt;23 -->
<g id="edge23" class="edge"><title>22&#45;&gt;23</title>
<path fill="none" stroke="black" d="M187.596,-383C196.088,-383 205.166,-383 213.993,-383"/>
<polygon fill="black" stroke="black" points="214.188,-386.5 224.188,-383 214.188,-379.5 214.188,-386.5"/>
</g>
<!-- 24 -->
<g id="node24" class="node"><title>24</title>
<ellipse fill="none" stroke="black" cx="380" cy="-383" rx="39.0967" ry="19.0919"/>
<text text-anchor="middle" x="380" y="-379.9" font-family="Times Roman,serif" font-size="14.00">Act_24</text>
</g>
<!-- 23&#45;&gt;24 -->
<g id="edge24" class="edge"><title>23&#45;&gt;24</title>
<path fill="none" stroke="black" d="M303.596,-383C312.088,-383 321.166,-383 329.993,-383"/>
<polygon fill="black" stroke="black" points="330.188,-386.5 340.188,-383 330.188,-379.5 330.188,-386.5"/>
</g>
<!-- 25 -->
<g id="node25" class="node"><title>25</title>
<ellipse fill="none" stroke="black" cx="36" cy="-439" rx="34.8574" ry="19.0919"/>
<text text-anchor="middle" x="36" y="-435.9" font-family="Times Roman,serif" font-size="14.00">Act_1</text>
</g>
<!-- 26 -->
<g id="node26" class="node"><title>26</title>
<ellipse fill="none" stroke="black" cx="148" cy="-439" rx="39.0967" ry="19.0919"/>
<text text-anchor="middle" x="148" y="-435.9" font-family="Times Roman,serif" font-size="14.00">Act_23</text>
</g>
<!-- 25&#45;&gt;26 -->
<g id="edge26" class="edge"><title>25&#45;&gt;26</title>
<path fill="none" stroke="black" d="M71.7454,-439C80.1199,-439 89.1928,-439 98.0605,-439"/>
<polygon fill="black" stroke="black" points="98.3221,-442.5 108.322,-439 98.3221,-435.5 98.3221,-442.5"/>
</g>
<!-- 27 -->
<g id="node27" class="node"><title>27</title>
<ellipse fill="none" stroke="black" cx="264" cy="-439" rx="39.0967" ry="19.0919"/>
<text text-anchor="middle" x="264" y="-435.9" font-family="Times Roman,serif" font-size="14.00">Act_22</text>
</g>
<!-- 26&#45;&gt;27 -->
<g id="edge27" class="edge"><title>26&#45;&gt;27</title>
<path fill="none" stroke="black" d="M187.596,-439C196.088,-439 205.166,-439 213.993,-439"/>
<polygon fill="black" stroke="black" points="214.188,-442.5 224.188,-439 214.188,-435.5 214.188,-442.5"/>
</g>
<!-- 28 -->
<g id="node28" class="node"><title>28</title>
<ellipse fill="none" stroke="black" cx="380" cy="-439" rx="39.0967" ry="19.0919"/>
<text text-anchor="middle" x="380" y="-435.9" font-family="Times Roman,serif" font-size="14.00">Act_21</text>
</g>
<!-- 27&#45;&gt;28 -->
<g id="edge28" class="edge"><title>27&#45;&gt;28</title>
<path fill="none" stroke="black" d="M303.596,-439C312.088,-439 321.166,-439 329.993,-439"/>
<polygon fill="black" stroke="black" points="330.188,-442.5 340.188,-439 330.188,-435.5 330.188,-442.5"/>
</g>
<!-- 29 -->
<g id="node29" class="node"><title>29</title>
<ellipse fill="none" stroke="black" cx="36" cy="-495" rx="34.8574" ry="19.0919"/>
<text text-anchor="middle" x="36" y="-491.9" font-family="Times Roman,serif" font-size="14.00">Act_1</text>
</g>
<!-- 30 -->
<g id="node30" class="node"><title>30</title>
<ellipse fill="none" stroke="black" cx="148" cy="-495" rx="39.0967" ry="19.0919"/>
<text text-anchor="middle" x="148" y="-491.9" font-family="Times Roman,serif" font-size="14.00">Act_21</text>
</g>
<!-- 29&#45;&gt;30 -->
<g id="edge30" class="edge"><title>29&#45;&gt;30</title>
<path fill="none" stroke="black" d="M71.7454,-495C80.1199,-495 89.1928,-495 98.0605,-495"/>
<polygon fill="black" stroke="black" points="98.3221,-498.5 108.322,-495 98.3221,-491.5 98.3221,-498.5"/>
</g>
<!-- 31 -->
<g id="node31" class="node"><title>31</title>
<ellipse fill="none" stroke="black" cx="264" cy="-495" rx="39.0967" ry="19.0919"/>
<text text-anchor="middle" x="264" y="-491.9" font-family="Times Roman,serif" font-size="14.00">Act_22</text>
</g>
<!-- 30&#45;&gt;31 -->
<g id="edge31" class="edge"><title>30&#45;&gt;31</title>
<path fill="none" stroke="black" d="M187.596,-495C196.088,-495 205.166,-495 213.993,-495"/>
<polygon fill="black" stroke="black" points="214.188,-498.5 224.188,-495 214.188,-491.5 214.188,-498.5"/>
</g>
<!-- 32 -->
<g id="node32" class="node"><title>32</title>
<ellipse fill="none" stroke="black" cx="380" cy="-495" rx="39.0967" ry="19.0919"/>
<text text-anchor="middle" x="380" y="-491.9" font-family="Times Roman,serif" font-size="14.00">Act_24</text>
</g>
<!-- 31&#45;&gt;32 -->
<g id="edge32" class="edge"><title>31&#45;&gt;32</title>
<path fill="none" stroke="black" d="M303.596,-495C312.088,-495 321.166,-495 329.993,-495"/>
<polygon fill="black" stroke="black" points="330.188,-498.5 340.188,-495 330.188,-491.5 330.188,-498.5"/>
</g>
<!-- 33 -->
<g id="node33" class="node"><title>33</title>
<ellipse fill="none" stroke="black" cx="36" cy="-551" rx="34.8574" ry="19.0919"/>
<text text-anchor="middle" x="36" y="-547.9" font-family="Times Roman,serif" font-size="14.00">Act_1</text>
</g>
<!-- 34 -->
<g id="node34" class="node"><title>34</title>
<ellipse fill="none" stroke="black" cx="148" cy="-551" rx="39.0967" ry="19.0919"/>
<text text-anchor="middle" x="148" y="-547.9" font-family="Times Roman,serif" font-size="14.00">Act_21</text>
</g>
<!-- 33&#45;&gt;34 -->
<g id="edge34" class="edge"><title>33&#45;&gt;34</title>
<path fill="none" stroke="black" d="M71.7454,-551C80.1199,-551 89.1928,-551 98.0605,-551"/>
<polygon fill="black" stroke="black" points="98.3221,-554.5 108.322,-551 98.3221,-547.5 98.3221,-554.5"/>
</g>
<!-- 35 -->
<g id="node35" class="node"><title>35</title>
<ellipse fill="none" stroke="black" cx="264" cy="-551" rx="39.0967" ry="19.0919"/>
<text text-anchor="middle" x="264" y="-547.9" font-family="Times Roman,serif" font-size="14.00">Act_22</text>
</g>
<!-- 34&#45;&gt;35 -->
<g id="edge35" class="edge"><title>34&#45;&gt;35</title>
<path fill="none" stroke="black" d="M187.596,-551C196.088,-551 205.166,-551 213.993,-551"/>
<polygon fill="black" stroke="black" points="214.188,-554.5 224.188,-551 214.188,-547.5 214.188,-554.5"/>
</g>
<!-- 36 -->
<g id="node36" class="node"><title>36</title>
<ellipse fill="none" stroke="black" cx="380" cy="-551" rx="39.0967" ry="19.0919"/>
<text text-anchor="middle" x="380" y="-547.9" font-family="Times Roman,serif" font-size="14.00">Act_23</text>
</g>
<!-- 35&#45;&gt;36 -->
<g id="edge36" class="edge"><title>35&#45;&gt;36</title>
<path fill="none" stroke="black" d="M303.596,-551C312.088,-551 321.166,-551 329.993,-551"/>
<polygon fill="black" stroke="black" points="330.188,-554.5 340.188,-551 330.188,-547.5 330.188,-554.5"/>
</g>
</g>
</svg>
