<?xml version="1.0" encoding="UTF-8" standalone="no"?>
<!DOCTYPE svg PUBLIC "-//W3C//DTD SVG 1.1//EN"
 "http://www.w3.org/Graphics/SVG/1.1/DTD/svg11.dtd">
<!-- Generated by graphviz version 2.26.3 (20100126.1600)
 -->
<!-- Title: G Pages: 1 -->
<svg width="62pt" height="268pt"
 viewBox="0.00 0.00 62.00 268.00" xmlns="http://www.w3.org/2000/svg" xmlns:xlink="http://www.w3.org/1999/xlink">
<g id="graph1" class="graph" transform="scale(1 1) rotate(0) translate(4 264)">
<title>G</title>
<polygon fill="white" stroke="white" points="-4,5 -4,-264 59,-264 59,5 -4,5"/>
<!-- A -->
<g id="node1" class="node"><title>A</title>
<ellipse fill="none" stroke="black" cx="27" cy="-241" rx="27" ry="19.0919"/>
<text text-anchor="middle" x="27" y="-237.9" font-family="Times Roman,serif" font-size="14.00">A</text>
</g>
<!-- B -->
<g id="node3" class="node"><title>B</title>
<ellipse fill="none" stroke="black" cx="27" cy="-167" rx="27" ry="19.0919"/>
<text text-anchor="middle" x="27" y="-163.9" font-family="Times Roman,serif" font-size="14.00">B</text>
</g>
<!-- A&#45;&gt;B -->
<g id="edge2" class="edge"><title>A&#45;&gt;B</title>
<path fill="none" stroke="black" d="M21.0476,-222.327C20.2831,-214.264 20.0682,-204.648 20.4028,-195.711"/>
<polygon fill="black" stroke="black" points="23.8997,-195.871 21.0482,-185.667 16.9141,-195.422 23.8997,-195.871"/>
</g>
<!-- A&#45;&gt;B -->
<g id="edge6" class="edge"><title>A&#45;&gt;B</title>
<path fill="none" stroke="black" d="M32.9524,-222.327C33.7169,-214.264 33.9318,-204.648 33.5972,-195.711"/>
<polygon fill="black" stroke="black" points="37.0859,-195.422 32.9518,-185.667 30.1003,-195.871 37.0859,-195.422"/>
</g>
<!-- C -->
<g id="node4" class="node"><title>C</title>
<ellipse fill="none" stroke="black" cx="27" cy="-93" rx="27" ry="19.0919"/>
<text text-anchor="middle" x="27" y="-89.9" font-family="Times Roman,serif" font-size="14.00">C</text>
</g>
<!-- B&#45;&gt;C -->
<g id="edge3" class="edge"><title>B&#45;&gt;C</title>
<path fill="none" stroke="black" d="M21.0476,-148.327C20.2831,-140.264 20.0682,-130.648 20.4028,-121.711"/>
<polygon fill="black" stroke="black" points="23.8997,-121.871 21.0482,-111.667 16.9141,-121.422 23.8997,-121.871"/>
</g>
<!-- B&#45;&gt;C -->
<g id="edge7" class="edge"><title>B&#45;&gt;C</title>
<path fill="none" stroke="black" d="M32.9524,-148.327C33.7169,-140.264 33.9318,-130.648 33.5972,-121.711"/>
<polygon fill="black" stroke="black" points="37.0859,-121.422 32.9518,-111.667 30.1003,-121.871 37.0859,-121.422"/>
</g>
<!-- D -->
<g id="node5" class="node"><title>D</title>
<ellipse fill="none" stroke="black" cx="27" cy="-19" rx="27" ry="19.0919"/>
<text text-anchor="middle" x="27" y="-15.9" font-family="Times Roman,serif" font-size="14.00">D</text>
</g>
<!-- C&#45;&gt;D -->
<g id="edge4" class="edge"><title>C&#45;&gt;D</title>
<path fill="none" stroke="black" d="M21.0476,-74.3267C20.2831,-66.2639 20.0682,-56.6477 20.4028,-47.7115"/>
<polygon fill="black" stroke="black" points="23.8997,-47.8712 21.0482,-37.6674 16.9141,-47.4223 23.8997,-47.8712"/>
</g>
<!-- C&#45;&gt;D -->
<g id="edge8" class="edge"><title>C&#45;&gt;D</title>
<path fill="none" stroke="black" d="M32.9524,-74.3267C33.7169,-66.2639 33.9318,-56.6477 33.5972,-47.7115"/>
<polygon fill="black" stroke="black" points="37.0859,-47.4223 32.9518,-37.6674 30.1003,-47.8712 37.0859,-47.4223"/>
</g>
</g>
</svg>
