<?xml version="1.0" encoding="UTF-8" standalone="no"?>
<!DOCTYPE svg PUBLIC "-//W3C//DTD SVG 1.1//EN"
 "http://www.w3.org/Graphics/SVG/1.1/DTD/svg11.dtd">
<!-- Generated by graphviz version 2.26.3 (20100126.1600)
 -->
<!-- Title: graph_02 Pages: 1 -->
<svg width="328pt" height="132pt"
 viewBox="0.00 0.00 328.00 132.00" xmlns="http://www.w3.org/2000/svg" xmlns:xlink="http://www.w3.org/1999/xlink">
<g id="graph1" class="graph" transform="scale(1 1) rotate(0) translate(4 128)">
<title>graph_02</title>
<polygon fill="white" stroke="white" points="-4,5 -4,-128 325,-128 325,5 -4,5"/>
<text text-anchor="middle" x="160" y="-10.4" font-family="Times Roman,serif" font-size="14.00">Cluster set</text>
<g id="graph2" class="cluster"><title>cluster A</title>
<polygon fill="none" stroke="black" points="8,-35 8,-116 78,-116 78,-35 8,-35"/>
<text text-anchor="middle" x="43" y="-99.4" font-family="Times Roman,serif" font-size="14.00">Cluster A</text>
</g>
<g id="graph3" class="cluster"><title>cluster B</title>
<polygon fill="none" stroke="black" points="86,-35 86,-116 156,-116 156,-35 86,-35"/>
<text text-anchor="middle" x="121" y="-99.4" font-family="Times Roman,serif" font-size="14.00">Cluster B</text>
</g>
<g id="graph4" class="cluster"><title>cluster C</title>
<polygon fill="none" stroke="black" points="164,-35 164,-116 234,-116 234,-35 164,-35"/>
<text text-anchor="middle" x="199" y="-99.4" font-family="Times Roman,serif" font-size="14.00">Cluster C</text>
</g>
<g id="graph5" class="cluster"><title>cluster D</title>
<polygon fill="none" stroke="black" points="242,-35 242,-116 312,-116 312,-35 242,-35"/>
<text text-anchor="middle" x="277" y="-99.4" font-family="Times Roman,serif" font-size="14.00">Cluster D</text>
</g>
<!-- A -->
<g id="node2" class="node"><title>A</title>
<ellipse fill="none" stroke="green" cx="43" cy="-62" rx="27" ry="19.0919"/>
<text text-anchor="middle" x="43" y="-58.9" font-family="Times Roman,serif" font-size="14.00">A</text>
</g>
<!-- B -->
<g id="node4" class="node"><title>B</title>
<ellipse fill="none" stroke="green" cx="121" cy="-62" rx="27" ry="19.0919"/>
<text text-anchor="middle" x="121" y="-58.9" font-family="Times Roman,serif" font-size="14.00">B</text>
</g>
<!-- C -->
<g id="node6" class="node"><title>C</title>
<ellipse fill="none" stroke="green" cx="199" cy="-62" rx="27" ry="19.0919"/>
<text text-anchor="middle" x="199" y="-58.9" font-family="Times Roman,serif" font-size="14.00">C</text>
</g>
<!-- D -->
<g id="node8" class="node"><title>D</title>
<ellipse fill="none" stroke="green" cx="277" cy="-62" rx="27" ry="19.0919"/>
<text text-anchor="middle" x="277" y="-58.9" font-family="Times Roman,serif" font-size="14.00">D</text>
</g>
</g>
</svg>
