<?xml version="1.0" encoding="UTF-8" standalone="no"?>
<!DOCTYPE svg PUBLIC "-//W3C//DTD SVG 1.1//EN"
 "http://www.w3.org/Graphics/SVG/1.1/DTD/svg11.dtd">
<!-- Generated by graphviz version 2.26.3 (20100126.1600)
 -->
<!-- Title: Perl Pages: 1 -->
<svg width="454pt" height="228pt"
 viewBox="0.00 0.00 454.00 228.00" xmlns="http://www.w3.org/2000/svg" xmlns:xlink="http://www.w3.org/1999/xlink">
<g id="graph1" class="graph" transform="scale(1 1) rotate(0) translate(4 224)">
<title>Perl</title>
<polygon fill="white" stroke="white" points="-4,5 -4,-224 451,-224 451,5 -4,5"/>
<text text-anchor="middle" x="223" y="-10.4" font-family="Times Roman,serif" font-size="14.00">Cluster set</text>
<g id="graph2" class="cluster"><title>cluster a0</title>
<polygon fill="none" stroke="black" points="8,-35 8,-212 438,-212 438,-35 8,-35"/>
<text text-anchor="middle" x="223" y="-195.4" font-family="Times Roman,serif" font-size="14.00">Cluster a0</text>
</g>
<!-- a0 -->
<g id="node2" class="node"><title>a0</title>
<ellipse fill="none" stroke="black" cx="133" cy="-102" rx="27" ry="19.0919"/>
<text text-anchor="middle" x="133" y="-98.9" font-family="Times Roman,serif" font-size="14.00">a0</text>
</g>
<!-- a1 -->
<g id="node3" class="node"><title>a1</title>
<ellipse fill="none" stroke="black" cx="223" cy="-82" rx="27" ry="19.0919"/>
<text text-anchor="middle" x="223" y="-78.9" font-family="Times Roman,serif" font-size="14.00">a1</text>
</g>
<!-- a0&#45;&#45;a1 -->
<g id="edge3" class="edge"><title>a0&#45;&#45;a1</title>
<path fill="none" stroke="black" d="M155.247,-91.1405C167.532,-87.4249 182.887,-83.9004 195.871,-81.7759"/>
</g>
<!-- a0&#45;&#45;a1 -->
<g id="edge19" class="edge"><title>a0&#45;&#45;a1</title>
<path fill="none" stroke="black" d="M160.003,-102.245C172.947,-100.133 188.27,-96.6233 200.563,-92.9169"/>
</g>
<!-- a3 -->
<g id="node5" class="node"><title>a3</title>
<ellipse fill="none" stroke="black" cx="403" cy="-82" rx="27" ry="19.0919"/>
<text text-anchor="middle" x="403" y="-78.9" font-family="Times Roman,serif" font-size="14.00">a3</text>
</g>
<!-- a1&#45;&#45;a3 -->
<g id="edge5" class="edge"><title>a1&#45;&#45;a3</title>
<path fill="none" stroke="black" d="M237.925,-65.957C250.323,-57.4611 268.672,-48.6773 286,-45 309.477,-40.0178 316.523,-40.0178 340,-45 357.328,-48.6773 375.677,-57.4611 388.075,-65.957"/>
</g>
<!-- a1&#45;&#45;a3 -->
<g id="edge25" class="edge"><title>a1&#45;&#45;a3</title>
<path fill="none" stroke="black" d="M248.838,-75.89C259.922,-71.1864 273.238,-65.7083 286,-63 309.477,-58.0178 316.523,-58.0178 340,-63 352.762,-65.7083 366.078,-71.1864 377.162,-75.89"/>
</g>
<!-- a2 -->
<g id="node19" class="node"><title>a2</title>
<ellipse fill="none" stroke="black" cx="313" cy="-82" rx="27" ry="19.0919"/>
<text text-anchor="middle" x="313" y="-78.9" font-family="Times Roman,serif" font-size="14.00">a2</text>
</g>
<!-- a1&#45;&#45;a2 -->
<g id="edge21" class="edge"><title>a1&#45;&#45;a2</title>
<path fill="none" stroke="black" d="M250.003,-82C261.29,-82 274.387,-82 285.705,-82"/>
</g>
<!-- a3&#45;&#45;a0 -->
<g id="edge27" class="edge"><title>a3&#45;&#45;a0</title>
<path fill="none" stroke="black" d="M377.162,-88.11C366.078,-92.8136 352.762,-98.2917 340,-101 276.674,-114.439 200.063,-105.024 160.156,-101.378"/>
</g>
<!-- a3&#45;&#45;a0 -->
<g id="edge7" class="edge"><title>a3&#45;&#45;a0</title>
<path fill="none" stroke="black" d="M388.075,-98.043C375.677,-106.539 357.328,-115.323 340,-119 274.388,-132.924 194.512,-122.314 155.979,-112.048"/>
</g>
<!-- b0 -->
<g id="node8" class="node"><title>b0</title>
<ellipse fill="none" stroke="black" cx="133" cy="-158" rx="27" ry="19.0919"/>
<text text-anchor="middle" x="133" y="-154.9" font-family="Times Roman,serif" font-size="14.00">b0</text>
</g>
<!-- b1 -->
<g id="node9" class="node"><title>b1</title>
<ellipse fill="none" stroke="black" cx="223" cy="-158" rx="27" ry="19.0919"/>
<text text-anchor="middle" x="223" y="-154.9" font-family="Times Roman,serif" font-size="14.00">b1</text>
</g>
<!-- b0&#45;&#45;b1 -->
<g id="edge9" class="edge"><title>b0&#45;&#45;b1</title>
<path fill="none" stroke="black" d="M160.003,-158C171.29,-158 184.387,-158 195.705,-158"/>
</g>
<!-- b2 -->
<g id="node11" class="node"><title>b2</title>
<ellipse fill="none" stroke="black" cx="313" cy="-158" rx="27" ry="19.0919"/>
<text text-anchor="middle" x="313" y="-154.9" font-family="Times Roman,serif" font-size="14.00">b2</text>
</g>
<!-- b1&#45;&#45;b2 -->
<g id="edge11" class="edge"><title>b1&#45;&#45;b2</title>
<path fill="none" stroke="black" d="M250.003,-158C261.29,-158 274.387,-158 285.705,-158"/>
</g>
<!-- b3 -->
<g id="node13" class="node"><title>b3</title>
<ellipse fill="none" stroke="black" cx="403" cy="-158" rx="27" ry="19.0919"/>
<text text-anchor="middle" x="403" y="-154.9" font-family="Times Roman,serif" font-size="14.00">b3</text>
</g>
<!-- b2&#45;&#45;b3 -->
<g id="edge13" class="edge"><title>b2&#45;&#45;b3</title>
<path fill="none" stroke="black" d="M340.003,-158C351.29,-158 364.387,-158 375.705,-158"/>
</g>
<!-- x -->
<g id="node15" class="node"><title>x</title>
<ellipse fill="none" stroke="black" cx="43" cy="-130" rx="27" ry="19.0919"/>
<text text-anchor="middle" x="43" y="-126.9" font-family="Times Roman,serif" font-size="14.00">x</text>
</g>
<!-- x&#45;&#45;a0 -->
<g id="edge29" class="edge"><title>x&#45;&#45;a0</title>
<path fill="none" stroke="black" d="M63.874,-117.705C76.4405,-112.699 92.5707,-107.534 106.088,-104.133"/>
</g>
<!-- x&#45;&#45;a0 -->
<g id="edge15" class="edge"><title>x&#45;&#45;a0</title>
<path fill="none" stroke="black" d="M70.003,-127.844C83.5687,-124.426 99.7469,-119.239 112.312,-114.221"/>
</g>
<!-- x&#45;&#45;b0 -->
<g id="edge31" class="edge"><title>x&#45;&#45;b0</title>
<path fill="none" stroke="black" d="M70.003,-132.156C83.5687,-135.574 99.7469,-140.761 112.312,-145.779"/>
</g>
<!-- x&#45;&#45;b0 -->
<g id="edge17" class="edge"><title>x&#45;&#45;b0</title>
<path fill="none" stroke="black" d="M63.874,-142.295C76.4405,-147.301 92.5707,-152.466 106.088,-155.867"/>
</g>
<!-- a2&#45;&#45;a3 -->
<g id="edge23" class="edge"><title>a2&#45;&#45;a3</title>
<path fill="none" stroke="black" d="M340.003,-82C351.29,-82 364.387,-82 375.705,-82"/>
</g>
</g>
</svg>
