<?xml version="1.0" encoding="UTF-8" standalone="no"?>
<!DOCTYPE svg PUBLIC "-//W3C//DTD SVG 1.1//EN"
 "http://www.w3.org/Graphics/SVG/1.1/DTD/svg11.dtd">
<!-- Generated by graphviz version 2.30.1 (20130611.0131)
 -->
<!-- Title: graph_02 Pages: 1 -->
<svg width="328pt" height="122pt"
 viewBox="0.00 0.00 328.00 122.00" xmlns="http://www.w3.org/2000/svg" xmlns:xlink="http://www.w3.org/1999/xlink">
<g id="graph0" class="graph" transform="scale(1 1) rotate(0) translate(4 118)">
<title>graph_02</title>
<polygon fill="white" stroke="white" points="-4,5 -4,-118 325,-118 325,5 -4,5"/>
<text text-anchor="middle" x="160" y="-7.8" font-family="Times,serif" font-size="14.00">Cluster set</text>
<g id="clust1" class="cluster"><title>cluster A</title>
<polygon fill="none" stroke="black" points="8,-31 8,-106 78,-106 78,-31 8,-31"/>
<text text-anchor="middle" x="43" y="-90.8" font-family="Times,serif" font-size="14.00">Cluster A</text>
</g>
<g id="clust2" class="cluster"><title>cluster B</title>
<polygon fill="none" stroke="black" points="86,-31 86,-106 156,-106 156,-31 86,-31"/>
<text text-anchor="middle" x="121" y="-90.8" font-family="Times,serif" font-size="14.00">Cluster B</text>
</g>
<g id="clust3" class="cluster"><title>cluster C</title>
<polygon fill="none" stroke="black" points="164,-31 164,-106 234,-106 234,-31 164,-31"/>
<text text-anchor="middle" x="199" y="-90.8" font-family="Times,serif" font-size="14.00">Cluster C</text>
</g>
<g id="clust4" class="cluster"><title>cluster D</title>
<polygon fill="none" stroke="black" points="242,-31 242,-106 312,-106 312,-31 242,-31"/>
<text text-anchor="middle" x="277" y="-90.8" font-family="Times,serif" font-size="14.00">Cluster D</text>
</g>
<!-- A -->
<g id="node1" class="node"><title>A</title>
<ellipse fill="none" stroke="green" cx="43" cy="-57" rx="27" ry="18"/>
<text text-anchor="middle" x="43" y="-53.3" font-family="Times,serif" font-size="14.00">A</text>
</g>
<!-- B -->
<g id="node2" class="node"><title>B</title>
<ellipse fill="none" stroke="green" cx="121" cy="-57" rx="27" ry="18"/>
<text text-anchor="middle" x="121" y="-53.3" font-family="Times,serif" font-size="14.00">B</text>
</g>
<!-- C -->
<g id="node3" class="node"><title>C</title>
<ellipse fill="none" stroke="green" cx="199" cy="-57" rx="27" ry="18"/>
<text text-anchor="middle" x="199" y="-53.3" font-family="Times,serif" font-size="14.00">C</text>
</g>
<!-- D -->
<g id="node4" class="node"><title>D</title>
<ellipse fill="none" stroke="green" cx="277" cy="-57" rx="27" ry="18"/>
<text text-anchor="middle" x="277" y="-53.3" font-family="Times,serif" font-size="14.00">D</text>
</g>
</g>
</svg>
