<?xml version="1.0" encoding="UTF-8" standalone="no"?>
<!DOCTYPE svg PUBLIC "-//W3C//DTD SVG 1.1//EN"
 "http://www.w3.org/Graphics/SVG/1.1/DTD/svg11.dtd">
<!-- Generated by graphviz version 2.29.20121107.0545 (20121107.0545)
 -->
<!-- Title: Petersen Pages: 1 -->
<svg width="260pt" height="693pt"
 viewBox="0.00 0.00 260.00 693.00" xmlns="http://www.w3.org/2000/svg" xmlns:xlink="http://www.w3.org/1999/xlink">
<g id="graph0" class="graph" transform="scale(1 1) rotate(0) translate(4 689)">
<title>Petersen</title>
<polygon fill="white" stroke="white" points="-4,5 -4,-689 257,-689 257,5 -4,5"/>
<text text-anchor="middle" x="126" y="-52.8" font-family="Times,serif" font-size="14.00">Starting node: 5</text>
<text text-anchor="middle" x="126" y="-37.8" font-family="Times,serif" font-size="14.00">Path length: 3</text>
<text text-anchor="middle" x="126" y="-22.8" font-family="Times,serif" font-size="14.00">Allow cycles: 0</text>
<text text-anchor="middle" x="126" y="-7.8" font-family="Times,serif" font-size="14.00">Solutions: 12</text>
<!-- 1 -->
<g id="node1" class="node"><title>1</title>
<ellipse fill="none" stroke="black" cx="18" cy="-85" rx="17.8571" ry="17.8571"/>
<text text-anchor="middle" x="18" y="-81.3" font-family="Arial" font-size="14.00">5</text>
</g>
<!-- 2 -->
<g id="node2" class="node"><title>2</title>
<ellipse fill="none" stroke="black" cx="90" cy="-85" rx="17.8571" ry="17.8571"/>
<text text-anchor="middle" x="90" y="-81.3" font-family="Arial" font-size="14.00">8</text>
</g>
<!-- 1&#45;&#45;2 -->
<g id="edge1" class="edge"><title>1&#45;&#45;2</title>
<path fill="none" stroke="black" d="M35.945,-85C46.9508,-85 61.2364,-85 72.211,-85"/>
</g>
<!-- 3 -->
<g id="node3" class="node"><title>3</title>
<ellipse fill="none" stroke="black" cx="162" cy="-85" rx="17.8571" ry="17.8571"/>
<text text-anchor="middle" x="162" y="-81.3" font-family="Arial" font-size="14.00">6</text>
</g>
<!-- 2&#45;&#45;3 -->
<g id="edge2" class="edge"><title>2&#45;&#45;3</title>
<path fill="none" stroke="black" d="M107.945,-85C118.951,-85 133.236,-85 144.211,-85"/>
</g>
<!-- 4 -->
<g id="node4" class="node"><title>4</title>
<ellipse fill="none" stroke="black" cx="234" cy="-85" rx="17.8571" ry="17.8571"/>
<text text-anchor="middle" x="234" y="-81.3" font-family="Arial" font-size="14.00">9</text>
</g>
<!-- 3&#45;&#45;4 -->
<g id="edge3" class="edge"><title>3&#45;&#45;4</title>
<path fill="none" stroke="black" d="M179.945,-85C190.951,-85 205.236,-85 216.211,-85"/>
</g>
<!-- 5 -->
<g id="node5" class="node"><title>5</title>
<ellipse fill="none" stroke="black" cx="18" cy="-138" rx="17.8571" ry="17.8571"/>
<text text-anchor="middle" x="18" y="-134.3" font-family="Arial" font-size="14.00">5</text>
</g>
<!-- 6 -->
<g id="node6" class="node"><title>6</title>
<ellipse fill="none" stroke="black" cx="90" cy="-138" rx="17.8571" ry="17.8571"/>
<text text-anchor="middle" x="90" y="-134.3" font-family="Arial" font-size="14.00">8</text>
</g>
<!-- 5&#45;&#45;6 -->
<g id="edge4" class="edge"><title>5&#45;&#45;6</title>
<path fill="none" stroke="black" d="M35.945,-138C46.9508,-138 61.2364,-138 72.211,-138"/>
</g>
<!-- 7 -->
<g id="node7" class="node"><title>7</title>
<ellipse fill="none" stroke="black" cx="162" cy="-138" rx="17.8571" ry="17.8571"/>
<text text-anchor="middle" x="162" y="-134.3" font-family="Arial" font-size="14.00">6</text>
</g>
<!-- 6&#45;&#45;7 -->
<g id="edge5" class="edge"><title>6&#45;&#45;7</title>
<path fill="none" stroke="black" d="M107.945,-138C118.951,-138 133.236,-138 144.211,-138"/>
</g>
<!-- 8 -->
<g id="node8" class="node"><title>8</title>
<ellipse fill="none" stroke="black" cx="234" cy="-138" rx="17.8571" ry="17.8571"/>
<text text-anchor="middle" x="234" y="-134.3" font-family="Arial" font-size="14.00">1</text>
</g>
<!-- 7&#45;&#45;8 -->
<g id="edge6" class="edge"><title>7&#45;&#45;8</title>
<path fill="none" stroke="black" d="M179.945,-138C190.951,-138 205.236,-138 216.211,-138"/>
</g>
<!-- 9 -->
<g id="node9" class="node"><title>9</title>
<ellipse fill="none" stroke="black" cx="18" cy="-191" rx="17.8571" ry="17.8571"/>
<text text-anchor="middle" x="18" y="-187.3" font-family="Arial" font-size="14.00">5</text>
</g>
<!-- 10 -->
<g id="node10" class="node"><title>10</title>
<ellipse fill="none" stroke="black" cx="90" cy="-191" rx="17.8571" ry="17.8571"/>
<text text-anchor="middle" x="90" y="-187.3" font-family="Arial" font-size="14.00">8</text>
</g>
<!-- 9&#45;&#45;10 -->
<g id="edge7" class="edge"><title>9&#45;&#45;10</title>
<path fill="none" stroke="black" d="M35.945,-191C46.9508,-191 61.2364,-191 72.211,-191"/>
</g>
<!-- 11 -->
<g id="node11" class="node"><title>11</title>
<ellipse fill="none" stroke="black" cx="162" cy="-191" rx="17.8571" ry="17.8571"/>
<text text-anchor="middle" x="162" y="-187.3" font-family="Arial" font-size="14.00">3</text>
</g>
<!-- 10&#45;&#45;11 -->
<g id="edge8" class="edge"><title>10&#45;&#45;11</title>
<path fill="none" stroke="black" d="M107.945,-191C118.951,-191 133.236,-191 144.211,-191"/>
</g>
<!-- 12 -->
<g id="node12" class="node"><title>12</title>
<ellipse fill="none" stroke="black" cx="234" cy="-191" rx="17.8571" ry="17.8571"/>
<text text-anchor="middle" x="234" y="-187.3" font-family="Arial" font-size="14.00">2</text>
</g>
<!-- 11&#45;&#45;12 -->
<g id="edge9" class="edge"><title>11&#45;&#45;12</title>
<path fill="none" stroke="black" d="M179.945,-191C190.951,-191 205.236,-191 216.211,-191"/>
</g>
<!-- 13 -->
<g id="node13" class="node"><title>13</title>
<ellipse fill="none" stroke="black" cx="18" cy="-244" rx="17.8571" ry="17.8571"/>
<text text-anchor="middle" x="18" y="-240.3" font-family="Arial" font-size="14.00">5</text>
</g>
<!-- 14 -->
<g id="node14" class="node"><title>14</title>
<ellipse fill="none" stroke="black" cx="90" cy="-244" rx="17.8571" ry="17.8571"/>
<text text-anchor="middle" x="90" y="-240.3" font-family="Arial" font-size="14.00">8</text>
</g>
<!-- 13&#45;&#45;14 -->
<g id="edge10" class="edge"><title>13&#45;&#45;14</title>
<path fill="none" stroke="black" d="M35.945,-244C46.9508,-244 61.2364,-244 72.211,-244"/>
</g>
<!-- 15 -->
<g id="node15" class="node"><title>15</title>
<ellipse fill="none" stroke="black" cx="162" cy="-244" rx="17.8571" ry="17.8571"/>
<text text-anchor="middle" x="162" y="-240.3" font-family="Arial" font-size="14.00">3</text>
</g>
<!-- 14&#45;&#45;15 -->
<g id="edge11" class="edge"><title>14&#45;&#45;15</title>
<path fill="none" stroke="black" d="M107.945,-244C118.951,-244 133.236,-244 144.211,-244"/>
</g>
<!-- 16 -->
<g id="node16" class="node"><title>16</title>
<ellipse fill="none" stroke="black" cx="234" cy="-244" rx="17.8571" ry="17.8571"/>
<text text-anchor="middle" x="234" y="-240.3" font-family="Arial" font-size="14.00">4</text>
</g>
<!-- 15&#45;&#45;16 -->
<g id="edge12" class="edge"><title>15&#45;&#45;16</title>
<path fill="none" stroke="black" d="M179.945,-244C190.951,-244 205.236,-244 216.211,-244"/>
</g>
<!-- 17 -->
<g id="node17" class="node"><title>17</title>
<ellipse fill="none" stroke="black" cx="18" cy="-297" rx="17.8571" ry="17.8571"/>
<text text-anchor="middle" x="18" y="-293.3" font-family="Arial" font-size="14.00">5</text>
</g>
<!-- 18 -->
<g id="node18" class="node"><title>18</title>
<ellipse fill="none" stroke="black" cx="90" cy="-297" rx="17.8571" ry="17.8571"/>
<text text-anchor="middle" x="90" y="-293.3" font-family="Arial" font-size="14.00">7</text>
</g>
<!-- 17&#45;&#45;18 -->
<g id="edge13" class="edge"><title>17&#45;&#45;18</title>
<path fill="none" stroke="black" d="M35.945,-297C46.9508,-297 61.2364,-297 72.211,-297"/>
</g>
<!-- 19 -->
<g id="node19" class="node"><title>19</title>
<ellipse fill="none" stroke="black" cx="162" cy="-297" rx="17.8571" ry="17.8571"/>
<text text-anchor="middle" x="162" y="-293.3" font-family="Arial" font-size="14.00">9</text>
</g>
<!-- 18&#45;&#45;19 -->
<g id="edge14" class="edge"><title>18&#45;&#45;19</title>
<path fill="none" stroke="black" d="M107.945,-297C118.951,-297 133.236,-297 144.211,-297"/>
</g>
<!-- 20 -->
<g id="node20" class="node"><title>20</title>
<ellipse fill="none" stroke="black" cx="234" cy="-297" rx="17.8571" ry="17.8571"/>
<text text-anchor="middle" x="234" y="-293.3" font-family="Arial" font-size="14.00">6</text>
</g>
<!-- 19&#45;&#45;20 -->
<g id="edge15" class="edge"><title>19&#45;&#45;20</title>
<path fill="none" stroke="black" d="M179.945,-297C190.951,-297 205.236,-297 216.211,-297"/>
</g>
<!-- 21 -->
<g id="node21" class="node"><title>21</title>
<ellipse fill="none" stroke="black" cx="18" cy="-350" rx="17.8571" ry="17.8571"/>
<text text-anchor="middle" x="18" y="-346.3" font-family="Arial" font-size="14.00">5</text>
</g>
<!-- 22 -->
<g id="node22" class="node"><title>22</title>
<ellipse fill="none" stroke="black" cx="90" cy="-350" rx="17.8571" ry="17.8571"/>
<text text-anchor="middle" x="90" y="-346.3" font-family="Arial" font-size="14.00">7</text>
</g>
<!-- 21&#45;&#45;22 -->
<g id="edge16" class="edge"><title>21&#45;&#45;22</title>
<path fill="none" stroke="black" d="M35.945,-350C46.9508,-350 61.2364,-350 72.211,-350"/>
</g>
<!-- 23 -->
<g id="node23" class="node"><title>23</title>
<ellipse fill="none" stroke="black" cx="162" cy="-350" rx="17.8571" ry="17.8571"/>
<text text-anchor="middle" x="162" y="-346.3" font-family="Arial" font-size="14.00">9</text>
</g>
<!-- 22&#45;&#45;23 -->
<g id="edge17" class="edge"><title>22&#45;&#45;23</title>
<path fill="none" stroke="black" d="M107.945,-350C118.951,-350 133.236,-350 144.211,-350"/>
</g>
<!-- 24 -->
<g id="node24" class="node"><title>24</title>
<ellipse fill="none" stroke="black" cx="234" cy="-350" rx="17.8571" ry="17.8571"/>
<text text-anchor="middle" x="234" y="-346.3" font-family="Arial" font-size="14.00">4</text>
</g>
<!-- 23&#45;&#45;24 -->
<g id="edge18" class="edge"><title>23&#45;&#45;24</title>
<path fill="none" stroke="black" d="M179.945,-350C190.951,-350 205.236,-350 216.211,-350"/>
</g>
<!-- 25 -->
<g id="node25" class="node"><title>25</title>
<ellipse fill="none" stroke="black" cx="18" cy="-403" rx="17.8571" ry="17.8571"/>
<text text-anchor="middle" x="18" y="-399.3" font-family="Arial" font-size="14.00">5</text>
</g>
<!-- 26 -->
<g id="node26" class="node"><title>26</title>
<ellipse fill="none" stroke="black" cx="90" cy="-403" rx="17.8571" ry="17.8571"/>
<text text-anchor="middle" x="90" y="-399.3" font-family="Arial" font-size="14.00">7</text>
</g>
<!-- 25&#45;&#45;26 -->
<g id="edge19" class="edge"><title>25&#45;&#45;26</title>
<path fill="none" stroke="black" d="M35.945,-403C46.9508,-403 61.2364,-403 72.211,-403"/>
</g>
<!-- 27 -->
<g id="node27" class="node"><title>27</title>
<ellipse fill="none" stroke="black" cx="162" cy="-403" rx="17.8571" ry="17.8571"/>
<text text-anchor="middle" x="162" y="-399.3" font-family="Arial" font-size="14.00">2</text>
</g>
<!-- 26&#45;&#45;27 -->
<g id="edge20" class="edge"><title>26&#45;&#45;27</title>
<path fill="none" stroke="black" d="M107.945,-403C118.951,-403 133.236,-403 144.211,-403"/>
</g>
<!-- 28 -->
<g id="node28" class="node"><title>28</title>
<ellipse fill="none" stroke="black" cx="234" cy="-403" rx="17.8571" ry="17.8571"/>
<text text-anchor="middle" x="234" y="-399.3" font-family="Arial" font-size="14.00">1</text>
</g>
<!-- 27&#45;&#45;28 -->
<g id="edge21" class="edge"><title>27&#45;&#45;28</title>
<path fill="none" stroke="black" d="M179.945,-403C190.951,-403 205.236,-403 216.211,-403"/>
</g>
<!-- 29 -->
<g id="node29" class="node"><title>29</title>
<ellipse fill="none" stroke="black" cx="18" cy="-456" rx="17.8571" ry="17.8571"/>
<text text-anchor="middle" x="18" y="-452.3" font-family="Arial" font-size="14.00">5</text>
</g>
<!-- 30 -->
<g id="node30" class="node"><title>30</title>
<ellipse fill="none" stroke="black" cx="90" cy="-456" rx="17.8571" ry="17.8571"/>
<text text-anchor="middle" x="90" y="-452.3" font-family="Arial" font-size="14.00">7</text>
</g>
<!-- 29&#45;&#45;30 -->
<g id="edge22" class="edge"><title>29&#45;&#45;30</title>
<path fill="none" stroke="black" d="M35.945,-456C46.9508,-456 61.2364,-456 72.211,-456"/>
</g>
<!-- 31 -->
<g id="node31" class="node"><title>31</title>
<ellipse fill="none" stroke="black" cx="162" cy="-456" rx="17.8571" ry="17.8571"/>
<text text-anchor="middle" x="162" y="-452.3" font-family="Arial" font-size="14.00">2</text>
</g>
<!-- 30&#45;&#45;31 -->
<g id="edge23" class="edge"><title>30&#45;&#45;31</title>
<path fill="none" stroke="black" d="M107.945,-456C118.951,-456 133.236,-456 144.211,-456"/>
</g>
<!-- 32 -->
<g id="node32" class="node"><title>32</title>
<ellipse fill="none" stroke="black" cx="234" cy="-456" rx="17.8571" ry="17.8571"/>
<text text-anchor="middle" x="234" y="-452.3" font-family="Arial" font-size="14.00">3</text>
</g>
<!-- 31&#45;&#45;32 -->
<g id="edge24" class="edge"><title>31&#45;&#45;32</title>
<path fill="none" stroke="black" d="M179.945,-456C190.951,-456 205.236,-456 216.211,-456"/>
</g>
<!-- 33 -->
<g id="node33" class="node"><title>33</title>
<ellipse fill="none" stroke="black" cx="18" cy="-509" rx="17.8571" ry="17.8571"/>
<text text-anchor="middle" x="18" y="-505.3" font-family="Arial" font-size="14.00">5</text>
</g>
<!-- 34 -->
<g id="node34" class="node"><title>34</title>
<ellipse fill="none" stroke="black" cx="90" cy="-509" rx="17.8571" ry="17.8571"/>
<text text-anchor="middle" x="90" y="-505.3" font-family="Arial" font-size="14.00">0</text>
</g>
<!-- 33&#45;&#45;34 -->
<g id="edge25" class="edge"><title>33&#45;&#45;34</title>
<path fill="none" stroke="black" d="M35.945,-509C46.9508,-509 61.2364,-509 72.211,-509"/>
</g>
<!-- 35 -->
<g id="node35" class="node"><title>35</title>
<ellipse fill="none" stroke="black" cx="162" cy="-509" rx="17.8571" ry="17.8571"/>
<text text-anchor="middle" x="162" y="-505.3" font-family="Arial" font-size="14.00">4</text>
</g>
<!-- 34&#45;&#45;35 -->
<g id="edge26" class="edge"><title>34&#45;&#45;35</title>
<path fill="none" stroke="black" d="M107.945,-509C118.951,-509 133.236,-509 144.211,-509"/>
</g>
<!-- 36 -->
<g id="node36" class="node"><title>36</title>
<ellipse fill="none" stroke="black" cx="234" cy="-509" rx="17.8571" ry="17.8571"/>
<text text-anchor="middle" x="234" y="-505.3" font-family="Arial" font-size="14.00">9</text>
</g>
<!-- 35&#45;&#45;36 -->
<g id="edge27" class="edge"><title>35&#45;&#45;36</title>
<path fill="none" stroke="black" d="M179.945,-509C190.951,-509 205.236,-509 216.211,-509"/>
</g>
<!-- 37 -->
<g id="node37" class="node"><title>37</title>
<ellipse fill="none" stroke="black" cx="18" cy="-562" rx="17.8571" ry="17.8571"/>
<text text-anchor="middle" x="18" y="-558.3" font-family="Arial" font-size="14.00">5</text>
</g>
<!-- 38 -->
<g id="node38" class="node"><title>38</title>
<ellipse fill="none" stroke="black" cx="90" cy="-562" rx="17.8571" ry="17.8571"/>
<text text-anchor="middle" x="90" y="-558.3" font-family="Arial" font-size="14.00">0</text>
</g>
<!-- 37&#45;&#45;38 -->
<g id="edge28" class="edge"><title>37&#45;&#45;38</title>
<path fill="none" stroke="black" d="M35.945,-562C46.9508,-562 61.2364,-562 72.211,-562"/>
</g>
<!-- 39 -->
<g id="node39" class="node"><title>39</title>
<ellipse fill="none" stroke="black" cx="162" cy="-562" rx="17.8571" ry="17.8571"/>
<text text-anchor="middle" x="162" y="-558.3" font-family="Arial" font-size="14.00">4</text>
</g>
<!-- 38&#45;&#45;39 -->
<g id="edge29" class="edge"><title>38&#45;&#45;39</title>
<path fill="none" stroke="black" d="M107.945,-562C118.951,-562 133.236,-562 144.211,-562"/>
</g>
<!-- 40 -->
<g id="node40" class="node"><title>40</title>
<ellipse fill="none" stroke="black" cx="234" cy="-562" rx="17.8571" ry="17.8571"/>
<text text-anchor="middle" x="234" y="-558.3" font-family="Arial" font-size="14.00">3</text>
</g>
<!-- 39&#45;&#45;40 -->
<g id="edge30" class="edge"><title>39&#45;&#45;40</title>
<path fill="none" stroke="black" d="M179.945,-562C190.951,-562 205.236,-562 216.211,-562"/>
</g>
<!-- 41 -->
<g id="node41" class="node"><title>41</title>
<ellipse fill="none" stroke="black" cx="18" cy="-615" rx="17.8571" ry="17.8571"/>
<text text-anchor="middle" x="18" y="-611.3" font-family="Arial" font-size="14.00">5</text>
</g>
<!-- 42 -->
<g id="node42" class="node"><title>42</title>
<ellipse fill="none" stroke="black" cx="90" cy="-615" rx="17.8571" ry="17.8571"/>
<text text-anchor="middle" x="90" y="-611.3" font-family="Arial" font-size="14.00">0</text>
</g>
<!-- 41&#45;&#45;42 -->
<g id="edge31" class="edge"><title>41&#45;&#45;42</title>
<path fill="none" stroke="black" d="M35.945,-615C46.9508,-615 61.2364,-615 72.211,-615"/>
</g>
<!-- 43 -->
<g id="node43" class="node"><title>43</title>
<ellipse fill="none" stroke="black" cx="162" cy="-615" rx="17.8571" ry="17.8571"/>
<text text-anchor="middle" x="162" y="-611.3" font-family="Arial" font-size="14.00">1</text>
</g>
<!-- 42&#45;&#45;43 -->
<g id="edge32" class="edge"><title>42&#45;&#45;43</title>
<path fill="none" stroke="black" d="M107.945,-615C118.951,-615 133.236,-615 144.211,-615"/>
</g>
<!-- 44 -->
<g id="node44" class="node"><title>44</title>
<ellipse fill="none" stroke="black" cx="234" cy="-615" rx="17.8571" ry="17.8571"/>
<text text-anchor="middle" x="234" y="-611.3" font-family="Arial" font-size="14.00">6</text>
</g>
<!-- 43&#45;&#45;44 -->
<g id="edge33" class="edge"><title>43&#45;&#45;44</title>
<path fill="none" stroke="black" d="M179.945,-615C190.951,-615 205.236,-615 216.211,-615"/>
</g>
<!-- 45 -->
<g id="node45" class="node"><title>45</title>
<ellipse fill="none" stroke="black" cx="18" cy="-668" rx="17.8571" ry="17.8571"/>
<text text-anchor="middle" x="18" y="-664.3" font-family="Arial" font-size="14.00">5</text>
</g>
<!-- 46 -->
<g id="node46" class="node"><title>46</title>
<ellipse fill="none" stroke="black" cx="90" cy="-668" rx="17.8571" ry="17.8571"/>
<text text-anchor="middle" x="90" y="-664.3" font-family="Arial" font-size="14.00">0</text>
</g>
<!-- 45&#45;&#45;46 -->
<g id="edge34" class="edge"><title>45&#45;&#45;46</title>
<path fill="none" stroke="black" d="M35.945,-668C46.9508,-668 61.2364,-668 72.211,-668"/>
</g>
<!-- 47 -->
<g id="node47" class="node"><title>47</title>
<ellipse fill="none" stroke="black" cx="162" cy="-668" rx="17.8571" ry="17.8571"/>
<text text-anchor="middle" x="162" y="-664.3" font-family="Arial" font-size="14.00">1</text>
</g>
<!-- 46&#45;&#45;47 -->
<g id="edge35" class="edge"><title>46&#45;&#45;47</title>
<path fill="none" stroke="black" d="M107.945,-668C118.951,-668 133.236,-668 144.211,-668"/>
</g>
<!-- 48 -->
<g id="node48" class="node"><title>48</title>
<ellipse fill="none" stroke="black" cx="234" cy="-668" rx="17.8571" ry="17.8571"/>
<text text-anchor="middle" x="234" y="-664.3" font-family="Arial" font-size="14.00">2</text>
</g>
<!-- 47&#45;&#45;48 -->
<g id="edge36" class="edge"><title>47&#45;&#45;48</title>
<path fill="none" stroke="black" d="M179.945,-668C190.951,-668 205.236,-668 216.211,-668"/>
</g>
</g>
</svg>
