<?xml version="1.0" encoding="UTF-8" standalone="no"?>
<!DOCTYPE svg PUBLIC "-//W3C//DTD SVG 1.1//EN"
 "http://www.w3.org/Graphics/SVG/1.1/DTD/svg11.dtd">
<!-- Generated by graphviz version 2.26.3 (20100126.1600)
 -->
<!-- Title: Petersen Pages: 1 -->
<svg width="332pt" height="746pt"
 viewBox="0.00 0.00 332.00 746.00" xmlns="http://www.w3.org/2000/svg" xmlns:xlink="http://www.w3.org/1999/xlink">
<g id="graph1" class="graph" transform="scale(1 1) rotate(0) translate(4 742)">
<title>Petersen</title>
<polygon fill="white" stroke="white" points="-4,5 -4,-742 329,-742 329,5 -4,5"/>
<text text-anchor="middle" x="162" y="-67.4" font-family="Times Roman,serif" font-size="14.00">Starting node: 5</text>
<text text-anchor="middle" x="162" y="-48.4" font-family="Times Roman,serif" font-size="14.00">Path length: 3</text>
<text text-anchor="middle" x="162" y="-29.4" font-family="Times Roman,serif" font-size="14.00">Allow cycles: 0</text>
<text text-anchor="middle" x="162" y="-10.4" font-family="Times Roman,serif" font-size="14.00">Solutions: 12</text>
<!-- 1 -->
<g id="node1" class="node"><title>1</title>
<ellipse fill="none" stroke="black" cx="27" cy="-103" rx="27" ry="19.0919"/>
<text text-anchor="middle" x="27" y="-99.9" font-family="Times Roman,serif" font-size="14.00">5</text>
</g>
<!-- 2 -->
<g id="node2" class="node"><title>2</title>
<ellipse fill="none" stroke="black" cx="117" cy="-103" rx="27" ry="19.0919"/>
<text text-anchor="middle" x="117" y="-99.9" font-family="Times Roman,serif" font-size="14.00">8</text>
</g>
<!-- 1&#45;&#45;2 -->
<g id="edge2" class="edge"><title>1&#45;&#45;2</title>
<path fill="none" stroke="black" d="M54.003,-103C65.2905,-103 78.3867,-103 89.705,-103"/>
</g>
<!-- 3 -->
<g id="node3" class="node"><title>3</title>
<ellipse fill="none" stroke="black" cx="207" cy="-103" rx="27" ry="19.0919"/>
<text text-anchor="middle" x="207" y="-99.9" font-family="Times Roman,serif" font-size="14.00">6</text>
</g>
<!-- 2&#45;&#45;3 -->
<g id="edge3" class="edge"><title>2&#45;&#45;3</title>
<path fill="none" stroke="black" d="M144.003,-103C155.29,-103 168.387,-103 179.705,-103"/>
</g>
<!-- 4 -->
<g id="node4" class="node"><title>4</title>
<ellipse fill="none" stroke="black" cx="297" cy="-103" rx="27" ry="19.0919"/>
<text text-anchor="middle" x="297" y="-99.9" font-family="Times Roman,serif" font-size="14.00">9</text>
</g>
<!-- 3&#45;&#45;4 -->
<g id="edge4" class="edge"><title>3&#45;&#45;4</title>
<path fill="none" stroke="black" d="M234.003,-103C245.29,-103 258.387,-103 269.705,-103"/>
</g>
<!-- 5 -->
<g id="node5" class="node"><title>5</title>
<ellipse fill="none" stroke="black" cx="27" cy="-159" rx="27" ry="19.0919"/>
<text text-anchor="middle" x="27" y="-155.9" font-family="Times Roman,serif" font-size="14.00">5</text>
</g>
<!-- 6 -->
<g id="node6" class="node"><title>6</title>
<ellipse fill="none" stroke="black" cx="117" cy="-159" rx="27" ry="19.0919"/>
<text text-anchor="middle" x="117" y="-155.9" font-family="Times Roman,serif" font-size="14.00">8</text>
</g>
<!-- 5&#45;&#45;6 -->
<g id="edge6" class="edge"><title>5&#45;&#45;6</title>
<path fill="none" stroke="black" d="M54.003,-159C65.2905,-159 78.3867,-159 89.705,-159"/>
</g>
<!-- 7 -->
<g id="node7" class="node"><title>7</title>
<ellipse fill="none" stroke="black" cx="207" cy="-159" rx="27" ry="19.0919"/>
<text text-anchor="middle" x="207" y="-155.9" font-family="Times Roman,serif" font-size="14.00">6</text>
</g>
<!-- 6&#45;&#45;7 -->
<g id="edge7" class="edge"><title>6&#45;&#45;7</title>
<path fill="none" stroke="black" d="M144.003,-159C155.29,-159 168.387,-159 179.705,-159"/>
</g>
<!-- 8 -->
<g id="node8" class="node"><title>8</title>
<ellipse fill="none" stroke="black" cx="297" cy="-159" rx="27" ry="19.0919"/>
<text text-anchor="middle" x="297" y="-155.9" font-family="Times Roman,serif" font-size="14.00">1</text>
</g>
<!-- 7&#45;&#45;8 -->
<g id="edge8" class="edge"><title>7&#45;&#45;8</title>
<path fill="none" stroke="black" d="M234.003,-159C245.29,-159 258.387,-159 269.705,-159"/>
</g>
<!-- 9 -->
<g id="node9" class="node"><title>9</title>
<ellipse fill="none" stroke="black" cx="27" cy="-215" rx="27" ry="19.0919"/>
<text text-anchor="middle" x="27" y="-211.9" font-family="Times Roman,serif" font-size="14.00">5</text>
</g>
<!-- 10 -->
<g id="node10" class="node"><title>10</title>
<ellipse fill="none" stroke="black" cx="117" cy="-215" rx="27" ry="19.0919"/>
<text text-anchor="middle" x="117" y="-211.9" font-family="Times Roman,serif" font-size="14.00">8</text>
</g>
<!-- 9&#45;&#45;10 -->
<g id="edge10" class="edge"><title>9&#45;&#45;10</title>
<path fill="none" stroke="black" d="M54.003,-215C65.2905,-215 78.3867,-215 89.705,-215"/>
</g>
<!-- 11 -->
<g id="node11" class="node"><title>11</title>
<ellipse fill="none" stroke="black" cx="207" cy="-215" rx="27" ry="19.0919"/>
<text text-anchor="middle" x="207" y="-211.9" font-family="Times Roman,serif" font-size="14.00">3</text>
</g>
<!-- 10&#45;&#45;11 -->
<g id="edge11" class="edge"><title>10&#45;&#45;11</title>
<path fill="none" stroke="black" d="M144.003,-215C155.29,-215 168.387,-215 179.705,-215"/>
</g>
<!-- 12 -->
<g id="node12" class="node"><title>12</title>
<ellipse fill="none" stroke="black" cx="297" cy="-215" rx="27" ry="19.0919"/>
<text text-anchor="middle" x="297" y="-211.9" font-family="Times Roman,serif" font-size="14.00">4</text>
</g>
<!-- 11&#45;&#45;12 -->
<g id="edge12" class="edge"><title>11&#45;&#45;12</title>
<path fill="none" stroke="black" d="M234.003,-215C245.29,-215 258.387,-215 269.705,-215"/>
</g>
<!-- 13 -->
<g id="node13" class="node"><title>13</title>
<ellipse fill="none" stroke="black" cx="27" cy="-271" rx="27" ry="19.0919"/>
<text text-anchor="middle" x="27" y="-267.9" font-family="Times Roman,serif" font-size="14.00">5</text>
</g>
<!-- 14 -->
<g id="node14" class="node"><title>14</title>
<ellipse fill="none" stroke="black" cx="117" cy="-271" rx="27" ry="19.0919"/>
<text text-anchor="middle" x="117" y="-267.9" font-family="Times Roman,serif" font-size="14.00">8</text>
</g>
<!-- 13&#45;&#45;14 -->
<g id="edge14" class="edge"><title>13&#45;&#45;14</title>
<path fill="none" stroke="black" d="M54.003,-271C65.2905,-271 78.3867,-271 89.705,-271"/>
</g>
<!-- 15 -->
<g id="node15" class="node"><title>15</title>
<ellipse fill="none" stroke="black" cx="207" cy="-271" rx="27" ry="19.0919"/>
<text text-anchor="middle" x="207" y="-267.9" font-family="Times Roman,serif" font-size="14.00">3</text>
</g>
<!-- 14&#45;&#45;15 -->
<g id="edge15" class="edge"><title>14&#45;&#45;15</title>
<path fill="none" stroke="black" d="M144.003,-271C155.29,-271 168.387,-271 179.705,-271"/>
</g>
<!-- 16 -->
<g id="node16" class="node"><title>16</title>
<ellipse fill="none" stroke="black" cx="297" cy="-271" rx="27" ry="19.0919"/>
<text text-anchor="middle" x="297" y="-267.9" font-family="Times Roman,serif" font-size="14.00">2</text>
</g>
<!-- 15&#45;&#45;16 -->
<g id="edge16" class="edge"><title>15&#45;&#45;16</title>
<path fill="none" stroke="black" d="M234.003,-271C245.29,-271 258.387,-271 269.705,-271"/>
</g>
<!-- 17 -->
<g id="node17" class="node"><title>17</title>
<ellipse fill="none" stroke="black" cx="27" cy="-327" rx="27" ry="19.0919"/>
<text text-anchor="middle" x="27" y="-323.9" font-family="Times Roman,serif" font-size="14.00">5</text>
</g>
<!-- 18 -->
<g id="node18" class="node"><title>18</title>
<ellipse fill="none" stroke="black" cx="117" cy="-327" rx="27" ry="19.0919"/>
<text text-anchor="middle" x="117" y="-323.9" font-family="Times Roman,serif" font-size="14.00">7</text>
</g>
<!-- 17&#45;&#45;18 -->
<g id="edge18" class="edge"><title>17&#45;&#45;18</title>
<path fill="none" stroke="black" d="M54.003,-327C65.2905,-327 78.3867,-327 89.705,-327"/>
</g>
<!-- 19 -->
<g id="node19" class="node"><title>19</title>
<ellipse fill="none" stroke="black" cx="207" cy="-327" rx="27" ry="19.0919"/>
<text text-anchor="middle" x="207" y="-323.9" font-family="Times Roman,serif" font-size="14.00">9</text>
</g>
<!-- 18&#45;&#45;19 -->
<g id="edge19" class="edge"><title>18&#45;&#45;19</title>
<path fill="none" stroke="black" d="M144.003,-327C155.29,-327 168.387,-327 179.705,-327"/>
</g>
<!-- 20 -->
<g id="node20" class="node"><title>20</title>
<ellipse fill="none" stroke="black" cx="297" cy="-327" rx="27" ry="19.0919"/>
<text text-anchor="middle" x="297" y="-323.9" font-family="Times Roman,serif" font-size="14.00">6</text>
</g>
<!-- 19&#45;&#45;20 -->
<g id="edge20" class="edge"><title>19&#45;&#45;20</title>
<path fill="none" stroke="black" d="M234.003,-327C245.29,-327 258.387,-327 269.705,-327"/>
</g>
<!-- 21 -->
<g id="node21" class="node"><title>21</title>
<ellipse fill="none" stroke="black" cx="27" cy="-383" rx="27" ry="19.0919"/>
<text text-anchor="middle" x="27" y="-379.9" font-family="Times Roman,serif" font-size="14.00">5</text>
</g>
<!-- 22 -->
<g id="node22" class="node"><title>22</title>
<ellipse fill="none" stroke="black" cx="117" cy="-383" rx="27" ry="19.0919"/>
<text text-anchor="middle" x="117" y="-379.9" font-family="Times Roman,serif" font-size="14.00">7</text>
</g>
<!-- 21&#45;&#45;22 -->
<g id="edge22" class="edge"><title>21&#45;&#45;22</title>
<path fill="none" stroke="black" d="M54.003,-383C65.2905,-383 78.3867,-383 89.705,-383"/>
</g>
<!-- 23 -->
<g id="node23" class="node"><title>23</title>
<ellipse fill="none" stroke="black" cx="207" cy="-383" rx="27" ry="19.0919"/>
<text text-anchor="middle" x="207" y="-379.9" font-family="Times Roman,serif" font-size="14.00">9</text>
</g>
<!-- 22&#45;&#45;23 -->
<g id="edge23" class="edge"><title>22&#45;&#45;23</title>
<path fill="none" stroke="black" d="M144.003,-383C155.29,-383 168.387,-383 179.705,-383"/>
</g>
<!-- 24 -->
<g id="node24" class="node"><title>24</title>
<ellipse fill="none" stroke="black" cx="297" cy="-383" rx="27" ry="19.0919"/>
<text text-anchor="middle" x="297" y="-379.9" font-family="Times Roman,serif" font-size="14.00">4</text>
</g>
<!-- 23&#45;&#45;24 -->
<g id="edge24" class="edge"><title>23&#45;&#45;24</title>
<path fill="none" stroke="black" d="M234.003,-383C245.29,-383 258.387,-383 269.705,-383"/>
</g>
<!-- 25 -->
<g id="node25" class="node"><title>25</title>
<ellipse fill="none" stroke="black" cx="27" cy="-439" rx="27" ry="19.0919"/>
<text text-anchor="middle" x="27" y="-435.9" font-family="Times Roman,serif" font-size="14.00">5</text>
</g>
<!-- 26 -->
<g id="node26" class="node"><title>26</title>
<ellipse fill="none" stroke="black" cx="117" cy="-439" rx="27" ry="19.0919"/>
<text text-anchor="middle" x="117" y="-435.9" font-family="Times Roman,serif" font-size="14.00">7</text>
</g>
<!-- 25&#45;&#45;26 -->
<g id="edge26" class="edge"><title>25&#45;&#45;26</title>
<path fill="none" stroke="black" d="M54.003,-439C65.2905,-439 78.3867,-439 89.705,-439"/>
</g>
<!-- 27 -->
<g id="node27" class="node"><title>27</title>
<ellipse fill="none" stroke="black" cx="207" cy="-439" rx="27" ry="19.0919"/>
<text text-anchor="middle" x="207" y="-435.9" font-family="Times Roman,serif" font-size="14.00">2</text>
</g>
<!-- 26&#45;&#45;27 -->
<g id="edge27" class="edge"><title>26&#45;&#45;27</title>
<path fill="none" stroke="black" d="M144.003,-439C155.29,-439 168.387,-439 179.705,-439"/>
</g>
<!-- 28 -->
<g id="node28" class="node"><title>28</title>
<ellipse fill="none" stroke="black" cx="297" cy="-439" rx="27" ry="19.0919"/>
<text text-anchor="middle" x="297" y="-435.9" font-family="Times Roman,serif" font-size="14.00">3</text>
</g>
<!-- 27&#45;&#45;28 -->
<g id="edge28" class="edge"><title>27&#45;&#45;28</title>
<path fill="none" stroke="black" d="M234.003,-439C245.29,-439 258.387,-439 269.705,-439"/>
</g>
<!-- 29 -->
<g id="node29" class="node"><title>29</title>
<ellipse fill="none" stroke="black" cx="27" cy="-495" rx="27" ry="19.0919"/>
<text text-anchor="middle" x="27" y="-491.9" font-family="Times Roman,serif" font-size="14.00">5</text>
</g>
<!-- 30 -->
<g id="node30" class="node"><title>30</title>
<ellipse fill="none" stroke="black" cx="117" cy="-495" rx="27" ry="19.0919"/>
<text text-anchor="middle" x="117" y="-491.9" font-family="Times Roman,serif" font-size="14.00">7</text>
</g>
<!-- 29&#45;&#45;30 -->
<g id="edge30" class="edge"><title>29&#45;&#45;30</title>
<path fill="none" stroke="black" d="M54.003,-495C65.2905,-495 78.3867,-495 89.705,-495"/>
</g>
<!-- 31 -->
<g id="node31" class="node"><title>31</title>
<ellipse fill="none" stroke="black" cx="207" cy="-495" rx="27" ry="19.0919"/>
<text text-anchor="middle" x="207" y="-491.9" font-family="Times Roman,serif" font-size="14.00">2</text>
</g>
<!-- 30&#45;&#45;31 -->
<g id="edge31" class="edge"><title>30&#45;&#45;31</title>
<path fill="none" stroke="black" d="M144.003,-495C155.29,-495 168.387,-495 179.705,-495"/>
</g>
<!-- 32 -->
<g id="node32" class="node"><title>32</title>
<ellipse fill="none" stroke="black" cx="297" cy="-495" rx="27" ry="19.0919"/>
<text text-anchor="middle" x="297" y="-491.9" font-family="Times Roman,serif" font-size="14.00">1</text>
</g>
<!-- 31&#45;&#45;32 -->
<g id="edge32" class="edge"><title>31&#45;&#45;32</title>
<path fill="none" stroke="black" d="M234.003,-495C245.29,-495 258.387,-495 269.705,-495"/>
</g>
<!-- 33 -->
<g id="node33" class="node"><title>33</title>
<ellipse fill="none" stroke="black" cx="27" cy="-551" rx="27" ry="19.0919"/>
<text text-anchor="middle" x="27" y="-547.9" font-family="Times Roman,serif" font-size="14.00">5</text>
</g>
<!-- 34 -->
<g id="node34" class="node"><title>34</title>
<ellipse fill="none" stroke="black" cx="117" cy="-551" rx="27" ry="19.0919"/>
<text text-anchor="middle" x="117" y="-547.9" font-family="Times Roman,serif" font-size="14.00">0</text>
</g>
<!-- 33&#45;&#45;34 -->
<g id="edge34" class="edge"><title>33&#45;&#45;34</title>
<path fill="none" stroke="black" d="M54.003,-551C65.2905,-551 78.3867,-551 89.705,-551"/>
</g>
<!-- 35 -->
<g id="node35" class="node"><title>35</title>
<ellipse fill="none" stroke="black" cx="207" cy="-551" rx="27" ry="19.0919"/>
<text text-anchor="middle" x="207" y="-547.9" font-family="Times Roman,serif" font-size="14.00">4</text>
</g>
<!-- 34&#45;&#45;35 -->
<g id="edge35" class="edge"><title>34&#45;&#45;35</title>
<path fill="none" stroke="black" d="M144.003,-551C155.29,-551 168.387,-551 179.705,-551"/>
</g>
<!-- 36 -->
<g id="node36" class="node"><title>36</title>
<ellipse fill="none" stroke="black" cx="297" cy="-551" rx="27" ry="19.0919"/>
<text text-anchor="middle" x="297" y="-547.9" font-family="Times Roman,serif" font-size="14.00">9</text>
</g>
<!-- 35&#45;&#45;36 -->
<g id="edge36" class="edge"><title>35&#45;&#45;36</title>
<path fill="none" stroke="black" d="M234.003,-551C245.29,-551 258.387,-551 269.705,-551"/>
</g>
<!-- 37 -->
<g id="node37" class="node"><title>37</title>
<ellipse fill="none" stroke="black" cx="27" cy="-607" rx="27" ry="19.0919"/>
<text text-anchor="middle" x="27" y="-603.9" font-family="Times Roman,serif" font-size="14.00">5</text>
</g>
<!-- 38 -->
<g id="node38" class="node"><title>38</title>
<ellipse fill="none" stroke="black" cx="117" cy="-607" rx="27" ry="19.0919"/>
<text text-anchor="middle" x="117" y="-603.9" font-family="Times Roman,serif" font-size="14.00">0</text>
</g>
<!-- 37&#45;&#45;38 -->
<g id="edge38" class="edge"><title>37&#45;&#45;38</title>
<path fill="none" stroke="black" d="M54.003,-607C65.2905,-607 78.3867,-607 89.705,-607"/>
</g>
<!-- 39 -->
<g id="node39" class="node"><title>39</title>
<ellipse fill="none" stroke="black" cx="207" cy="-607" rx="27" ry="19.0919"/>
<text text-anchor="middle" x="207" y="-603.9" font-family="Times Roman,serif" font-size="14.00">4</text>
</g>
<!-- 38&#45;&#45;39 -->
<g id="edge39" class="edge"><title>38&#45;&#45;39</title>
<path fill="none" stroke="black" d="M144.003,-607C155.29,-607 168.387,-607 179.705,-607"/>
</g>
<!-- 40 -->
<g id="node40" class="node"><title>40</title>
<ellipse fill="none" stroke="black" cx="297" cy="-607" rx="27" ry="19.0919"/>
<text text-anchor="middle" x="297" y="-603.9" font-family="Times Roman,serif" font-size="14.00">3</text>
</g>
<!-- 39&#45;&#45;40 -->
<g id="edge40" class="edge"><title>39&#45;&#45;40</title>
<path fill="none" stroke="black" d="M234.003,-607C245.29,-607 258.387,-607 269.705,-607"/>
</g>
<!-- 41 -->
<g id="node41" class="node"><title>41</title>
<ellipse fill="none" stroke="black" cx="27" cy="-663" rx="27" ry="19.0919"/>
<text text-anchor="middle" x="27" y="-659.9" font-family="Times Roman,serif" font-size="14.00">5</text>
</g>
<!-- 42 -->
<g id="node42" class="node"><title>42</title>
<ellipse fill="none" stroke="black" cx="117" cy="-663" rx="27" ry="19.0919"/>
<text text-anchor="middle" x="117" y="-659.9" font-family="Times Roman,serif" font-size="14.00">0</text>
</g>
<!-- 41&#45;&#45;42 -->
<g id="edge42" class="edge"><title>41&#45;&#45;42</title>
<path fill="none" stroke="black" d="M54.003,-663C65.2905,-663 78.3867,-663 89.705,-663"/>
</g>
<!-- 43 -->
<g id="node43" class="node"><title>43</title>
<ellipse fill="none" stroke="black" cx="207" cy="-663" rx="27" ry="19.0919"/>
<text text-anchor="middle" x="207" y="-659.9" font-family="Times Roman,serif" font-size="14.00">1</text>
</g>
<!-- 42&#45;&#45;43 -->
<g id="edge43" class="edge"><title>42&#45;&#45;43</title>
<path fill="none" stroke="black" d="M144.003,-663C155.29,-663 168.387,-663 179.705,-663"/>
</g>
<!-- 44 -->
<g id="node44" class="node"><title>44</title>
<ellipse fill="none" stroke="black" cx="297" cy="-663" rx="27" ry="19.0919"/>
<text text-anchor="middle" x="297" y="-659.9" font-family="Times Roman,serif" font-size="14.00">6</text>
</g>
<!-- 43&#45;&#45;44 -->
<g id="edge44" class="edge"><title>43&#45;&#45;44</title>
<path fill="none" stroke="black" d="M234.003,-663C245.29,-663 258.387,-663 269.705,-663"/>
</g>
<!-- 45 -->
<g id="node45" class="node"><title>45</title>
<ellipse fill="none" stroke="black" cx="27" cy="-719" rx="27" ry="19.0919"/>
<text text-anchor="middle" x="27" y="-715.9" font-family="Times Roman,serif" font-size="14.00">5</text>
</g>
<!-- 46 -->
<g id="node46" class="node"><title>46</title>
<ellipse fill="none" stroke="black" cx="117" cy="-719" rx="27" ry="19.0919"/>
<text text-anchor="middle" x="117" y="-715.9" font-family="Times Roman,serif" font-size="14.00">0</text>
</g>
<!-- 45&#45;&#45;46 -->
<g id="edge46" class="edge"><title>45&#45;&#45;46</title>
<path fill="none" stroke="black" d="M54.003,-719C65.2905,-719 78.3867,-719 89.705,-719"/>
</g>
<!-- 47 -->
<g id="node47" class="node"><title>47</title>
<ellipse fill="none" stroke="black" cx="207" cy="-719" rx="27" ry="19.0919"/>
<text text-anchor="middle" x="207" y="-715.9" font-family="Times Roman,serif" font-size="14.00">1</text>
</g>
<!-- 46&#45;&#45;47 -->
<g id="edge47" class="edge"><title>46&#45;&#45;47</title>
<path fill="none" stroke="black" d="M144.003,-719C155.29,-719 168.387,-719 179.705,-719"/>
</g>
<!-- 48 -->
<g id="node48" class="node"><title>48</title>
<ellipse fill="none" stroke="black" cx="297" cy="-719" rx="27" ry="19.0919"/>
<text text-anchor="middle" x="297" y="-715.9" font-family="Times Roman,serif" font-size="14.00">2</text>
</g>
<!-- 47&#45;&#45;48 -->
<g id="edge48" class="edge"><title>47&#45;&#45;48</title>
<path fill="none" stroke="black" d="M234.003,-719C245.29,-719 258.387,-719 269.705,-719"/>
</g>
</g>
</svg>
