<?xml version="1.0" encoding="UTF-8" standalone="no"?>
<!DOCTYPE svg PUBLIC "-//W3C//DTD SVG 1.1//EN"
 "http://www.w3.org/Graphics/SVG/1.1/DTD/svg11.dtd">
<!-- Generated by graphviz version 2.26.3 (20100126.1600)
 -->
<!-- Title: _anonymous_0 Pages: 1 -->
<svg width="332pt" height="746pt"
 viewBox="0.00 0.00 332.00 746.00" xmlns="http://www.w3.org/2000/svg" xmlns:xlink="http://www.w3.org/1999/xlink">
<g id="graph1" class="graph" transform="scale(1 1) rotate(0) translate(4 742)">
<title>_anonymous_0</title>
<polygon fill="white" stroke="white" points="-4,5 -4,-742 329,-742 329,5 -4,5"/>
<text text-anchor="middle" x="162" y="-67.4" font-family="Times Roman,serif" font-size="14.00">Starting node: 5</text>
<text text-anchor="middle" x="162" y="-48.4" font-family="Times Roman,serif" font-size="14.00">Path length: 3</text>
<text text-anchor="middle" x="162" y="-29.4" font-family="Times Roman,serif" font-size="14.00">Allow cycles: 0</text>
<text text-anchor="middle" x="162" y="-10.4" font-family="Times Roman,serif" font-size="14.00">Solutions: 12</text>
<!-- 1 -->
<g id="node1" class="node"><title>1</title>
<ellipse fill="none" stroke="black" cx="27" cy="-103" rx="27" ry="19.0919"/>
<text text-anchor="middle" x="27" y="-99.9" font-family="Times Roman,serif" font-size="14.00">5</text>
</g>
<!-- 2 -->
<g id="node2" class="node"><title>2</title>
<ellipse fill="none" stroke="black" cx="117" cy="-103" rx="27" ry="19.0919"/>
<text text-anchor="middle" x="117" y="-99.9" font-family="Times Roman,serif" font-size="14.00">8</text>
</g>
<!-- 1&#45;&gt;2 -->
<g id="edge2" class="edge"><title>1&#45;&gt;2</title>
<path fill="none" stroke="black" d="M54.003,-103C62.0277,-103 70.9665,-103 79.5309,-103"/>
<polygon fill="black" stroke="black" points="79.7051,-106.5 89.705,-103 79.705,-99.5001 79.7051,-106.5"/>
</g>
<!-- 3 -->
<g id="node3" class="node"><title>3</title>
<ellipse fill="none" stroke="black" cx="207" cy="-103" rx="27" ry="19.0919"/>
<text text-anchor="middle" x="207" y="-99.9" font-family="Times Roman,serif" font-size="14.00">6</text>
</g>
<!-- 2&#45;&gt;3 -->
<g id="edge3" class="edge"><title>2&#45;&gt;3</title>
<path fill="none" stroke="black" d="M144.003,-103C152.028,-103 160.967,-103 169.531,-103"/>
<polygon fill="black" stroke="black" points="169.705,-106.5 179.705,-103 169.705,-99.5001 169.705,-106.5"/>
</g>
<!-- 4 -->
<g id="node4" class="node"><title>4</title>
<ellipse fill="none" stroke="black" cx="297" cy="-103" rx="27" ry="19.0919"/>
<text text-anchor="middle" x="297" y="-99.9" font-family="Times Roman,serif" font-size="14.00">9</text>
</g>
<!-- 3&#45;&gt;4 -->
<g id="edge4" class="edge"><title>3&#45;&gt;4</title>
<path fill="none" stroke="black" d="M234.003,-103C242.028,-103 250.967,-103 259.531,-103"/>
<polygon fill="black" stroke="black" points="259.705,-106.5 269.705,-103 259.705,-99.5001 259.705,-106.5"/>
</g>
<!-- 5 -->
<g id="node5" class="node"><title>5</title>
<ellipse fill="none" stroke="black" cx="27" cy="-159" rx="27" ry="19.0919"/>
<text text-anchor="middle" x="27" y="-155.9" font-family="Times Roman,serif" font-size="14.00">5</text>
</g>
<!-- 6 -->
<g id="node6" class="node"><title>6</title>
<ellipse fill="none" stroke="black" cx="117" cy="-159" rx="27" ry="19.0919"/>
<text text-anchor="middle" x="117" y="-155.9" font-family="Times Roman,serif" font-size="14.00">8</text>
</g>
<!-- 5&#45;&gt;6 -->
<g id="edge6" class="edge"><title>5&#45;&gt;6</title>
<path fill="none" stroke="black" d="M54.003,-159C62.0277,-159 70.9665,-159 79.5309,-159"/>
<polygon fill="black" stroke="black" points="79.7051,-162.5 89.705,-159 79.705,-155.5 79.7051,-162.5"/>
</g>
<!-- 7 -->
<g id="node7" class="node"><title>7</title>
<ellipse fill="none" stroke="black" cx="207" cy="-159" rx="27" ry="19.0919"/>
<text text-anchor="middle" x="207" y="-155.9" font-family="Times Roman,serif" font-size="14.00">6</text>
</g>
<!-- 6&#45;&gt;7 -->
<g id="edge7" class="edge"><title>6&#45;&gt;7</title>
<path fill="none" stroke="black" d="M144.003,-159C152.028,-159 160.967,-159 169.531,-159"/>
<polygon fill="black" stroke="black" points="169.705,-162.5 179.705,-159 169.705,-155.5 169.705,-162.5"/>
</g>
<!-- 8 -->
<g id="node8" class="node"><title>8</title>
<ellipse fill="none" stroke="black" cx="297" cy="-159" rx="27" ry="19.0919"/>
<text text-anchor="middle" x="297" y="-155.9" font-family="Times Roman,serif" font-size="14.00">1</text>
</g>
<!-- 7&#45;&gt;8 -->
<g id="edge8" class="edge"><title>7&#45;&gt;8</title>
<path fill="none" stroke="black" d="M234.003,-159C242.028,-159 250.967,-159 259.531,-159"/>
<polygon fill="black" stroke="black" points="259.705,-162.5 269.705,-159 259.705,-155.5 259.705,-162.5"/>
</g>
<!-- 9 -->
<g id="node9" class="node"><title>9</title>
<ellipse fill="none" stroke="black" cx="27" cy="-215" rx="27" ry="19.0919"/>
<text text-anchor="middle" x="27" y="-211.9" font-family="Times Roman,serif" font-size="14.00">5</text>
</g>
<!-- 10 -->
<g id="node10" class="node"><title>10</title>
<ellipse fill="none" stroke="black" cx="117" cy="-215" rx="27" ry="19.0919"/>
<text text-anchor="middle" x="117" y="-211.9" font-family="Times Roman,serif" font-size="14.00">8</text>
</g>
<!-- 9&#45;&gt;10 -->
<g id="edge10" class="edge"><title>9&#45;&gt;10</title>
<path fill="none" stroke="black" d="M54.003,-215C62.0277,-215 70.9665,-215 79.5309,-215"/>
<polygon fill="black" stroke="black" points="79.7051,-218.5 89.705,-215 79.705,-211.5 79.7051,-218.5"/>
</g>
<!-- 11 -->
<g id="node11" class="node"><title>11</title>
<ellipse fill="none" stroke="black" cx="207" cy="-215" rx="27" ry="19.0919"/>
<text text-anchor="middle" x="207" y="-211.9" font-family="Times Roman,serif" font-size="14.00">3</text>
</g>
<!-- 10&#45;&gt;11 -->
<g id="edge11" class="edge"><title>10&#45;&gt;11</title>
<path fill="none" stroke="black" d="M144.003,-215C152.028,-215 160.967,-215 169.531,-215"/>
<polygon fill="black" stroke="black" points="169.705,-218.5 179.705,-215 169.705,-211.5 169.705,-218.5"/>
</g>
<!-- 12 -->
<g id="node12" class="node"><title>12</title>
<ellipse fill="none" stroke="black" cx="297" cy="-215" rx="27" ry="19.0919"/>
<text text-anchor="middle" x="297" y="-211.9" font-family="Times Roman,serif" font-size="14.00">2</text>
</g>
<!-- 11&#45;&gt;12 -->
<g id="edge12" class="edge"><title>11&#45;&gt;12</title>
<path fill="none" stroke="black" d="M234.003,-215C242.028,-215 250.967,-215 259.531,-215"/>
<polygon fill="black" stroke="black" points="259.705,-218.5 269.705,-215 259.705,-211.5 259.705,-218.5"/>
</g>
<!-- 13 -->
<g id="node13" class="node"><title>13</title>
<ellipse fill="none" stroke="black" cx="27" cy="-271" rx="27" ry="19.0919"/>
<text text-anchor="middle" x="27" y="-267.9" font-family="Times Roman,serif" font-size="14.00">5</text>
</g>
<!-- 14 -->
<g id="node14" class="node"><title>14</title>
<ellipse fill="none" stroke="black" cx="117" cy="-271" rx="27" ry="19.0919"/>
<text text-anchor="middle" x="117" y="-267.9" font-family="Times Roman,serif" font-size="14.00">8</text>
</g>
<!-- 13&#45;&gt;14 -->
<g id="edge14" class="edge"><title>13&#45;&gt;14</title>
<path fill="none" stroke="black" d="M54.003,-271C62.0277,-271 70.9665,-271 79.5309,-271"/>
<polygon fill="black" stroke="black" points="79.7051,-274.5 89.705,-271 79.705,-267.5 79.7051,-274.5"/>
</g>
<!-- 15 -->
<g id="node15" class="node"><title>15</title>
<ellipse fill="none" stroke="black" cx="207" cy="-271" rx="27" ry="19.0919"/>
<text text-anchor="middle" x="207" y="-267.9" font-family="Times Roman,serif" font-size="14.00">3</text>
</g>
<!-- 14&#45;&gt;15 -->
<g id="edge15" class="edge"><title>14&#45;&gt;15</title>
<path fill="none" stroke="black" d="M144.003,-271C152.028,-271 160.967,-271 169.531,-271"/>
<polygon fill="black" stroke="black" points="169.705,-274.5 179.705,-271 169.705,-267.5 169.705,-274.5"/>
</g>
<!-- 16 -->
<g id="node16" class="node"><title>16</title>
<ellipse fill="none" stroke="black" cx="297" cy="-271" rx="27" ry="19.0919"/>
<text text-anchor="middle" x="297" y="-267.9" font-family="Times Roman,serif" font-size="14.00">4</text>
</g>
<!-- 15&#45;&gt;16 -->
<g id="edge16" class="edge"><title>15&#45;&gt;16</title>
<path fill="none" stroke="black" d="M234.003,-271C242.028,-271 250.967,-271 259.531,-271"/>
<polygon fill="black" stroke="black" points="259.705,-274.5 269.705,-271 259.705,-267.5 259.705,-274.5"/>
</g>
<!-- 17 -->
<g id="node17" class="node"><title>17</title>
<ellipse fill="none" stroke="black" cx="27" cy="-327" rx="27" ry="19.0919"/>
<text text-anchor="middle" x="27" y="-323.9" font-family="Times Roman,serif" font-size="14.00">5</text>
</g>
<!-- 18 -->
<g id="node18" class="node"><title>18</title>
<ellipse fill="none" stroke="black" cx="117" cy="-327" rx="27" ry="19.0919"/>
<text text-anchor="middle" x="117" y="-323.9" font-family="Times Roman,serif" font-size="14.00">7</text>
</g>
<!-- 17&#45;&gt;18 -->
<g id="edge18" class="edge"><title>17&#45;&gt;18</title>
<path fill="none" stroke="black" d="M54.003,-327C62.0277,-327 70.9665,-327 79.5309,-327"/>
<polygon fill="black" stroke="black" points="79.7051,-330.5 89.705,-327 79.705,-323.5 79.7051,-330.5"/>
</g>
<!-- 19 -->
<g id="node19" class="node"><title>19</title>
<ellipse fill="none" stroke="black" cx="207" cy="-327" rx="27" ry="19.0919"/>
<text text-anchor="middle" x="207" y="-323.9" font-family="Times Roman,serif" font-size="14.00">9</text>
</g>
<!-- 18&#45;&gt;19 -->
<g id="edge19" class="edge"><title>18&#45;&gt;19</title>
<path fill="none" stroke="black" d="M144.003,-327C152.028,-327 160.967,-327 169.531,-327"/>
<polygon fill="black" stroke="black" points="169.705,-330.5 179.705,-327 169.705,-323.5 169.705,-330.5"/>
</g>
<!-- 20 -->
<g id="node20" class="node"><title>20</title>
<ellipse fill="none" stroke="black" cx="297" cy="-327" rx="27" ry="19.0919"/>
<text text-anchor="middle" x="297" y="-323.9" font-family="Times Roman,serif" font-size="14.00">6</text>
</g>
<!-- 19&#45;&gt;20 -->
<g id="edge20" class="edge"><title>19&#45;&gt;20</title>
<path fill="none" stroke="black" d="M234.003,-327C242.028,-327 250.967,-327 259.531,-327"/>
<polygon fill="black" stroke="black" points="259.705,-330.5 269.705,-327 259.705,-323.5 259.705,-330.5"/>
</g>
<!-- 21 -->
<g id="node21" class="node"><title>21</title>
<ellipse fill="none" stroke="black" cx="27" cy="-383" rx="27" ry="19.0919"/>
<text text-anchor="middle" x="27" y="-379.9" font-family="Times Roman,serif" font-size="14.00">5</text>
</g>
<!-- 22 -->
<g id="node22" class="node"><title>22</title>
<ellipse fill="none" stroke="black" cx="117" cy="-383" rx="27" ry="19.0919"/>
<text text-anchor="middle" x="117" y="-379.9" font-family="Times Roman,serif" font-size="14.00">7</text>
</g>
<!-- 21&#45;&gt;22 -->
<g id="edge22" class="edge"><title>21&#45;&gt;22</title>
<path fill="none" stroke="black" d="M54.003,-383C62.0277,-383 70.9665,-383 79.5309,-383"/>
<polygon fill="black" stroke="black" points="79.7051,-386.5 89.705,-383 79.705,-379.5 79.7051,-386.5"/>
</g>
<!-- 23 -->
<g id="node23" class="node"><title>23</title>
<ellipse fill="none" stroke="black" cx="207" cy="-383" rx="27" ry="19.0919"/>
<text text-anchor="middle" x="207" y="-379.9" font-family="Times Roman,serif" font-size="14.00">9</text>
</g>
<!-- 22&#45;&gt;23 -->
<g id="edge23" class="edge"><title>22&#45;&gt;23</title>
<path fill="none" stroke="black" d="M144.003,-383C152.028,-383 160.967,-383 169.531,-383"/>
<polygon fill="black" stroke="black" points="169.705,-386.5 179.705,-383 169.705,-379.5 169.705,-386.5"/>
</g>
<!-- 24 -->
<g id="node24" class="node"><title>24</title>
<ellipse fill="none" stroke="black" cx="297" cy="-383" rx="27" ry="19.0919"/>
<text text-anchor="middle" x="297" y="-379.9" font-family="Times Roman,serif" font-size="14.00">4</text>
</g>
<!-- 23&#45;&gt;24 -->
<g id="edge24" class="edge"><title>23&#45;&gt;24</title>
<path fill="none" stroke="black" d="M234.003,-383C242.028,-383 250.967,-383 259.531,-383"/>
<polygon fill="black" stroke="black" points="259.705,-386.5 269.705,-383 259.705,-379.5 259.705,-386.5"/>
</g>
<!-- 25 -->
<g id="node25" class="node"><title>25</title>
<ellipse fill="none" stroke="black" cx="27" cy="-439" rx="27" ry="19.0919"/>
<text text-anchor="middle" x="27" y="-435.9" font-family="Times Roman,serif" font-size="14.00">5</text>
</g>
<!-- 26 -->
<g id="node26" class="node"><title>26</title>
<ellipse fill="none" stroke="black" cx="117" cy="-439" rx="27" ry="19.0919"/>
<text text-anchor="middle" x="117" y="-435.9" font-family="Times Roman,serif" font-size="14.00">7</text>
</g>
<!-- 25&#45;&gt;26 -->
<g id="edge26" class="edge"><title>25&#45;&gt;26</title>
<path fill="none" stroke="black" d="M54.003,-439C62.0277,-439 70.9665,-439 79.5309,-439"/>
<polygon fill="black" stroke="black" points="79.7051,-442.5 89.705,-439 79.705,-435.5 79.7051,-442.5"/>
</g>
<!-- 27 -->
<g id="node27" class="node"><title>27</title>
<ellipse fill="none" stroke="black" cx="207" cy="-439" rx="27" ry="19.0919"/>
<text text-anchor="middle" x="207" y="-435.9" font-family="Times Roman,serif" font-size="14.00">2</text>
</g>
<!-- 26&#45;&gt;27 -->
<g id="edge27" class="edge"><title>26&#45;&gt;27</title>
<path fill="none" stroke="black" d="M144.003,-439C152.028,-439 160.967,-439 169.531,-439"/>
<polygon fill="black" stroke="black" points="169.705,-442.5 179.705,-439 169.705,-435.5 169.705,-442.5"/>
</g>
<!-- 28 -->
<g id="node28" class="node"><title>28</title>
<ellipse fill="none" stroke="black" cx="297" cy="-439" rx="27" ry="19.0919"/>
<text text-anchor="middle" x="297" y="-435.9" font-family="Times Roman,serif" font-size="14.00">1</text>
</g>
<!-- 27&#45;&gt;28 -->
<g id="edge28" class="edge"><title>27&#45;&gt;28</title>
<path fill="none" stroke="black" d="M234.003,-439C242.028,-439 250.967,-439 259.531,-439"/>
<polygon fill="black" stroke="black" points="259.705,-442.5 269.705,-439 259.705,-435.5 259.705,-442.5"/>
</g>
<!-- 29 -->
<g id="node29" class="node"><title>29</title>
<ellipse fill="none" stroke="black" cx="27" cy="-495" rx="27" ry="19.0919"/>
<text text-anchor="middle" x="27" y="-491.9" font-family="Times Roman,serif" font-size="14.00">5</text>
</g>
<!-- 30 -->
<g id="node30" class="node"><title>30</title>
<ellipse fill="none" stroke="black" cx="117" cy="-495" rx="27" ry="19.0919"/>
<text text-anchor="middle" x="117" y="-491.9" font-family="Times Roman,serif" font-size="14.00">7</text>
</g>
<!-- 29&#45;&gt;30 -->
<g id="edge30" class="edge"><title>29&#45;&gt;30</title>
<path fill="none" stroke="black" d="M54.003,-495C62.0277,-495 70.9665,-495 79.5309,-495"/>
<polygon fill="black" stroke="black" points="79.7051,-498.5 89.705,-495 79.705,-491.5 79.7051,-498.5"/>
</g>
<!-- 31 -->
<g id="node31" class="node"><title>31</title>
<ellipse fill="none" stroke="black" cx="207" cy="-495" rx="27" ry="19.0919"/>
<text text-anchor="middle" x="207" y="-491.9" font-family="Times Roman,serif" font-size="14.00">2</text>
</g>
<!-- 30&#45;&gt;31 -->
<g id="edge31" class="edge"><title>30&#45;&gt;31</title>
<path fill="none" stroke="black" d="M144.003,-495C152.028,-495 160.967,-495 169.531,-495"/>
<polygon fill="black" stroke="black" points="169.705,-498.5 179.705,-495 169.705,-491.5 169.705,-498.5"/>
</g>
<!-- 32 -->
<g id="node32" class="node"><title>32</title>
<ellipse fill="none" stroke="black" cx="297" cy="-495" rx="27" ry="19.0919"/>
<text text-anchor="middle" x="297" y="-491.9" font-family="Times Roman,serif" font-size="14.00">3</text>
</g>
<!-- 31&#45;&gt;32 -->
<g id="edge32" class="edge"><title>31&#45;&gt;32</title>
<path fill="none" stroke="black" d="M234.003,-495C242.028,-495 250.967,-495 259.531,-495"/>
<polygon fill="black" stroke="black" points="259.705,-498.5 269.705,-495 259.705,-491.5 259.705,-498.5"/>
</g>
<!-- 33 -->
<g id="node33" class="node"><title>33</title>
<ellipse fill="none" stroke="black" cx="27" cy="-551" rx="27" ry="19.0919"/>
<text text-anchor="middle" x="27" y="-547.9" font-family="Times Roman,serif" font-size="14.00">5</text>
</g>
<!-- 34 -->
<g id="node34" class="node"><title>34</title>
<ellipse fill="none" stroke="black" cx="117" cy="-551" rx="27" ry="19.0919"/>
<text text-anchor="middle" x="117" y="-547.9" font-family="Times Roman,serif" font-size="14.00">0</text>
</g>
<!-- 33&#45;&gt;34 -->
<g id="edge34" class="edge"><title>33&#45;&gt;34</title>
<path fill="none" stroke="black" d="M54.003,-551C62.0277,-551 70.9665,-551 79.5309,-551"/>
<polygon fill="black" stroke="black" points="79.7051,-554.5 89.705,-551 79.705,-547.5 79.7051,-554.5"/>
</g>
<!-- 35 -->
<g id="node35" class="node"><title>35</title>
<ellipse fill="none" stroke="black" cx="207" cy="-551" rx="27" ry="19.0919"/>
<text text-anchor="middle" x="207" y="-547.9" font-family="Times Roman,serif" font-size="14.00">4</text>
</g>
<!-- 34&#45;&gt;35 -->
<g id="edge35" class="edge"><title>34&#45;&gt;35</title>
<path fill="none" stroke="black" d="M144.003,-551C152.028,-551 160.967,-551 169.531,-551"/>
<polygon fill="black" stroke="black" points="169.705,-554.5 179.705,-551 169.705,-547.5 169.705,-554.5"/>
</g>
<!-- 36 -->
<g id="node36" class="node"><title>36</title>
<ellipse fill="none" stroke="black" cx="297" cy="-551" rx="27" ry="19.0919"/>
<text text-anchor="middle" x="297" y="-547.9" font-family="Times Roman,serif" font-size="14.00">9</text>
</g>
<!-- 35&#45;&gt;36 -->
<g id="edge36" class="edge"><title>35&#45;&gt;36</title>
<path fill="none" stroke="black" d="M234.003,-551C242.028,-551 250.967,-551 259.531,-551"/>
<polygon fill="black" stroke="black" points="259.705,-554.5 269.705,-551 259.705,-547.5 259.705,-554.5"/>
</g>
<!-- 37 -->
<g id="node37" class="node"><title>37</title>
<ellipse fill="none" stroke="black" cx="27" cy="-607" rx="27" ry="19.0919"/>
<text text-anchor="middle" x="27" y="-603.9" font-family="Times Roman,serif" font-size="14.00">5</text>
</g>
<!-- 38 -->
<g id="node38" class="node"><title>38</title>
<ellipse fill="none" stroke="black" cx="117" cy="-607" rx="27" ry="19.0919"/>
<text text-anchor="middle" x="117" y="-603.9" font-family="Times Roman,serif" font-size="14.00">0</text>
</g>
<!-- 37&#45;&gt;38 -->
<g id="edge38" class="edge"><title>37&#45;&gt;38</title>
<path fill="none" stroke="black" d="M54.003,-607C62.0277,-607 70.9665,-607 79.5309,-607"/>
<polygon fill="black" stroke="black" points="79.7051,-610.5 89.705,-607 79.705,-603.5 79.7051,-610.5"/>
</g>
<!-- 39 -->
<g id="node39" class="node"><title>39</title>
<ellipse fill="none" stroke="black" cx="207" cy="-607" rx="27" ry="19.0919"/>
<text text-anchor="middle" x="207" y="-603.9" font-family="Times Roman,serif" font-size="14.00">4</text>
</g>
<!-- 38&#45;&gt;39 -->
<g id="edge39" class="edge"><title>38&#45;&gt;39</title>
<path fill="none" stroke="black" d="M144.003,-607C152.028,-607 160.967,-607 169.531,-607"/>
<polygon fill="black" stroke="black" points="169.705,-610.5 179.705,-607 169.705,-603.5 169.705,-610.5"/>
</g>
<!-- 40 -->
<g id="node40" class="node"><title>40</title>
<ellipse fill="none" stroke="black" cx="297" cy="-607" rx="27" ry="19.0919"/>
<text text-anchor="middle" x="297" y="-603.9" font-family="Times Roman,serif" font-size="14.00">3</text>
</g>
<!-- 39&#45;&gt;40 -->
<g id="edge40" class="edge"><title>39&#45;&gt;40</title>
<path fill="none" stroke="black" d="M234.003,-607C242.028,-607 250.967,-607 259.531,-607"/>
<polygon fill="black" stroke="black" points="259.705,-610.5 269.705,-607 259.705,-603.5 259.705,-610.5"/>
</g>
<!-- 41 -->
<g id="node41" class="node"><title>41</title>
<ellipse fill="none" stroke="black" cx="27" cy="-663" rx="27" ry="19.0919"/>
<text text-anchor="middle" x="27" y="-659.9" font-family="Times Roman,serif" font-size="14.00">5</text>
</g>
<!-- 42 -->
<g id="node42" class="node"><title>42</title>
<ellipse fill="none" stroke="black" cx="117" cy="-663" rx="27" ry="19.0919"/>
<text text-anchor="middle" x="117" y="-659.9" font-family="Times Roman,serif" font-size="14.00">0</text>
</g>
<!-- 41&#45;&gt;42 -->
<g id="edge42" class="edge"><title>41&#45;&gt;42</title>
<path fill="none" stroke="black" d="M54.003,-663C62.0277,-663 70.9665,-663 79.5309,-663"/>
<polygon fill="black" stroke="black" points="79.7051,-666.5 89.705,-663 79.705,-659.5 79.7051,-666.5"/>
</g>
<!-- 43 -->
<g id="node43" class="node"><title>43</title>
<ellipse fill="none" stroke="black" cx="207" cy="-663" rx="27" ry="19.0919"/>
<text text-anchor="middle" x="207" y="-659.9" font-family="Times Roman,serif" font-size="14.00">1</text>
</g>
<!-- 42&#45;&gt;43 -->
<g id="edge43" class="edge"><title>42&#45;&gt;43</title>
<path fill="none" stroke="black" d="M144.003,-663C152.028,-663 160.967,-663 169.531,-663"/>
<polygon fill="black" stroke="black" points="169.705,-666.5 179.705,-663 169.705,-659.5 169.705,-666.5"/>
</g>
<!-- 44 -->
<g id="node44" class="node"><title>44</title>
<ellipse fill="none" stroke="black" cx="297" cy="-663" rx="27" ry="19.0919"/>
<text text-anchor="middle" x="297" y="-659.9" font-family="Times Roman,serif" font-size="14.00">6</text>
</g>
<!-- 43&#45;&gt;44 -->
<g id="edge44" class="edge"><title>43&#45;&gt;44</title>
<path fill="none" stroke="black" d="M234.003,-663C242.028,-663 250.967,-663 259.531,-663"/>
<polygon fill="black" stroke="black" points="259.705,-666.5 269.705,-663 259.705,-659.5 259.705,-666.5"/>
</g>
<!-- 45 -->
<g id="node45" class="node"><title>45</title>
<ellipse fill="none" stroke="black" cx="27" cy="-719" rx="27" ry="19.0919"/>
<text text-anchor="middle" x="27" y="-715.9" font-family="Times Roman,serif" font-size="14.00">5</text>
</g>
<!-- 46 -->
<g id="node46" class="node"><title>46</title>
<ellipse fill="none" stroke="black" cx="117" cy="-719" rx="27" ry="19.0919"/>
<text text-anchor="middle" x="117" y="-715.9" font-family="Times Roman,serif" font-size="14.00">0</text>
</g>
<!-- 45&#45;&gt;46 -->
<g id="edge46" class="edge"><title>45&#45;&gt;46</title>
<path fill="none" stroke="black" d="M54.003,-719C62.0277,-719 70.9665,-719 79.5309,-719"/>
<polygon fill="black" stroke="black" points="79.7051,-722.5 89.705,-719 79.705,-715.5 79.7051,-722.5"/>
</g>
<!-- 47 -->
<g id="node47" class="node"><title>47</title>
<ellipse fill="none" stroke="black" cx="207" cy="-719" rx="27" ry="19.0919"/>
<text text-anchor="middle" x="207" y="-715.9" font-family="Times Roman,serif" font-size="14.00">1</text>
</g>
<!-- 46&#45;&gt;47 -->
<g id="edge47" class="edge"><title>46&#45;&gt;47</title>
<path fill="none" stroke="black" d="M144.003,-719C152.028,-719 160.967,-719 169.531,-719"/>
<polygon fill="black" stroke="black" points="169.705,-722.5 179.705,-719 169.705,-715.5 169.705,-722.5"/>
</g>
<!-- 48 -->
<g id="node48" class="node"><title>48</title>
<ellipse fill="none" stroke="black" cx="297" cy="-719" rx="27" ry="19.0919"/>
<text text-anchor="middle" x="297" y="-715.9" font-family="Times Roman,serif" font-size="14.00">2</text>
</g>
<!-- 47&#45;&gt;48 -->
<g id="edge48" class="edge"><title>47&#45;&gt;48</title>
<path fill="none" stroke="black" d="M234.003,-719C242.028,-719 250.967,-719 259.531,-719"/>
<polygon fill="black" stroke="black" points="259.705,-722.5 269.705,-719 259.705,-715.5 259.705,-722.5"/>
</g>
</g>
</svg>
