<?xml version="1.0" encoding="UTF-8" standalone="no"?>
<!DOCTYPE svg PUBLIC "-//W3C//DTD SVG 1.1//EN"
 "http://www.w3.org/Graphics/SVG/1.1/DTD/svg11.dtd">
<!-- Generated by graphviz version 2.29.20121107.0545 (20121107.0545)
 -->
<!-- Title: Petersen Pages: 1 -->
<svg width="308pt" height="813pt"
 viewBox="0.00 0.00 308.00 813.00" xmlns="http://www.w3.org/2000/svg" xmlns:xlink="http://www.w3.org/1999/xlink">
<g id="graph0" class="graph" transform="scale(1 1) rotate(0) translate(4 809)">
<title>Petersen</title>
<polygon fill="white" stroke="white" points="-4,5 -4,-809 305,-809 305,5 -4,5"/>
<text text-anchor="middle" x="150" y="-52.8" font-family="Times,serif" font-size="14.00">Starting node: 5</text>
<text text-anchor="middle" x="150" y="-37.8" font-family="Times,serif" font-size="14.00">Path length: 3</text>
<text text-anchor="middle" x="150" y="-22.8" font-family="Times,serif" font-size="14.00">Allow cycles: 0</text>
<text text-anchor="middle" x="150" y="-7.8" font-family="Times,serif" font-size="14.00">Solutions: 12</text>
<!-- 1 -->
<g id="node1" class="node"><title>1</title>
<ellipse fill="none" stroke="black" cx="24" cy="-85" rx="17.8571" ry="17.8571"/>
<text text-anchor="middle" x="24" y="-81.3" font-family="Arial" font-size="14.00">1</text>
</g>
<!-- 2 -->
<g id="node2" class="node"><title>2</title>
<ellipse fill="none" stroke="black" cx="108" cy="-85" rx="17.8571" ry="17.8571"/>
<text text-anchor="middle" x="108" y="-81.3" font-family="Arial" font-size="14.00">2</text>
</g>
<!-- 1&#45;&#45;2 -->
<g id="edge1" class="edge"><title>1&#45;&#45;2</title>
<path fill="none" stroke="black" d="M41.9905,-85C56.1575,-85 76.2297,-85 90.3119,-85"/>
</g>
<!-- 3 -->
<g id="node3" class="node"><title>3</title>
<ellipse fill="none" stroke="black" cx="192" cy="-85" rx="17.8571" ry="17.8571"/>
<text text-anchor="middle" x="192" y="-81.3" font-family="Arial" font-size="14.00">3</text>
</g>
<!-- 2&#45;&#45;3 -->
<g id="edge2" class="edge"><title>2&#45;&#45;3</title>
<path fill="none" stroke="black" d="M125.99,-85C140.158,-85 160.23,-85 174.312,-85"/>
</g>
<!-- 4 -->
<g id="node4" class="node"><title>4</title>
<ellipse fill="none" stroke="black" cx="276" cy="-85" rx="17.8571" ry="17.8571"/>
<text text-anchor="middle" x="276" y="-81.3" font-family="Arial" font-size="14.00">4</text>
</g>
<!-- 3&#45;&#45;4 -->
<g id="edge3" class="edge"><title>3&#45;&#45;4</title>
<path fill="none" stroke="black" d="M209.99,-85C224.158,-85 244.23,-85 258.312,-85"/>
</g>
<!-- 5 -->
<g id="node5" class="node"><title>5</title>
<ellipse fill="none" stroke="black" cx="24" cy="-138" rx="17.8571" ry="17.8571"/>
<text text-anchor="middle" x="24" y="-134.3" font-family="Arial" font-size="14.00">5</text>
</g>
<!-- 6 -->
<g id="node6" class="node"><title>6</title>
<ellipse fill="none" stroke="black" cx="108" cy="-138" rx="17.8571" ry="17.8571"/>
<text text-anchor="middle" x="108" y="-134.3" font-family="Arial" font-size="14.00">6</text>
</g>
<!-- 5&#45;&#45;6 -->
<g id="edge4" class="edge"><title>5&#45;&#45;6</title>
<path fill="none" stroke="black" d="M41.9905,-138C56.1575,-138 76.2297,-138 90.3119,-138"/>
</g>
<!-- 7 -->
<g id="node7" class="node"><title>7</title>
<ellipse fill="none" stroke="black" cx="192" cy="-138" rx="17.8571" ry="17.8571"/>
<text text-anchor="middle" x="192" y="-134.3" font-family="Arial" font-size="14.00">7</text>
</g>
<!-- 6&#45;&#45;7 -->
<g id="edge5" class="edge"><title>6&#45;&#45;7</title>
<path fill="none" stroke="black" d="M125.99,-138C140.158,-138 160.23,-138 174.312,-138"/>
</g>
<!-- 8 -->
<g id="node8" class="node"><title>8</title>
<ellipse fill="none" stroke="black" cx="276" cy="-138" rx="17.8571" ry="17.8571"/>
<text text-anchor="middle" x="276" y="-134.3" font-family="Arial" font-size="14.00">8</text>
</g>
<!-- 7&#45;&#45;8 -->
<g id="edge6" class="edge"><title>7&#45;&#45;8</title>
<path fill="none" stroke="black" d="M209.99,-138C224.158,-138 244.23,-138 258.312,-138"/>
</g>
<!-- 9 -->
<g id="node9" class="node"><title>9</title>
<ellipse fill="none" stroke="black" cx="24" cy="-197" rx="17.8571" ry="17.8571"/>
<text text-anchor="middle" x="24" y="-193.3" font-family="Arial" font-size="14.00">9</text>
</g>
<!-- 10 -->
<g id="node10" class="node"><title>10</title>
<ellipse fill="none" stroke="black" cx="108" cy="-197" rx="23.1702" ry="23.1702"/>
<text text-anchor="middle" x="108" y="-193.3" font-family="Arial" font-size="14.00">10</text>
</g>
<!-- 9&#45;&#45;10 -->
<g id="edge7" class="edge"><title>9&#45;&#45;10</title>
<path fill="none" stroke="black" d="M41.9905,-197C54.2811,-197 71.0162,-197 84.4287,-197"/>
</g>
<!-- 11 -->
<g id="node11" class="node"><title>11</title>
<ellipse fill="none" stroke="black" cx="192" cy="-197" rx="22.7556" ry="22.7556"/>
<text text-anchor="middle" x="192" y="-193.3" font-family="Arial" font-size="14.00">11</text>
</g>
<!-- 10&#45;&#45;11 -->
<g id="edge8" class="edge"><title>10&#45;&#45;11</title>
<path fill="none" stroke="black" d="M131.407,-197C143.167,-197 157.516,-197 169.187,-197"/>
</g>
<!-- 12 -->
<g id="node12" class="node"><title>12</title>
<ellipse fill="none" stroke="black" cx="276" cy="-197" rx="23.1702" ry="23.1702"/>
<text text-anchor="middle" x="276" y="-193.3" font-family="Arial" font-size="14.00">12</text>
</g>
<!-- 11&#45;&#45;12 -->
<g id="edge9" class="edge"><title>11&#45;&#45;12</title>
<path fill="none" stroke="black" d="M214.974,-197C226.55,-197 240.725,-197 252.393,-197"/>
</g>
<!-- 13 -->
<g id="node13" class="node"><title>13</title>
<ellipse fill="none" stroke="black" cx="24" cy="-262" rx="23.1702" ry="23.1702"/>
<text text-anchor="middle" x="24" y="-258.3" font-family="Arial" font-size="14.00">13</text>
</g>
<!-- 14 -->
<g id="node14" class="node"><title>14</title>
<ellipse fill="none" stroke="black" cx="108" cy="-262" rx="23.1702" ry="23.1702"/>
<text text-anchor="middle" x="108" y="-258.3" font-family="Arial" font-size="14.00">14</text>
</g>
<!-- 13&#45;&#45;14 -->
<g id="edge10" class="edge"><title>13&#45;&#45;14</title>
<path fill="none" stroke="black" d="M47.4069,-262C58.9772,-262 73.0538,-262 84.6202,-262"/>
</g>
<!-- 15 -->
<g id="node15" class="node"><title>15</title>
<ellipse fill="none" stroke="black" cx="192" cy="-262" rx="23.1702" ry="23.1702"/>
<text text-anchor="middle" x="192" y="-258.3" font-family="Arial" font-size="14.00">15</text>
</g>
<!-- 14&#45;&#45;15 -->
<g id="edge11" class="edge"><title>14&#45;&#45;15</title>
<path fill="none" stroke="black" d="M131.407,-262C142.977,-262 157.054,-262 168.62,-262"/>
</g>
<!-- 16 -->
<g id="node16" class="node"><title>16</title>
<ellipse fill="none" stroke="black" cx="276" cy="-262" rx="23.1702" ry="23.1702"/>
<text text-anchor="middle" x="276" y="-258.3" font-family="Arial" font-size="14.00">16</text>
</g>
<!-- 15&#45;&#45;16 -->
<g id="edge12" class="edge"><title>15&#45;&#45;16</title>
<path fill="none" stroke="black" d="M215.407,-262C226.977,-262 241.054,-262 252.62,-262"/>
</g>
<!-- 17 -->
<g id="node17" class="node"><title>17</title>
<ellipse fill="none" stroke="black" cx="24" cy="-327" rx="23.1702" ry="23.1702"/>
<text text-anchor="middle" x="24" y="-323.3" font-family="Arial" font-size="14.00">17</text>
</g>
<!-- 18 -->
<g id="node18" class="node"><title>18</title>
<ellipse fill="none" stroke="black" cx="108" cy="-327" rx="23.1702" ry="23.1702"/>
<text text-anchor="middle" x="108" y="-323.3" font-family="Arial" font-size="14.00">18</text>
</g>
<!-- 17&#45;&#45;18 -->
<g id="edge13" class="edge"><title>17&#45;&#45;18</title>
<path fill="none" stroke="black" d="M47.4069,-327C58.9772,-327 73.0538,-327 84.6202,-327"/>
</g>
<!-- 19 -->
<g id="node19" class="node"><title>19</title>
<ellipse fill="none" stroke="black" cx="192" cy="-327" rx="23.1702" ry="23.1702"/>
<text text-anchor="middle" x="192" y="-323.3" font-family="Arial" font-size="14.00">19</text>
</g>
<!-- 18&#45;&#45;19 -->
<g id="edge14" class="edge"><title>18&#45;&#45;19</title>
<path fill="none" stroke="black" d="M131.407,-327C142.977,-327 157.054,-327 168.62,-327"/>
</g>
<!-- 20 -->
<g id="node20" class="node"><title>20</title>
<ellipse fill="none" stroke="black" cx="276" cy="-327" rx="23.1702" ry="23.1702"/>
<text text-anchor="middle" x="276" y="-323.3" font-family="Arial" font-size="14.00">20</text>
</g>
<!-- 19&#45;&#45;20 -->
<g id="edge15" class="edge"><title>19&#45;&#45;20</title>
<path fill="none" stroke="black" d="M215.407,-327C226.977,-327 241.054,-327 252.62,-327"/>
</g>
<!-- 21 -->
<g id="node21" class="node"><title>21</title>
<ellipse fill="none" stroke="black" cx="24" cy="-392" rx="23.1702" ry="23.1702"/>
<text text-anchor="middle" x="24" y="-388.3" font-family="Arial" font-size="14.00">21</text>
</g>
<!-- 22 -->
<g id="node22" class="node"><title>22</title>
<ellipse fill="none" stroke="black" cx="108" cy="-392" rx="23.1702" ry="23.1702"/>
<text text-anchor="middle" x="108" y="-388.3" font-family="Arial" font-size="14.00">22</text>
</g>
<!-- 21&#45;&#45;22 -->
<g id="edge16" class="edge"><title>21&#45;&#45;22</title>
<path fill="none" stroke="black" d="M47.4069,-392C58.9772,-392 73.0538,-392 84.6202,-392"/>
</g>
<!-- 23 -->
<g id="node23" class="node"><title>23</title>
<ellipse fill="none" stroke="black" cx="192" cy="-392" rx="23.1702" ry="23.1702"/>
<text text-anchor="middle" x="192" y="-388.3" font-family="Arial" font-size="14.00">23</text>
</g>
<!-- 22&#45;&#45;23 -->
<g id="edge17" class="edge"><title>22&#45;&#45;23</title>
<path fill="none" stroke="black" d="M131.407,-392C142.977,-392 157.054,-392 168.62,-392"/>
</g>
<!-- 24 -->
<g id="node24" class="node"><title>24</title>
<ellipse fill="none" stroke="black" cx="276" cy="-392" rx="23.1702" ry="23.1702"/>
<text text-anchor="middle" x="276" y="-388.3" font-family="Arial" font-size="14.00">24</text>
</g>
<!-- 23&#45;&#45;24 -->
<g id="edge18" class="edge"><title>23&#45;&#45;24</title>
<path fill="none" stroke="black" d="M215.407,-392C226.977,-392 241.054,-392 252.62,-392"/>
</g>
<!-- 25 -->
<g id="node25" class="node"><title>25</title>
<ellipse fill="none" stroke="black" cx="24" cy="-457" rx="23.1702" ry="23.1702"/>
<text text-anchor="middle" x="24" y="-453.3" font-family="Arial" font-size="14.00">25</text>
</g>
<!-- 26 -->
<g id="node26" class="node"><title>26</title>
<ellipse fill="none" stroke="black" cx="108" cy="-457" rx="23.1702" ry="23.1702"/>
<text text-anchor="middle" x="108" y="-453.3" font-family="Arial" font-size="14.00">26</text>
</g>
<!-- 25&#45;&#45;26 -->
<g id="edge19" class="edge"><title>25&#45;&#45;26</title>
<path fill="none" stroke="black" d="M47.4069,-457C58.9772,-457 73.0538,-457 84.6202,-457"/>
</g>
<!-- 27 -->
<g id="node27" class="node"><title>27</title>
<ellipse fill="none" stroke="black" cx="192" cy="-457" rx="23.1702" ry="23.1702"/>
<text text-anchor="middle" x="192" y="-453.3" font-family="Arial" font-size="14.00">27</text>
</g>
<!-- 26&#45;&#45;27 -->
<g id="edge20" class="edge"><title>26&#45;&#45;27</title>
<path fill="none" stroke="black" d="M131.407,-457C142.977,-457 157.054,-457 168.62,-457"/>
</g>
<!-- 28 -->
<g id="node28" class="node"><title>28</title>
<ellipse fill="none" stroke="black" cx="276" cy="-457" rx="23.1702" ry="23.1702"/>
<text text-anchor="middle" x="276" y="-453.3" font-family="Arial" font-size="14.00">28</text>
</g>
<!-- 27&#45;&#45;28 -->
<g id="edge21" class="edge"><title>27&#45;&#45;28</title>
<path fill="none" stroke="black" d="M215.407,-457C226.977,-457 241.054,-457 252.62,-457"/>
</g>
<!-- 29 -->
<g id="node29" class="node"><title>29</title>
<ellipse fill="none" stroke="black" cx="24" cy="-522" rx="23.1702" ry="23.1702"/>
<text text-anchor="middle" x="24" y="-518.3" font-family="Arial" font-size="14.00">29</text>
</g>
<!-- 30 -->
<g id="node30" class="node"><title>30</title>
<ellipse fill="none" stroke="black" cx="108" cy="-522" rx="23.1702" ry="23.1702"/>
<text text-anchor="middle" x="108" y="-518.3" font-family="Arial" font-size="14.00">30</text>
</g>
<!-- 29&#45;&#45;30 -->
<g id="edge22" class="edge"><title>29&#45;&#45;30</title>
<path fill="none" stroke="black" d="M47.4069,-522C58.9772,-522 73.0538,-522 84.6202,-522"/>
</g>
<!-- 31 -->
<g id="node31" class="node"><title>31</title>
<ellipse fill="none" stroke="black" cx="192" cy="-522" rx="23.1702" ry="23.1702"/>
<text text-anchor="middle" x="192" y="-518.3" font-family="Arial" font-size="14.00">31</text>
</g>
<!-- 30&#45;&#45;31 -->
<g id="edge23" class="edge"><title>30&#45;&#45;31</title>
<path fill="none" stroke="black" d="M131.407,-522C142.977,-522 157.054,-522 168.62,-522"/>
</g>
<!-- 32 -->
<g id="node32" class="node"><title>32</title>
<ellipse fill="none" stroke="black" cx="276" cy="-522" rx="23.1702" ry="23.1702"/>
<text text-anchor="middle" x="276" y="-518.3" font-family="Arial" font-size="14.00">32</text>
</g>
<!-- 31&#45;&#45;32 -->
<g id="edge24" class="edge"><title>31&#45;&#45;32</title>
<path fill="none" stroke="black" d="M215.407,-522C226.977,-522 241.054,-522 252.62,-522"/>
</g>
<!-- 33 -->
<g id="node33" class="node"><title>33</title>
<ellipse fill="none" stroke="black" cx="24" cy="-587" rx="23.1702" ry="23.1702"/>
<text text-anchor="middle" x="24" y="-583.3" font-family="Arial" font-size="14.00">33</text>
</g>
<!-- 34 -->
<g id="node34" class="node"><title>34</title>
<ellipse fill="none" stroke="black" cx="108" cy="-587" rx="23.1702" ry="23.1702"/>
<text text-anchor="middle" x="108" y="-583.3" font-family="Arial" font-size="14.00">34</text>
</g>
<!-- 33&#45;&#45;34 -->
<g id="edge25" class="edge"><title>33&#45;&#45;34</title>
<path fill="none" stroke="black" d="M47.4069,-587C58.9772,-587 73.0538,-587 84.6202,-587"/>
</g>
<!-- 35 -->
<g id="node35" class="node"><title>35</title>
<ellipse fill="none" stroke="black" cx="192" cy="-587" rx="23.1702" ry="23.1702"/>
<text text-anchor="middle" x="192" y="-583.3" font-family="Arial" font-size="14.00">35</text>
</g>
<!-- 34&#45;&#45;35 -->
<g id="edge26" class="edge"><title>34&#45;&#45;35</title>
<path fill="none" stroke="black" d="M131.407,-587C142.977,-587 157.054,-587 168.62,-587"/>
</g>
<!-- 36 -->
<g id="node36" class="node"><title>36</title>
<ellipse fill="none" stroke="black" cx="276" cy="-587" rx="23.1702" ry="23.1702"/>
<text text-anchor="middle" x="276" y="-583.3" font-family="Arial" font-size="14.00">36</text>
</g>
<!-- 35&#45;&#45;36 -->
<g id="edge27" class="edge"><title>35&#45;&#45;36</title>
<path fill="none" stroke="black" d="M215.407,-587C226.977,-587 241.054,-587 252.62,-587"/>
</g>
<!-- 37 -->
<g id="node37" class="node"><title>37</title>
<ellipse fill="none" stroke="black" cx="24" cy="-652" rx="23.1702" ry="23.1702"/>
<text text-anchor="middle" x="24" y="-648.3" font-family="Arial" font-size="14.00">37</text>
</g>
<!-- 38 -->
<g id="node38" class="node"><title>38</title>
<ellipse fill="none" stroke="black" cx="108" cy="-652" rx="23.1702" ry="23.1702"/>
<text text-anchor="middle" x="108" y="-648.3" font-family="Arial" font-size="14.00">38</text>
</g>
<!-- 37&#45;&#45;38 -->
<g id="edge28" class="edge"><title>37&#45;&#45;38</title>
<path fill="none" stroke="black" d="M47.4069,-652C58.9772,-652 73.0538,-652 84.6202,-652"/>
</g>
<!-- 39 -->
<g id="node39" class="node"><title>39</title>
<ellipse fill="none" stroke="black" cx="192" cy="-652" rx="23.1702" ry="23.1702"/>
<text text-anchor="middle" x="192" y="-648.3" font-family="Arial" font-size="14.00">39</text>
</g>
<!-- 38&#45;&#45;39 -->
<g id="edge29" class="edge"><title>38&#45;&#45;39</title>
<path fill="none" stroke="black" d="M131.407,-652C142.977,-652 157.054,-652 168.62,-652"/>
</g>
<!-- 40 -->
<g id="node40" class="node"><title>40</title>
<ellipse fill="none" stroke="black" cx="276" cy="-652" rx="23.1702" ry="23.1702"/>
<text text-anchor="middle" x="276" y="-648.3" font-family="Arial" font-size="14.00">40</text>
</g>
<!-- 39&#45;&#45;40 -->
<g id="edge30" class="edge"><title>39&#45;&#45;40</title>
<path fill="none" stroke="black" d="M215.407,-652C226.977,-652 241.054,-652 252.62,-652"/>
</g>
<!-- 41 -->
<g id="node41" class="node"><title>41</title>
<ellipse fill="none" stroke="black" cx="24" cy="-717" rx="23.1702" ry="23.1702"/>
<text text-anchor="middle" x="24" y="-713.3" font-family="Arial" font-size="14.00">41</text>
</g>
<!-- 42 -->
<g id="node42" class="node"><title>42</title>
<ellipse fill="none" stroke="black" cx="108" cy="-717" rx="23.1702" ry="23.1702"/>
<text text-anchor="middle" x="108" y="-713.3" font-family="Arial" font-size="14.00">42</text>
</g>
<!-- 41&#45;&#45;42 -->
<g id="edge31" class="edge"><title>41&#45;&#45;42</title>
<path fill="none" stroke="black" d="M47.4069,-717C58.9772,-717 73.0538,-717 84.6202,-717"/>
</g>
<!-- 43 -->
<g id="node43" class="node"><title>43</title>
<ellipse fill="none" stroke="black" cx="192" cy="-717" rx="23.1702" ry="23.1702"/>
<text text-anchor="middle" x="192" y="-713.3" font-family="Arial" font-size="14.00">43</text>
</g>
<!-- 42&#45;&#45;43 -->
<g id="edge32" class="edge"><title>42&#45;&#45;43</title>
<path fill="none" stroke="black" d="M131.407,-717C142.977,-717 157.054,-717 168.62,-717"/>
</g>
<!-- 44 -->
<g id="node44" class="node"><title>44</title>
<ellipse fill="none" stroke="black" cx="276" cy="-717" rx="23.1702" ry="23.1702"/>
<text text-anchor="middle" x="276" y="-713.3" font-family="Arial" font-size="14.00">44</text>
</g>
<!-- 43&#45;&#45;44 -->
<g id="edge33" class="edge"><title>43&#45;&#45;44</title>
<path fill="none" stroke="black" d="M215.407,-717C226.977,-717 241.054,-717 252.62,-717"/>
</g>
<!-- 45 -->
<g id="node45" class="node"><title>45</title>
<ellipse fill="none" stroke="black" cx="24" cy="-782" rx="23.1702" ry="23.1702"/>
<text text-anchor="middle" x="24" y="-778.3" font-family="Arial" font-size="14.00">45</text>
</g>
<!-- 46 -->
<g id="node46" class="node"><title>46</title>
<ellipse fill="none" stroke="black" cx="108" cy="-782" rx="23.1702" ry="23.1702"/>
<text text-anchor="middle" x="108" y="-778.3" font-family="Arial" font-size="14.00">46</text>
</g>
<!-- 45&#45;&#45;46 -->
<g id="edge34" class="edge"><title>45&#45;&#45;46</title>
<path fill="none" stroke="black" d="M47.4069,-782C58.9772,-782 73.0538,-782 84.6202,-782"/>
</g>
<!-- 47 -->
<g id="node47" class="node"><title>47</title>
<ellipse fill="none" stroke="black" cx="192" cy="-782" rx="23.1702" ry="23.1702"/>
<text text-anchor="middle" x="192" y="-778.3" font-family="Arial" font-size="14.00">47</text>
</g>
<!-- 46&#45;&#45;47 -->
<g id="edge35" class="edge"><title>46&#45;&#45;47</title>
<path fill="none" stroke="black" d="M131.407,-782C142.977,-782 157.054,-782 168.62,-782"/>
</g>
<!-- 48 -->
<g id="node48" class="node"><title>48</title>
<ellipse fill="none" stroke="black" cx="276" cy="-782" rx="23.1702" ry="23.1702"/>
<text text-anchor="middle" x="276" y="-778.3" font-family="Arial" font-size="14.00">48</text>
</g>
<!-- 47&#45;&#45;48 -->
<g id="edge36" class="edge"><title>47&#45;&#45;48</title>
<path fill="none" stroke="black" d="M215.407,-782C226.977,-782 241.054,-782 252.62,-782"/>
</g>
</g>
</svg>
