<?xml version="1.0" encoding="UTF-8" standalone="no"?>
<!DOCTYPE svg PUBLIC "-//W3C//DTD SVG 1.1//EN"
 "http://www.w3.org/Graphics/SVG/1.1/DTD/svg11.dtd">
<!-- Generated by graphviz version 2.26.3 (20100126.1600)
 -->
<!-- Title: Petersen Pages: 1 -->
<svg width="308pt" height="818pt"
 viewBox="0.00 0.00 308.00 818.00" xmlns="http://www.w3.org/2000/svg" xmlns:xlink="http://www.w3.org/1999/xlink">
<g id="graph1" class="graph" transform="scale(1 1) rotate(0) translate(4 814)">
<title>Petersen</title>
<polygon fill="white" stroke="white" points="-4,5 -4,-814 305,-814 305,5 -4,5"/>
<text text-anchor="middle" x="150" y="-67.4" font-family="Times Roman,serif" font-size="14.00">Starting node: 5</text>
<text text-anchor="middle" x="150" y="-48.4" font-family="Times Roman,serif" font-size="14.00">Path length: 3</text>
<text text-anchor="middle" x="150" y="-29.4" font-family="Times Roman,serif" font-size="14.00">Allow cycles: 0</text>
<text text-anchor="middle" x="150" y="-10.4" font-family="Times Roman,serif" font-size="14.00">Solutions: 12</text>
<!-- 1 -->
<g id="node1" class="node"><title>1</title>
<ellipse fill="none" stroke="black" cx="24" cy="-101" rx="17.1726" ry="17.6777"/>
<text text-anchor="middle" x="24" y="-96.4" font-family="Arial" font-size="14.00">1</text>
</g>
<!-- 2 -->
<g id="node2" class="node"><title>2</title>
<ellipse fill="none" stroke="black" cx="108" cy="-101" rx="17.1726" ry="17.6777"/>
<text text-anchor="middle" x="108" y="-96.4" font-family="Arial" font-size="14.00">2</text>
</g>
<!-- 1&#45;&#45;2 -->
<g id="edge2" class="edge"><title>1&#45;&#45;2</title>
<path fill="none" stroke="black" d="M41.8142,-101C56.1656,-101 76.2322,-101 90.4995,-101"/>
</g>
<!-- 3 -->
<g id="node3" class="node"><title>3</title>
<ellipse fill="none" stroke="black" cx="192" cy="-101" rx="17.1726" ry="17.6777"/>
<text text-anchor="middle" x="192" y="-96.4" font-family="Arial" font-size="14.00">3</text>
</g>
<!-- 2&#45;&#45;3 -->
<g id="edge3" class="edge"><title>2&#45;&#45;3</title>
<path fill="none" stroke="black" d="M125.814,-101C140.166,-101 160.232,-101 174.499,-101"/>
</g>
<!-- 4 -->
<g id="node4" class="node"><title>4</title>
<ellipse fill="none" stroke="black" cx="276" cy="-101" rx="17.1726" ry="17.6777"/>
<text text-anchor="middle" x="276" y="-96.4" font-family="Arial" font-size="14.00">4</text>
</g>
<!-- 3&#45;&#45;4 -->
<g id="edge4" class="edge"><title>3&#45;&#45;4</title>
<path fill="none" stroke="black" d="M209.814,-101C224.166,-101 244.232,-101 258.499,-101"/>
</g>
<!-- 5 -->
<g id="node5" class="node"><title>5</title>
<ellipse fill="none" stroke="black" cx="24" cy="-153" rx="17.1726" ry="17.6777"/>
<text text-anchor="middle" x="24" y="-148.4" font-family="Arial" font-size="14.00">5</text>
</g>
<!-- 6 -->
<g id="node6" class="node"><title>6</title>
<ellipse fill="none" stroke="black" cx="108" cy="-153" rx="17.1726" ry="17.6777"/>
<text text-anchor="middle" x="108" y="-148.4" font-family="Arial" font-size="14.00">6</text>
</g>
<!-- 5&#45;&#45;6 -->
<g id="edge6" class="edge"><title>5&#45;&#45;6</title>
<path fill="none" stroke="black" d="M41.8142,-153C56.1656,-153 76.2322,-153 90.4995,-153"/>
</g>
<!-- 7 -->
<g id="node7" class="node"><title>7</title>
<ellipse fill="none" stroke="black" cx="192" cy="-153" rx="17.1726" ry="17.6777"/>
<text text-anchor="middle" x="192" y="-148.4" font-family="Arial" font-size="14.00">7</text>
</g>
<!-- 6&#45;&#45;7 -->
<g id="edge7" class="edge"><title>6&#45;&#45;7</title>
<path fill="none" stroke="black" d="M125.814,-153C140.166,-153 160.232,-153 174.499,-153"/>
</g>
<!-- 8 -->
<g id="node8" class="node"><title>8</title>
<ellipse fill="none" stroke="black" cx="276" cy="-153" rx="17.1726" ry="17.6777"/>
<text text-anchor="middle" x="276" y="-148.4" font-family="Arial" font-size="14.00">8</text>
</g>
<!-- 7&#45;&#45;8 -->
<g id="edge8" class="edge"><title>7&#45;&#45;8</title>
<path fill="none" stroke="black" d="M209.814,-153C224.166,-153 244.232,-153 258.499,-153"/>
</g>
<!-- 9 -->
<g id="node9" class="node"><title>9</title>
<ellipse fill="none" stroke="black" cx="24" cy="-211" rx="17.1726" ry="17.6777"/>
<text text-anchor="middle" x="24" y="-206.4" font-family="Arial" font-size="14.00">9</text>
</g>
<!-- 10 -->
<g id="node10" class="node"><title>10</title>
<ellipse fill="none" stroke="black" cx="108" cy="-211" rx="22.838" ry="23.3345"/>
<text text-anchor="middle" x="108" y="-206.4" font-family="Arial" font-size="14.00">10</text>
</g>
<!-- 9&#45;&#45;10 -->
<g id="edge10" class="edge"><title>9&#45;&#45;10</title>
<path fill="none" stroke="black" d="M41.8142,-211C54.2393,-211 70.9482,-211 84.4687,-211"/>
</g>
<!-- 11 -->
<g id="node11" class="node"><title>11</title>
<ellipse fill="none" stroke="black" cx="192" cy="-211" rx="22.1246" ry="22.6274"/>
<text text-anchor="middle" x="192" y="-206.4" font-family="Arial" font-size="14.00">11</text>
</g>
<!-- 10&#45;&#45;11 -->
<g id="edge11" class="edge"><title>10&#45;&#45;11</title>
<path fill="none" stroke="black" d="M131.846,-211C143.584,-211 157.665,-211 169.251,-211"/>
</g>
<!-- 12 -->
<g id="node12" class="node"><title>12</title>
<ellipse fill="none" stroke="black" cx="276" cy="-211" rx="22.838" ry="23.3345"/>
<text text-anchor="middle" x="276" y="-206.4" font-family="Arial" font-size="14.00">12</text>
</g>
<!-- 11&#45;&#45;12 -->
<g id="edge12" class="edge"><title>11&#45;&#45;12</title>
<path fill="none" stroke="black" d="M214.51,-211C226.174,-211 240.414,-211 252.252,-211"/>
</g>
<!-- 13 -->
<g id="node13" class="node"><title>13</title>
<ellipse fill="none" stroke="black" cx="24" cy="-275" rx="22.838" ry="23.3345"/>
<text text-anchor="middle" x="24" y="-270.4" font-family="Arial" font-size="14.00">13</text>
</g>
<!-- 14 -->
<g id="node14" class="node"><title>14</title>
<ellipse fill="none" stroke="black" cx="108" cy="-275" rx="22.838" ry="23.3345"/>
<text text-anchor="middle" x="108" y="-270.4" font-family="Arial" font-size="14.00">14</text>
</g>
<!-- 13&#45;&#45;14 -->
<g id="edge14" class="edge"><title>13&#45;&#45;14</title>
<path fill="none" stroke="black" d="M47.8463,-275C59.2933,-275 72.968,-275 84.3848,-275"/>
</g>
<!-- 15 -->
<g id="node15" class="node"><title>15</title>
<ellipse fill="none" stroke="black" cx="192" cy="-275" rx="22.838" ry="23.3345"/>
<text text-anchor="middle" x="192" y="-270.4" font-family="Arial" font-size="14.00">15</text>
</g>
<!-- 14&#45;&#45;15 -->
<g id="edge15" class="edge"><title>14&#45;&#45;15</title>
<path fill="none" stroke="black" d="M131.846,-275C143.293,-275 156.968,-275 168.385,-275"/>
</g>
<!-- 16 -->
<g id="node16" class="node"><title>16</title>
<ellipse fill="none" stroke="black" cx="276" cy="-275" rx="22.838" ry="23.3345"/>
<text text-anchor="middle" x="276" y="-270.4" font-family="Arial" font-size="14.00">16</text>
</g>
<!-- 15&#45;&#45;16 -->
<g id="edge16" class="edge"><title>15&#45;&#45;16</title>
<path fill="none" stroke="black" d="M215.846,-275C227.293,-275 240.968,-275 252.385,-275"/>
</g>
<!-- 17 -->
<g id="node17" class="node"><title>17</title>
<ellipse fill="none" stroke="black" cx="24" cy="-339" rx="22.838" ry="23.3345"/>
<text text-anchor="middle" x="24" y="-334.4" font-family="Arial" font-size="14.00">17</text>
</g>
<!-- 18 -->
<g id="node18" class="node"><title>18</title>
<ellipse fill="none" stroke="black" cx="108" cy="-339" rx="22.838" ry="23.3345"/>
<text text-anchor="middle" x="108" y="-334.4" font-family="Arial" font-size="14.00">18</text>
</g>
<!-- 17&#45;&#45;18 -->
<g id="edge18" class="edge"><title>17&#45;&#45;18</title>
<path fill="none" stroke="black" d="M47.8463,-339C59.2933,-339 72.968,-339 84.3848,-339"/>
</g>
<!-- 19 -->
<g id="node19" class="node"><title>19</title>
<ellipse fill="none" stroke="black" cx="192" cy="-339" rx="22.838" ry="23.3345"/>
<text text-anchor="middle" x="192" y="-334.4" font-family="Arial" font-size="14.00">19</text>
</g>
<!-- 18&#45;&#45;19 -->
<g id="edge19" class="edge"><title>18&#45;&#45;19</title>
<path fill="none" stroke="black" d="M131.846,-339C143.293,-339 156.968,-339 168.385,-339"/>
</g>
<!-- 20 -->
<g id="node20" class="node"><title>20</title>
<ellipse fill="none" stroke="black" cx="276" cy="-339" rx="22.838" ry="23.3345"/>
<text text-anchor="middle" x="276" y="-334.4" font-family="Arial" font-size="14.00">20</text>
</g>
<!-- 19&#45;&#45;20 -->
<g id="edge20" class="edge"><title>19&#45;&#45;20</title>
<path fill="none" stroke="black" d="M215.846,-339C227.293,-339 240.968,-339 252.385,-339"/>
</g>
<!-- 21 -->
<g id="node21" class="node"><title>21</title>
<ellipse fill="none" stroke="black" cx="24" cy="-403" rx="22.838" ry="23.3345"/>
<text text-anchor="middle" x="24" y="-398.4" font-family="Arial" font-size="14.00">21</text>
</g>
<!-- 22 -->
<g id="node22" class="node"><title>22</title>
<ellipse fill="none" stroke="black" cx="108" cy="-403" rx="22.838" ry="23.3345"/>
<text text-anchor="middle" x="108" y="-398.4" font-family="Arial" font-size="14.00">22</text>
</g>
<!-- 21&#45;&#45;22 -->
<g id="edge22" class="edge"><title>21&#45;&#45;22</title>
<path fill="none" stroke="black" d="M47.8463,-403C59.2933,-403 72.968,-403 84.3848,-403"/>
</g>
<!-- 23 -->
<g id="node23" class="node"><title>23</title>
<ellipse fill="none" stroke="black" cx="192" cy="-403" rx="22.838" ry="23.3345"/>
<text text-anchor="middle" x="192" y="-398.4" font-family="Arial" font-size="14.00">23</text>
</g>
<!-- 22&#45;&#45;23 -->
<g id="edge23" class="edge"><title>22&#45;&#45;23</title>
<path fill="none" stroke="black" d="M131.846,-403C143.293,-403 156.968,-403 168.385,-403"/>
</g>
<!-- 24 -->
<g id="node24" class="node"><title>24</title>
<ellipse fill="none" stroke="black" cx="276" cy="-403" rx="22.838" ry="23.3345"/>
<text text-anchor="middle" x="276" y="-398.4" font-family="Arial" font-size="14.00">24</text>
</g>
<!-- 23&#45;&#45;24 -->
<g id="edge24" class="edge"><title>23&#45;&#45;24</title>
<path fill="none" stroke="black" d="M215.846,-403C227.293,-403 240.968,-403 252.385,-403"/>
</g>
<!-- 25 -->
<g id="node25" class="node"><title>25</title>
<ellipse fill="none" stroke="black" cx="24" cy="-467" rx="22.838" ry="23.3345"/>
<text text-anchor="middle" x="24" y="-462.4" font-family="Arial" font-size="14.00">25</text>
</g>
<!-- 26 -->
<g id="node26" class="node"><title>26</title>
<ellipse fill="none" stroke="black" cx="108" cy="-467" rx="22.838" ry="23.3345"/>
<text text-anchor="middle" x="108" y="-462.4" font-family="Arial" font-size="14.00">26</text>
</g>
<!-- 25&#45;&#45;26 -->
<g id="edge26" class="edge"><title>25&#45;&#45;26</title>
<path fill="none" stroke="black" d="M47.8463,-467C59.2933,-467 72.968,-467 84.3848,-467"/>
</g>
<!-- 27 -->
<g id="node27" class="node"><title>27</title>
<ellipse fill="none" stroke="black" cx="192" cy="-467" rx="22.838" ry="23.3345"/>
<text text-anchor="middle" x="192" y="-462.4" font-family="Arial" font-size="14.00">27</text>
</g>
<!-- 26&#45;&#45;27 -->
<g id="edge27" class="edge"><title>26&#45;&#45;27</title>
<path fill="none" stroke="black" d="M131.846,-467C143.293,-467 156.968,-467 168.385,-467"/>
</g>
<!-- 28 -->
<g id="node28" class="node"><title>28</title>
<ellipse fill="none" stroke="black" cx="276" cy="-467" rx="22.838" ry="23.3345"/>
<text text-anchor="middle" x="276" y="-462.4" font-family="Arial" font-size="14.00">28</text>
</g>
<!-- 27&#45;&#45;28 -->
<g id="edge28" class="edge"><title>27&#45;&#45;28</title>
<path fill="none" stroke="black" d="M215.846,-467C227.293,-467 240.968,-467 252.385,-467"/>
</g>
<!-- 29 -->
<g id="node29" class="node"><title>29</title>
<ellipse fill="none" stroke="black" cx="24" cy="-531" rx="22.838" ry="23.3345"/>
<text text-anchor="middle" x="24" y="-526.4" font-family="Arial" font-size="14.00">29</text>
</g>
<!-- 30 -->
<g id="node30" class="node"><title>30</title>
<ellipse fill="none" stroke="black" cx="108" cy="-531" rx="22.838" ry="23.3345"/>
<text text-anchor="middle" x="108" y="-526.4" font-family="Arial" font-size="14.00">30</text>
</g>
<!-- 29&#45;&#45;30 -->
<g id="edge30" class="edge"><title>29&#45;&#45;30</title>
<path fill="none" stroke="black" d="M47.8463,-531C59.2933,-531 72.968,-531 84.3848,-531"/>
</g>
<!-- 31 -->
<g id="node31" class="node"><title>31</title>
<ellipse fill="none" stroke="black" cx="192" cy="-531" rx="22.838" ry="23.3345"/>
<text text-anchor="middle" x="192" y="-526.4" font-family="Arial" font-size="14.00">31</text>
</g>
<!-- 30&#45;&#45;31 -->
<g id="edge31" class="edge"><title>30&#45;&#45;31</title>
<path fill="none" stroke="black" d="M131.846,-531C143.293,-531 156.968,-531 168.385,-531"/>
</g>
<!-- 32 -->
<g id="node32" class="node"><title>32</title>
<ellipse fill="none" stroke="black" cx="276" cy="-531" rx="22.838" ry="23.3345"/>
<text text-anchor="middle" x="276" y="-526.4" font-family="Arial" font-size="14.00">32</text>
</g>
<!-- 31&#45;&#45;32 -->
<g id="edge32" class="edge"><title>31&#45;&#45;32</title>
<path fill="none" stroke="black" d="M215.846,-531C227.293,-531 240.968,-531 252.385,-531"/>
</g>
<!-- 33 -->
<g id="node33" class="node"><title>33</title>
<ellipse fill="none" stroke="black" cx="24" cy="-595" rx="22.838" ry="23.3345"/>
<text text-anchor="middle" x="24" y="-590.4" font-family="Arial" font-size="14.00">33</text>
</g>
<!-- 34 -->
<g id="node34" class="node"><title>34</title>
<ellipse fill="none" stroke="black" cx="108" cy="-595" rx="22.838" ry="23.3345"/>
<text text-anchor="middle" x="108" y="-590.4" font-family="Arial" font-size="14.00">34</text>
</g>
<!-- 33&#45;&#45;34 -->
<g id="edge34" class="edge"><title>33&#45;&#45;34</title>
<path fill="none" stroke="black" d="M47.8463,-595C59.2933,-595 72.968,-595 84.3848,-595"/>
</g>
<!-- 35 -->
<g id="node35" class="node"><title>35</title>
<ellipse fill="none" stroke="black" cx="192" cy="-595" rx="22.838" ry="23.3345"/>
<text text-anchor="middle" x="192" y="-590.4" font-family="Arial" font-size="14.00">35</text>
</g>
<!-- 34&#45;&#45;35 -->
<g id="edge35" class="edge"><title>34&#45;&#45;35</title>
<path fill="none" stroke="black" d="M131.846,-595C143.293,-595 156.968,-595 168.385,-595"/>
</g>
<!-- 36 -->
<g id="node36" class="node"><title>36</title>
<ellipse fill="none" stroke="black" cx="276" cy="-595" rx="22.838" ry="23.3345"/>
<text text-anchor="middle" x="276" y="-590.4" font-family="Arial" font-size="14.00">36</text>
</g>
<!-- 35&#45;&#45;36 -->
<g id="edge36" class="edge"><title>35&#45;&#45;36</title>
<path fill="none" stroke="black" d="M215.846,-595C227.293,-595 240.968,-595 252.385,-595"/>
</g>
<!-- 37 -->
<g id="node37" class="node"><title>37</title>
<ellipse fill="none" stroke="black" cx="24" cy="-659" rx="22.838" ry="23.3345"/>
<text text-anchor="middle" x="24" y="-654.4" font-family="Arial" font-size="14.00">37</text>
</g>
<!-- 38 -->
<g id="node38" class="node"><title>38</title>
<ellipse fill="none" stroke="black" cx="108" cy="-659" rx="22.838" ry="23.3345"/>
<text text-anchor="middle" x="108" y="-654.4" font-family="Arial" font-size="14.00">38</text>
</g>
<!-- 37&#45;&#45;38 -->
<g id="edge38" class="edge"><title>37&#45;&#45;38</title>
<path fill="none" stroke="black" d="M47.8463,-659C59.2933,-659 72.968,-659 84.3848,-659"/>
</g>
<!-- 39 -->
<g id="node39" class="node"><title>39</title>
<ellipse fill="none" stroke="black" cx="192" cy="-659" rx="22.838" ry="23.3345"/>
<text text-anchor="middle" x="192" y="-654.4" font-family="Arial" font-size="14.00">39</text>
</g>
<!-- 38&#45;&#45;39 -->
<g id="edge39" class="edge"><title>38&#45;&#45;39</title>
<path fill="none" stroke="black" d="M131.846,-659C143.293,-659 156.968,-659 168.385,-659"/>
</g>
<!-- 40 -->
<g id="node40" class="node"><title>40</title>
<ellipse fill="none" stroke="black" cx="276" cy="-659" rx="22.838" ry="23.3345"/>
<text text-anchor="middle" x="276" y="-654.4" font-family="Arial" font-size="14.00">40</text>
</g>
<!-- 39&#45;&#45;40 -->
<g id="edge40" class="edge"><title>39&#45;&#45;40</title>
<path fill="none" stroke="black" d="M215.846,-659C227.293,-659 240.968,-659 252.385,-659"/>
</g>
<!-- 41 -->
<g id="node41" class="node"><title>41</title>
<ellipse fill="none" stroke="black" cx="24" cy="-723" rx="22.838" ry="23.3345"/>
<text text-anchor="middle" x="24" y="-718.4" font-family="Arial" font-size="14.00">41</text>
</g>
<!-- 42 -->
<g id="node42" class="node"><title>42</title>
<ellipse fill="none" stroke="black" cx="108" cy="-723" rx="22.838" ry="23.3345"/>
<text text-anchor="middle" x="108" y="-718.4" font-family="Arial" font-size="14.00">42</text>
</g>
<!-- 41&#45;&#45;42 -->
<g id="edge42" class="edge"><title>41&#45;&#45;42</title>
<path fill="none" stroke="black" d="M47.8463,-723C59.2933,-723 72.968,-723 84.3848,-723"/>
</g>
<!-- 43 -->
<g id="node43" class="node"><title>43</title>
<ellipse fill="none" stroke="black" cx="192" cy="-723" rx="22.838" ry="23.3345"/>
<text text-anchor="middle" x="192" y="-718.4" font-family="Arial" font-size="14.00">43</text>
</g>
<!-- 42&#45;&#45;43 -->
<g id="edge43" class="edge"><title>42&#45;&#45;43</title>
<path fill="none" stroke="black" d="M131.846,-723C143.293,-723 156.968,-723 168.385,-723"/>
</g>
<!-- 44 -->
<g id="node44" class="node"><title>44</title>
<ellipse fill="none" stroke="black" cx="276" cy="-723" rx="22.838" ry="23.3345"/>
<text text-anchor="middle" x="276" y="-718.4" font-family="Arial" font-size="14.00">44</text>
</g>
<!-- 43&#45;&#45;44 -->
<g id="edge44" class="edge"><title>43&#45;&#45;44</title>
<path fill="none" stroke="black" d="M215.846,-723C227.293,-723 240.968,-723 252.385,-723"/>
</g>
<!-- 45 -->
<g id="node45" class="node"><title>45</title>
<ellipse fill="none" stroke="black" cx="24" cy="-787" rx="22.838" ry="23.3345"/>
<text text-anchor="middle" x="24" y="-782.4" font-family="Arial" font-size="14.00">45</text>
</g>
<!-- 46 -->
<g id="node46" class="node"><title>46</title>
<ellipse fill="none" stroke="black" cx="108" cy="-787" rx="22.838" ry="23.3345"/>
<text text-anchor="middle" x="108" y="-782.4" font-family="Arial" font-size="14.00">46</text>
</g>
<!-- 45&#45;&#45;46 -->
<g id="edge46" class="edge"><title>45&#45;&#45;46</title>
<path fill="none" stroke="black" d="M47.8463,-787C59.2933,-787 72.968,-787 84.3848,-787"/>
</g>
<!-- 47 -->
<g id="node47" class="node"><title>47</title>
<ellipse fill="none" stroke="black" cx="192" cy="-787" rx="22.838" ry="23.3345"/>
<text text-anchor="middle" x="192" y="-782.4" font-family="Arial" font-size="14.00">47</text>
</g>
<!-- 46&#45;&#45;47 -->
<g id="edge47" class="edge"><title>46&#45;&#45;47</title>
<path fill="none" stroke="black" d="M131.846,-787C143.293,-787 156.968,-787 168.385,-787"/>
</g>
<!-- 48 -->
<g id="node48" class="node"><title>48</title>
<ellipse fill="none" stroke="black" cx="276" cy="-787" rx="22.838" ry="23.3345"/>
<text text-anchor="middle" x="276" y="-782.4" font-family="Arial" font-size="14.00">48</text>
</g>
<!-- 47&#45;&#45;48 -->
<g id="edge48" class="edge"><title>47&#45;&#45;48</title>
<path fill="none" stroke="black" d="M215.846,-787C227.293,-787 240.968,-787 252.385,-787"/>
</g>
</g>
</svg>
