<?xml version="1.0" encoding="UTF-8" standalone="no"?>
<!DOCTYPE svg PUBLIC "-//W3C//DTD SVG 1.1//EN"
 "http://www.w3.org/Graphics/SVG/1.1/DTD/svg11.dtd">
<!-- Generated by graphviz version 2.26.3 (20100126.1600)
 -->
<!-- Title: Perl Pages: 1 -->
<svg width="296pt" height="221pt"
 viewBox="0.00 0.00 296.00 221.00" xmlns="http://www.w3.org/2000/svg" xmlns:xlink="http://www.w3.org/1999/xlink">
<g id="graph1" class="graph" transform="scale(1 1) rotate(0) translate(4 217)">
<title>Perl</title>
<polygon fill="white" stroke="white" points="-4,5 -4,-217 293,-217 293,5 -4,5"/>
<text text-anchor="middle" x="144" y="-10.4" font-family="Times Roman,serif" font-size="14.00">Cluster set</text>
<g id="graph2" class="cluster"><title>cluster node_03_1</title>
<polygon fill="none" stroke="black" points="8,-35 8,-116 280,-116 280,-35 8,-35"/>
<text text-anchor="middle" x="144" y="-99.4" font-family="Times Roman,serif" font-size="14.00">Cluster node_03_1</text>
</g>
<g id="graph3" class="cluster"><title>cluster node_03_3</title>
<polygon fill="none" stroke="black" points="8,-124 8,-205 280,-205 280,-124 8,-124"/>
<text text-anchor="middle" x="144" y="-188.4" font-family="Times Roman,serif" font-size="14.00">Cluster node_03_3</text>
</g>
<!-- node_03_1 -->
<g id="node2" class="node"><title>node_03_1</title>
<ellipse fill="none" stroke="black" cx="71" cy="-62" rx="53.9477" ry="19.0919"/>
<text text-anchor="middle" x="71" y="-58.9" font-family="Times Roman,serif" font-size="14.00">node_03_1</text>
</g>
<!-- node_03_2 -->
<g id="node3" class="node"><title>node_03_2</title>
<ellipse fill="none" stroke="black" cx="217" cy="-62" rx="53.9477" ry="19.0919"/>
<text text-anchor="middle" x="217" y="-58.9" font-family="Times Roman,serif" font-size="14.00">node_03_2</text>
</g>
<!-- node_03_1&#45;&#45;node_03_2 -->
<g id="edge3" class="edge"><title>node_03_1&#45;&#45;node_03_2</title>
<path fill="none" stroke="black" d="M125.78,-62C137.756,-62 150.43,-62 162.398,-62"/>
</g>
<!-- node_03_3 -->
<g id="node6" class="node"><title>node_03_3</title>
<ellipse fill="none" stroke="black" cx="71" cy="-151" rx="53.9477" ry="19.0919"/>
<text text-anchor="middle" x="71" y="-147.9" font-family="Times Roman,serif" font-size="14.00">node_03_3</text>
</g>
<!-- node_03_4 -->
<g id="node7" class="node"><title>node_03_4</title>
<ellipse fill="none" stroke="black" cx="217" cy="-151" rx="53.9477" ry="19.0919"/>
<text text-anchor="middle" x="217" y="-147.9" font-family="Times Roman,serif" font-size="14.00">node_03_4</text>
</g>
<!-- node_03_3&#45;&#45;node_03_4 -->
<g id="edge6" class="edge"><title>node_03_3&#45;&#45;node_03_4</title>
<path fill="none" stroke="black" d="M125.78,-151C137.756,-151 150.43,-151 162.398,-151"/>
</g>
</g>
</svg>
