<?xml version="1.0" encoding="UTF-8" standalone="no"?>
<!DOCTYPE svg PUBLIC "-//W3C//DTD SVG 1.1//EN"
 "http://www.w3.org/Graphics/SVG/1.1/DTD/svg11.dtd">
<!-- Generated by graphviz version 2.30.1 (20130611.0131)
 -->
<!-- Title: graph_51 Pages: 1 -->
<svg width="166pt" height="122pt"
 viewBox="0.00 0.00 166.00 122.00" xmlns="http://www.w3.org/2000/svg" xmlns:xlink="http://www.w3.org/1999/xlink">
<g id="graph0" class="graph" transform="scale(1 1) rotate(0) translate(4 118)">
<title>graph_51</title>
<polygon fill="white" stroke="white" points="-4,5 -4,-118 163,-118 163,5 -4,5"/>
<text text-anchor="middle" x="79" y="-7.8" font-family="Times,serif" font-size="14.00">Class Demo</text>
<g id="clust1" class="cluster"><title>cluster A</title>
<polygon fill="none" stroke="black" points="8,-31 8,-106 150,-106 150,-31 8,-31"/>
<text text-anchor="middle" x="79" y="-90.8" font-family="Times,serif" font-size="14.00">Cluster A</text>
</g>
<!-- A -->
<g id="node1" class="node"><title>A</title>
<polygon fill="none" stroke="black" points="43,-75 16,-57 43,-39 70,-57 43,-75"/>
<polyline fill="none" stroke="black" points="25,-63 25,-51 "/>
<polyline fill="none" stroke="black" points="34,-45 52,-45 "/>
<polyline fill="none" stroke="black" points="61,-51 61,-63 "/>
<polyline fill="none" stroke="black" points="52,-69 34,-69 "/>
<text text-anchor="middle" x="43" y="-53.3" font-family="Times,serif" font-size="14.00">A</text>
</g>
<!-- B -->
<g id="node2" class="node"><title>B</title>
<polygon fill="none" stroke="black" points="142,-75 106,-75 106,-39 142,-39 142,-75"/>
<polyline fill="none" stroke="black" points="118,-75 106,-63 "/>
<polyline fill="none" stroke="black" points="106,-51 118,-39 "/>
<polyline fill="none" stroke="black" points="130,-39 142,-51 "/>
<polyline fill="none" stroke="black" points="142,-63 130,-75 "/>
<text text-anchor="middle" x="124" y="-53.3" font-family="Times,serif" font-size="14.00">B</text>
</g>
<!-- A&#45;&gt;B -->
<g id="edge1" class="edge"><title>A&#45;&gt;B</title>
<path fill="none" stroke="blue" d="M70.3059,-57C78.4202,-57 87.3739,-57 95.5625,-57"/>
<polygon fill="blue" stroke="blue" points="95.7516,-60.5001 105.752,-57 95.7516,-53.5001 95.7516,-60.5001"/>
</g>
</g>
</svg>
