<?xml version="1.0" encoding="UTF-8" standalone="no"?>
<!DOCTYPE svg PUBLIC "-//W3C//DTD SVG 1.1//EN"
 "http://www.w3.org/Graphics/SVG/1.1/DTD/svg11.dtd">
<!-- Generated by graphviz version 2.26.3 (20100126.1600)
 -->
<!-- Title: graph_03 Pages: 1 -->
<svg width="134pt" height="120pt"
 viewBox="0.00 0.00 134.00 120.00" xmlns="http://www.w3.org/2000/svg" xmlns:xlink="http://www.w3.org/1999/xlink">
<g id="graph1" class="graph" transform="scale(1 1) rotate(0) translate(4 116)">
<title>graph_03</title>
<polygon fill="white" stroke="white" points="-4,5 -4,-116 131,-116 131,5 -4,5"/>
<!-- A -->
<g id="node1" class="node"><title>A</title>
<ellipse fill="none" stroke="blue" cx="27" cy="-93" rx="27" ry="19.0919"/>
<text text-anchor="middle" x="27" y="-89.9" font-family="Times Roman,serif" font-size="14.00">A</text>
</g>
<!-- B -->
<g id="node3" class="node"><title>B</title>
<ellipse fill="none" stroke="blue" cx="27" cy="-19" rx="27" ry="19.0919"/>
<text text-anchor="middle" x="27" y="-15.9" font-family="Times Roman,serif" font-size="14.00">B</text>
</g>
<!-- A&#45;&gt;B -->
<g id="edge2" class="edge"><title>A&#45;&gt;B</title>
<path fill="none" stroke="green" d="M27,-73.9432C27,-66.1493 27,-56.9538 27,-48.3381"/>
<polygon fill="green" stroke="green" points="30.5001,-48.2494 27,-38.2495 23.5001,-48.2495 30.5001,-48.2494"/>
</g>
<!-- C -->
<g id="node4" class="node"><title>C</title>
<ellipse fill="none" stroke="blue" cx="99" cy="-93" rx="27" ry="19.0919"/>
<text text-anchor="middle" x="99" y="-89.9" font-family="Times Roman,serif" font-size="14.00">C</text>
</g>
<!-- D -->
<g id="node6" class="node"><title>D</title>
<ellipse fill="none" stroke="blue" cx="99" cy="-19" rx="27" ry="19.0919"/>
<text text-anchor="middle" x="99" y="-15.9" font-family="Times Roman,serif" font-size="14.00">D</text>
</g>
<!-- C&#45;&gt;D -->
<g id="edge4" class="edge"><title>C&#45;&gt;D</title>
<path fill="none" stroke="red" d="M99,-73.9432C99,-66.1493 99,-56.9538 99,-48.3381"/>
<polygon fill="red" stroke="red" points="102.5,-48.2494 99,-38.2495 95.5001,-48.2495 102.5,-48.2494"/>
</g>
</g>
</svg>
