<?xml version="1.0" encoding="UTF-8" standalone="no"?>
<!DOCTYPE svg PUBLIC "-//W3C//DTD SVG 1.1//EN"
 "http://www.w3.org/Graphics/SVG/1.1/DTD/svg11.dtd">
<!-- Generated by graphviz version 2.26.3 (20100126.1600)
 -->
<!-- Title: Perl Pages: 1 -->
<svg width="184pt" height="221pt"
 viewBox="0.00 0.00 184.00 221.00" xmlns="http://www.w3.org/2000/svg" xmlns:xlink="http://www.w3.org/1999/xlink">
<g id="graph1" class="graph" transform="scale(1 1) rotate(0) translate(4 217)">
<title>Perl</title>
<polygon fill="white" stroke="white" points="-4,5 -4,-217 181,-217 181,5 -4,5"/>
<text text-anchor="middle" x="88" y="-10.4" font-family="Times Roman,serif" font-size="14.00">Cluster set</text>
<g id="graph2" class="cluster"><title>cluster A</title>
<polygon fill="none" stroke="black" points="8,-35 8,-116 168,-116 168,-35 8,-35"/>
<text text-anchor="middle" x="88" y="-99.4" font-family="Times Roman,serif" font-size="14.00">Cluster A</text>
</g>
<g id="graph3" class="cluster"><title>cluster C</title>
<polygon fill="none" stroke="black" points="8,-124 8,-205 168,-205 168,-124 8,-124"/>
<text text-anchor="middle" x="88" y="-188.4" font-family="Times Roman,serif" font-size="14.00">Cluster C</text>
</g>
<!-- A -->
<g id="node2" class="node"><title>A</title>
<ellipse fill="none" stroke="black" cx="43" cy="-62" rx="27" ry="19.0919"/>
<text text-anchor="middle" x="43" y="-58.9" font-family="Times Roman,serif" font-size="14.00">A</text>
</g>
<!-- B -->
<g id="node3" class="node"><title>B</title>
<ellipse fill="none" stroke="black" cx="133" cy="-62" rx="27" ry="19.0919"/>
<text text-anchor="middle" x="133" y="-58.9" font-family="Times Roman,serif" font-size="14.00">B</text>
</g>
<!-- A&#45;&#45;B -->
<g id="edge3" class="edge"><title>A&#45;&#45;B</title>
<path fill="none" stroke="black" d="M70.003,-62C81.2905,-62 94.3867,-62 105.705,-62"/>
</g>
<!-- C -->
<g id="node6" class="node"><title>C</title>
<ellipse fill="none" stroke="black" cx="43" cy="-151" rx="27" ry="19.0919"/>
<text text-anchor="middle" x="43" y="-147.9" font-family="Times Roman,serif" font-size="14.00">C</text>
</g>
<!-- D -->
<g id="node7" class="node"><title>D</title>
<ellipse fill="none" stroke="black" cx="133" cy="-151" rx="27" ry="19.0919"/>
<text text-anchor="middle" x="133" y="-147.9" font-family="Times Roman,serif" font-size="14.00">D</text>
</g>
<!-- C&#45;&#45;D -->
<g id="edge6" class="edge"><title>C&#45;&#45;D</title>
<path fill="none" stroke="black" d="M70.003,-151C81.2905,-151 94.3867,-151 105.705,-151"/>
</g>
</g>
</svg>
