<?xml version="1.0" encoding="UTF-8" standalone="no"?>
<!DOCTYPE svg PUBLIC "-//W3C//DTD SVG 1.1//EN"
 "http://www.w3.org/Graphics/SVG/1.1/DTD/svg11.dtd">
<!-- Generated by graphviz version 2.26.3 (20100126.1600)
 -->
<!-- Title: G Pages: 1 -->
<svg width="332pt" height="46pt"
 viewBox="0.00 0.00 332.00 46.00" xmlns="http://www.w3.org/2000/svg" xmlns:xlink="http://www.w3.org/1999/xlink">
<g id="graph1" class="graph" transform="scale(1 1) rotate(0) translate(4 42)">
<title>G</title>
<polygon fill="white" stroke="white" points="-4,5 -4,-42 329,-42 329,5 -4,5"/>
<!-- A -->
<g id="node1" class="node"><title>A</title>
<ellipse fill="none" stroke="red" cx="27" cy="-19" rx="27" ry="19.0919"/>
<text text-anchor="middle" x="27" y="-15.9" font-family="Times Roman,serif" font-size="14.00">A</text>
</g>
<!-- B -->
<g id="node2" class="node"><title>B</title>
<ellipse fill="none" stroke="green" cx="117" cy="-19" rx="27" ry="19.0919"/>
<text text-anchor="middle" x="117" y="-15.9" font-family="Times Roman,serif" font-size="14.00">B</text>
</g>
<!-- A&#45;&gt;B -->
<g id="edge2" class="edge"><title>A&#45;&gt;B</title>
<path fill="none" stroke="black" d="M52.5497,-12.8449C61.4801,-12.2634 71.6762,-12.1082 81.2822,-12.3793"/>
<polygon fill="black" stroke="black" points="81.2372,-15.8808 91.3865,-12.8408 81.5566,-8.88808 81.2372,-15.8808"/>
</g>
<!-- A&#45;&gt;B -->
<g id="edge6" class="edge"><title>A&#45;&gt;B</title>
<path fill="none" stroke="black" d="M52.5497,-25.1551C61.4801,-25.7366 71.6762,-25.8918 81.2822,-25.6207"/>
<polygon fill="black" stroke="black" points="81.5566,-29.1119 91.3865,-25.1592 81.2372,-22.1192 81.5566,-29.1119"/>
</g>
<!-- C -->
<g id="node3" class="node"><title>C</title>
<ellipse fill="none" stroke="blue" cx="207" cy="-19" rx="27" ry="19.0919"/>
<text text-anchor="middle" x="207" y="-15.9" font-family="Times Roman,serif" font-size="14.00">C</text>
</g>
<!-- B&#45;&gt;C -->
<g id="edge3" class="edge"><title>B&#45;&gt;C</title>
<path fill="none" stroke="black" d="M142.55,-12.8449C151.48,-12.2634 161.676,-12.1082 171.282,-12.3793"/>
<polygon fill="black" stroke="black" points="171.237,-15.8808 181.386,-12.8408 171.557,-8.88808 171.237,-15.8808"/>
</g>
<!-- B&#45;&gt;C -->
<g id="edge7" class="edge"><title>B&#45;&gt;C</title>
<path fill="none" stroke="black" d="M142.55,-25.1551C151.48,-25.7366 161.676,-25.8918 171.282,-25.6207"/>
<polygon fill="black" stroke="black" points="171.557,-29.1119 181.386,-25.1592 171.237,-22.1192 171.557,-29.1119"/>
</g>
<!-- D -->
<g id="node4" class="node"><title>D</title>
<ellipse fill="none" stroke="magenta" cx="297" cy="-19" rx="27" ry="19.0919"/>
<text text-anchor="middle" x="297" y="-15.9" font-family="Times Roman,serif" font-size="14.00">D</text>
</g>
<!-- C&#45;&gt;D -->
<g id="edge4" class="edge"><title>C&#45;&gt;D</title>
<path fill="none" stroke="black" d="M232.55,-12.8449C241.48,-12.2634 251.676,-12.1082 261.282,-12.3793"/>
<polygon fill="black" stroke="black" points="261.237,-15.8808 271.386,-12.8408 261.557,-8.88808 261.237,-15.8808"/>
</g>
<!-- C&#45;&gt;D -->
<g id="edge8" class="edge"><title>C&#45;&gt;D</title>
<path fill="none" stroke="black" d="M232.55,-25.1551C241.48,-25.7366 251.676,-25.8918 261.282,-25.6207"/>
<polygon fill="black" stroke="black" points="261.557,-29.1119 271.386,-25.1592 261.237,-22.1192 261.557,-29.1119"/>
</g>
</g>
</svg>
