<?xml version="1.0" encoding="UTF-8" standalone="no"?>
<!DOCTYPE svg PUBLIC "-//W3C//DTD SVG 1.1//EN"
 "http://www.w3.org/Graphics/SVG/1.1/DTD/svg11.dtd">
<!-- Generated by graphviz version 2.26.3 (20100126.1600)
 -->
<!-- Title: G Pages: 1 -->
<svg width="332pt" height="522pt"
 viewBox="0.00 0.00 332.00 522.00" xmlns="http://www.w3.org/2000/svg" xmlns:xlink="http://www.w3.org/1999/xlink">
<g id="graph1" class="graph" transform="scale(1 1) rotate(0) translate(4 518)">
<title>G</title>
<polygon fill="white" stroke="white" points="-4,5 -4,-518 329,-518 329,5 -4,5"/>
<text text-anchor="middle" x="162" y="-67.4" font-family="Times Roman,serif" font-size="14.00">Starting node: A</text>
<text text-anchor="middle" x="162" y="-48.4" font-family="Times Roman,serif" font-size="14.00">Path length: 3</text>
<text text-anchor="middle" x="162" y="-29.4" font-family="Times Roman,serif" font-size="14.00">Allow cycles: 0</text>
<text text-anchor="middle" x="162" y="-10.4" font-family="Times Roman,serif" font-size="14.00">Solutions: 8</text>
<!-- 1 -->
<g id="node1" class="node"><title>1</title>
<ellipse fill="none" stroke="black" cx="27" cy="-103" rx="27" ry="19.0919"/>
<text text-anchor="middle" x="27" y="-99.9" font-family="Times Roman,serif" font-size="14.00">A</text>
</g>
<!-- 2 -->
<g id="node2" class="node"><title>2</title>
<ellipse fill="none" stroke="black" cx="117" cy="-103" rx="27" ry="19.0919"/>
<text text-anchor="middle" x="117" y="-99.9" font-family="Times Roman,serif" font-size="14.00">B</text>
</g>
<!-- 1&#45;&gt;2 -->
<g id="edge2" class="edge"><title>1&#45;&gt;2</title>
<path fill="none" stroke="black" d="M54.003,-103C62.0277,-103 70.9665,-103 79.5309,-103"/>
<polygon fill="black" stroke="black" points="79.7051,-106.5 89.705,-103 79.705,-99.5001 79.7051,-106.5"/>
</g>
<!-- 3 -->
<g id="node3" class="node"><title>3</title>
<ellipse fill="none" stroke="black" cx="207" cy="-103" rx="27" ry="19.0919"/>
<text text-anchor="middle" x="207" y="-99.9" font-family="Times Roman,serif" font-size="14.00">C</text>
</g>
<!-- 2&#45;&gt;3 -->
<g id="edge3" class="edge"><title>2&#45;&gt;3</title>
<path fill="none" stroke="black" d="M144.003,-103C152.028,-103 160.967,-103 169.531,-103"/>
<polygon fill="black" stroke="black" points="169.705,-106.5 179.705,-103 169.705,-99.5001 169.705,-106.5"/>
</g>
<!-- 4 -->
<g id="node4" class="node"><title>4</title>
<ellipse fill="none" stroke="black" cx="297" cy="-103" rx="27" ry="19.0919"/>
<text text-anchor="middle" x="297" y="-99.9" font-family="Times Roman,serif" font-size="14.00">D</text>
</g>
<!-- 3&#45;&gt;4 -->
<g id="edge4" class="edge"><title>3&#45;&gt;4</title>
<path fill="none" stroke="black" d="M234.003,-103C242.028,-103 250.967,-103 259.531,-103"/>
<polygon fill="black" stroke="black" points="259.705,-106.5 269.705,-103 259.705,-99.5001 259.705,-106.5"/>
</g>
<!-- 5 -->
<g id="node5" class="node"><title>5</title>
<ellipse fill="none" stroke="black" cx="27" cy="-159" rx="27" ry="19.0919"/>
<text text-anchor="middle" x="27" y="-155.9" font-family="Times Roman,serif" font-size="14.00">A</text>
</g>
<!-- 6 -->
<g id="node6" class="node"><title>6</title>
<ellipse fill="none" stroke="black" cx="117" cy="-159" rx="27" ry="19.0919"/>
<text text-anchor="middle" x="117" y="-155.9" font-family="Times Roman,serif" font-size="14.00">B</text>
</g>
<!-- 5&#45;&gt;6 -->
<g id="edge6" class="edge"><title>5&#45;&gt;6</title>
<path fill="none" stroke="black" d="M54.003,-159C62.0277,-159 70.9665,-159 79.5309,-159"/>
<polygon fill="black" stroke="black" points="79.7051,-162.5 89.705,-159 79.705,-155.5 79.7051,-162.5"/>
</g>
<!-- 7 -->
<g id="node7" class="node"><title>7</title>
<ellipse fill="none" stroke="black" cx="207" cy="-159" rx="27" ry="19.0919"/>
<text text-anchor="middle" x="207" y="-155.9" font-family="Times Roman,serif" font-size="14.00">C</text>
</g>
<!-- 6&#45;&gt;7 -->
<g id="edge7" class="edge"><title>6&#45;&gt;7</title>
<path fill="none" stroke="black" d="M144.003,-159C152.028,-159 160.967,-159 169.531,-159"/>
<polygon fill="black" stroke="black" points="169.705,-162.5 179.705,-159 169.705,-155.5 169.705,-162.5"/>
</g>
<!-- 8 -->
<g id="node8" class="node"><title>8</title>
<ellipse fill="none" stroke="black" cx="297" cy="-159" rx="27" ry="19.0919"/>
<text text-anchor="middle" x="297" y="-155.9" font-family="Times Roman,serif" font-size="14.00">D</text>
</g>
<!-- 7&#45;&gt;8 -->
<g id="edge8" class="edge"><title>7&#45;&gt;8</title>
<path fill="none" stroke="black" d="M234.003,-159C242.028,-159 250.967,-159 259.531,-159"/>
<polygon fill="black" stroke="black" points="259.705,-162.5 269.705,-159 259.705,-155.5 259.705,-162.5"/>
</g>
<!-- 9 -->
<g id="node9" class="node"><title>9</title>
<ellipse fill="none" stroke="black" cx="27" cy="-215" rx="27" ry="19.0919"/>
<text text-anchor="middle" x="27" y="-211.9" font-family="Times Roman,serif" font-size="14.00">A</text>
</g>
<!-- 10 -->
<g id="node10" class="node"><title>10</title>
<ellipse fill="none" stroke="black" cx="117" cy="-215" rx="27" ry="19.0919"/>
<text text-anchor="middle" x="117" y="-211.9" font-family="Times Roman,serif" font-size="14.00">B</text>
</g>
<!-- 9&#45;&gt;10 -->
<g id="edge10" class="edge"><title>9&#45;&gt;10</title>
<path fill="none" stroke="black" d="M54.003,-215C62.0277,-215 70.9665,-215 79.5309,-215"/>
<polygon fill="black" stroke="black" points="79.7051,-218.5 89.705,-215 79.705,-211.5 79.7051,-218.5"/>
</g>
<!-- 11 -->
<g id="node11" class="node"><title>11</title>
<ellipse fill="none" stroke="black" cx="207" cy="-215" rx="27" ry="19.0919"/>
<text text-anchor="middle" x="207" y="-211.9" font-family="Times Roman,serif" font-size="14.00">C</text>
</g>
<!-- 10&#45;&gt;11 -->
<g id="edge11" class="edge"><title>10&#45;&gt;11</title>
<path fill="none" stroke="black" d="M144.003,-215C152.028,-215 160.967,-215 169.531,-215"/>
<polygon fill="black" stroke="black" points="169.705,-218.5 179.705,-215 169.705,-211.5 169.705,-218.5"/>
</g>
<!-- 12 -->
<g id="node12" class="node"><title>12</title>
<ellipse fill="none" stroke="black" cx="297" cy="-215" rx="27" ry="19.0919"/>
<text text-anchor="middle" x="297" y="-211.9" font-family="Times Roman,serif" font-size="14.00">D</text>
</g>
<!-- 11&#45;&gt;12 -->
<g id="edge12" class="edge"><title>11&#45;&gt;12</title>
<path fill="none" stroke="black" d="M234.003,-215C242.028,-215 250.967,-215 259.531,-215"/>
<polygon fill="black" stroke="black" points="259.705,-218.5 269.705,-215 259.705,-211.5 259.705,-218.5"/>
</g>
<!-- 13 -->
<g id="node13" class="node"><title>13</title>
<ellipse fill="none" stroke="black" cx="27" cy="-271" rx="27" ry="19.0919"/>
<text text-anchor="middle" x="27" y="-267.9" font-family="Times Roman,serif" font-size="14.00">A</text>
</g>
<!-- 14 -->
<g id="node14" class="node"><title>14</title>
<ellipse fill="none" stroke="black" cx="117" cy="-271" rx="27" ry="19.0919"/>
<text text-anchor="middle" x="117" y="-267.9" font-family="Times Roman,serif" font-size="14.00">B</text>
</g>
<!-- 13&#45;&gt;14 -->
<g id="edge14" class="edge"><title>13&#45;&gt;14</title>
<path fill="none" stroke="black" d="M54.003,-271C62.0277,-271 70.9665,-271 79.5309,-271"/>
<polygon fill="black" stroke="black" points="79.7051,-274.5 89.705,-271 79.705,-267.5 79.7051,-274.5"/>
</g>
<!-- 15 -->
<g id="node15" class="node"><title>15</title>
<ellipse fill="none" stroke="black" cx="207" cy="-271" rx="27" ry="19.0919"/>
<text text-anchor="middle" x="207" y="-267.9" font-family="Times Roman,serif" font-size="14.00">C</text>
</g>
<!-- 14&#45;&gt;15 -->
<g id="edge15" class="edge"><title>14&#45;&gt;15</title>
<path fill="none" stroke="black" d="M144.003,-271C152.028,-271 160.967,-271 169.531,-271"/>
<polygon fill="black" stroke="black" points="169.705,-274.5 179.705,-271 169.705,-267.5 169.705,-274.5"/>
</g>
<!-- 16 -->
<g id="node16" class="node"><title>16</title>
<ellipse fill="none" stroke="black" cx="297" cy="-271" rx="27" ry="19.0919"/>
<text text-anchor="middle" x="297" y="-267.9" font-family="Times Roman,serif" font-size="14.00">D</text>
</g>
<!-- 15&#45;&gt;16 -->
<g id="edge16" class="edge"><title>15&#45;&gt;16</title>
<path fill="none" stroke="black" d="M234.003,-271C242.028,-271 250.967,-271 259.531,-271"/>
<polygon fill="black" stroke="black" points="259.705,-274.5 269.705,-271 259.705,-267.5 259.705,-274.5"/>
</g>
<!-- 17 -->
<g id="node17" class="node"><title>17</title>
<ellipse fill="none" stroke="black" cx="27" cy="-327" rx="27" ry="19.0919"/>
<text text-anchor="middle" x="27" y="-323.9" font-family="Times Roman,serif" font-size="14.00">A</text>
</g>
<!-- 18 -->
<g id="node18" class="node"><title>18</title>
<ellipse fill="none" stroke="black" cx="117" cy="-327" rx="27" ry="19.0919"/>
<text text-anchor="middle" x="117" y="-323.9" font-family="Times Roman,serif" font-size="14.00">B</text>
</g>
<!-- 17&#45;&gt;18 -->
<g id="edge18" class="edge"><title>17&#45;&gt;18</title>
<path fill="none" stroke="black" d="M54.003,-327C62.0277,-327 70.9665,-327 79.5309,-327"/>
<polygon fill="black" stroke="black" points="79.7051,-330.5 89.705,-327 79.705,-323.5 79.7051,-330.5"/>
</g>
<!-- 19 -->
<g id="node19" class="node"><title>19</title>
<ellipse fill="none" stroke="black" cx="207" cy="-327" rx="27" ry="19.0919"/>
<text text-anchor="middle" x="207" y="-323.9" font-family="Times Roman,serif" font-size="14.00">C</text>
</g>
<!-- 18&#45;&gt;19 -->
<g id="edge19" class="edge"><title>18&#45;&gt;19</title>
<path fill="none" stroke="black" d="M144.003,-327C152.028,-327 160.967,-327 169.531,-327"/>
<polygon fill="black" stroke="black" points="169.705,-330.5 179.705,-327 169.705,-323.5 169.705,-330.5"/>
</g>
<!-- 20 -->
<g id="node20" class="node"><title>20</title>
<ellipse fill="none" stroke="black" cx="297" cy="-327" rx="27" ry="19.0919"/>
<text text-anchor="middle" x="297" y="-323.9" font-family="Times Roman,serif" font-size="14.00">D</text>
</g>
<!-- 19&#45;&gt;20 -->
<g id="edge20" class="edge"><title>19&#45;&gt;20</title>
<path fill="none" stroke="black" d="M234.003,-327C242.028,-327 250.967,-327 259.531,-327"/>
<polygon fill="black" stroke="black" points="259.705,-330.5 269.705,-327 259.705,-323.5 259.705,-330.5"/>
</g>
<!-- 21 -->
<g id="node21" class="node"><title>21</title>
<ellipse fill="none" stroke="black" cx="27" cy="-383" rx="27" ry="19.0919"/>
<text text-anchor="middle" x="27" y="-379.9" font-family="Times Roman,serif" font-size="14.00">A</text>
</g>
<!-- 22 -->
<g id="node22" class="node"><title>22</title>
<ellipse fill="none" stroke="black" cx="117" cy="-383" rx="27" ry="19.0919"/>
<text text-anchor="middle" x="117" y="-379.9" font-family="Times Roman,serif" font-size="14.00">B</text>
</g>
<!-- 21&#45;&gt;22 -->
<g id="edge22" class="edge"><title>21&#45;&gt;22</title>
<path fill="none" stroke="black" d="M54.003,-383C62.0277,-383 70.9665,-383 79.5309,-383"/>
<polygon fill="black" stroke="black" points="79.7051,-386.5 89.705,-383 79.705,-379.5 79.7051,-386.5"/>
</g>
<!-- 23 -->
<g id="node23" class="node"><title>23</title>
<ellipse fill="none" stroke="black" cx="207" cy="-383" rx="27" ry="19.0919"/>
<text text-anchor="middle" x="207" y="-379.9" font-family="Times Roman,serif" font-size="14.00">C</text>
</g>
<!-- 22&#45;&gt;23 -->
<g id="edge23" class="edge"><title>22&#45;&gt;23</title>
<path fill="none" stroke="black" d="M144.003,-383C152.028,-383 160.967,-383 169.531,-383"/>
<polygon fill="black" stroke="black" points="169.705,-386.5 179.705,-383 169.705,-379.5 169.705,-386.5"/>
</g>
<!-- 24 -->
<g id="node24" class="node"><title>24</title>
<ellipse fill="none" stroke="black" cx="297" cy="-383" rx="27" ry="19.0919"/>
<text text-anchor="middle" x="297" y="-379.9" font-family="Times Roman,serif" font-size="14.00">D</text>
</g>
<!-- 23&#45;&gt;24 -->
<g id="edge24" class="edge"><title>23&#45;&gt;24</title>
<path fill="none" stroke="black" d="M234.003,-383C242.028,-383 250.967,-383 259.531,-383"/>
<polygon fill="black" stroke="black" points="259.705,-386.5 269.705,-383 259.705,-379.5 259.705,-386.5"/>
</g>
<!-- 25 -->
<g id="node25" class="node"><title>25</title>
<ellipse fill="none" stroke="black" cx="27" cy="-439" rx="27" ry="19.0919"/>
<text text-anchor="middle" x="27" y="-435.9" font-family="Times Roman,serif" font-size="14.00">A</text>
</g>
<!-- 26 -->
<g id="node26" class="node"><title>26</title>
<ellipse fill="none" stroke="black" cx="117" cy="-439" rx="27" ry="19.0919"/>
<text text-anchor="middle" x="117" y="-435.9" font-family="Times Roman,serif" font-size="14.00">B</text>
</g>
<!-- 25&#45;&gt;26 -->
<g id="edge26" class="edge"><title>25&#45;&gt;26</title>
<path fill="none" stroke="black" d="M54.003,-439C62.0277,-439 70.9665,-439 79.5309,-439"/>
<polygon fill="black" stroke="black" points="79.7051,-442.5 89.705,-439 79.705,-435.5 79.7051,-442.5"/>
</g>
<!-- 27 -->
<g id="node27" class="node"><title>27</title>
<ellipse fill="none" stroke="black" cx="207" cy="-439" rx="27" ry="19.0919"/>
<text text-anchor="middle" x="207" y="-435.9" font-family="Times Roman,serif" font-size="14.00">C</text>
</g>
<!-- 26&#45;&gt;27 -->
<g id="edge27" class="edge"><title>26&#45;&gt;27</title>
<path fill="none" stroke="black" d="M144.003,-439C152.028,-439 160.967,-439 169.531,-439"/>
<polygon fill="black" stroke="black" points="169.705,-442.5 179.705,-439 169.705,-435.5 169.705,-442.5"/>
</g>
<!-- 28 -->
<g id="node28" class="node"><title>28</title>
<ellipse fill="none" stroke="black" cx="297" cy="-439" rx="27" ry="19.0919"/>
<text text-anchor="middle" x="297" y="-435.9" font-family="Times Roman,serif" font-size="14.00">D</text>
</g>
<!-- 27&#45;&gt;28 -->
<g id="edge28" class="edge"><title>27&#45;&gt;28</title>
<path fill="none" stroke="black" d="M234.003,-439C242.028,-439 250.967,-439 259.531,-439"/>
<polygon fill="black" stroke="black" points="259.705,-442.5 269.705,-439 259.705,-435.5 259.705,-442.5"/>
</g>
<!-- 29 -->
<g id="node29" class="node"><title>29</title>
<ellipse fill="none" stroke="black" cx="27" cy="-495" rx="27" ry="19.0919"/>
<text text-anchor="middle" x="27" y="-491.9" font-family="Times Roman,serif" font-size="14.00">A</text>
</g>
<!-- 30 -->
<g id="node30" class="node"><title>30</title>
<ellipse fill="none" stroke="black" cx="117" cy="-495" rx="27" ry="19.0919"/>
<text text-anchor="middle" x="117" y="-491.9" font-family="Times Roman,serif" font-size="14.00">B</text>
</g>
<!-- 29&#45;&gt;30 -->
<g id="edge30" class="edge"><title>29&#45;&gt;30</title>
<path fill="none" stroke="black" d="M54.003,-495C62.0277,-495 70.9665,-495 79.5309,-495"/>
<polygon fill="black" stroke="black" points="79.7051,-498.5 89.705,-495 79.705,-491.5 79.7051,-498.5"/>
</g>
<!-- 31 -->
<g id="node31" class="node"><title>31</title>
<ellipse fill="none" stroke="black" cx="207" cy="-495" rx="27" ry="19.0919"/>
<text text-anchor="middle" x="207" y="-491.9" font-family="Times Roman,serif" font-size="14.00">C</text>
</g>
<!-- 30&#45;&gt;31 -->
<g id="edge31" class="edge"><title>30&#45;&gt;31</title>
<path fill="none" stroke="black" d="M144.003,-495C152.028,-495 160.967,-495 169.531,-495"/>
<polygon fill="black" stroke="black" points="169.705,-498.5 179.705,-495 169.705,-491.5 169.705,-498.5"/>
</g>
<!-- 32 -->
<g id="node32" class="node"><title>32</title>
<ellipse fill="none" stroke="black" cx="297" cy="-495" rx="27" ry="19.0919"/>
<text text-anchor="middle" x="297" y="-491.9" font-family="Times Roman,serif" font-size="14.00">D</text>
</g>
<!-- 31&#45;&gt;32 -->
<g id="edge32" class="edge"><title>31&#45;&gt;32</title>
<path fill="none" stroke="black" d="M234.003,-495C242.028,-495 250.967,-495 259.531,-495"/>
<polygon fill="black" stroke="black" points="259.705,-498.5 269.705,-495 259.705,-491.5 259.705,-498.5"/>
</g>
</g>
</svg>
