<?xml version="1.0" encoding="UTF-8" standalone="no"?>
<!DOCTYPE svg PUBLIC "-//W3C//DTD SVG 1.1//EN"
 "http://www.w3.org/Graphics/SVG/1.1/DTD/svg11.dtd">
<!-- Generated by graphviz version 2.30.1 (20130611.0131)
 -->
<!-- Title: G Pages: 1 -->
<svg width="332pt" height="490pt"
 viewBox="0.00 0.00 332.00 490.00" xmlns="http://www.w3.org/2000/svg" xmlns:xlink="http://www.w3.org/1999/xlink">
<g id="graph0" class="graph" transform="scale(1 1) rotate(0) translate(4 486)">
<title>G</title>
<polygon fill="white" stroke="white" points="-4,5 -4,-486 329,-486 329,5 -4,5"/>
<text text-anchor="middle" x="162" y="-52.8" font-family="Times,serif" font-size="14.00">Starting node: A</text>
<text text-anchor="middle" x="162" y="-37.8" font-family="Times,serif" font-size="14.00">Path length: 3</text>
<text text-anchor="middle" x="162" y="-22.8" font-family="Times,serif" font-size="14.00">Allow cycles: 0</text>
<text text-anchor="middle" x="162" y="-7.8" font-family="Times,serif" font-size="14.00">Solutions: 8</text>
<!-- 1 -->
<g id="node1" class="node"><title>1</title>
<ellipse fill="none" stroke="red" cx="27" cy="-86" rx="27" ry="18"/>
<text text-anchor="middle" x="27" y="-82.3" font-family="Times,serif" font-size="14.00">A</text>
</g>
<!-- 2 -->
<g id="node2" class="node"><title>2</title>
<ellipse fill="none" stroke="green" cx="117" cy="-86" rx="27" ry="18"/>
<text text-anchor="middle" x="117" y="-82.3" font-family="Times,serif" font-size="14.00">B</text>
</g>
<!-- 1&#45;&gt;2 -->
<g id="edge1" class="edge"><title>1&#45;&gt;2</title>
<path fill="none" stroke="black" d="M54.4029,-86C62.3932,-86 71.3106,-86 79.8241,-86"/>
<polygon fill="black" stroke="black" points="79.919,-89.5001 89.919,-86 79.919,-82.5001 79.919,-89.5001"/>
</g>
<!-- 3 -->
<g id="node3" class="node"><title>3</title>
<ellipse fill="none" stroke="blue" cx="207" cy="-86" rx="27" ry="18"/>
<text text-anchor="middle" x="207" y="-82.3" font-family="Times,serif" font-size="14.00">C</text>
</g>
<!-- 2&#45;&gt;3 -->
<g id="edge2" class="edge"><title>2&#45;&gt;3</title>
<path fill="none" stroke="black" d="M144.403,-86C152.393,-86 161.311,-86 169.824,-86"/>
<polygon fill="black" stroke="black" points="169.919,-89.5001 179.919,-86 169.919,-82.5001 169.919,-89.5001"/>
</g>
<!-- 4 -->
<g id="node4" class="node"><title>4</title>
<ellipse fill="none" stroke="magenta" cx="297" cy="-86" rx="27" ry="18"/>
<text text-anchor="middle" x="297" y="-82.3" font-family="Times,serif" font-size="14.00">D</text>
</g>
<!-- 3&#45;&gt;4 -->
<g id="edge3" class="edge"><title>3&#45;&gt;4</title>
<path fill="none" stroke="black" d="M234.403,-86C242.393,-86 251.311,-86 259.824,-86"/>
<polygon fill="black" stroke="black" points="259.919,-89.5001 269.919,-86 259.919,-82.5001 259.919,-89.5001"/>
</g>
<!-- 5 -->
<g id="node5" class="node"><title>5</title>
<ellipse fill="none" stroke="red" cx="27" cy="-140" rx="27" ry="18"/>
<text text-anchor="middle" x="27" y="-136.3" font-family="Times,serif" font-size="14.00">A</text>
</g>
<!-- 6 -->
<g id="node6" class="node"><title>6</title>
<ellipse fill="none" stroke="green" cx="117" cy="-140" rx="27" ry="18"/>
<text text-anchor="middle" x="117" y="-136.3" font-family="Times,serif" font-size="14.00">B</text>
</g>
<!-- 5&#45;&gt;6 -->
<g id="edge4" class="edge"><title>5&#45;&gt;6</title>
<path fill="none" stroke="black" d="M54.4029,-140C62.3932,-140 71.3106,-140 79.8241,-140"/>
<polygon fill="black" stroke="black" points="79.919,-143.5 89.919,-140 79.919,-136.5 79.919,-143.5"/>
</g>
<!-- 7 -->
<g id="node7" class="node"><title>7</title>
<ellipse fill="none" stroke="blue" cx="207" cy="-140" rx="27" ry="18"/>
<text text-anchor="middle" x="207" y="-136.3" font-family="Times,serif" font-size="14.00">C</text>
</g>
<!-- 6&#45;&gt;7 -->
<g id="edge5" class="edge"><title>6&#45;&gt;7</title>
<path fill="none" stroke="black" d="M144.403,-140C152.393,-140 161.311,-140 169.824,-140"/>
<polygon fill="black" stroke="black" points="169.919,-143.5 179.919,-140 169.919,-136.5 169.919,-143.5"/>
</g>
<!-- 8 -->
<g id="node8" class="node"><title>8</title>
<ellipse fill="none" stroke="magenta" cx="297" cy="-140" rx="27" ry="18"/>
<text text-anchor="middle" x="297" y="-136.3" font-family="Times,serif" font-size="14.00">D</text>
</g>
<!-- 7&#45;&gt;8 -->
<g id="edge6" class="edge"><title>7&#45;&gt;8</title>
<path fill="none" stroke="black" d="M234.403,-140C242.393,-140 251.311,-140 259.824,-140"/>
<polygon fill="black" stroke="black" points="259.919,-143.5 269.919,-140 259.919,-136.5 259.919,-143.5"/>
</g>
<!-- 9 -->
<g id="node9" class="node"><title>9</title>
<ellipse fill="none" stroke="red" cx="27" cy="-194" rx="27" ry="18"/>
<text text-anchor="middle" x="27" y="-190.3" font-family="Times,serif" font-size="14.00">A</text>
</g>
<!-- 10 -->
<g id="node10" class="node"><title>10</title>
<ellipse fill="none" stroke="green" cx="117" cy="-194" rx="27" ry="18"/>
<text text-anchor="middle" x="117" y="-190.3" font-family="Times,serif" font-size="14.00">B</text>
</g>
<!-- 9&#45;&gt;10 -->
<g id="edge7" class="edge"><title>9&#45;&gt;10</title>
<path fill="none" stroke="black" d="M54.4029,-194C62.3932,-194 71.3106,-194 79.8241,-194"/>
<polygon fill="black" stroke="black" points="79.919,-197.5 89.919,-194 79.919,-190.5 79.919,-197.5"/>
</g>
<!-- 11 -->
<g id="node11" class="node"><title>11</title>
<ellipse fill="none" stroke="blue" cx="207" cy="-194" rx="27" ry="18"/>
<text text-anchor="middle" x="207" y="-190.3" font-family="Times,serif" font-size="14.00">C</text>
</g>
<!-- 10&#45;&gt;11 -->
<g id="edge8" class="edge"><title>10&#45;&gt;11</title>
<path fill="none" stroke="black" d="M144.403,-194C152.393,-194 161.311,-194 169.824,-194"/>
<polygon fill="black" stroke="black" points="169.919,-197.5 179.919,-194 169.919,-190.5 169.919,-197.5"/>
</g>
<!-- 12 -->
<g id="node12" class="node"><title>12</title>
<ellipse fill="none" stroke="magenta" cx="297" cy="-194" rx="27" ry="18"/>
<text text-anchor="middle" x="297" y="-190.3" font-family="Times,serif" font-size="14.00">D</text>
</g>
<!-- 11&#45;&gt;12 -->
<g id="edge9" class="edge"><title>11&#45;&gt;12</title>
<path fill="none" stroke="black" d="M234.403,-194C242.393,-194 251.311,-194 259.824,-194"/>
<polygon fill="black" stroke="black" points="259.919,-197.5 269.919,-194 259.919,-190.5 259.919,-197.5"/>
</g>
<!-- 13 -->
<g id="node13" class="node"><title>13</title>
<ellipse fill="none" stroke="red" cx="27" cy="-248" rx="27" ry="18"/>
<text text-anchor="middle" x="27" y="-244.3" font-family="Times,serif" font-size="14.00">A</text>
</g>
<!-- 14 -->
<g id="node14" class="node"><title>14</title>
<ellipse fill="none" stroke="green" cx="117" cy="-248" rx="27" ry="18"/>
<text text-anchor="middle" x="117" y="-244.3" font-family="Times,serif" font-size="14.00">B</text>
</g>
<!-- 13&#45;&gt;14 -->
<g id="edge10" class="edge"><title>13&#45;&gt;14</title>
<path fill="none" stroke="black" d="M54.4029,-248C62.3932,-248 71.3106,-248 79.8241,-248"/>
<polygon fill="black" stroke="black" points="79.919,-251.5 89.919,-248 79.919,-244.5 79.919,-251.5"/>
</g>
<!-- 15 -->
<g id="node15" class="node"><title>15</title>
<ellipse fill="none" stroke="blue" cx="207" cy="-248" rx="27" ry="18"/>
<text text-anchor="middle" x="207" y="-244.3" font-family="Times,serif" font-size="14.00">C</text>
</g>
<!-- 14&#45;&gt;15 -->
<g id="edge11" class="edge"><title>14&#45;&gt;15</title>
<path fill="none" stroke="black" d="M144.403,-248C152.393,-248 161.311,-248 169.824,-248"/>
<polygon fill="black" stroke="black" points="169.919,-251.5 179.919,-248 169.919,-244.5 169.919,-251.5"/>
</g>
<!-- 16 -->
<g id="node16" class="node"><title>16</title>
<ellipse fill="none" stroke="magenta" cx="297" cy="-248" rx="27" ry="18"/>
<text text-anchor="middle" x="297" y="-244.3" font-family="Times,serif" font-size="14.00">D</text>
</g>
<!-- 15&#45;&gt;16 -->
<g id="edge12" class="edge"><title>15&#45;&gt;16</title>
<path fill="none" stroke="black" d="M234.403,-248C242.393,-248 251.311,-248 259.824,-248"/>
<polygon fill="black" stroke="black" points="259.919,-251.5 269.919,-248 259.919,-244.5 259.919,-251.5"/>
</g>
<!-- 17 -->
<g id="node17" class="node"><title>17</title>
<ellipse fill="none" stroke="red" cx="27" cy="-302" rx="27" ry="18"/>
<text text-anchor="middle" x="27" y="-298.3" font-family="Times,serif" font-size="14.00">A</text>
</g>
<!-- 18 -->
<g id="node18" class="node"><title>18</title>
<ellipse fill="none" stroke="green" cx="117" cy="-302" rx="27" ry="18"/>
<text text-anchor="middle" x="117" y="-298.3" font-family="Times,serif" font-size="14.00">B</text>
</g>
<!-- 17&#45;&gt;18 -->
<g id="edge13" class="edge"><title>17&#45;&gt;18</title>
<path fill="none" stroke="black" d="M54.4029,-302C62.3932,-302 71.3106,-302 79.8241,-302"/>
<polygon fill="black" stroke="black" points="79.919,-305.5 89.919,-302 79.919,-298.5 79.919,-305.5"/>
</g>
<!-- 19 -->
<g id="node19" class="node"><title>19</title>
<ellipse fill="none" stroke="blue" cx="207" cy="-302" rx="27" ry="18"/>
<text text-anchor="middle" x="207" y="-298.3" font-family="Times,serif" font-size="14.00">C</text>
</g>
<!-- 18&#45;&gt;19 -->
<g id="edge14" class="edge"><title>18&#45;&gt;19</title>
<path fill="none" stroke="black" d="M144.403,-302C152.393,-302 161.311,-302 169.824,-302"/>
<polygon fill="black" stroke="black" points="169.919,-305.5 179.919,-302 169.919,-298.5 169.919,-305.5"/>
</g>
<!-- 20 -->
<g id="node20" class="node"><title>20</title>
<ellipse fill="none" stroke="magenta" cx="297" cy="-302" rx="27" ry="18"/>
<text text-anchor="middle" x="297" y="-298.3" font-family="Times,serif" font-size="14.00">D</text>
</g>
<!-- 19&#45;&gt;20 -->
<g id="edge15" class="edge"><title>19&#45;&gt;20</title>
<path fill="none" stroke="black" d="M234.403,-302C242.393,-302 251.311,-302 259.824,-302"/>
<polygon fill="black" stroke="black" points="259.919,-305.5 269.919,-302 259.919,-298.5 259.919,-305.5"/>
</g>
<!-- 21 -->
<g id="node21" class="node"><title>21</title>
<ellipse fill="none" stroke="red" cx="27" cy="-356" rx="27" ry="18"/>
<text text-anchor="middle" x="27" y="-352.3" font-family="Times,serif" font-size="14.00">A</text>
</g>
<!-- 22 -->
<g id="node22" class="node"><title>22</title>
<ellipse fill="none" stroke="green" cx="117" cy="-356" rx="27" ry="18"/>
<text text-anchor="middle" x="117" y="-352.3" font-family="Times,serif" font-size="14.00">B</text>
</g>
<!-- 21&#45;&gt;22 -->
<g id="edge16" class="edge"><title>21&#45;&gt;22</title>
<path fill="none" stroke="black" d="M54.4029,-356C62.3932,-356 71.3106,-356 79.8241,-356"/>
<polygon fill="black" stroke="black" points="79.919,-359.5 89.919,-356 79.919,-352.5 79.919,-359.5"/>
</g>
<!-- 23 -->
<g id="node23" class="node"><title>23</title>
<ellipse fill="none" stroke="blue" cx="207" cy="-356" rx="27" ry="18"/>
<text text-anchor="middle" x="207" y="-352.3" font-family="Times,serif" font-size="14.00">C</text>
</g>
<!-- 22&#45;&gt;23 -->
<g id="edge17" class="edge"><title>22&#45;&gt;23</title>
<path fill="none" stroke="black" d="M144.403,-356C152.393,-356 161.311,-356 169.824,-356"/>
<polygon fill="black" stroke="black" points="169.919,-359.5 179.919,-356 169.919,-352.5 169.919,-359.5"/>
</g>
<!-- 24 -->
<g id="node24" class="node"><title>24</title>
<ellipse fill="none" stroke="magenta" cx="297" cy="-356" rx="27" ry="18"/>
<text text-anchor="middle" x="297" y="-352.3" font-family="Times,serif" font-size="14.00">D</text>
</g>
<!-- 23&#45;&gt;24 -->
<g id="edge18" class="edge"><title>23&#45;&gt;24</title>
<path fill="none" stroke="black" d="M234.403,-356C242.393,-356 251.311,-356 259.824,-356"/>
<polygon fill="black" stroke="black" points="259.919,-359.5 269.919,-356 259.919,-352.5 259.919,-359.5"/>
</g>
<!-- 25 -->
<g id="node25" class="node"><title>25</title>
<ellipse fill="none" stroke="red" cx="27" cy="-410" rx="27" ry="18"/>
<text text-anchor="middle" x="27" y="-406.3" font-family="Times,serif" font-size="14.00">A</text>
</g>
<!-- 26 -->
<g id="node26" class="node"><title>26</title>
<ellipse fill="none" stroke="green" cx="117" cy="-410" rx="27" ry="18"/>
<text text-anchor="middle" x="117" y="-406.3" font-family="Times,serif" font-size="14.00">B</text>
</g>
<!-- 25&#45;&gt;26 -->
<g id="edge19" class="edge"><title>25&#45;&gt;26</title>
<path fill="none" stroke="black" d="M54.4029,-410C62.3932,-410 71.3106,-410 79.8241,-410"/>
<polygon fill="black" stroke="black" points="79.919,-413.5 89.919,-410 79.919,-406.5 79.919,-413.5"/>
</g>
<!-- 27 -->
<g id="node27" class="node"><title>27</title>
<ellipse fill="none" stroke="blue" cx="207" cy="-410" rx="27" ry="18"/>
<text text-anchor="middle" x="207" y="-406.3" font-family="Times,serif" font-size="14.00">C</text>
</g>
<!-- 26&#45;&gt;27 -->
<g id="edge20" class="edge"><title>26&#45;&gt;27</title>
<path fill="none" stroke="black" d="M144.403,-410C152.393,-410 161.311,-410 169.824,-410"/>
<polygon fill="black" stroke="black" points="169.919,-413.5 179.919,-410 169.919,-406.5 169.919,-413.5"/>
</g>
<!-- 28 -->
<g id="node28" class="node"><title>28</title>
<ellipse fill="none" stroke="magenta" cx="297" cy="-410" rx="27" ry="18"/>
<text text-anchor="middle" x="297" y="-406.3" font-family="Times,serif" font-size="14.00">D</text>
</g>
<!-- 27&#45;&gt;28 -->
<g id="edge21" class="edge"><title>27&#45;&gt;28</title>
<path fill="none" stroke="black" d="M234.403,-410C242.393,-410 251.311,-410 259.824,-410"/>
<polygon fill="black" stroke="black" points="259.919,-413.5 269.919,-410 259.919,-406.5 259.919,-413.5"/>
</g>
<!-- 29 -->
<g id="node29" class="node"><title>29</title>
<ellipse fill="none" stroke="red" cx="27" cy="-464" rx="27" ry="18"/>
<text text-anchor="middle" x="27" y="-460.3" font-family="Times,serif" font-size="14.00">A</text>
</g>
<!-- 30 -->
<g id="node30" class="node"><title>30</title>
<ellipse fill="none" stroke="green" cx="117" cy="-464" rx="27" ry="18"/>
<text text-anchor="middle" x="117" y="-460.3" font-family="Times,serif" font-size="14.00">B</text>
</g>
<!-- 29&#45;&gt;30 -->
<g id="edge22" class="edge"><title>29&#45;&gt;30</title>
<path fill="none" stroke="black" d="M54.4029,-464C62.3932,-464 71.3106,-464 79.8241,-464"/>
<polygon fill="black" stroke="black" points="79.919,-467.5 89.919,-464 79.919,-460.5 79.919,-467.5"/>
</g>
<!-- 31 -->
<g id="node31" class="node"><title>31</title>
<ellipse fill="none" stroke="blue" cx="207" cy="-464" rx="27" ry="18"/>
<text text-anchor="middle" x="207" y="-460.3" font-family="Times,serif" font-size="14.00">C</text>
</g>
<!-- 30&#45;&gt;31 -->
<g id="edge23" class="edge"><title>30&#45;&gt;31</title>
<path fill="none" stroke="black" d="M144.403,-464C152.393,-464 161.311,-464 169.824,-464"/>
<polygon fill="black" stroke="black" points="169.919,-467.5 179.919,-464 169.919,-460.5 169.919,-467.5"/>
</g>
<!-- 32 -->
<g id="node32" class="node"><title>32</title>
<ellipse fill="none" stroke="magenta" cx="297" cy="-464" rx="27" ry="18"/>
<text text-anchor="middle" x="297" y="-460.3" font-family="Times,serif" font-size="14.00">D</text>
</g>
<!-- 31&#45;&gt;32 -->
<g id="edge24" class="edge"><title>31&#45;&gt;32</title>
<path fill="none" stroke="black" d="M234.403,-464C242.393,-464 251.311,-464 259.824,-464"/>
<polygon fill="black" stroke="black" points="259.919,-467.5 269.919,-464 259.919,-460.5 259.919,-467.5"/>
</g>
</g>
</svg>
