<?xml version="1.0" encoding="UTF-8" standalone="no"?>
<!DOCTYPE svg PUBLIC "-//W3C//DTD SVG 1.1//EN"
 "http://www.w3.org/Graphics/SVG/1.1/DTD/svg11.dtd">
<!-- Generated by graphviz version 2.26.3 (20100126.1600)
 -->
<!-- Title: graph_04 Pages: 1 -->
<svg width="364pt" height="172pt"
 viewBox="0.00 0.00 364.00 172.00" xmlns="http://www.w3.org/2000/svg" xmlns:xlink="http://www.w3.org/1999/xlink">
<g id="graph1" class="graph" transform="scale(1 1) rotate(0) translate(4 168)">
<title>graph_04</title>
<polygon fill="white" stroke="white" points="-4,5 -4,-168 361,-168 361,5 -4,5"/>
<text text-anchor="middle" x="178" y="-10.4" font-family="Times Roman,serif" font-size="14.00">Cluster set</text>
<g id="graph2" class="cluster"><title>cluster A</title>
<polygon fill="none" stroke="black" points="8,-35 8,-156 348,-156 348,-35 8,-35"/>
<text text-anchor="middle" x="178" y="-139.4" font-family="Times Roman,serif" font-size="14.00">Cluster A</text>
</g>
<!-- A -->
<g id="node2" class="node"><title>A</title>
<ellipse fill="none" stroke="magenta" cx="43" cy="-100" rx="27" ry="19.0919"/>
<text text-anchor="middle" x="43" y="-96.9" font-family="Times Roman,serif" font-size="14.00">A</text>
</g>
<!-- B -->
<g id="node3" class="node"><title>B</title>
<ellipse fill="none" stroke="magenta" cx="133" cy="-62" rx="27" ry="19.0919"/>
<text text-anchor="middle" x="133" y="-58.9" font-family="Times Roman,serif" font-size="14.00">B</text>
</g>
<!-- A&#45;&gt;B -->
<g id="edge3" class="edge"><title>A&#45;&gt;B</title>
<path fill="none" stroke="black" d="M66.1772,-90.2141C76.4896,-85.8599 88.8195,-80.654 100.064,-75.9063"/>
<polygon fill="black" stroke="black" points="101.737,-78.999 109.589,-71.8849 99.0146,-72.5503 101.737,-78.999"/>
</g>
<!-- C -->
<g id="node5" class="node"><title>C</title>
<ellipse fill="none" stroke="magenta" cx="223" cy="-82" rx="27" ry="19.0919"/>
<text text-anchor="middle" x="223" y="-78.9" font-family="Times Roman,serif" font-size="14.00">C</text>
</g>
<!-- A&#45;&gt;C -->
<g id="edge5" class="edge"><title>A&#45;&gt;C</title>
<path fill="none" stroke="black" d="M69.983,-98.0098C93.7163,-96.1838 129.186,-93.2719 160,-90 168.496,-89.0979 177.621,-88.0089 186.216,-86.9288"/>
<polygon fill="black" stroke="black" points="186.885,-90.3718 196.359,-85.6289 185.995,-83.4285 186.885,-90.3718"/>
</g>
<!-- B&#45;&gt;C -->
<g id="edge7" class="edge"><title>B&#45;&gt;C</title>
<path fill="none" stroke="black" d="M159.032,-67.7848C167.8,-69.7334 177.745,-71.9434 187.136,-74.0303"/>
<polygon fill="black" stroke="black" points="186.506,-77.4754 197.027,-76.2282 188.024,-70.6421 186.506,-77.4754"/>
</g>
<!-- D -->
<g id="node8" class="node"><title>D</title>
<ellipse fill="none" stroke="magenta" cx="313" cy="-82" rx="27" ry="19.0919"/>
<text text-anchor="middle" x="313" y="-78.9" font-family="Times Roman,serif" font-size="14.00">D</text>
</g>
<!-- B&#45;&gt;D -->
<g id="edge9" class="edge"><title>B&#45;&gt;D</title>
<path fill="none" stroke="black" d="M158.849,-56.1877C182.75,-51.7635 219.13,-47.4489 250,-54 261.091,-56.3537 272.6,-60.7992 282.699,-65.4663"/>
<polygon fill="black" stroke="black" points="281.368,-68.711 291.89,-69.9478 284.435,-62.419 281.368,-68.711"/>
</g>
<!-- C&#45;&gt;D -->
<g id="edge11" class="edge"><title>C&#45;&gt;D</title>
<path fill="none" stroke="black" d="M250.003,-82C258.028,-82 266.967,-82 275.531,-82"/>
<polygon fill="black" stroke="black" points="275.705,-85.5001 285.705,-82 275.705,-78.5001 275.705,-85.5001"/>
</g>
<!-- D&#45;&gt;A -->
<g id="edge13" class="edge"><title>D&#45;&gt;A</title>
<path fill="none" stroke="black" d="M291.89,-94.0522C279.999,-100.146 264.635,-106.894 250,-110 191.111,-122.497 120.773,-114.386 79.1093,-107.267"/>
<polygon fill="black" stroke="black" points="79.6184,-103.803 69.159,-105.492 78.3887,-110.694 79.6184,-103.803"/>
</g>
</g>
</svg>
