<?xml version="1.0" encoding="UTF-8" standalone="no"?>
<!DOCTYPE svg PUBLIC "-//W3C//DTD SVG 1.1//EN"
 "http://www.w3.org/Graphics/SVG/1.1/DTD/svg11.dtd">
<!-- Generated by graphviz version 2.26.3 (20100126.1600)
 -->
<!-- Title: graph_04 Pages: 1 -->
<svg width="332pt" height="102pt"
 viewBox="0.00 0.00 332.00 102.10" xmlns="http://www.w3.org/2000/svg" xmlns:xlink="http://www.w3.org/1999/xlink">
<g id="graph1" class="graph" transform="scale(1 1) rotate(0) translate(4 98.1032)">
<title>graph_04</title>
<polygon fill="white" stroke="white" points="-4,5 -4,-98.1032 329,-98.1032 329,5 -4,5"/>
<!-- A -->
<g id="node1" class="node"><title>A</title>
<ellipse fill="none" stroke="magenta" cx="27" cy="-33.1032" rx="27" ry="19.0919"/>
<text text-anchor="middle" x="27" y="-30.0032" font-family="Times Roman,serif" font-size="14.00">A</text>
</g>
<!-- B -->
<g id="node3" class="node"><title>B</title>
<ellipse fill="none" stroke="magenta" cx="117" cy="-33.1032" rx="27" ry="19.0919"/>
<text text-anchor="middle" x="117" y="-30.0032" font-family="Times Roman,serif" font-size="14.00">B</text>
</g>
<!-- A&#45;&gt;B -->
<g id="edge2" class="edge"><title>A&#45;&gt;B</title>
<path fill="none" stroke="black" d="M54.003,-33.1032C62.0277,-33.1032 70.9665,-33.1032 79.5309,-33.1032"/>
<polygon fill="black" stroke="black" points="79.7051,-36.6033 89.705,-33.1032 79.705,-29.6033 79.7051,-36.6033"/>
</g>
<!-- C -->
<g id="node4" class="node"><title>C</title>
<ellipse fill="none" stroke="magenta" cx="207" cy="-75.1032" rx="27" ry="19.0919"/>
<text text-anchor="middle" x="207" y="-72.0032" font-family="Times Roman,serif" font-size="14.00">C</text>
</g>
<!-- A&#45;&gt;C -->
<g id="edge7" class="edge"><title>A&#45;&gt;C</title>
<path fill="none" stroke="black" d="M48.5629,-44.617C60.4625,-50.4712 75.6907,-57.1637 90,-61.1032 115.998,-68.2608 146.242,-71.7593 169.467,-73.4691"/>
<polygon fill="black" stroke="black" points="169.396,-76.9718 179.604,-74.1355 169.855,-69.9869 169.396,-76.9718"/>
</g>
<!-- B&#45;&gt;C -->
<g id="edge3" class="edge"><title>B&#45;&gt;C</title>
<path fill="none" stroke="black" d="M139.711,-43.7016C150.37,-48.6757 163.261,-54.6915 174.895,-60.121"/>
<polygon fill="black" stroke="black" points="173.755,-63.451 184.296,-64.5082 176.715,-57.1077 173.755,-63.451"/>
</g>
<!-- D -->
<g id="node5" class="node"><title>D</title>
<ellipse fill="none" stroke="magenta" cx="297" cy="-28.1032" rx="27" ry="19.0919"/>
<text text-anchor="middle" x="297" y="-25.0032" font-family="Times Roman,serif" font-size="14.00">D</text>
</g>
<!-- B&#45;&gt;D -->
<g id="edge9" class="edge"><title>B&#45;&gt;D</title>
<path fill="none" stroke="black" d="M144.338,-32.3438C175.177,-31.4872 225.501,-30.0893 259.877,-29.1344"/>
<polygon fill="black" stroke="black" points="260.095,-32.6298 269.994,-28.8534 259.901,-25.6325 260.095,-32.6298"/>
</g>
<!-- C&#45;&gt;D -->
<g id="edge4" class="edge"><title>C&#45;&gt;D</title>
<path fill="none" stroke="black" d="M228.786,-63.7258C239.98,-57.8805 253.811,-50.6573 266.087,-44.2465"/>
<polygon fill="black" stroke="black" points="267.858,-47.2702 275.102,-39.5387 264.618,-41.0654 267.858,-47.2702"/>
</g>
<!-- D&#45;&gt;A -->
<g id="edge5" class="edge"><title>D&#45;&gt;A</title>
<path fill="none" stroke="black" d="M272.214,-20.2998C233.119,-9.11891 154.906,8.67073 90,-5.1032 78.9091,-7.45685 67.4001,-11.9024 57.301,-16.5695"/>
<polygon fill="black" stroke="black" points="55.5645,-13.5222 48.1101,-21.051 58.6325,-19.8142 55.5645,-13.5222"/>
</g>
</g>
</svg>
