<?xml version="1.0" encoding="UTF-8" standalone="no"?>
<!DOCTYPE svg PUBLIC "-//W3C//DTD SVG 1.1//EN"
 "http://www.w3.org/Graphics/SVG/1.1/DTD/svg11.dtd">
<!-- Generated by graphviz version 2.30.1 (20130611.0131)
 -->
<!-- Title: graph_03 Pages: 1 -->
<svg width="172pt" height="194pt"
 viewBox="0.00 0.00 172.00 194.00" xmlns="http://www.w3.org/2000/svg" xmlns:xlink="http://www.w3.org/1999/xlink">
<g id="graph0" class="graph" transform="scale(1 1) rotate(0) translate(4 190)">
<title>graph_03</title>
<polygon fill="white" stroke="white" points="-4,5 -4,-190 169,-190 169,5 -4,5"/>
<text text-anchor="middle" x="82" y="-7.8" font-family="Times,serif" font-size="14.00">Cluster set</text>
<g id="clust1" class="cluster"><title>cluster A</title>
<polygon fill="none" stroke="black" points="8,-31 8,-178 78,-178 78,-31 8,-31"/>
<text text-anchor="middle" x="43" y="-162.8" font-family="Times,serif" font-size="14.00">Cluster A</text>
</g>
<g id="clust2" class="cluster"><title>cluster C</title>
<polygon fill="none" stroke="black" points="86,-31 86,-178 156,-178 156,-31 86,-31"/>
<text text-anchor="middle" x="121" y="-162.8" font-family="Times,serif" font-size="14.00">Cluster C</text>
</g>
<!-- A -->
<g id="node1" class="node"><title>A</title>
<ellipse fill="none" stroke="blue" cx="43" cy="-129" rx="27" ry="18"/>
<text text-anchor="middle" x="43" y="-125.3" font-family="Times,serif" font-size="14.00">A</text>
</g>
<!-- B -->
<g id="node2" class="node"><title>B</title>
<ellipse fill="none" stroke="blue" cx="43" cy="-57" rx="27" ry="18"/>
<text text-anchor="middle" x="43" y="-53.3" font-family="Times,serif" font-size="14.00">B</text>
</g>
<!-- A&#45;&gt;B -->
<g id="edge1" class="edge"><title>A&#45;&gt;B</title>
<path fill="none" stroke="green" d="M43,-110.697C43,-102.983 43,-93.7125 43,-85.1124"/>
<polygon fill="green" stroke="green" points="46.5001,-85.1043 43,-75.1043 39.5001,-85.1044 46.5001,-85.1043"/>
</g>
<!-- C -->
<g id="node3" class="node"><title>C</title>
<ellipse fill="none" stroke="blue" cx="121" cy="-129" rx="27" ry="18"/>
<text text-anchor="middle" x="121" y="-125.3" font-family="Times,serif" font-size="14.00">C</text>
</g>
<!-- D -->
<g id="node4" class="node"><title>D</title>
<ellipse fill="none" stroke="blue" cx="121" cy="-57" rx="27" ry="18"/>
<text text-anchor="middle" x="121" y="-53.3" font-family="Times,serif" font-size="14.00">D</text>
</g>
<!-- C&#45;&gt;D -->
<g id="edge2" class="edge"><title>C&#45;&gt;D</title>
<path fill="none" stroke="red" d="M121,-110.697C121,-102.983 121,-93.7125 121,-85.1124"/>
<polygon fill="red" stroke="red" points="124.5,-85.1043 121,-75.1043 117.5,-85.1044 124.5,-85.1043"/>
</g>
</g>
</svg>
