<?xml version="1.0" encoding="UTF-8" standalone="no"?>
<!DOCTYPE svg PUBLIC "-//W3C//DTD SVG 1.1//EN"
 "http://www.w3.org/Graphics/SVG/1.1/DTD/svg11.dtd">
<!-- Generated by graphviz version 2.26.3 (20100126.1600)
 -->
<!-- Title: Perl Pages: 1 -->
<svg width="588pt" height="172pt"
 viewBox="0.00 0.00 588.00 172.00" xmlns="http://www.w3.org/2000/svg" xmlns:xlink="http://www.w3.org/1999/xlink">
<g id="graph1" class="graph" transform="scale(1 1) rotate(0) translate(4 168)">
<title>Perl</title>
<polygon fill="white" stroke="white" points="-4,5 -4,-168 585,-168 585,5 -4,5"/>
<text text-anchor="middle" x="290" y="-10.4" font-family="Times Roman,serif" font-size="14.00">Cluster set</text>
<g id="graph2" class="cluster"><title>cluster node_04_1</title>
<polygon fill="none" stroke="black" points="8,-35 8,-156 572,-156 572,-35 8,-35"/>
<text text-anchor="middle" x="290" y="-139.4" font-family="Times Roman,serif" font-size="14.00">Cluster node_04_1</text>
</g>
<!-- node_04_1 -->
<g id="node2" class="node"><title>node_04_1</title>
<ellipse fill="none" stroke="black" cx="71" cy="-100" rx="53.9477" ry="19.0919"/>
<text text-anchor="middle" x="71" y="-96.9" font-family="Times Roman,serif" font-size="14.00">node_04_1</text>
</g>
<!-- node_04_2 -->
<g id="node3" class="node"><title>node_04_2</title>
<ellipse fill="none" stroke="black" cx="217" cy="-62" rx="53.9477" ry="19.0919"/>
<text text-anchor="middle" x="217" y="-58.9" font-family="Times Roman,serif" font-size="14.00">node_04_2</text>
</g>
<!-- node_04_1&#45;&#45;node_04_2 -->
<g id="edge3" class="edge"><title>node_04_1&#45;&#45;node_04_2</title>
<path fill="none" stroke="black" d="M114.805,-88.5987C133.284,-83.7892 154.751,-78.2019 173.226,-73.3932"/>
</g>
<!-- node_04_3 -->
<g id="node5" class="node"><title>node_04_3</title>
<ellipse fill="none" stroke="black" cx="363" cy="-82" rx="53.9477" ry="19.0919"/>
<text text-anchor="middle" x="363" y="-78.9" font-family="Times Roman,serif" font-size="14.00">node_04_3</text>
</g>
<!-- node_04_1&#45;&#45;node_04_3 -->
<g id="edge5" class="edge"><title>node_04_1&#45;&#45;node_04_3</title>
<path fill="none" stroke="black" d="M125.205,-97.8614C165.677,-96.129 222.329,-93.4177 272,-90 284.341,-89.1508 297.61,-88.0765 310.095,-86.9929"/>
</g>
<!-- node_04_2&#45;&#45;node_04_3 -->
<g id="edge7" class="edge"><title>node_04_2&#45;&#45;node_04_3</title>
<path fill="none" stroke="black" d="M268.064,-68.995C282.372,-70.9551 297.92,-73.0849 312.212,-75.0427"/>
</g>
<!-- node_04_4 -->
<g id="node8" class="node"><title>node_04_4</title>
<ellipse fill="none" stroke="black" cx="509" cy="-82" rx="53.9477" ry="19.0919"/>
<text text-anchor="middle" x="509" y="-78.9" font-family="Times Roman,serif" font-size="14.00">node_04_4</text>
</g>
<!-- node_04_2&#45;&#45;node_04_4 -->
<g id="edge9" class="edge"><title>node_04_2&#45;&#45;node_04_4</title>
<path fill="none" stroke="black" d="M267.677,-54.7324C308.494,-50.1373 367.233,-46.3663 418,-54 436.144,-56.7282 455.662,-62.3547 471.951,-67.8531"/>
</g>
<!-- node_04_3&#45;&#45;node_04_4 -->
<g id="edge11" class="edge"><title>node_04_3&#45;&#45;node_04_4</title>
<path fill="none" stroke="black" d="M417.78,-82C429.756,-82 442.43,-82 454.398,-82"/>
</g>
<!-- node_04_4&#45;&#45;node_04_1 -->
<g id="edge13" class="edge"><title>node_04_4&#45;&#45;node_04_1</title>
<path fill="none" stroke="black" d="M471.951,-96.1469C455.662,-101.645 436.144,-107.272 418,-110 313.554,-125.705 189.493,-115.221 121.619,-107.045"/>
</g>
</g>
</svg>
