<?xml version="1.0" encoding="UTF-8" standalone="no"?>
<!DOCTYPE svg PUBLIC "-//W3C//DTD SVG 1.1//EN"
 "http://www.w3.org/Graphics/SVG/1.1/DTD/svg11.dtd">
<!-- Generated by graphviz version 2.26.3 (20100126.1600)
 -->
<!-- Title: Perl Pages: 1 -->
<svg width="364pt" height="172pt"
 viewBox="0.00 0.00 364.00 172.00" xmlns="http://www.w3.org/2000/svg" xmlns:xlink="http://www.w3.org/1999/xlink">
<g id="graph1" class="graph" transform="scale(1 1) rotate(0) translate(4 168)">
<title>Perl</title>
<polygon fill="white" stroke="white" points="-4,5 -4,-168 361,-168 361,5 -4,5"/>
<text text-anchor="middle" x="178" y="-10.4" font-family="Times Roman,serif" font-size="14.00">Cluster set</text>
<g id="graph2" class="cluster"><title>cluster A</title>
<polygon fill="none" stroke="black" points="8,-35 8,-156 348,-156 348,-35 8,-35"/>
<text text-anchor="middle" x="178" y="-139.4" font-family="Times Roman,serif" font-size="14.00">Cluster A</text>
</g>
<!-- A -->
<g id="node2" class="node"><title>A</title>
<ellipse fill="none" stroke="black" cx="43" cy="-100" rx="27" ry="19.0919"/>
<text text-anchor="middle" x="43" y="-96.9" font-family="Times Roman,serif" font-size="14.00">A</text>
</g>
<!-- B -->
<g id="node3" class="node"><title>B</title>
<ellipse fill="none" stroke="black" cx="133" cy="-62" rx="27" ry="19.0919"/>
<text text-anchor="middle" x="133" y="-58.9" font-family="Times Roman,serif" font-size="14.00">B</text>
</g>
<!-- A&#45;&#45;B -->
<g id="edge3" class="edge"><title>A&#45;&#45;B</title>
<path fill="none" stroke="black" d="M66.1772,-90.2141C79.5104,-84.5845 96.2161,-77.531 109.589,-71.8849"/>
</g>
<!-- C -->
<g id="node5" class="node"><title>C</title>
<ellipse fill="none" stroke="black" cx="223" cy="-82" rx="27" ry="19.0919"/>
<text text-anchor="middle" x="223" y="-78.9" font-family="Times Roman,serif" font-size="14.00">C</text>
</g>
<!-- A&#45;&#45;C -->
<g id="edge5" class="edge"><title>A&#45;&#45;C</title>
<path fill="none" stroke="black" d="M69.983,-98.0098C93.7163,-96.1838 129.186,-93.2719 160,-90 171.95,-88.7311 185.146,-87.0924 196.359,-85.6289"/>
</g>
<!-- B&#45;&#45;C -->
<g id="edge7" class="edge"><title>B&#45;&#45;C</title>
<path fill="none" stroke="black" d="M159.032,-67.7848C170.972,-70.4383 185.093,-73.5763 197.027,-76.2282"/>
</g>
<!-- D -->
<g id="node8" class="node"><title>D</title>
<ellipse fill="none" stroke="black" cx="313" cy="-82" rx="27" ry="19.0919"/>
<text text-anchor="middle" x="313" y="-78.9" font-family="Times Roman,serif" font-size="14.00">D</text>
</g>
<!-- B&#45;&#45;D -->
<g id="edge9" class="edge"><title>B&#45;&#45;D</title>
<path fill="none" stroke="black" d="M158.849,-56.1877C182.75,-51.7635 219.13,-47.4489 250,-54 264.635,-57.1059 279.999,-63.8544 291.89,-69.9478"/>
</g>
<!-- C&#45;&#45;D -->
<g id="edge11" class="edge"><title>C&#45;&#45;D</title>
<path fill="none" stroke="black" d="M250.003,-82C261.29,-82 274.387,-82 285.705,-82"/>
</g>
<!-- D&#45;&#45;A -->
<g id="edge13" class="edge"><title>D&#45;&#45;A</title>
<path fill="none" stroke="black" d="M291.89,-94.0522C279.999,-100.146 264.635,-106.894 250,-110 186.12,-123.556 108.769,-112.864 69.159,-105.492"/>
</g>
</g>
</svg>
