<?xml version="1.0" encoding="UTF-8" standalone="no"?>
<!DOCTYPE svg PUBLIC "-//W3C//DTD SVG 1.1//EN"
 "http://www.w3.org/Graphics/SVG/1.1/DTD/svg11.dtd">
<!-- Generated by graphviz version 2.26.3 (20100126.1600)
 -->
<!-- Title: graph_03 Pages: 1 -->
<svg width="172pt" height="206pt"
 viewBox="0.00 0.00 172.00 206.00" xmlns="http://www.w3.org/2000/svg" xmlns:xlink="http://www.w3.org/1999/xlink">
<g id="graph1" class="graph" transform="scale(1 1) rotate(0) translate(4 202)">
<title>graph_03</title>
<polygon fill="white" stroke="white" points="-4,5 -4,-202 169,-202 169,5 -4,5"/>
<text text-anchor="middle" x="82" y="-10.4" font-family="Times Roman,serif" font-size="14.00">Cluster set</text>
<g id="graph2" class="cluster"><title>cluster A</title>
<polygon fill="none" stroke="black" points="8,-35 8,-190 78,-190 78,-35 8,-35"/>
<text text-anchor="middle" x="43" y="-173.4" font-family="Times Roman,serif" font-size="14.00">Cluster A</text>
</g>
<g id="graph3" class="cluster"><title>cluster C</title>
<polygon fill="none" stroke="black" points="86,-35 86,-190 156,-190 156,-35 86,-35"/>
<text text-anchor="middle" x="121" y="-173.4" font-family="Times Roman,serif" font-size="14.00">Cluster C</text>
</g>
<!-- A -->
<g id="node2" class="node"><title>A</title>
<ellipse fill="none" stroke="blue" cx="43" cy="-136" rx="27" ry="19.0919"/>
<text text-anchor="middle" x="43" y="-132.9" font-family="Times Roman,serif" font-size="14.00">A</text>
</g>
<!-- B -->
<g id="node3" class="node"><title>B</title>
<ellipse fill="none" stroke="blue" cx="43" cy="-62" rx="27" ry="19.0919"/>
<text text-anchor="middle" x="43" y="-58.9" font-family="Times Roman,serif" font-size="14.00">B</text>
</g>
<!-- A&#45;&gt;B -->
<g id="edge3" class="edge"><title>A&#45;&gt;B</title>
<path fill="none" stroke="green" d="M43,-116.943C43,-109.149 43,-99.9538 43,-91.3381"/>
<polygon fill="green" stroke="green" points="46.5001,-91.2494 43,-81.2495 39.5001,-91.2495 46.5001,-91.2494"/>
</g>
<!-- C -->
<g id="node6" class="node"><title>C</title>
<ellipse fill="none" stroke="blue" cx="121" cy="-136" rx="27" ry="19.0919"/>
<text text-anchor="middle" x="121" y="-132.9" font-family="Times Roman,serif" font-size="14.00">C</text>
</g>
<!-- D -->
<g id="node7" class="node"><title>D</title>
<ellipse fill="none" stroke="blue" cx="121" cy="-62" rx="27" ry="19.0919"/>
<text text-anchor="middle" x="121" y="-58.9" font-family="Times Roman,serif" font-size="14.00">D</text>
</g>
<!-- C&#45;&gt;D -->
<g id="edge6" class="edge"><title>C&#45;&gt;D</title>
<path fill="none" stroke="red" d="M121,-116.943C121,-109.149 121,-99.9538 121,-91.3381"/>
<polygon fill="red" stroke="red" points="124.5,-91.2494 121,-81.2495 117.5,-91.2495 124.5,-91.2494"/>
</g>
</g>
</svg>
