<?xml version="1.0" encoding="UTF-8" standalone="no"?>
<!DOCTYPE svg PUBLIC "-//W3C//DTD SVG 1.1//EN"
 "http://www.w3.org/Graphics/SVG/1.1/DTD/svg11.dtd">
<!-- Generated by graphviz version 2.26.3 (20100126.1600)
 -->
<!-- Title: graph_04 Pages: 1 -->
<svg width="94pt" height="399pt"
 viewBox="0.00 0.00 94.00 399.00" xmlns="http://www.w3.org/2000/svg" xmlns:xlink="http://www.w3.org/1999/xlink">
<g id="graph1" class="graph" transform="scale(1 1) rotate(0) translate(4 395)">
<title>graph_04</title>
<polygon fill="white" stroke="white" points="-4,5 -4,-395 91,-395 91,5 -4,5"/>
<text text-anchor="middle" x="43" y="-10.4" font-family="Times Roman,serif" font-size="14.00">Cluster set</text>
<g id="graph2" class="cluster"><title>cluster A</title>
<polygon fill="none" stroke="black" points="8,-35 8,-116 78,-116 78,-35 8,-35"/>
<text text-anchor="middle" x="43" y="-99.4" font-family="Times Roman,serif" font-size="14.00">Cluster A</text>
</g>
<g id="graph3" class="cluster"><title>cluster B</title>
<polygon fill="none" stroke="black" points="8,-124 8,-205 78,-205 78,-124 8,-124"/>
<text text-anchor="middle" x="43" y="-188.4" font-family="Times Roman,serif" font-size="14.00">Cluster B</text>
</g>
<g id="graph4" class="cluster"><title>cluster C</title>
<polygon fill="none" stroke="black" points="8,-213 8,-294 78,-294 78,-213 8,-213"/>
<text text-anchor="middle" x="43" y="-277.4" font-family="Times Roman,serif" font-size="14.00">Cluster C</text>
</g>
<g id="graph5" class="cluster"><title>cluster D</title>
<polygon fill="none" stroke="black" points="8,-302 8,-383 78,-383 78,-302 8,-302"/>
<text text-anchor="middle" x="43" y="-366.4" font-family="Times Roman,serif" font-size="14.00">Cluster D</text>
</g>
<!-- A -->
<g id="node2" class="node"><title>A</title>
<ellipse fill="none" stroke="magenta" cx="43" cy="-62" rx="27" ry="19.0919"/>
<text text-anchor="middle" x="43" y="-58.9" font-family="Times Roman,serif" font-size="14.00">A</text>
</g>
<!-- B -->
<g id="node4" class="node"><title>B</title>
<ellipse fill="none" stroke="magenta" cx="43" cy="-151" rx="27" ry="19.0919"/>
<text text-anchor="middle" x="43" y="-147.9" font-family="Times Roman,serif" font-size="14.00">B</text>
</g>
<!-- C -->
<g id="node6" class="node"><title>C</title>
<ellipse fill="none" stroke="magenta" cx="43" cy="-240" rx="27" ry="19.0919"/>
<text text-anchor="middle" x="43" y="-236.9" font-family="Times Roman,serif" font-size="14.00">C</text>
</g>
<!-- D -->
<g id="node8" class="node"><title>D</title>
<ellipse fill="none" stroke="magenta" cx="43" cy="-329" rx="27" ry="19.0919"/>
<text text-anchor="middle" x="43" y="-325.9" font-family="Times Roman,serif" font-size="14.00">D</text>
</g>
</g>
</svg>
