<?xml version="1.0" encoding="UTF-8" standalone="no"?>
<!DOCTYPE svg PUBLIC "-//W3C//DTD SVG 1.1//EN"
 "http://www.w3.org/Graphics/SVG/1.1/DTD/svg11.dtd">
<!-- Generated by graphviz version 2.26.3 (20100126.1600)
 -->
<!-- Title: graph_04 Pages: 1 -->
<svg width="123pt" height="268pt"
 viewBox="0.00 0.00 122.51 268.00" xmlns="http://www.w3.org/2000/svg" xmlns:xlink="http://www.w3.org/1999/xlink">
<g id="graph1" class="graph" transform="scale(1 1) rotate(0) translate(4 264)">
<title>graph_04</title>
<polygon fill="white" stroke="white" points="-4,5 -4,-264 119.506,-264 119.506,5 -4,5"/>
<!-- A -->
<g id="node1" class="node"><title>A</title>
<ellipse fill="none" stroke="black" cx="73" cy="-241" rx="27" ry="19.0919"/>
<text text-anchor="middle" x="73" y="-237.9" font-family="Times Roman,serif" font-size="14.00">A</text>
</g>
<!-- B -->
<g id="node3" class="node"><title>B</title>
<ellipse fill="none" stroke="black" cx="73" cy="-167" rx="27" ry="19.0919"/>
<text text-anchor="middle" x="73" y="-163.9" font-family="Times Roman,serif" font-size="14.00">B</text>
</g>
<!-- A&#45;&gt;B -->
<g id="edge2" class="edge"><title>A&#45;&gt;B</title>
<path fill="none" stroke="black" d="M73,-221.943C73,-214.149 73,-204.954 73,-196.338"/>
<polygon fill="black" stroke="black" points="76.5001,-196.249 73,-186.249 69.5001,-196.249 76.5001,-196.249"/>
</g>
<!-- C -->
<g id="node4" class="node"><title>C</title>
<ellipse fill="none" stroke="black" cx="27" cy="-93" rx="27" ry="19.0919"/>
<text text-anchor="middle" x="27" y="-89.9" font-family="Times Roman,serif" font-size="14.00">C</text>
</g>
<!-- A&#45;&gt;C -->
<g id="edge7" class="edge"><title>A&#45;&gt;C</title>
<path fill="none" stroke="black" d="M59.0514,-224.297C51.1997,-213.935 41.9943,-199.97 37,-186 29.6543,-165.453 27.2649,-140.852 26.6526,-122.115"/>
<polygon fill="black" stroke="black" points="30.1519,-122.04 26.4741,-112.104 23.153,-122.165 30.1519,-122.04"/>
</g>
<!-- B&#45;&gt;C -->
<g id="edge3" class="edge"><title>B&#45;&gt;C</title>
<path fill="none" stroke="black" d="M62.0986,-149.463C56.4845,-140.432 49.5259,-129.237 43.2888,-119.204"/>
<polygon fill="black" stroke="black" points="46.075,-117.056 37.8231,-110.411 40.13,-120.752 46.075,-117.056"/>
</g>
<!-- D -->
<g id="node5" class="node"><title>D</title>
<ellipse fill="none" stroke="black" cx="82" cy="-19" rx="27" ry="19.0919"/>
<text text-anchor="middle" x="82" y="-15.9" font-family="Times Roman,serif" font-size="14.00">D</text>
</g>
<!-- B&#45;&gt;D -->
<g id="edge9" class="edge"><title>B&#45;&gt;D</title>
<path fill="none" stroke="black" d="M74.1582,-147.955C75.6888,-122.784 78.4012,-78.1799 80.2001,-48.5976"/>
<polygon fill="black" stroke="black" points="83.7042,-48.6363 80.8177,-38.4423 76.7171,-48.2114 83.7042,-48.6363"/>
</g>
<!-- C&#45;&gt;D -->
<g id="edge4" class="edge"><title>C&#45;&gt;D</title>
<path fill="none" stroke="black" d="M39.7563,-75.8369C46.6981,-66.4972 55.4192,-54.7632 63.1322,-44.3857"/>
<polygon fill="black" stroke="black" points="66.1566,-46.1838 69.3128,-36.07 60.5385,-42.0081 66.1566,-46.1838"/>
</g>
<!-- D&#45;&gt;A -->
<g id="edge5" class="edge"><title>D&#45;&gt;A</title>
<path fill="none" stroke="black" d="M90.1448,-37.1367C102.937,-68.173 124.735,-133.228 109,-186 105.787,-196.774 99.7161,-207.401 93.4621,-216.398"/>
<polygon fill="black" stroke="black" points="90.6215,-214.353 87.4973,-224.477 96.2528,-218.511 90.6215,-214.353"/>
</g>
</g>
</svg>
