<?xml version="1.0" encoding="UTF-8" standalone="no"?>
<!DOCTYPE svg PUBLIC "-//W3C//DTD SVG 1.1//EN"
 "http://www.w3.org/Graphics/SVG/1.1/DTD/svg11.dtd">
<!-- Generated by graphviz version 2.29.20121107.0545 (20121107.0545)
 -->
<!-- Title: graph_04 Pages: 1 -->
<svg width="364pt" height="162pt"
 viewBox="0.00 0.00 364.00 162.00" xmlns="http://www.w3.org/2000/svg" xmlns:xlink="http://www.w3.org/1999/xlink">
<g id="graph0" class="graph" transform="scale(1 1) rotate(0) translate(4 158)">
<title>graph_04</title>
<polygon fill="white" stroke="white" points="-4,5 -4,-158 361,-158 361,5 -4,5"/>
<text text-anchor="middle" x="178" y="-7.8" font-family="Times,serif" font-size="14.00">Cluster set</text>
<g id="clust1" class="cluster"><title>cluster A</title>
<polygon fill="none" stroke="black" points="8,-31 8,-146 348,-146 348,-31 8,-31"/>
<text text-anchor="middle" x="178" y="-130.8" font-family="Times,serif" font-size="14.00">Cluster A</text>
</g>
<!-- A -->
<g id="node1" class="node"><title>A</title>
<ellipse fill="none" stroke="magenta" cx="43" cy="-94" rx="27" ry="18"/>
<text text-anchor="middle" x="43" y="-90.3" font-family="Times,serif" font-size="14.00">A</text>
</g>
<!-- B -->
<g id="node2" class="node"><title>B</title>
<ellipse fill="none" stroke="magenta" cx="133" cy="-57" rx="27" ry="18"/>
<text text-anchor="middle" x="133" y="-53.3" font-family="Times,serif" font-size="14.00">B</text>
</g>
<!-- A&#45;&gt;B -->
<g id="edge1" class="edge"><title>A&#45;&gt;B</title>
<path fill="none" stroke="black" d="M66.2061,-84.6633C76.5239,-80.3252 88.9807,-75.0877 100.267,-70.3422"/>
<polygon fill="black" stroke="black" points="101.939,-73.436 109.801,-66.3337 99.2261,-66.9832 101.939,-73.436"/>
</g>
<!-- C -->
<g id="node3" class="node"><title>C</title>
<ellipse fill="none" stroke="magenta" cx="223" cy="-77" rx="27" ry="18"/>
<text text-anchor="middle" x="223" y="-73.3" font-family="Times,serif" font-size="14.00">C</text>
</g>
<!-- A&#45;&gt;C -->
<g id="edge2" class="edge"><title>A&#45;&gt;C</title>
<path fill="none" stroke="black" d="M70.2784,-91.9339C93.8016,-90.0369 129.225,-87.0632 160,-84 168.506,-83.1533 177.66,-82.1635 186.253,-81.1992"/>
<polygon fill="black" stroke="black" points="186.836,-84.6555 196.376,-80.047 186.044,-77.7004 186.836,-84.6555"/>
</g>
<!-- B&#45;&gt;C -->
<g id="edge3" class="edge"><title>B&#45;&gt;C</title>
<path fill="none" stroke="black" d="M158.982,-62.6777C167.789,-64.6792 177.854,-66.9668 187.317,-69.1174"/>
<polygon fill="black" stroke="black" points="186.733,-72.574 197.26,-71.3773 188.285,-65.7481 186.733,-72.574"/>
</g>
<!-- D -->
<g id="node4" class="node"><title>D</title>
<ellipse fill="none" stroke="magenta" cx="313" cy="-77" rx="27" ry="18"/>
<text text-anchor="middle" x="313" y="-73.3" font-family="Times,serif" font-size="14.00">D</text>
</g>
<!-- B&#45;&gt;D -->
<g id="edge4" class="edge"><title>B&#45;&gt;D</title>
<path fill="none" stroke="black" d="M159.167,-51.6922C182.853,-47.5852 219.188,-43.5819 250,-50 261.062,-52.3041 272.569,-56.6918 282.623,-61.2708"/>
<polygon fill="black" stroke="black" points="281.227,-64.4827 291.756,-65.6579 284.258,-58.173 281.227,-64.4827"/>
</g>
<!-- C&#45;&gt;D -->
<g id="edge5" class="edge"><title>C&#45;&gt;D</title>
<path fill="none" stroke="black" d="M250.403,-77C258.393,-77 267.311,-77 275.824,-77"/>
<polygon fill="black" stroke="black" points="275.919,-80.5001 285.919,-77 275.919,-73.5001 275.919,-80.5001"/>
</g>
<!-- D&#45;&gt;A -->
<g id="edge6" class="edge"><title>D&#45;&gt;A</title>
<path fill="none" stroke="black" d="M291.756,-88.3421C279.97,-94.2909 264.597,-100.96 250,-104 190.863,-116.318 120.207,-108.058 78.8963,-100.993"/>
<polygon fill="black" stroke="black" points="79.51,-97.5468 69.0505,-99.2352 78.2799,-104.438 79.51,-97.5468"/>
</g>
</g>
</svg>
