<?xml version="1.0" encoding="UTF-8" standalone="no"?>
<!DOCTYPE svg PUBLIC "-//W3C//DTD SVG 1.1//EN"
 "http://www.w3.org/Graphics/SVG/1.1/DTD/svg11.dtd">
<!-- Generated by graphviz version 2.29.20121107.0545 (20121107.0545)
 -->
<!-- Title: graph_55 Pages: 1 -->
<svg width="372pt" height="572pt"
 viewBox="0.00 0.00 372.00 572.00" xmlns="http://www.w3.org/2000/svg" xmlns:xlink="http://www.w3.org/1999/xlink">
<g id="graph0" class="graph" transform="scale(1 1) rotate(0) translate(4 568)">
<title>graph_55</title>
<polygon fill="white" stroke="white" points="-4,5 -4,-568 369,-568 369,5 -4,5"/>
<text text-anchor="middle" x="182" y="-7.8" font-family="Times,serif" font-size="14.00">Complex Syntax Test</text>
<g id="clust1" class="cluster"><title>cluster A</title>
<polygon fill="none" stroke="black" points="8,-31 8,-548 78,-548 78,-31 8,-31"/>
<text text-anchor="middle" x="43" y="-532.8" font-family="Times,serif" font-size="14.00">Cluster A</text>
</g>
<g id="clust2" class="cluster"><title>cluster F</title>
<polygon fill="none" stroke="black" points="86,-358 86,-548 156,-548 156,-358 86,-358"/>
<text text-anchor="middle" x="121" y="-532.8" font-family="Times,serif" font-size="14.00">Cluster F</text>
</g>
<g id="clust3" class="cluster"><title>cluster H</title>
<polygon fill="none" stroke="black" points="164,-350 164,-556 234,-556 234,-350 164,-350"/>
<text text-anchor="middle" x="199" y="-540.8" font-family="Times,serif" font-size="14.00">Cluster H</text>
</g>
<g id="clust4" class="cluster"><title>cluster J</title>
<polygon fill="none" stroke="black" points="242,-323 242,-549 356,-549 356,-323 242,-323"/>
<text text-anchor="middle" x="299" y="-533.8" font-family="Times,serif" font-size="14.00">Cluster J</text>
</g>
<!-- A -->
<g id="node1" class="node"><title>A</title>
<ellipse fill="none" stroke="blue" cx="43" cy="-499" rx="27" ry="18"/>
<text text-anchor="middle" x="43" y="-495.3" font-family="Times,serif" font-size="14.00">A</text>
</g>
<!-- B -->
<g id="node2" class="node"><title>B</title>
<polygon fill="goldenrod" stroke="mediumseagreen" points="61,-402 25,-402 25,-366 61,-366 61,-402"/>
<text text-anchor="middle" x="43" y="-380.3" font-family="Times,serif" font-size="14.00">B</text>
</g>
<!-- A&#45;&gt;B -->
<g id="edge1" class="edge"><title>A&#45;&gt;B</title>
<path fill="none" stroke="purple" d="M43,-480.838C43,-462.669 43,-433.725 43,-412.394"/>
<polygon fill="purple" stroke="purple" points="46.5001,-412.324 43,-402.324 39.5001,-412.324 46.5001,-412.324"/>
</g>
<!-- C -->
<g id="node3" class="node"><title>C</title>
<polygon fill="none" stroke="#ff3030" points="70,-282.562 43,-295 16,-282.562 16.0252,-262.438 69.9748,-262.438 70,-282.562"/>
<text text-anchor="middle" x="43" y="-273.3" font-family="Times,serif" font-size="14.00">C</text>
</g>
<!-- B&#45;&gt;C -->
<g id="edge2" class="edge"><title>B&#45;&gt;C</title>
<path fill="none" stroke="orange" stroke-width="5" d="M43,-365.661C43,-349.225 43,-324.278 43,-305.194"/>
<polygon fill="orange" stroke="orange" points="47.3751,-305.016 43,-295.016 38.6251,-305.016 47.3751,-305.016"/>
</g>
<!-- D -->
<g id="node4" class="node"><title>D</title>
<ellipse fill="#00868b" stroke="black" cx="43" cy="-167" rx="18" ry="18"/>
<text text-anchor="middle" x="43" y="-163.3" font-family="Times,serif" font-size="14.00">D</text>
</g>
<!-- C&#45;&gt;D -->
<g id="edge3" class="edge"><title>C&#45;&gt;D</title>
<path fill="none" stroke="purple" d="M43,-252.306C43,-235.494 43,-212.887 43,-195.316"/>
<polygon fill="none" stroke="purple" points="47,-262.322 39,-262.322 39.0001,-254.322 47.0001,-254.322 47,-262.322"/>
<polyline fill="none" stroke="purple" points="43.0001,-254.322 43.0001,-252.322 "/>
<polygon fill="purple" stroke="purple" points="43.0001,-195.122 47.5,-185.122 43,-190.122 43,-185.122 43,-185.122 43,-185.122 43,-190.122 38.5,-185.122 43.0001,-195.122 43.0001,-195.122"/>
</g>
<!-- E -->
<g id="node5" class="node"><title>E</title>
<ellipse fill="#00868b" stroke="black" cx="43" cy="-57" rx="18" ry="18"/>
<text text-anchor="middle" x="43" y="-53.3" font-family="Times,serif" font-size="14.00">E</text>
</g>
<!-- D&#45;&gt;E -->
<g id="edge4" class="edge"><title>D&#45;&gt;E</title>
<path fill="none" stroke="purple" stroke-width="5" d="M43,-140.536C43,-123.417 43,-100.93 43,-83.7518"/>
<ellipse fill="none" stroke="purple" cx="43" cy="-144.648" rx="4" ry="4"/>
<ellipse fill="purple" stroke="purple" cx="43" cy="-79.309" rx="4" ry="4"/>
</g>
<!-- F -->
<g id="node6" class="node"><title>F</title>
<polygon fill="yellow" stroke="darkorchid" stroke-width="5" points="148,-499 134.5,-517 107.5,-517 94,-499 107.5,-481 134.5,-481 148,-499"/>
<text text-anchor="middle" x="121" y="-495.3" font-family="Times,serif" font-size="14.00">F</text>
</g>
<!-- G -->
<g id="node7" class="node"><title>G</title>
<polygon fill="darkorchid" stroke="crimson" stroke-width="7" points="148,-389.562 121,-402 94,-389.562 104.313,-369.438 137.687,-369.438 148,-389.562"/>
<text text-anchor="middle" x="121" y="-380.3" font-family="Times,serif" font-size="14.00">G</text>
</g>
<!-- F&#45;&gt;G -->
<g id="edge5" class="edge"><title>F&#45;&gt;G</title>
<path fill="none" stroke="orange" d="M121,-480.838C121,-462.669 121,-433.725 121,-412.394"/>
<polygon fill="orange" stroke="orange" points="124.5,-412.324 121,-402.324 117.5,-412.324 124.5,-412.324"/>
</g>
<!-- H -->
<g id="node8" class="node"><title>H</title>
<polygon fill="lightblue" stroke="black" points="226.143,-507.172 199,-525.444 171.857,-507.172 171.883,-477.607 226.117,-477.607 226.143,-507.172"/>
<text text-anchor="middle" x="199" y="-494" font-family="Times,serif" font-size="20.00">H</text>
</g>
<!-- I -->
<g id="node9" class="node"><title>I</title>
<polygon fill="lightblue" stroke="black" points="226,-392.172 199,-410.444 172,-392.172 172.025,-362.607 225.975,-362.607 226,-392.172"/>
<text text-anchor="middle" x="199" y="-379" font-family="Times,serif" font-size="20.00">I</text>
</g>
<!-- H&#45;&gt;I -->
<g id="edge6" class="edge"><title>H&#45;&gt;I</title>
<path fill="none" stroke="purple" d="M199,-477.537C199,-461.726 199,-439.454 199,-420.721"/>
<polygon fill="purple" stroke="purple" points="202.5,-420.461 199,-410.461 195.5,-420.461 202.5,-420.461"/>
</g>
<!-- J -->
<g id="node10" class="node"><title>J</title>
<polygon fill="magenta" stroke="yellow" points="317.25,-517.5 280.75,-517.5 280.75,-480.5 317.25,-480.5 317.25,-517.5"/>
<text text-anchor="middle" x="299" y="-492.7" font-family="Times,serif" font-size="26.00">J</text>
</g>
<!-- K -->
<g id="node11" class="node"><title>K</title>
<polygon fill="magenta" stroke="black" points="299,-436.152 249.754,-357.924 348.246,-357.924 299,-436.152"/>
<text text-anchor="middle" x="299" y="-377.7" font-family="Times,serif" font-size="26.00">K</text>
</g>
<!-- J&#45;&gt;K -->
<g id="edge7" class="edge"><title>J&#45;&gt;K</title>
<path fill="none" stroke="blue" d="M299,-480.344C299,-470.94 299,-458.753 299,-446.254"/>
<polygon fill="blue" stroke="blue" points="302.5,-446.21 299,-436.21 295.5,-446.21 302.5,-446.21"/>
</g>
</g>
</svg>
