<?xml version="1.0" encoding="UTF-8" standalone="no"?>
<!DOCTYPE svg PUBLIC "-//W3C//DTD SVG 1.1//EN"
 "http://www.w3.org/Graphics/SVG/1.1/DTD/svg11.dtd">
<!-- Generated by graphviz version 2.26.3 (20100126.1600)
 -->
<!-- Title: graph_55 Pages: 1 -->
<svg width="372pt" height="536pt"
 viewBox="0.00 0.00 372.00 536.00" xmlns="http://www.w3.org/2000/svg" xmlns:xlink="http://www.w3.org/1999/xlink">
<g id="graph1" class="graph" transform="scale(1 1) rotate(0) translate(4 532)">
<title>graph_55</title>
<polygon fill="white" stroke="white" points="-4,5 -4,-532 369,-532 369,5 -4,5"/>
<text text-anchor="middle" x="182" y="-10.4" font-family="Times Roman,serif" font-size="14.00">Complex Syntax Test</text>
<g id="graph2" class="cluster"><title>cluster A</title>
<polygon fill="none" stroke="black" points="8,-35 8,-510 78,-510 78,-35 8,-35"/>
<text text-anchor="middle" x="43" y="-493.4" font-family="Times Roman,serif" font-size="14.00">Cluster A</text>
</g>
<g id="graph3" class="cluster"><title>cluster F</title>
<polygon fill="none" stroke="black" points="86,-301 86,-513 156,-513 156,-301 86,-301"/>
<text text-anchor="middle" x="121" y="-496.4" font-family="Times Roman,serif" font-size="14.00">Cluster F</text>
</g>
<g id="graph4" class="cluster"><title>cluster H</title>
<polygon fill="none" stroke="black" points="164,-296 164,-520 234,-520 234,-296 164,-296"/>
<text text-anchor="middle" x="199" y="-503.4" font-family="Times Roman,serif" font-size="14.00">Cluster H</text>
</g>
<g id="graph5" class="cluster"><title>cluster J</title>
<polygon fill="none" stroke="black" points="242,-267 242,-512 356,-512 356,-267 242,-267"/>
<text text-anchor="middle" x="299" y="-495.4" font-family="Times Roman,serif" font-size="14.00">Cluster J</text>
</g>
<!-- A -->
<g id="node2" class="node"><title>A</title>
<ellipse fill="none" stroke="blue" cx="43" cy="-456" rx="27" ry="19.0919"/>
<text text-anchor="middle" x="43" y="-452.9" font-family="Times Roman,serif" font-size="14.00">A</text>
</g>
<!-- B -->
<g id="node3" class="node"><title>B</title>
<polygon fill="goldenrod" stroke="mediumseagreen" points="61,-351 25,-351 25,-315 61,-315 61,-351"/>
<text text-anchor="middle" x="43" y="-329.9" font-family="Times Roman,serif" font-size="14.00">B</text>
</g>
<!-- A&#45;&gt;B -->
<g id="edge3" class="edge"><title>A&#45;&gt;B</title>
<path fill="none" stroke="black" d="M43,-436.781C43,-416.6 43,-384.644 43,-361.521"/>
<polygon fill="black" stroke="black" points="46.5001,-361.281 43,-351.282 39.5001,-361.282 46.5001,-361.281"/>
</g>
<!-- C -->
<g id="node5" class="node"><title>C</title>
<polygon fill="none" stroke="#ff3030" points="70,-222.292 43,-238.599 16,-222.292 16.0252,-195.908 69.9748,-195.908 70,-222.292"/>
<text text-anchor="middle" x="43" y="-211.9" font-family="Times Roman,serif" font-size="14.00">C</text>
</g>
<!-- B&#45;&gt;C -->
<g id="edge5" class="edge"><title>B&#45;&gt;C</title>
<path fill="none" stroke="black" d="M43,-314.821C43,-297.265 43,-270.251 43,-248.75"/>
<polygon fill="black" stroke="black" points="46.5001,-248.704 43,-238.704 39.5001,-248.704 46.5001,-248.704"/>
</g>
<!-- D -->
<g id="node7" class="node"><title>D</title>
<ellipse fill="#00868b" stroke="black" cx="43" cy="-136" rx="19.0919" ry="19.0919"/>
<text text-anchor="middle" x="43" y="-132.9" font-family="Times Roman,serif" font-size="14.00">D</text>
</g>
<!-- C&#45;&gt;D -->
<g id="edge7" class="edge"><title>C&#45;&gt;D</title>
<path fill="none" stroke="black" d="M43,-195.876C43,-186.726 43,-175.566 43,-165.371"/>
<polygon fill="black" stroke="black" points="46.5001,-165.221 43,-155.221 39.5001,-165.221 46.5001,-165.221"/>
</g>
<!-- E -->
<g id="node9" class="node"><title>E</title>
<ellipse fill="#00868b" stroke="black" cx="43" cy="-62" rx="19.0919" ry="19.0919"/>
<text text-anchor="middle" x="43" y="-58.9" font-family="Times Roman,serif" font-size="14.00">E</text>
</g>
<!-- D&#45;&gt;E -->
<g id="edge9" class="edge"><title>D&#45;&gt;E</title>
<path fill="none" stroke="black" d="M43,-116.943C43,-109.149 43,-99.9538 43,-91.3381"/>
<polygon fill="black" stroke="black" points="46.5001,-91.2494 43,-81.2495 39.5001,-91.2495 46.5001,-91.2494"/>
</g>
<!-- F -->
<g id="node12" class="node"><title>F</title>
<polygon fill="yellow" stroke="darkorchid" stroke-width="5" points="148,-456 134.5,-478.045 107.5,-478.045 94,-456 107.5,-433.955 134.5,-433.955 148,-456"/>
<text text-anchor="middle" x="121" y="-452.9" font-family="Times Roman,serif" font-size="14.00">F</text>
</g>
<!-- G -->
<g id="node13" class="node"><title>G</title>
<polygon fill="darkorchid" stroke="crimson" stroke-width="7" points="148,-340.292 121,-356.599 94,-340.292 104.313,-313.908 137.687,-313.908 148,-340.292"/>
<text text-anchor="middle" x="121" y="-329.9" font-family="Times Roman,serif" font-size="14.00">G</text>
</g>
<!-- F&#45;&gt;G -->
<g id="edge12" class="edge"><title>F&#45;&gt;G</title>
<path fill="none" stroke="black" d="M121,-433.726C121,-415.13 121,-388.321 121,-367.036"/>
<polygon fill="black" stroke="black" points="124.5,-366.787 121,-356.787 117.5,-366.787 124.5,-366.787"/>
</g>
<!-- H -->
<g id="node16" class="node"><title>H</title>
<polygon fill="lightblue" stroke="black" points="226.095,-464.913 199,-484.843 171.905,-464.913 171.93,-432.665 226.07,-432.665 226.095,-464.913"/>
<text text-anchor="middle" x="199" y="-450.5" font-family="Times Roman,serif" font-size="20.00">H</text>
</g>
<!-- I -->
<g id="node17" class="node"><title>I</title>
<polygon fill="lightblue" stroke="black" points="226,-341.913 199,-361.843 172,-341.913 172.025,-309.665 225.975,-309.665 226,-341.913"/>
<text text-anchor="middle" x="199" y="-327.5" font-family="Times Roman,serif" font-size="20.00">I</text>
</g>
<!-- H&#45;&gt;I -->
<g id="edge15" class="edge"><title>H&#45;&gt;I</title>
<path fill="none" stroke="black" d="M199,-432.575C199,-415.481 199,-391.916 199,-372.002"/>
<polygon fill="black" stroke="black" points="202.5,-371.974 199,-361.974 195.5,-371.974 202.5,-371.974"/>
</g>
<!-- J -->
<g id="node20" class="node"><title>J</title>
<polygon fill="magenta" stroke="yellow" points="319,-476.5 279,-476.5 279,-435.5 319,-435.5 319,-476.5"/>
<text text-anchor="middle" x="299" y="-449.1" font-family="Times Roman,serif" font-size="26.00">J</text>
</g>
<!-- K -->
<g id="node21" class="node"><title>K</title>
<polygon fill="magenta" stroke="black" points="299,-390.983 250.002,-304.009 347.998,-304.009 299,-390.983"/>
<text text-anchor="middle" x="299" y="-326.1" font-family="Times Roman,serif" font-size="26.00">K</text>
</g>
<!-- J&#45;&gt;K -->
<g id="edge18" class="edge"><title>J&#45;&gt;K</title>
<path fill="none" stroke="black" d="M299,-435.413C299,-425.753 299,-413.629 299,-401.136"/>
<polygon fill="black" stroke="black" points="302.5,-401.077 299,-391.078 295.5,-401.078 302.5,-401.077"/>
</g>
</g>
</svg>
