<?xml version="1.0" encoding="UTF-8" standalone="no"?>
<!DOCTYPE svg PUBLIC "-//W3C//DTD SVG 1.1//EN"
 "http://www.w3.org/Graphics/SVG/1.1/DTD/svg11.dtd">
<!-- Generated by graphviz version 2.29.20121107.0545 (20121107.0545)
 -->
<!-- Title: Perl Pages: 1 -->
<svg width="544pt" height="479pt"
 viewBox="0.00 0.00 544.00 479.00" xmlns="http://www.w3.org/2000/svg" xmlns:xlink="http://www.w3.org/1999/xlink">
<g id="graph0" class="graph" transform="scale(1 1) rotate(0) translate(4 475)">
<title>Perl</title>
<polygon fill="white" stroke="white" points="-4,5 -4,-475 541,-475 541,5 -4,5"/>
<text text-anchor="middle" x="268" y="-7.8" font-family="Times,serif" font-size="14.00">Cluster set</text>
<g id="clust1" class="cluster"><title>cluster A</title>
<polygon fill="none" stroke="black" points="8,-31 8,-106 78,-106 78,-31 8,-31"/>
<text text-anchor="middle" x="43" y="-90.8" font-family="Times,serif" font-size="14.00">Cluster A</text>
</g>
<g id="clust2" class="cluster"><title>cluster B</title>
<polygon fill="none" stroke="black" points="8,-114 8,-189 168,-189 168,-114 8,-114"/>
<text text-anchor="middle" x="88" y="-173.8" font-family="Times,serif" font-size="14.00">Cluster B</text>
</g>
<g id="clust3" class="cluster"><title>cluster D</title>
<polygon fill="none" stroke="black" points="8,-197 8,-326 258,-326 258,-197 8,-197"/>
<text text-anchor="middle" x="133" y="-310.8" font-family="Times,serif" font-size="14.00">Cluster D</text>
</g>
<g id="clust4" class="cluster"><title>cluster H</title>
<polygon fill="none" stroke="black" points="8,-334 8,-463 528,-463 528,-334 8,-334"/>
<text text-anchor="middle" x="268" y="-447.8" font-family="Times,serif" font-size="14.00">Cluster H</text>
</g>
<!-- A -->
<g id="node1" class="node"><title>A</title>
<ellipse fill="bisque" stroke="bisque" cx="43" cy="-57" rx="27" ry="18"/>
<text text-anchor="middle" x="43" y="-53.3" font-family="Times,serif" font-size="14.00">A</text>
</g>
<!-- B -->
<g id="node2" class="node"><title>B</title>
<ellipse fill="aquamarine" stroke="aquamarine" cx="43" cy="-140" rx="27" ry="18"/>
<text text-anchor="middle" x="43" y="-136.3" font-family="Times,serif" font-size="14.00">B</text>
</g>
<!-- C -->
<g id="node3" class="node"><title>C</title>
<ellipse fill="lightgrey" stroke="black" cx="133" cy="-140" rx="27" ry="18"/>
<text text-anchor="middle" x="133" y="-136.3" font-family="Times,serif" font-size="14.00">C</text>
</g>
<!-- B&#45;&gt;C -->
<g id="edge1" class="edge"><title>B&#45;&gt;C</title>
<path fill="none" stroke="slateblue" d="M70.4029,-140C81.6421,-140 94.7152,-140 105.919,-140"/>
</g>
<!-- D -->
<g id="node4" class="node"><title>D</title>
<ellipse fill="lawngreen" stroke="lawngreen" cx="43" cy="-277" rx="27" ry="18"/>
<text text-anchor="middle" x="43" y="-273.3" font-family="Times,serif" font-size="14.00">D</text>
</g>
<!-- F -->
<g id="node5" class="node"><title>F</title>
<ellipse fill="turquoise" stroke="turquoise" cx="133" cy="-250" rx="27" ry="18"/>
<text text-anchor="middle" x="133" y="-246.3" font-family="Times,serif" font-size="14.00">F</text>
</g>
<!-- D&#45;&gt;F -->
<g id="edge2" class="edge"><title>D&#45;&gt;F</title>
<path fill="none" stroke="slateblue" d="M66.0224,-267.252C83.4951,-259.519 105,-250 105,-250"/>
</g>
<!-- G -->
<g id="node7" class="node"><title>G</title>
<ellipse fill="crimson" stroke="crimson" cx="223" cy="-250" rx="27" ry="18"/>
<text text-anchor="middle" x="223" y="-246.3" font-family="Times,serif" font-size="14.00">G</text>
</g>
<!-- F&#45;&gt;G -->
<g id="edge4" class="edge"><title>F&#45;&gt;G</title>
<path fill="none" stroke="slateblue" d="M160.403,-250C168.393,-250 177.311,-250 185.824,-250"/>
<polygon fill="none" stroke="slateblue" points="195.919,-253.5 185.919,-250 195.919,-246.5 195.919,-253.5"/>
</g>
<!-- E -->
<g id="node6" class="node"><title>E</title>
<ellipse fill="coral" stroke="coral" cx="43" cy="-223" rx="27" ry="18"/>
<text text-anchor="middle" x="43" y="-219.3" font-family="Times,serif" font-size="14.00">E</text>
</g>
<!-- E&#45;&gt;F -->
<g id="edge3" class="edge"><title>E&#45;&gt;F</title>
<path fill="none" stroke="slateblue" d="M66.0224,-232.748C83.4951,-240.481 105,-250 105,-250"/>
</g>
<!-- H -->
<g id="node8" class="node"><title>H</title>
<ellipse fill="aquamarine" stroke="aquamarine" cx="43" cy="-414" rx="27" ry="18"/>
<text text-anchor="middle" x="43" y="-410.3" font-family="Times,serif" font-size="14.00">H</text>
</g>
<!-- J -->
<g id="node9" class="node"><title>J</title>
<ellipse fill="lightgrey" stroke="black" cx="133" cy="-387" rx="27" ry="18"/>
<text text-anchor="middle" x="133" y="-383.3" font-family="Times,serif" font-size="14.00">J</text>
</g>
<!-- H&#45;&gt;J -->
<g id="edge5" class="edge"><title>H&#45;&gt;J</title>
<path fill="none" stroke="slateblue" d="M66.0224,-404.252C83.4951,-396.519 105,-387 105,-387"/>
</g>
<!-- L -->
<g id="node11" class="node"><title>L</title>
<ellipse fill="plum" stroke="plum" cx="223" cy="-360" rx="27" ry="18"/>
<text text-anchor="middle" x="223" y="-356.3" font-family="Times,serif" font-size="14.00">L</text>
</g>
<!-- J&#45;&gt;L -->
<g id="edge7" class="edge"><title>J&#45;&gt;L</title>
<path fill="none" stroke="slateblue" d="M161,-387C161,-387 175.748,-380.472 190.741,-373.836"/>
<polygon fill="slateblue" stroke="slateblue" points="192.25,-376.996 199.978,-369.748 189.417,-370.595 192.25,-376.996"/>
</g>
<!-- K -->
<g id="node12" class="node"><title>K</title>
<ellipse fill="gold" stroke="gold" cx="223" cy="-414" rx="27" ry="18"/>
<text text-anchor="middle" x="223" y="-410.3" font-family="Times,serif" font-size="14.00">K</text>
</g>
<!-- J&#45;&gt;K -->
<g id="edge8" class="edge"><title>J&#45;&gt;K</title>
<path fill="none" stroke="slateblue" d="M161,-387C161,-387 175.748,-393.528 190.741,-400.164"/>
<polygon fill="slateblue" stroke="slateblue" points="189.417,-403.405 199.978,-404.252 192.25,-397.004 189.417,-403.405"/>
</g>
<!-- I -->
<g id="node10" class="node"><title>I</title>
<ellipse fill="bisque" stroke="bisque" cx="43" cy="-360" rx="27" ry="18"/>
<text text-anchor="middle" x="43" y="-356.3" font-family="Times,serif" font-size="14.00">I</text>
</g>
<!-- I&#45;&gt;J -->
<g id="edge6" class="edge"><title>I&#45;&gt;J</title>
<path fill="none" stroke="slateblue" d="M66.0224,-369.748C83.4951,-377.481 105,-387 105,-387"/>
</g>
<!-- M -->
<g id="node13" class="node"><title>M</title>
<ellipse fill="pink" stroke="pink" cx="313" cy="-360" rx="27" ry="18"/>
<text text-anchor="middle" x="313" y="-356.3" font-family="Times,serif" font-size="14.00">M</text>
</g>
<!-- L&#45;&gt;M -->
<g id="edge9" class="edge"><title>L&#45;&gt;M</title>
<path fill="none" stroke="slateblue" d="M250.403,-360C259.008,-360 268.688,-360 277.781,-360"/>
<ellipse fill="none" stroke="slateblue" cx="281.919" cy="-360" rx="4" ry="4"/>
</g>
<!-- N -->
<g id="node14" class="node"><title>N</title>
<ellipse fill="lightgrey" stroke="black" cx="403" cy="-360" rx="27" ry="18"/>
<text text-anchor="middle" x="403" y="-356.3" font-family="Times,serif" font-size="14.00">N</text>
</g>
<!-- M&#45;&gt;N -->
<g id="edge10" class="edge"><title>M&#45;&gt;N</title>
<path fill="none" stroke="slateblue" d="M340.403,-360C347.779,-360 355.944,-360 363.853,-360"/>
<polygon fill="slateblue" stroke="slateblue" points="363.919,-360 369.919,-356 375.919,-360 369.919,-364 363.919,-360"/>
</g>
<!-- O -->
<g id="node15" class="node"><title>O</title>
<ellipse fill="red" stroke="red" cx="493" cy="-360" rx="27" ry="18"/>
<text text-anchor="middle" x="493" y="-356.3" font-family="Times,serif" font-size="14.00">O</text>
</g>
<!-- N&#45;&gt;O -->
<g id="edge11" class="edge"><title>N&#45;&gt;O</title>
<path fill="none" stroke="slateblue" d="M430.403,-360C439.008,-360 448.688,-360 457.781,-360"/>
<ellipse fill="none" stroke="slateblue" cx="461.919" cy="-360" rx="4" ry="4"/>
</g>
</g>
</svg>
