<?xml version="1.0" encoding="UTF-8" standalone="no"?>
<!DOCTYPE svg PUBLIC "-//W3C//DTD SVG 1.1//EN"
 "http://www.w3.org/Graphics/SVG/1.1/DTD/svg11.dtd">
<!-- Generated by graphviz version 2.29.20121107.0545 (20121107.0545)
 -->
<!-- Title: g Pages: 1 -->
<svg width="1684pt" height="196pt"
 viewBox="0.00 0.00 1684.00 196.00" xmlns="http://www.w3.org/2000/svg" xmlns:xlink="http://www.w3.org/1999/xlink">
<g id="graph0" class="graph" transform="scale(1 1) rotate(0) translate(4 192)">
<title>g</title>
<polygon fill="white" stroke="white" points="-4,5 -4,-192 1681,-192 1681,5 -4,5"/>
<text text-anchor="middle" x="838" y="-7.8" font-family="Times,serif" font-size="14.00">Cluster set</text>
<g id="clust1" class="cluster"><title>cluster DeltamCherry</title>
<polygon fill="none" stroke="black" points="8,-31 8,-180 1668,-180 1668,-31 8,-31"/>
<text text-anchor="middle" x="838" y="-164.8" font-family="Times,serif" font-size="14.00">Cluster DeltamCherry</text>
</g>
<!-- DeltamCherry -->
<g id="node1" class="node"><title>DeltamCherry</title>
<polygon fill="#0571b0" stroke="#0571b0" points="1551.5,-79 1474.5,-79 1474.5,-55 1551.5,-55 1551.5,-49 1569.5,-67 1551.5,-85 1551.5,-79"/>
<text text-anchor="middle" x="1522" y="-63.3" font-family="Times,serif" font-size="14.00" fill="#f7f7f7">DeltamCherry</text>
</g>
<!-- product -->
<g id="node2" class="node"><title>product</title>
<ellipse fill="#f4a582" stroke="#f4a582" cx="1633" cy="-67" rx="27" ry="18"/>
</g>
<!-- DeltamCherry&#45;&gt;product -->
<g id="edge1" class="edge"><title>DeltamCherry&#45;&gt;product</title>
<path fill="none" stroke="black" d="M1569.54,-67C1578.25,-67 1587.23,-67 1595.58,-67"/>
<polygon fill="black" stroke="black" points="1595.74,-70.5001 1605.74,-67 1595.74,-63.5001 1595.74,-70.5001"/>
</g>
<!-- Doxycycline -->
<g id="node3" class="node"><title>Doxycycline</title>
<ellipse fill="#92c5de" stroke="#92c5de" cx="1082" cy="-131" rx="55.7903" ry="18"/>
<text text-anchor="middle" x="1082" y="-127.3" font-family="Times,serif" font-size="14.00" fill="#0571b0">Doxycycline</text>
</g>
<!-- combination -->
<g id="node4" class="node"><title>combination</title>
<ellipse fill="#92c5de" stroke="#92c5de" cx="1261" cy="-77" rx="87.1846" ry="18"/>
<text text-anchor="middle" x="1261" y="-73.3" font-family="Times,serif" font-size="14.00" fill="#0571b0">rtTA3 + Doxycycline</text>
</g>
<!-- Doxycycline&#45;&gt;combination -->
<g id="edge2" class="edge"><title>Doxycycline&#45;&gt;combination</title>
<path fill="none" stroke="black" d="M1123.16,-118.747C1146.32,-111.683 1175.84,-102.677 1201.53,-94.8389"/>
<polygon fill="black" stroke="black" points="1202.62,-98.1645 1211.17,-91.8987 1200.58,-91.4691 1202.62,-98.1645"/>
</g>
<!-- TRE -->
<g id="node15" class="node"><title>TRE</title>
<polygon fill="#ca0020" stroke="#ca0020" points="1420,-79 1384,-79 1384,-49 1402,-49 1402,-55 1420,-55 1420,-49 1438,-67 1420,-85 1420,-79"/>
<text text-anchor="middle" x="1411" y="-63.3" font-family="Times,serif" font-size="14.00" fill="#f7f7f7">TRE</text>
</g>
<!-- combination&#45;&gt;TRE -->
<g id="edge14" class="edge"><title>combination&#45;&gt;TRE</title>
<path fill="none" stroke="black" d="M1344.22,-71.4444C1354.55,-70.7465 1364.67,-70.0631 1373.74,-69.4498"/>
<polygon fill="black" stroke="black" points="1374.13,-72.9314 1383.88,-68.7651 1373.66,-65.9473 1374.13,-72.9314"/>
</g>
<!-- Gal4VP16 -->
<g id="node5" class="node"><title>Gal4VP16</title>
<polygon fill="#0571b0" stroke="#0571b0" points="166,-119 106,-119 106,-95 166,-95 166,-89 184,-107 166,-125 166,-119"/>
<text text-anchor="middle" x="145" y="-103.3" font-family="Times,serif" font-size="14.00" fill="#f7f7f7">Gal4&#45;VP16</text>
</g>
<!-- UAS -->
<g id="node6" class="node"><title>UAS</title>
<polygon fill="#ca0020" stroke="#ca0020" points="394,-128 358,-128 358,-98 376,-98 376,-104 394,-104 394,-98 412,-116 394,-134 394,-128"/>
<text text-anchor="middle" x="385" y="-112.3" font-family="Times,serif" font-size="14.00" fill="#f7f7f7">UAS</text>
</g>
<!-- Gal4VP16&#45;&gt;UAS -->
<g id="edge3" class="edge"><title>Gal4VP16&#45;&gt;UAS</title>
<path fill="none" stroke="black" d="M184.283,-101.335C220.052,-96.9696 274.862,-92.6547 322,-99 333.946,-100.608 346.848,-103.885 357.772,-107.136"/>
</g>
<!-- Gal4VP16protein -->
<g id="node7" class="node"><title>Gal4VP16protein</title>
<ellipse fill="#92c5de" stroke="#92c5de" cx="271" cy="-126" rx="50.8918" ry="18"/>
<text text-anchor="middle" x="271" y="-122.3" font-family="Times,serif" font-size="14.00" fill="#0571b0">Gal4&#45;VP16</text>
</g>
<!-- Gal4VP16&#45;&gt;Gal4VP16protein -->
<g id="edge4" class="edge"><title>Gal4VP16&#45;&gt;Gal4VP16protein</title>
<path fill="none" stroke="black" d="M184.216,-112.856C193.716,-114.311 204.094,-115.901 214.246,-117.457"/>
<polygon fill="black" stroke="black" points="213.868,-120.94 224.282,-118.995 214.928,-114.021 213.868,-120.94"/>
</g>
<!-- LacI -->
<g id="node13" class="node"><title>LacI</title>
<polygon fill="#0571b0" stroke="#0571b0" points="484,-128 448,-128 448,-104 484,-104 484,-98 502,-116 484,-134 484,-128"/>
<text text-anchor="middle" x="475" y="-112.3" font-family="Times,serif" font-size="14.00" fill="#f7f7f7">LacI</text>
</g>
<!-- UAS&#45;&gt;LacI -->
<g id="edge13" class="edge"><title>UAS&#45;&gt;LacI</title>
<path fill="none" stroke="black" d="M412.403,-116C423.642,-116 436.715,-116 447.919,-116"/>
</g>
<!-- Gal4VP16protein&#45;&gt;UAS -->
<g id="edge5" class="edge"><title>Gal4VP16protein&#45;&gt;UAS</title>
<path fill="none" stroke="black" d="M320.473,-121.672C329.636,-120.854 339.072,-120.011 347.777,-119.234"/>
<polygon fill="black" stroke="black" points="348.316,-122.7 357.965,-118.325 347.693,-115.728 348.316,-122.7"/>
</g>
<!-- Hef1a -->
<g id="node8" class="node"><title>Hef1a</title>
<polygon fill="#ca0020" stroke="#ca0020" points="52,-119 16,-119 16,-89 34,-89 34,-95 52,-95 52,-89 70,-107 52,-125 52,-119"/>
<text text-anchor="middle" x="43" y="-103.3" font-family="Times,serif" font-size="14.00" fill="#f7f7f7">Hef1a</text>
</g>
<!-- Hef1a&#45;&gt;Gal4VP16 -->
<g id="edge6" class="edge"><title>Hef1a&#45;&gt;Gal4VP16</title>
<path fill="none" stroke="black" d="M70.0128,-107C80.8924,-107 93.7577,-107 105.684,-107"/>
</g>
<!-- Hef1aLacOid -->
<g id="node9" class="node"><title>Hef1aLacOid</title>
<polygon fill="#ca0020" stroke="#ca0020" points="881.5,-106 804.5,-106 804.5,-76 822.5,-76 822.5,-82 881.5,-82 881.5,-76 899.5,-94 881.5,-112 881.5,-106"/>
<text text-anchor="middle" x="852" y="-90.3" font-family="Times,serif" font-size="14.00" fill="#f7f7f7">Hef1a&#45;LacOid</text>
</g>
<!-- rtTA3 -->
<g id="node10" class="node"><title>rtTA3</title>
<polygon fill="#0571b0" stroke="#0571b0" points="972,-89 936,-89 936,-65 972,-65 972,-59 990,-77 972,-95 972,-89"/>
<text text-anchor="middle" x="963" y="-73.3" font-family="Times,serif" font-size="14.00" fill="#f7f7f7">rtTA3</text>
</g>
<!-- Hef1aLacOid&#45;&gt;rtTA3 -->
<g id="edge7" class="edge"><title>Hef1aLacOid&#45;&gt;rtTA3</title>
<path fill="none" stroke="black" d="M899.542,-86.7412C911.925,-84.8099 924.867,-82.7913 935.739,-81.0958"/>
</g>
<!-- rtTA3&#45;&gt;TRE -->
<g id="edge16" class="edge"><title>rtTA3&#45;&gt;TRE</title>
<path fill="none" stroke="black" d="M990.062,-62.8109C1000.85,-57.6987 1013.7,-52.5616 1026,-50 1166.1,-20.8171 1206.17,-30.9077 1348,-50 1359.95,-51.6081 1372.85,-54.885 1383.77,-58.1365"/>
</g>
<!-- rtTA3protein -->
<g id="node16" class="node"><title>rtTA3protein</title>
<ellipse fill="#92c5de" stroke="#92c5de" cx="1082" cy="-77" rx="32.4942" ry="18"/>
<text text-anchor="middle" x="1082" y="-73.3" font-family="Times,serif" font-size="14.00" fill="#0571b0">rtTA3</text>
</g>
<!-- rtTA3&#45;&gt;rtTA3protein -->
<g id="edge17" class="edge"><title>rtTA3&#45;&gt;rtTA3protein</title>
<path fill="none" stroke="black" d="M990.257,-77C1004.63,-77 1022.77,-77 1039.05,-77"/>
<polygon fill="black" stroke="black" points="1039.42,-80.5001 1049.42,-77 1039.42,-73.5001 1039.42,-80.5001"/>
</g>
<!-- IPTG -->
<g id="node11" class="node"><title>IPTG</title>
<ellipse fill="#92c5de" stroke="#92c5de" cx="569" cy="-57" rx="30.5947" ry="18"/>
<text text-anchor="middle" x="569" y="-53.3" font-family="Times,serif" font-size="14.00" fill="#0571b0">IPTG</text>
</g>
<!-- repression -->
<g id="node12" class="node"><title>repression</title>
<ellipse fill="none" stroke="#0571b0" stroke-dasharray="1,5" cx="702" cy="-94" rx="65.7887" ry="18"/>
<text text-anchor="middle" x="702" y="-90.3" font-family="Times,serif" font-size="14.00">LacI repression</text>
</g>
<!-- IPTG&#45;&gt;repression -->
<g id="edge8" class="edge"><title>IPTG&#45;&gt;repression</title>
<path fill="none" stroke="black" d="M596.826,-64.5768C612.289,-68.9443 632.233,-74.5773 650.525,-79.7436"/>
<polygon fill="black" stroke="black" points="656.032,-76.1034 653.313,-85.7269 651.389,-85.1832 654.107,-75.5597 656.032,-76.1034"/>
<polyline fill="none" stroke="black" points="655.635,-81.1869 650.823,-79.8278 "/>
</g>
<!-- repression&#45;&gt;Hef1aLacOid -->
<g id="edge15" class="edge"><title>repression&#45;&gt;Hef1aLacOid</title>
<path fill="none" stroke="black" d="M767.915,-94C778.365,-94 789.06,-94 799.15,-94"/>
<polygon fill="black" stroke="black" points="803.367,-89 803.367,-99 801.367,-99.0001 801.367,-89.0001 803.367,-89"/>
<polyline fill="none" stroke="black" points="804.367,-94 799.367,-94.0001 "/>
</g>
<!-- LacI&#45;&gt;Hef1aLacOid -->
<g id="edge9" class="edge"><title>LacI&#45;&gt;Hef1aLacOid</title>
<path fill="none" stroke="black" d="M502.018,-127.459C512.91,-131.665 525.844,-135.907 538,-138 598.391,-148.397 754.354,-123.875 768,-121 779.862,-118.501 792.416,-114.927 804.07,-111.194"/>
</g>
<!-- LacIprotein -->
<g id="node14" class="node"><title>LacIprotein</title>
<ellipse fill="#92c5de" stroke="#92c5de" cx="569" cy="-111" rx="27" ry="18"/>
<text text-anchor="middle" x="569" y="-107.3" font-family="Times,serif" font-size="14.00" fill="#0571b0">LacI</text>
</g>
<!-- LacI&#45;&gt;LacIprotein -->
<g id="edge10" class="edge"><title>LacI&#45;&gt;LacIprotein</title>
<path fill="none" stroke="black" d="M502.117,-114.581C511.343,-114.079 521.891,-113.506 531.802,-112.967"/>
<polygon fill="black" stroke="black" points="532.022,-116.461 541.817,-112.423 531.642,-109.471 532.022,-116.461"/>
</g>
<!-- LacIprotein&#45;&gt;repression -->
<g id="edge11" class="edge"><title>LacIprotein&#45;&gt;repression</title>
<path fill="none" stroke="black" d="M595.569,-107.682C606.249,-106.296 619.22,-104.613 632.36,-102.907"/>
<polygon fill="black" stroke="black" points="632.939,-106.362 642.406,-101.604 632.038,-99.4199 632.939,-106.362"/>
</g>
<!-- TRE&#45;&gt;DeltamCherry -->
<g id="edge12" class="edge"><title>TRE&#45;&gt;DeltamCherry</title>
<path fill="none" stroke="black" d="M1438.11,-67C1448.94,-67 1461.85,-67 1474.22,-67"/>
</g>
<!-- rtTA3protein&#45;&gt;combination -->
<g id="edge18" class="edge"><title>rtTA3protein&#45;&gt;combination</title>
<path fill="none" stroke="black" d="M1114.64,-77C1128.53,-77 1145.64,-77 1163.2,-77"/>
<polygon fill="black" stroke="black" points="1163.57,-80.5001 1173.57,-77 1163.57,-73.5001 1163.57,-80.5001"/>
</g>
</g>
</svg>
