<?xml version="1.0" encoding="UTF-8" standalone="no"?>
<!DOCTYPE svg PUBLIC "-//W3C//DTD SVG 1.1//EN"
 "http://www.w3.org/Graphics/SVG/1.1/DTD/svg11.dtd">
<!-- Generated by graphviz version 2.26.3 (20100126.1600)
 -->
<!-- Title: graph_51 Pages: 1 -->
<svg width="166pt" height="148pt"
 viewBox="0.00 0.00 166.00 148.00" xmlns="http://www.w3.org/2000/svg" xmlns:xlink="http://www.w3.org/1999/xlink">
<g id="graph1" class="graph" transform="scale(1 1) rotate(0) translate(4 144)">
<title>graph_51</title>
<polygon fill="white" stroke="white" points="-4,5 -4,-144 163,-144 163,5 -4,5"/>
<text text-anchor="middle" x="79" y="-10.4" font-family="Times Roman,serif" font-size="14.00">Class Demo</text>
<g id="graph2" class="cluster"><title>cluster A</title>
<polygon fill="none" stroke="black" points="8,-35 8,-132 150,-132 150,-35 8,-35"/>
<text text-anchor="middle" x="79" y="-115.4" font-family="Times Roman,serif" font-size="14.00">Cluster A</text>
</g>
<!-- A -->
<g id="node2" class="node"><title>A</title>
<polygon fill="none" stroke="black" points="43,-97 16,-70 43,-43 70,-70 43,-97"/>
<polyline fill="none" stroke="black" points="24.4853,-78.4853 24.4853,-61.5147 "/>
<polyline fill="none" stroke="black" points="34.5147,-51.4853 51.4853,-51.4853 "/>
<polyline fill="none" stroke="black" points="61.5147,-61.5147 61.5147,-78.4853 "/>
<polyline fill="none" stroke="black" points="51.4853,-88.5147 34.5147,-88.5147 "/>
<text text-anchor="middle" x="43" y="-66.9" font-family="Times Roman,serif" font-size="14.00">A</text>
</g>
<!-- B -->
<g id="node3" class="node"><title>B</title>
<polygon fill="none" stroke="black" points="142,-88 106,-88 106,-52 142,-52 142,-88"/>
<polyline fill="none" stroke="black" points="118,-88 106,-76 "/>
<polyline fill="none" stroke="black" points="106,-64 118,-52 "/>
<polyline fill="none" stroke="black" points="130,-52 142,-64 "/>
<polyline fill="none" stroke="black" points="142,-76 130,-88 "/>
<text text-anchor="middle" x="124" y="-66.9" font-family="Times Roman,serif" font-size="14.00">B</text>
</g>
<!-- A&#45;&gt;B -->
<g id="edge3" class="edge"><title>A&#45;&gt;B</title>
<path fill="none" stroke="blue" d="M70.4229,-70C78.4647,-70 87.2772,-70 95.3909,-70"/>
<polygon fill="blue" stroke="blue" points="95.5312,-73.5001 105.531,-70 95.5311,-66.5001 95.5312,-73.5001"/>
</g>
</g>
</svg>
