<?xml version="1.0" encoding="UTF-8" standalone="no"?>
<!DOCTYPE svg PUBLIC "-//W3C//DTD SVG 1.1//EN"
 "http://www.w3.org/Graphics/SVG/1.1/DTD/svg11.dtd">
<!-- Generated by graphviz version 2.26.3 (20100126.1600)
 -->
<!-- Title: graph_51 Pages: 1 -->
<svg width="134pt" height="89pt"
 viewBox="0.00 0.00 134.00 89.00" xmlns="http://www.w3.org/2000/svg" xmlns:xlink="http://www.w3.org/1999/xlink">
<g id="graph1" class="graph" transform="scale(1 1) rotate(0) translate(4 85)">
<title>graph_51</title>
<polygon fill="white" stroke="white" points="-4,5 -4,-85 131,-85 131,5 -4,5"/>
<text text-anchor="middle" x="63" y="-10.4" font-family="Times Roman,serif" font-size="14.00">Class Demo</text>
<!-- A -->
<g id="node1" class="node"><title>A</title>
<polygon fill="none" stroke="black" points="27,-81 3.55271e-15,-54 27,-27 54,-54 27,-81"/>
<polyline fill="none" stroke="black" points="8.48528,-62.4853 8.48528,-45.5147 "/>
<polyline fill="none" stroke="black" points="18.5147,-35.4853 35.4853,-35.4853 "/>
<polyline fill="none" stroke="black" points="45.5147,-45.5147 45.5147,-62.4853 "/>
<polyline fill="none" stroke="black" points="35.4853,-72.5147 18.5147,-72.5147 "/>
<text text-anchor="middle" x="27" y="-50.9" font-family="Times Roman,serif" font-size="14.00">A</text>
</g>
<!-- B -->
<g id="node2" class="node"><title>B</title>
<polygon fill="none" stroke="black" points="126,-72 90,-72 90,-36 126,-36 126,-72"/>
<polyline fill="none" stroke="black" points="102,-72 90,-60 "/>
<polyline fill="none" stroke="black" points="90,-48 102,-36 "/>
<polyline fill="none" stroke="black" points="114,-36 126,-48 "/>
<polyline fill="none" stroke="black" points="126,-60 114,-72 "/>
<text text-anchor="middle" x="108" y="-50.9" font-family="Times Roman,serif" font-size="14.00">B</text>
</g>
<!-- A&#45;&gt;B -->
<g id="edge2" class="edge"><title>A&#45;&gt;B</title>
<path fill="none" stroke="blue" d="M54.4229,-54C62.4647,-54 71.2772,-54 79.3909,-54"/>
<polygon fill="blue" stroke="blue" points="79.5312,-57.5001 89.5312,-54 79.5311,-50.5001 79.5312,-57.5001"/>
</g>
</g>
</svg>
