<?xml version="1.0" encoding="UTF-8" standalone="no"?>
<!DOCTYPE svg PUBLIC "-//W3C//DTD SVG 1.1//EN"
 "http://www.w3.org/Graphics/SVG/1.1/DTD/svg11.dtd">
<!-- Generated by graphviz version 2.26.3 (20100126.1600)
 -->
<!-- Title: graph_51 Pages: 1 -->
<svg width="91pt" height="161pt"
 viewBox="0.00 0.00 91.00 161.00" xmlns="http://www.w3.org/2000/svg" xmlns:xlink="http://www.w3.org/1999/xlink">
<g id="graph1" class="graph" transform="scale(1 1) rotate(0) translate(4 157)">
<title>graph_51</title>
<polygon fill="white" stroke="white" points="-4,5 -4,-157 88,-157 88,5 -4,5"/>
<text text-anchor="middle" x="41.5" y="-10.4" font-family="Times Roman,serif" font-size="14.00">Class Demo</text>
<!-- A -->
<g id="node1" class="node"><title>A</title>
<polygon fill="none" stroke="black" points="41.5,-153 14.5,-126 41.5,-99 68.5,-126 41.5,-153"/>
<polyline fill="none" stroke="black" points="22.9853,-134.485 22.9853,-117.515 "/>
<polyline fill="none" stroke="black" points="33.0147,-107.485 49.9853,-107.485 "/>
<polyline fill="none" stroke="black" points="60.0147,-117.515 60.0147,-134.485 "/>
<polyline fill="none" stroke="black" points="49.9853,-144.515 33.0147,-144.515 "/>
<text text-anchor="middle" x="41.5" y="-122.9" font-family="Times Roman,serif" font-size="14.00">A</text>
</g>
<!-- B -->
<g id="node2" class="node"><title>B</title>
<polygon fill="none" stroke="black" points="59.5,-63 23.5,-63 23.5,-27 59.5,-27 59.5,-63"/>
<polyline fill="none" stroke="black" points="35.5,-63 23.5,-51 "/>
<polyline fill="none" stroke="black" points="23.5,-39 35.5,-27 "/>
<polyline fill="none" stroke="black" points="47.5,-27 59.5,-39 "/>
<polyline fill="none" stroke="black" points="59.5,-51 47.5,-63 "/>
<text text-anchor="middle" x="41.5" y="-41.9" font-family="Times Roman,serif" font-size="14.00">B</text>
</g>
<!-- A&#45;&gt;B -->
<g id="edge2" class="edge"><title>A&#45;&gt;B</title>
<path fill="none" stroke="blue" d="M41.5,-98.5771C41.5,-90.5353 41.5,-81.7228 41.5,-73.6091"/>
<polygon fill="blue" stroke="blue" points="45.0001,-73.4688 41.5,-63.4688 38.0001,-73.4689 45.0001,-73.4688"/>
</g>
</g>
</svg>
