<?xml version="1.0" encoding="UTF-8" standalone="no"?>
<!DOCTYPE svg PUBLIC "-//W3C//DTD SVG 1.1//EN"
 "http://www.w3.org/Graphics/SVG/1.1/DTD/svg11.dtd">
<!-- Generated by graphviz version 2.26.3 (20100126.1600)
 -->
<!-- Title: G Pages: 1 -->
<svg width="454pt" height="228pt"
 viewBox="0.00 0.00 454.00 228.00" xmlns="http://www.w3.org/2000/svg" xmlns:xlink="http://www.w3.org/1999/xlink">
<g id="graph1" class="graph" transform="scale(1 1) rotate(0) translate(4 224)">
<title>G</title>
<polygon fill="white" stroke="white" points="-4,5 -4,-224 451,-224 451,5 -4,5"/>
<text text-anchor="middle" x="223" y="-10.4" font-family="Times Roman,serif" font-size="14.00">Cluster set</text>
<g id="graph2" class="cluster"><title>cluster a0</title>
<polygon fill="none" stroke="black" points="8,-35 8,-212 438,-212 438,-35 8,-35"/>
<text text-anchor="middle" x="223" y="-195.4" font-family="Times Roman,serif" font-size="14.00">Cluster a0</text>
</g>
<!-- a0 -->
<g id="node2" class="node"><title>a0</title>
<ellipse fill="none" stroke="black" cx="133" cy="-102" rx="27" ry="19.0919"/>
<text text-anchor="middle" x="133" y="-98.9" font-family="Times Roman,serif" font-size="14.00">a0</text>
</g>
<!-- a1 -->
<g id="node3" class="node"><title>a1</title>
<ellipse fill="none" stroke="black" cx="223" cy="-82" rx="27" ry="19.0919"/>
<text text-anchor="middle" x="223" y="-78.9" font-family="Times Roman,serif" font-size="14.00">a1</text>
</g>
<!-- a0&#45;&gt;a1 -->
<g id="edge3" class="edge"><title>a0&#45;&gt;a1</title>
<path fill="none" stroke="black" d="M155.247,-91.1405C164.461,-88.3538 175.401,-85.6746 185.773,-83.6129"/>
<polygon fill="black" stroke="black" points="186.659,-87.0093 195.871,-81.7759 185.406,-80.1223 186.659,-87.0093"/>
</g>
<!-- a0&#45;&gt;a1 -->
<g id="edge23" class="edge"><title>a0&#45;&gt;a1</title>
<path fill="none" stroke="black" d="M160.003,-102.245C169.711,-100.661 180.758,-98.2909 190.86,-95.6411"/>
<polygon fill="black" stroke="black" points="191.881,-98.9897 200.563,-92.9169 189.989,-92.2503 191.881,-98.9897"/>
</g>
<!-- a2 -->
<g id="node5" class="node"><title>a2</title>
<ellipse fill="none" stroke="black" cx="313" cy="-62" rx="27" ry="19.0919"/>
<text text-anchor="middle" x="313" y="-58.9" font-family="Times Roman,serif" font-size="14.00">a2</text>
</g>
<!-- a1&#45;&gt;a2 -->
<g id="edge5" class="edge"><title>a1&#45;&gt;a2</title>
<path fill="none" stroke="black" d="M249.032,-76.2152C257.8,-74.2666 267.745,-72.0566 277.136,-69.9697"/>
<polygon fill="black" stroke="black" points="278.024,-73.3579 287.027,-67.7718 276.506,-66.5246 278.024,-73.3579"/>
</g>
<!-- a3 -->
<g id="node7" class="node"><title>a3</title>
<ellipse fill="none" stroke="black" cx="403" cy="-101" rx="27" ry="19.0919"/>
<text text-anchor="middle" x="403" y="-97.9" font-family="Times Roman,serif" font-size="14.00">a3</text>
</g>
<!-- a1&#45;&gt;a3 -->
<g id="edge25" class="edge"><title>a1&#45;&gt;a3</title>
<path fill="none" stroke="black" d="M249.338,-77.2528C260.619,-78.004 273.945,-79.6683 286,-81 313.785,-84.0694 345.344,-87.0043 368.677,-90.4492"/>
<polygon fill="black" stroke="black" points="368.348,-93.941 378.776,-92.0702 369.457,-87.0295 368.348,-93.941"/>
</g>
<!-- a1&#45;&gt;a3 -->
<g id="edge7" class="edge"><title>a1&#45;&gt;a3</title>
<path fill="none" stroke="black" d="M245.138,-92.9673C257.206,-95.575 272.411,-97.4988 286,-99 312.906,-101.972 343.35,-104.818 366.437,-105.618"/>
<polygon fill="black" stroke="black" points="366.415,-109.118 376.488,-105.834 366.566,-102.12 366.415,-109.118"/>
</g>
<!-- a2&#45;&gt;a3 -->
<g id="edge9" class="edge"><title>a2&#45;&gt;a3</title>
<path fill="none" stroke="black" d="M336.177,-72.0435C346.675,-76.5926 359.264,-82.0476 370.67,-86.9903"/>
<polygon fill="black" stroke="black" points="369.334,-90.2259 379.901,-90.9906 372.117,-83.803 369.334,-90.2259"/>
</g>
<!-- a3&#45;&gt;a0 -->
<g id="edge27" class="edge"><title>a3&#45;&gt;a0</title>
<path fill="none" stroke="black" d="M378.764,-92.4101C340.093,-89.7003 262.056,-96.1772 196,-92 185.465,-91.3338 173.998,-90.0469 163.77,-89.6384"/>
<polygon fill="black" stroke="black" points="163.666,-86.138 153.651,-89.5935 163.635,-93.138 163.666,-86.138"/>
</g>
<!-- a3&#45;&gt;a0 -->
<g id="edge30" class="edge"><title>a3&#45;&gt;a0</title>
<path fill="none" stroke="black" d="M383.003,-113.809C346.048,-125.192 264.569,-132.336 196,-128 182.894,-127.171 168.346,-125.382 156.534,-121.892"/>
<polygon fill="black" stroke="black" points="157.558,-118.539 146.964,-118.369 155.139,-125.108 157.558,-118.539"/>
</g>
<!-- a3&#45;&gt;a0 -->
<g id="edge11" class="edge"><title>a3&#45;&gt;a0</title>
<path fill="none" stroke="black" d="M376.186,-103.989C336.705,-107.977 260.62,-114.086 196,-110 187.473,-109.461 178.336,-108.515 169.739,-107.458"/>
<polygon fill="black" stroke="black" points="169.967,-103.958 159.598,-106.134 169.061,-110.899 169.967,-103.958"/>
</g>
<!-- b0 -->
<g id="node11" class="node"><title>b0</title>
<ellipse fill="none" stroke="black" cx="133" cy="-158" rx="27" ry="19.0919"/>
<text text-anchor="middle" x="133" y="-154.9" font-family="Times Roman,serif" font-size="14.00">b0</text>
</g>
<!-- b1 -->
<g id="node12" class="node"><title>b1</title>
<ellipse fill="none" stroke="black" cx="223" cy="-158" rx="27" ry="19.0919"/>
<text text-anchor="middle" x="223" y="-154.9" font-family="Times Roman,serif" font-size="14.00">b1</text>
</g>
<!-- b0&#45;&gt;b1 -->
<g id="edge32" class="edge"><title>b0&#45;&gt;b1</title>
<path fill="none" stroke="black" d="M158.55,-151.845C167.48,-151.263 177.676,-151.108 187.282,-151.379"/>
<polygon fill="black" stroke="black" points="187.237,-154.881 197.386,-151.841 187.557,-147.888 187.237,-154.881"/>
</g>
<!-- b0&#45;&gt;b1 -->
<g id="edge13" class="edge"><title>b0&#45;&gt;b1</title>
<path fill="none" stroke="black" d="M158.55,-164.155C167.48,-164.737 177.676,-164.892 187.282,-164.621"/>
<polygon fill="black" stroke="black" points="187.557,-168.112 197.386,-164.159 187.237,-161.119 187.557,-168.112"/>
</g>
<!-- b2 -->
<g id="node14" class="node"><title>b2</title>
<ellipse fill="none" stroke="black" cx="313" cy="-158" rx="27" ry="19.0919"/>
<text text-anchor="middle" x="313" y="-154.9" font-family="Times Roman,serif" font-size="14.00">b2</text>
</g>
<!-- b1&#45;&gt;b2 -->
<g id="edge34" class="edge"><title>b1&#45;&gt;b2</title>
<path fill="none" stroke="black" d="M248.55,-151.845C257.48,-151.263 267.676,-151.108 277.282,-151.379"/>
<polygon fill="black" stroke="black" points="277.237,-154.881 287.386,-151.841 277.557,-147.888 277.237,-154.881"/>
</g>
<!-- b1&#45;&gt;b2 -->
<g id="edge15" class="edge"><title>b1&#45;&gt;b2</title>
<path fill="none" stroke="black" d="M248.55,-164.155C257.48,-164.737 267.676,-164.892 277.282,-164.621"/>
<polygon fill="black" stroke="black" points="277.557,-168.112 287.386,-164.159 277.237,-161.119 277.557,-168.112"/>
</g>
<!-- b3 -->
<g id="node16" class="node"><title>b3</title>
<ellipse fill="none" stroke="black" cx="403" cy="-158" rx="27" ry="19.0919"/>
<text text-anchor="middle" x="403" y="-154.9" font-family="Times Roman,serif" font-size="14.00">b3</text>
</g>
<!-- b2&#45;&gt;b3 -->
<g id="edge36" class="edge"><title>b2&#45;&gt;b3</title>
<path fill="none" stroke="black" d="M338.55,-151.845C347.48,-151.263 357.676,-151.108 367.282,-151.379"/>
<polygon fill="black" stroke="black" points="367.237,-154.881 377.386,-151.841 367.557,-147.888 367.237,-154.881"/>
</g>
<!-- b2&#45;&gt;b3 -->
<g id="edge17" class="edge"><title>b2&#45;&gt;b3</title>
<path fill="none" stroke="black" d="M338.55,-164.155C347.48,-164.737 357.676,-164.892 367.282,-164.621"/>
<polygon fill="black" stroke="black" points="367.557,-168.112 377.386,-164.159 367.237,-161.119 367.557,-168.112"/>
</g>
<!-- x -->
<g id="node18" class="node"><title>x</title>
<ellipse fill="none" stroke="black" cx="43" cy="-130" rx="27" ry="19.0919"/>
<text text-anchor="middle" x="43" y="-126.9" font-family="Times Roman,serif" font-size="14.00">x</text>
</g>
<!-- x&#45;&gt;a0 -->
<g id="edge38" class="edge"><title>x&#45;&gt;a0</title>
<path fill="none" stroke="black" d="M63.874,-117.705C73.4952,-113.872 85.2055,-109.946 96.2328,-106.79"/>
<polygon fill="black" stroke="black" points="97.3446,-110.115 106.088,-104.133 95.5221,-103.357 97.3446,-110.115"/>
</g>
<!-- x&#45;&gt;a0 -->
<g id="edge19" class="edge"><title>x&#45;&gt;a0</title>
<path fill="none" stroke="black" d="M70.003,-127.844C80.2832,-125.254 92.0638,-121.648 102.635,-117.869"/>
<polygon fill="black" stroke="black" points="104.189,-121.024 112.312,-114.221 101.72,-114.474 104.189,-121.024"/>
</g>
<!-- x&#45;&gt;b0 -->
<g id="edge40" class="edge"><title>x&#45;&gt;b0</title>
<path fill="none" stroke="black" d="M70.003,-132.156C80.2832,-134.746 92.0638,-138.352 102.635,-142.131"/>
<polygon fill="black" stroke="black" points="101.72,-145.526 112.312,-145.779 104.189,-138.976 101.72,-145.526"/>
</g>
<!-- x&#45;&gt;b0 -->
<g id="edge21" class="edge"><title>x&#45;&gt;b0</title>
<path fill="none" stroke="black" d="M63.874,-142.295C73.4952,-146.128 85.2055,-150.054 96.2328,-153.21"/>
<polygon fill="black" stroke="black" points="95.5221,-156.643 106.088,-155.867 97.3446,-149.885 95.5221,-156.643"/>
</g>
</g>
</svg>
