<?xml version="1.0" encoding="UTF-8" standalone="no"?>
<!DOCTYPE svg PUBLIC "-//W3C//DTD SVG 1.1//EN"
 "http://www.w3.org/Graphics/SVG/1.1/DTD/svg11.dtd">
<!-- Generated by graphviz version 2.26.3 (20100126.1600)
 -->
<!-- Title: Perl Pages: 1 -->
<svg width="454pt" height="261pt"
 viewBox="0.00 0.00 454.00 261.00" xmlns="http://www.w3.org/2000/svg" xmlns:xlink="http://www.w3.org/1999/xlink">
<g id="graph1" class="graph" transform="scale(1 1) rotate(0) translate(4 257)">
<title>Perl</title>
<polygon fill="white" stroke="white" points="-4,5 -4,-257 451,-257 451,5 -4,5"/>
<text text-anchor="middle" x="223" y="-10.4" font-family="Times Roman,serif" font-size="14.00">Cluster set</text>
<g id="graph2" class="cluster"><title>cluster a0</title>
<polygon fill="none" stroke="black" points="8,-124 8,-245 438,-245 438,-124 8,-124"/>
<text text-anchor="middle" x="223" y="-228.4" font-family="Times Roman,serif" font-size="14.00">Cluster a0</text>
</g>
<g id="graph3" class="cluster"><title>cluster b0</title>
<polygon fill="none" stroke="black" points="98,-35 98,-116 438,-116 438,-35 98,-35"/>
<text text-anchor="middle" x="268" y="-99.4" font-family="Times Roman,serif" font-size="14.00">Cluster b0</text>
</g>
<!-- a0 -->
<g id="node2" class="node"><title>a0</title>
<ellipse fill="none" stroke="black" cx="133" cy="-166" rx="27" ry="19.0919"/>
<text text-anchor="middle" x="133" y="-162.9" font-family="Times Roman,serif" font-size="14.00">a0</text>
</g>
<!-- a1 -->
<g id="node3" class="node"><title>a1</title>
<ellipse fill="none" stroke="black" cx="223" cy="-166" rx="27" ry="19.0919"/>
<text text-anchor="middle" x="223" y="-162.9" font-family="Times Roman,serif" font-size="14.00">a1</text>
</g>
<!-- a0&#45;&#45;a1 -->
<g id="edge3" class="edge"><title>a0&#45;&#45;a1</title>
<path fill="none" stroke="black" d="M160.003,-166C171.29,-166 184.387,-166 195.705,-166"/>
</g>
<!-- a2 -->
<g id="node5" class="node"><title>a2</title>
<ellipse fill="none" stroke="black" cx="313" cy="-151" rx="27" ry="19.0919"/>
<text text-anchor="middle" x="313" y="-147.9" font-family="Times Roman,serif" font-size="14.00">a2</text>
</g>
<!-- a1&#45;&#45;a2 -->
<g id="edge5" class="edge"><title>a1&#45;&#45;a2</title>
<path fill="none" stroke="black" d="M249.516,-161.581C261.235,-159.628 274.977,-157.337 286.673,-155.388"/>
</g>
<!-- a3 -->
<g id="node7" class="node"><title>a3</title>
<ellipse fill="none" stroke="black" cx="403" cy="-189" rx="27" ry="19.0919"/>
<text text-anchor="middle" x="403" y="-185.9" font-family="Times Roman,serif" font-size="14.00">a3</text>
</g>
<!-- a1&#45;&#45;a3 -->
<g id="edge7" class="edge"><title>a1&#45;&#45;a3</title>
<path fill="none" stroke="black" d="M248.626,-172.004C260.016,-174.487 273.622,-177.2 286,-179 316.665,-183.458 352.163,-186.148 375.943,-187.597"/>
</g>
<!-- a2&#45;&#45;a3 -->
<g id="edge9" class="edge"><title>a2&#45;&#45;a3</title>
<path fill="none" stroke="black" d="M336.177,-160.786C349.51,-166.416 366.216,-173.469 379.589,-179.115"/>
</g>
<!-- a3&#45;&#45;a0 -->
<g id="edge11" class="edge"><title>a3&#45;&#45;a0</title>
<path fill="none" stroke="black" d="M376.498,-193.514C336.772,-199.415 259.648,-207.507 196,-194 181.365,-190.894 166.001,-184.146 154.11,-178.052"/>
</g>
<!-- x -->
<g id="node11" class="node"><title>x</title>
<ellipse fill="none" stroke="black" cx="43" cy="-156" rx="27" ry="19.0919"/>
<text text-anchor="middle" x="43" y="-152.9" font-family="Times Roman,serif" font-size="14.00">x</text>
</g>
<!-- x&#45;&#45;a0 -->
<g id="edge13" class="edge"><title>x&#45;&#45;a0</title>
<path fill="none" stroke="black" d="M70.003,-159C81.4976,-160.278 94.8679,-161.763 106.326,-163.036"/>
</g>
<!-- b0 -->
<g id="node14" class="node"><title>b0</title>
<ellipse fill="none" stroke="black" cx="133" cy="-62" rx="27" ry="19.0919"/>
<text text-anchor="middle" x="133" y="-58.9" font-family="Times Roman,serif" font-size="14.00">b0</text>
</g>
<!-- x&#45;&#45;b0 -->
<g id="edge22" class="edge"><title>x&#45;&#45;b0</title>
<path fill="none" stroke="black" d="M58.2673,-140.054C74.8172,-122.769 101.079,-95.34 117.658,-78.024"/>
</g>
<!-- b1 -->
<g id="node15" class="node"><title>b1</title>
<ellipse fill="none" stroke="black" cx="223" cy="-62" rx="27" ry="19.0919"/>
<text text-anchor="middle" x="223" y="-58.9" font-family="Times Roman,serif" font-size="14.00">b1</text>
</g>
<!-- b0&#45;&#45;b1 -->
<g id="edge16" class="edge"><title>b0&#45;&#45;b1</title>
<path fill="none" stroke="black" d="M160.003,-62C171.29,-62 184.387,-62 195.705,-62"/>
</g>
<!-- b2 -->
<g id="node17" class="node"><title>b2</title>
<ellipse fill="none" stroke="black" cx="313" cy="-62" rx="27" ry="19.0919"/>
<text text-anchor="middle" x="313" y="-58.9" font-family="Times Roman,serif" font-size="14.00">b2</text>
</g>
<!-- b1&#45;&#45;b2 -->
<g id="edge18" class="edge"><title>b1&#45;&#45;b2</title>
<path fill="none" stroke="black" d="M250.003,-62C261.29,-62 274.387,-62 285.705,-62"/>
</g>
<!-- b3 -->
<g id="node19" class="node"><title>b3</title>
<ellipse fill="none" stroke="black" cx="403" cy="-62" rx="27" ry="19.0919"/>
<text text-anchor="middle" x="403" y="-58.9" font-family="Times Roman,serif" font-size="14.00">b3</text>
</g>
<!-- b2&#45;&#45;b3 -->
<g id="edge20" class="edge"><title>b2&#45;&#45;b3</title>
<path fill="none" stroke="black" d="M340.003,-62C351.29,-62 364.387,-62 375.705,-62"/>
</g>
</g>
</svg>
