<?xml version="1.0" encoding="UTF-8" standalone="no"?>
<!DOCTYPE svg PUBLIC "-//W3C//DTD SVG 1.1//EN"
 "http://www.w3.org/Graphics/SVG/1.1/DTD/svg11.dtd">
<!-- Generated by graphviz version 2.26.3 (20100126.1600)
 -->
<!-- Title: G Pages: 1 -->
<svg width="454pt" height="228pt"
 viewBox="0.00 0.00 454.00 228.00" xmlns="http://www.w3.org/2000/svg" xmlns:xlink="http://www.w3.org/1999/xlink">
<g id="graph1" class="graph" transform="scale(1 1) rotate(0) translate(4 224)">
<title>G</title>
<polygon fill="white" stroke="white" points="-4,5 -4,-224 451,-224 451,5 -4,5"/>
<text text-anchor="middle" x="223" y="-10.4" font-family="Times Roman,serif" font-size="14.00">Cluster set</text>
<g id="graph2" class="cluster"><title>cluster a0</title>
<polygon fill="none" stroke="black" points="8,-35 8,-212 438,-212 438,-35 8,-35"/>
<text text-anchor="middle" x="223" y="-195.4" font-family="Times Roman,serif" font-size="14.00">Cluster a0</text>
</g>
<!-- a0 -->
<g id="node2" class="node"><title>a0</title>
<ellipse fill="none" stroke="black" cx="133" cy="-102" rx="27" ry="19.0919"/>
<text text-anchor="middle" x="133" y="-98.9" font-family="Times Roman,serif" font-size="14.00">a0</text>
</g>
<!-- a1 -->
<g id="node3" class="node"><title>a1</title>
<ellipse fill="none" stroke="black" cx="223" cy="-82" rx="27" ry="19.0919"/>
<text text-anchor="middle" x="223" y="-78.9" font-family="Times Roman,serif" font-size="14.00">a1</text>
</g>
<!-- a0&#45;&gt;a1 -->
<g id="edge3" class="edge"><title>a0&#45;&gt;a1</title>
<path fill="none" stroke="black" d="M159.032,-96.2152C167.8,-94.2666 177.745,-92.0566 187.136,-89.9697"/>
<polygon fill="black" stroke="black" points="188.024,-93.3579 197.027,-87.7718 186.506,-86.5246 188.024,-93.3579"/>
</g>
<!-- a2 -->
<g id="node5" class="node"><title>a2</title>
<ellipse fill="none" stroke="black" cx="313" cy="-62" rx="27" ry="19.0919"/>
<text text-anchor="middle" x="313" y="-58.9" font-family="Times Roman,serif" font-size="14.00">a2</text>
</g>
<!-- a1&#45;&gt;a2 -->
<g id="edge5" class="edge"><title>a1&#45;&gt;a2</title>
<path fill="none" stroke="black" d="M249.032,-76.2152C257.8,-74.2666 267.745,-72.0566 277.136,-69.9697"/>
<polygon fill="black" stroke="black" points="278.024,-73.3579 287.027,-67.7718 276.506,-66.5246 278.024,-73.3579"/>
</g>
<!-- a3 -->
<g id="node7" class="node"><title>a3</title>
<ellipse fill="none" stroke="black" cx="403" cy="-100" rx="27" ry="19.0919"/>
<text text-anchor="middle" x="403" y="-96.9" font-family="Times Roman,serif" font-size="14.00">a3</text>
</g>
<!-- a1&#45;&gt;a3 -->
<g id="edge7" class="edge"><title>a1&#45;&gt;a3</title>
<path fill="none" stroke="black" d="M249.641,-85.6289C260.854,-87.0924 274.05,-88.7311 286,-90 312.722,-92.8374 342.944,-95.404 365.978,-97.2265"/>
<polygon fill="black" stroke="black" points="365.775,-100.721 376.017,-98.0098 366.32,-93.7424 365.775,-100.721"/>
</g>
<!-- a2&#45;&gt;a3 -->
<g id="edge9" class="edge"><title>a2&#45;&gt;a3</title>
<path fill="none" stroke="black" d="M336.177,-71.7859C346.49,-76.1401 358.819,-81.346 370.064,-86.0937"/>
<polygon fill="black" stroke="black" points="369.015,-89.4497 379.589,-90.1151 371.737,-83.001 369.015,-89.4497"/>
</g>
<!-- a3&#45;&gt;a0 -->
<g id="edge11" class="edge"><title>a3&#45;&gt;a0</title>
<path fill="none" stroke="black" d="M376.19,-103.201C336.714,-107.483 260.634,-114.087 196,-110 187.473,-109.461 178.336,-108.515 169.739,-107.458"/>
<polygon fill="black" stroke="black" points="169.967,-103.958 159.598,-106.134 169.061,-110.899 169.967,-103.958"/>
</g>
<!-- b0 -->
<g id="node11" class="node"><title>b0</title>
<ellipse fill="none" stroke="black" cx="133" cy="-158" rx="27" ry="19.0919"/>
<text text-anchor="middle" x="133" y="-154.9" font-family="Times Roman,serif" font-size="14.00">b0</text>
</g>
<!-- b1 -->
<g id="node12" class="node"><title>b1</title>
<ellipse fill="none" stroke="black" cx="223" cy="-158" rx="27" ry="19.0919"/>
<text text-anchor="middle" x="223" y="-154.9" font-family="Times Roman,serif" font-size="14.00">b1</text>
</g>
<!-- b0&#45;&gt;b1 -->
<g id="edge13" class="edge"><title>b0&#45;&gt;b1</title>
<path fill="none" stroke="black" d="M160.003,-158C168.028,-158 176.967,-158 185.531,-158"/>
<polygon fill="black" stroke="black" points="185.705,-161.5 195.705,-158 185.705,-154.5 185.705,-161.5"/>
</g>
<!-- b2 -->
<g id="node14" class="node"><title>b2</title>
<ellipse fill="none" stroke="black" cx="313" cy="-158" rx="27" ry="19.0919"/>
<text text-anchor="middle" x="313" y="-154.9" font-family="Times Roman,serif" font-size="14.00">b2</text>
</g>
<!-- b1&#45;&gt;b2 -->
<g id="edge15" class="edge"><title>b1&#45;&gt;b2</title>
<path fill="none" stroke="black" d="M250.003,-158C258.028,-158 266.967,-158 275.531,-158"/>
<polygon fill="black" stroke="black" points="275.705,-161.5 285.705,-158 275.705,-154.5 275.705,-161.5"/>
</g>
<!-- b3 -->
<g id="node16" class="node"><title>b3</title>
<ellipse fill="none" stroke="black" cx="403" cy="-158" rx="27" ry="19.0919"/>
<text text-anchor="middle" x="403" y="-154.9" font-family="Times Roman,serif" font-size="14.00">b3</text>
</g>
<!-- b2&#45;&gt;b3 -->
<g id="edge17" class="edge"><title>b2&#45;&gt;b3</title>
<path fill="none" stroke="black" d="M340.003,-158C348.028,-158 356.967,-158 365.531,-158"/>
<polygon fill="black" stroke="black" points="365.705,-161.5 375.705,-158 365.705,-154.5 365.705,-161.5"/>
</g>
<!-- x -->
<g id="node18" class="node"><title>x</title>
<ellipse fill="none" stroke="black" cx="43" cy="-130" rx="27" ry="19.0919"/>
<text text-anchor="middle" x="43" y="-126.9" font-family="Times Roman,serif" font-size="14.00">x</text>
</g>
<!-- x&#45;&gt;a0 -->
<g id="edge19" class="edge"><title>x&#45;&gt;a0</title>
<path fill="none" stroke="black" d="M68.07,-122.2C77.4322,-119.288 88.2367,-115.926 98.3123,-112.792"/>
<polygon fill="black" stroke="black" points="99.5556,-116.07 108.064,-109.758 97.4761,-109.386 99.5556,-116.07"/>
</g>
<!-- x&#45;&gt;b0 -->
<g id="edge21" class="edge"><title>x&#45;&gt;b0</title>
<path fill="none" stroke="black" d="M68.07,-137.8C77.4322,-140.712 88.2367,-144.074 98.3123,-147.208"/>
<polygon fill="black" stroke="black" points="97.4761,-150.614 108.064,-150.242 99.5556,-143.93 97.4761,-150.614"/>
</g>
</g>
</svg>
