<?xml version="1.0" encoding="UTF-8" standalone="no"?>
<!DOCTYPE svg PUBLIC "-//W3C//DTD SVG 1.1//EN"
 "http://www.w3.org/Graphics/SVG/1.1/DTD/svg11.dtd">
<!-- Generated by graphviz version 2.26.3 (20100126.1600)
 -->
<!-- Title: G Pages: 1 -->
<svg width="438pt" height="180pt"
 viewBox="0.00 0.00 438.00 180.00" xmlns="http://www.w3.org/2000/svg" xmlns:xlink="http://www.w3.org/1999/xlink">
<g id="graph1" class="graph" transform="scale(1 1) rotate(0) translate(4 176)">
<title>G</title>
<polygon fill="white" stroke="white" points="-4,5 -4,-176 435,-176 435,5 -4,5"/>
<g id="graph2" class="cluster"><title>cluster_c0</title>
<polygon fill="none" stroke="black" points="82,-70 82,-164 422,-164 422,-70 82,-70"/>
</g>
<g id="graph3" class="cluster"><title>cluster_c1</title>
<polygon fill="none" stroke="black" points="82,-8 82,-62 422,-62 422,-8 82,-8"/>
</g>
<!-- a0 -->
<g id="node2" class="node"><title>a0</title>
<ellipse fill="none" stroke="black" cx="117" cy="-107" rx="27" ry="19.0919"/>
<text text-anchor="middle" x="117" y="-103.9" font-family="Times Roman,serif" font-size="14.00">a0</text>
</g>
<!-- a1 -->
<g id="node4" class="node"><title>a1</title>
<ellipse fill="none" stroke="black" cx="207" cy="-107" rx="27" ry="19.0919"/>
<text text-anchor="middle" x="207" y="-103.9" font-family="Times Roman,serif" font-size="14.00">a1</text>
</g>
<!-- a0&#45;&gt;a1 -->
<g id="edge3" class="edge"><title>a0&#45;&gt;a1</title>
<path fill="none" stroke="black" d="M144.003,-107C152.028,-107 160.967,-107 169.531,-107"/>
<polygon fill="black" stroke="black" points="169.705,-110.5 179.705,-107 169.705,-103.5 169.705,-110.5"/>
</g>
<!-- a2 -->
<g id="node5" class="node"><title>a2</title>
<ellipse fill="none" stroke="black" cx="297" cy="-97" rx="27" ry="19.0919"/>
<text text-anchor="middle" x="297" y="-93.9" font-family="Times Roman,serif" font-size="14.00">a2</text>
</g>
<!-- a1&#45;&gt;a2 -->
<g id="edge4" class="edge"><title>a1&#45;&gt;a2</title>
<path fill="none" stroke="black" d="M234.003,-104C242.265,-103.082 251.495,-102.056 260.289,-101.079"/>
<polygon fill="black" stroke="black" points="260.774,-104.547 270.326,-99.9638 260.001,-97.5896 260.774,-104.547"/>
</g>
<!-- a3 -->
<g id="node6" class="node"><title>a3</title>
<ellipse fill="none" stroke="black" cx="387" cy="-135" rx="27" ry="19.0919"/>
<text text-anchor="middle" x="387" y="-131.9" font-family="Times Roman,serif" font-size="14.00">a3</text>
</g>
<!-- a1&#45;&gt;a3 -->
<g id="edge16" class="edge"><title>a1&#45;&gt;a3</title>
<path fill="none" stroke="black" d="M231.573,-115.214C243.114,-118.763 257.134,-122.635 270,-125 296.429,-129.858 326.66,-132.364 349.772,-133.653"/>
<polygon fill="black" stroke="black" points="349.686,-137.153 359.85,-134.163 350.04,-130.162 349.686,-137.153"/>
</g>
<!-- a2&#45;&gt;a3 -->
<g id="edge5" class="edge"><title>a2&#45;&gt;a3</title>
<path fill="none" stroke="black" d="M320.177,-106.786C330.49,-111.14 342.819,-116.346 354.064,-121.094"/>
<polygon fill="black" stroke="black" points="353.015,-124.45 363.589,-125.115 355.737,-118.001 353.015,-124.45"/>
</g>
<!-- a3&#45;&gt;a0 -->
<g id="edge18" class="edge"><title>a3&#45;&gt;a0</title>
<path fill="none" stroke="black" d="M360.164,-138.514C320.335,-142.943 243.454,-148.466 180,-135 168.909,-132.646 157.4,-128.201 147.301,-123.534"/>
<polygon fill="black" stroke="black" points="148.632,-120.289 138.11,-119.052 145.565,-126.581 148.632,-120.289"/>
</g>
<!-- b0 -->
<g id="node8" class="node"><title>b0</title>
<ellipse fill="none" stroke="black" cx="117" cy="-35" rx="27" ry="19.0919"/>
<text text-anchor="middle" x="117" y="-31.9" font-family="Times Roman,serif" font-size="14.00">b0</text>
</g>
<!-- b1 -->
<g id="node10" class="node"><title>b1</title>
<ellipse fill="none" stroke="black" cx="207" cy="-35" rx="27" ry="19.0919"/>
<text text-anchor="middle" x="207" y="-31.9" font-family="Times Roman,serif" font-size="14.00">b1</text>
</g>
<!-- b0&#45;&gt;b1 -->
<g id="edge8" class="edge"><title>b0&#45;&gt;b1</title>
<path fill="none" stroke="black" d="M144.003,-35C152.028,-35 160.967,-35 169.531,-35"/>
<polygon fill="black" stroke="black" points="169.705,-38.5001 179.705,-35 169.705,-31.5001 169.705,-38.5001"/>
</g>
<!-- b2 -->
<g id="node11" class="node"><title>b2</title>
<ellipse fill="none" stroke="black" cx="297" cy="-35" rx="27" ry="19.0919"/>
<text text-anchor="middle" x="297" y="-31.9" font-family="Times Roman,serif" font-size="14.00">b2</text>
</g>
<!-- b1&#45;&gt;b2 -->
<g id="edge9" class="edge"><title>b1&#45;&gt;b2</title>
<path fill="none" stroke="black" d="M234.003,-35C242.028,-35 250.967,-35 259.531,-35"/>
<polygon fill="black" stroke="black" points="259.705,-38.5001 269.705,-35 259.705,-31.5001 259.705,-38.5001"/>
</g>
<!-- b3 -->
<g id="node12" class="node"><title>b3</title>
<ellipse fill="none" stroke="black" cx="387" cy="-35" rx="27" ry="19.0919"/>
<text text-anchor="middle" x="387" y="-31.9" font-family="Times Roman,serif" font-size="14.00">b3</text>
</g>
<!-- b2&#45;&gt;b3 -->
<g id="edge10" class="edge"><title>b2&#45;&gt;b3</title>
<path fill="none" stroke="black" d="M324.003,-35C332.028,-35 340.967,-35 349.531,-35"/>
<polygon fill="black" stroke="black" points="349.705,-38.5001 359.705,-35 349.705,-31.5001 349.705,-38.5001"/>
</g>
<!-- x -->
<g id="node13" class="node"><title>x</title>
<ellipse fill="none" stroke="black" cx="27" cy="-71" rx="27" ry="19.0919"/>
<text text-anchor="middle" x="27" y="-67.9" font-family="Times Roman,serif" font-size="14.00">x</text>
</g>
<!-- x&#45;&gt;a0 -->
<g id="edge12" class="edge"><title>x&#45;&gt;a0</title>
<path fill="none" stroke="black" d="M50.6464,-80.4586C60.8779,-84.5512 73.0266,-89.4106 84.115,-93.846"/>
<polygon fill="black" stroke="black" points="82.9268,-97.1403 93.5115,-97.6046 85.5266,-90.641 82.9268,-97.1403"/>
</g>
<!-- x&#45;&gt;b0 -->
<g id="edge14" class="edge"><title>x&#45;&gt;b0</title>
<path fill="none" stroke="black" d="M50.6464,-61.5414C60.8779,-57.4488 73.0266,-52.5894 84.115,-48.154"/>
<polygon fill="black" stroke="black" points="85.5266,-51.359 93.5115,-44.3954 82.9268,-44.8597 85.5266,-51.359"/>
</g>
</g>
</svg>
