<?xml version="1.0" encoding="UTF-8" standalone="no"?>
<!DOCTYPE svg PUBLIC "-//W3C//DTD SVG 1.1//EN"
 "http://www.w3.org/Graphics/SVG/1.1/DTD/svg11.dtd">
<!-- Generated by graphviz version 2.26.3 (20100126.1600)
 -->
<!-- Title: G Pages: 1 -->
<svg width="454pt" height="277pt"
 viewBox="0.00 0.00 454.00 277.00" xmlns="http://www.w3.org/2000/svg" xmlns:xlink="http://www.w3.org/1999/xlink">
<g id="graph1" class="graph" transform="scale(1 1) rotate(0) translate(4 273)">
<title>G</title>
<polygon fill="white" stroke="white" points="-4,5 -4,-273 451,-273 451,5 -4,5"/>
<text text-anchor="middle" x="223" y="-10.4" font-family="Times Roman,serif" font-size="14.00">Cluster set</text>
<g id="graph2" class="cluster"><title>cluster a0</title>
<polygon fill="none" stroke="black" points="8,-124 8,-261 438,-261 438,-124 8,-124"/>
<text text-anchor="middle" x="223" y="-244.4" font-family="Times Roman,serif" font-size="14.00">Cluster a0</text>
</g>
<g id="graph3" class="cluster"><title>cluster b0</title>
<polygon fill="none" stroke="black" points="188,-35 188,-116 438,-116 438,-35 188,-35"/>
<text text-anchor="middle" x="313" y="-99.4" font-family="Times Roman,serif" font-size="14.00">Cluster b0</text>
</g>
<!-- a0 -->
<g id="node2" class="node"><title>a0</title>
<ellipse fill="none" stroke="black" cx="133" cy="-207" rx="27" ry="19.0919"/>
<text text-anchor="middle" x="133" y="-203.9" font-family="Times Roman,serif" font-size="14.00">a0</text>
</g>
<!-- a1 -->
<g id="node3" class="node"><title>a1</title>
<ellipse fill="none" stroke="black" cx="223" cy="-179" rx="27" ry="19.0919"/>
<text text-anchor="middle" x="223" y="-175.9" font-family="Times Roman,serif" font-size="14.00">a1</text>
</g>
<!-- a0&#45;&gt;a1 -->
<g id="edge3" class="edge"><title>a0&#45;&gt;a1</title>
<path fill="none" stroke="black" d="M153.874,-194.705C163.495,-190.872 175.205,-186.946 186.233,-183.79"/>
<polygon fill="black" stroke="black" points="187.345,-187.115 196.088,-181.133 185.522,-180.357 187.345,-187.115"/>
</g>
<!-- a0&#45;&gt;a1 -->
<g id="edge13" class="edge"><title>a0&#45;&gt;a1</title>
<path fill="none" stroke="black" d="M160.003,-204.844C170.283,-202.254 182.064,-198.648 192.635,-194.869"/>
<polygon fill="black" stroke="black" points="194.189,-198.024 202.312,-191.221 191.72,-191.474 194.189,-198.024"/>
</g>
<!-- a3 -->
<g id="node5" class="node"><title>a3</title>
<ellipse fill="none" stroke="black" cx="403" cy="-197" rx="27" ry="19.0919"/>
<text text-anchor="middle" x="403" y="-193.9" font-family="Times Roman,serif" font-size="14.00">a3</text>
</g>
<!-- a1&#45;&gt;a3 -->
<g id="edge5" class="edge"><title>a1&#45;&gt;a3</title>
<path fill="none" stroke="black" d="M249.333,-174.303C260.612,-175.062 273.94,-176.719 286,-178 313.777,-180.949 345.336,-183.606 368.672,-186.819"/>
<polygon fill="black" stroke="black" points="368.363,-190.311 378.772,-188.337 369.403,-183.389 368.363,-190.311"/>
</g>
<!-- a1&#45;&gt;a3 -->
<g id="edge17" class="edge"><title>a1&#45;&gt;a3</title>
<path fill="none" stroke="black" d="M245.133,-190.013C257.199,-192.634 272.405,-194.556 286,-196 313.073,-198.875 343.74,-201.472 366.884,-202.02"/>
<polygon fill="black" stroke="black" points="366.913,-205.521 376.948,-202.122 366.984,-198.521 366.913,-205.521"/>
</g>
<!-- a2 -->
<g id="node13" class="node"><title>a2</title>
<ellipse fill="none" stroke="black" cx="313" cy="-159" rx="27" ry="19.0919"/>
<text text-anchor="middle" x="313" y="-155.9" font-family="Times Roman,serif" font-size="14.00">a2</text>
</g>
<!-- a1&#45;&gt;a2 -->
<g id="edge15" class="edge"><title>a1&#45;&gt;a2</title>
<path fill="none" stroke="black" d="M249.032,-173.215C257.8,-171.267 267.745,-169.057 277.136,-166.97"/>
<polygon fill="black" stroke="black" points="278.024,-170.358 287.027,-164.772 276.506,-163.525 278.024,-170.358"/>
</g>
<!-- a3&#45;&gt;a0 -->
<g id="edge7" class="edge"><title>a3&#45;&gt;a0</title>
<path fill="none" stroke="black" d="M376.491,-192.758C346.002,-192.736 294.43,-196.55 250,-198 222.712,-198.891 191.824,-198.846 168.64,-199.906"/>
<polygon fill="black" stroke="black" points="168.356,-196.416 158.57,-200.477 168.753,-203.405 168.356,-196.416"/>
</g>
<!-- a3&#45;&gt;a0 -->
<g id="edge21" class="edge"><title>a3&#45;&gt;a0</title>
<path fill="none" stroke="black" d="M378.645,-205.402C348.477,-210.552 295.495,-214.515 250,-216 222.536,-216.897 191.426,-216.846 168.192,-215.27"/>
<polygon fill="black" stroke="black" points="168.368,-211.773 158.113,-214.437 167.791,-218.749 168.368,-211.773"/>
</g>
<!-- x -->
<g id="node8" class="node"><title>x</title>
<ellipse fill="none" stroke="black" cx="43" cy="-179" rx="27" ry="19.0919"/>
<text text-anchor="middle" x="43" y="-175.9" font-family="Times Roman,serif" font-size="14.00">x</text>
</g>
<!-- x&#45;&gt;a0 -->
<g id="edge23" class="edge"><title>x&#45;&gt;a0</title>
<path fill="none" stroke="black" d="M70.003,-181.156C80.2832,-183.746 92.0638,-187.352 102.635,-191.131"/>
<polygon fill="black" stroke="black" points="101.72,-194.526 112.312,-194.779 104.189,-187.976 101.72,-194.526"/>
</g>
<!-- x&#45;&gt;a0 -->
<g id="edge9" class="edge"><title>x&#45;&gt;a0</title>
<path fill="none" stroke="black" d="M63.874,-191.295C73.4952,-195.128 85.2055,-199.054 96.2328,-202.21"/>
<polygon fill="black" stroke="black" points="95.5221,-205.643 106.088,-204.867 97.3446,-198.885 95.5221,-205.643"/>
</g>
<!-- b0 -->
<g id="node10" class="node"><title>b0</title>
<ellipse fill="none" stroke="black" cx="133" cy="-151" rx="27" ry="19.0919"/>
<text text-anchor="middle" x="133" y="-147.9" font-family="Times Roman,serif" font-size="14.00">b0</text>
</g>
<!-- x&#45;&gt;b0 -->
<g id="edge32" class="edge"><title>x&#45;&gt;b0</title>
<path fill="none" stroke="black" d="M63.874,-166.705C73.4952,-162.872 85.2055,-158.946 96.2328,-155.79"/>
<polygon fill="black" stroke="black" points="97.3446,-159.115 106.088,-153.133 95.5221,-152.357 97.3446,-159.115"/>
</g>
<!-- x&#45;&gt;b0 -->
<g id="edge11" class="edge"><title>x&#45;&gt;b0</title>
<path fill="none" stroke="black" d="M70.003,-176.844C80.2832,-174.254 92.0638,-170.648 102.635,-166.869"/>
<polygon fill="black" stroke="black" points="104.189,-170.024 112.312,-163.221 101.72,-163.474 104.189,-170.024"/>
</g>
<!-- b1 -->
<g id="node20" class="node"><title>b1</title>
<ellipse fill="none" stroke="black" cx="223" cy="-62" rx="27" ry="19.0919"/>
<text text-anchor="middle" x="223" y="-58.9" font-family="Times Roman,serif" font-size="14.00">b1</text>
</g>
<!-- b0&#45;&gt;b1 -->
<g id="edge26" class="edge"><title>b0&#45;&gt;b1</title>
<path fill="none" stroke="black" d="M148.677,-135.497C162.786,-121.545 183.708,-100.856 199.762,-84.9799"/>
<polygon fill="black" stroke="black" points="202.551,-87.1437 207.201,-77.6236 197.629,-82.1664 202.551,-87.1437"/>
</g>
<!-- a2&#45;&gt;a3 -->
<g id="edge19" class="edge"><title>a2&#45;&gt;a3</title>
<path fill="none" stroke="black" d="M336.177,-168.786C346.49,-173.14 358.819,-178.346 370.064,-183.094"/>
<polygon fill="black" stroke="black" points="369.015,-186.45 379.589,-187.115 371.737,-180.001 369.015,-186.45"/>
</g>
<!-- b2 -->
<g id="node22" class="node"><title>b2</title>
<ellipse fill="none" stroke="black" cx="313" cy="-62" rx="27" ry="19.0919"/>
<text text-anchor="middle" x="313" y="-58.9" font-family="Times Roman,serif" font-size="14.00">b2</text>
</g>
<!-- b1&#45;&gt;b2 -->
<g id="edge28" class="edge"><title>b1&#45;&gt;b2</title>
<path fill="none" stroke="black" d="M250.003,-62C258.028,-62 266.967,-62 275.531,-62"/>
<polygon fill="black" stroke="black" points="275.705,-65.5001 285.705,-62 275.705,-58.5001 275.705,-65.5001"/>
</g>
<!-- b3 -->
<g id="node24" class="node"><title>b3</title>
<ellipse fill="none" stroke="black" cx="403" cy="-62" rx="27" ry="19.0919"/>
<text text-anchor="middle" x="403" y="-58.9" font-family="Times Roman,serif" font-size="14.00">b3</text>
</g>
<!-- b2&#45;&gt;b3 -->
<g id="edge30" class="edge"><title>b2&#45;&gt;b3</title>
<path fill="none" stroke="black" d="M340.003,-62C348.028,-62 356.967,-62 365.531,-62"/>
<polygon fill="black" stroke="black" points="365.705,-65.5001 375.705,-62 365.705,-58.5001 365.705,-65.5001"/>
</g>
</g>
</svg>
