<?xml version="1.0" encoding="UTF-8" standalone="no"?>
<!DOCTYPE svg PUBLIC "-//W3C//DTD SVG 1.1//EN"
 "http://www.w3.org/Graphics/SVG/1.1/DTD/svg11.dtd">
<!-- Generated by graphviz version 2.26.3 (20100126.1600)
 -->
<!-- Title: G Pages: 1 -->
<svg width="454pt" height="261pt"
 viewBox="0.00 0.00 454.00 261.00" xmlns="http://www.w3.org/2000/svg" xmlns:xlink="http://www.w3.org/1999/xlink">
<g id="graph1" class="graph" transform="scale(1 1) rotate(0) translate(4 257)">
<title>G</title>
<polygon fill="white" stroke="white" points="-4,5 -4,-257 451,-257 451,5 -4,5"/>
<text text-anchor="middle" x="223" y="-10.4" font-family="Times Roman,serif" font-size="14.00">Cluster set</text>
<g id="graph2" class="cluster"><title>cluster a0</title>
<polygon fill="none" stroke="black" points="8,-124 8,-245 438,-245 438,-124 8,-124"/>
<text text-anchor="middle" x="223" y="-228.4" font-family="Times Roman,serif" font-size="14.00">Cluster a0</text>
</g>
<g id="graph3" class="cluster"><title>cluster b0</title>
<polygon fill="none" stroke="black" points="98,-35 98,-116 438,-116 438,-35 98,-35"/>
<text text-anchor="middle" x="268" y="-99.4" font-family="Times Roman,serif" font-size="14.00">Cluster b0</text>
</g>
<!-- a0 -->
<g id="node2" class="node"><title>a0</title>
<ellipse fill="none" stroke="black" cx="133" cy="-166" rx="27" ry="19.0919"/>
<text text-anchor="middle" x="133" y="-162.9" font-family="Times Roman,serif" font-size="14.00">a0</text>
</g>
<!-- a1 -->
<g id="node3" class="node"><title>a1</title>
<ellipse fill="none" stroke="black" cx="223" cy="-166" rx="27" ry="19.0919"/>
<text text-anchor="middle" x="223" y="-162.9" font-family="Times Roman,serif" font-size="14.00">a1</text>
</g>
<!-- a0&#45;&gt;a1 -->
<g id="edge3" class="edge"><title>a0&#45;&gt;a1</title>
<path fill="none" stroke="black" d="M160.003,-166C168.028,-166 176.967,-166 185.531,-166"/>
<polygon fill="black" stroke="black" points="185.705,-169.5 195.705,-166 185.705,-162.5 185.705,-169.5"/>
</g>
<!-- a2 -->
<g id="node5" class="node"><title>a2</title>
<ellipse fill="none" stroke="black" cx="313" cy="-151" rx="27" ry="19.0919"/>
<text text-anchor="middle" x="313" y="-147.9" font-family="Times Roman,serif" font-size="14.00">a2</text>
</g>
<!-- a1&#45;&gt;a2 -->
<g id="edge5" class="edge"><title>a1&#45;&gt;a2</title>
<path fill="none" stroke="black" d="M249.516,-161.581C258.03,-160.162 267.613,-158.565 276.703,-157.05"/>
<polygon fill="black" stroke="black" points="277.385,-160.484 286.673,-155.388 276.234,-153.579 277.385,-160.484"/>
</g>
<!-- a3 -->
<g id="node7" class="node"><title>a3</title>
<ellipse fill="none" stroke="black" cx="403" cy="-189" rx="27" ry="19.0919"/>
<text text-anchor="middle" x="403" y="-185.9" font-family="Times Roman,serif" font-size="14.00">a3</text>
</g>
<!-- a1&#45;&gt;a3 -->
<g id="edge7" class="edge"><title>a1&#45;&gt;a3</title>
<path fill="none" stroke="black" d="M248.626,-172.004C260.016,-174.487 273.622,-177.2 286,-179 312.592,-182.866 342.819,-185.402 365.887,-186.953"/>
<polygon fill="black" stroke="black" points="365.74,-190.451 375.943,-187.597 366.187,-183.465 365.74,-190.451"/>
</g>
<!-- a2&#45;&gt;a3 -->
<g id="edge9" class="edge"><title>a2&#45;&gt;a3</title>
<path fill="none" stroke="black" d="M336.177,-160.786C346.49,-165.14 358.819,-170.346 370.064,-175.094"/>
<polygon fill="black" stroke="black" points="369.015,-178.45 379.589,-179.115 371.737,-172.001 369.015,-178.45"/>
</g>
<!-- a3&#45;&gt;a0 -->
<g id="edge11" class="edge"><title>a3&#45;&gt;a0</title>
<path fill="none" stroke="black" d="M376.498,-193.514C336.772,-199.415 259.648,-207.507 196,-194 184.909,-191.646 173.4,-187.201 163.301,-182.534"/>
<polygon fill="black" stroke="black" points="164.632,-179.289 154.11,-178.052 161.565,-185.581 164.632,-179.289"/>
</g>
<!-- x -->
<g id="node11" class="node"><title>x</title>
<ellipse fill="none" stroke="black" cx="43" cy="-156" rx="27" ry="19.0919"/>
<text text-anchor="middle" x="43" y="-152.9" font-family="Times Roman,serif" font-size="14.00">x</text>
</g>
<!-- x&#45;&gt;a0 -->
<g id="edge13" class="edge"><title>x&#45;&gt;a0</title>
<path fill="none" stroke="black" d="M70.003,-159C78.2647,-159.918 87.4954,-160.944 96.2888,-161.921"/>
<polygon fill="black" stroke="black" points="96.0009,-165.41 106.326,-163.036 96.7739,-158.453 96.0009,-165.41"/>
</g>
<!-- b0 -->
<g id="node14" class="node"><title>b0</title>
<ellipse fill="none" stroke="black" cx="133" cy="-62" rx="27" ry="19.0919"/>
<text text-anchor="middle" x="133" y="-58.9" font-family="Times Roman,serif" font-size="14.00">b0</text>
</g>
<!-- x&#45;&gt;b0 -->
<g id="edge22" class="edge"><title>x&#45;&gt;b0</title>
<path fill="none" stroke="black" d="M58.2673,-140.054C72.6191,-125.064 94.2743,-102.447 110.585,-85.4111"/>
<polygon fill="black" stroke="black" points="113.27,-87.6677 117.658,-78.024 108.214,-82.8266 113.27,-87.6677"/>
</g>
<!-- b1 -->
<g id="node15" class="node"><title>b1</title>
<ellipse fill="none" stroke="black" cx="223" cy="-62" rx="27" ry="19.0919"/>
<text text-anchor="middle" x="223" y="-58.9" font-family="Times Roman,serif" font-size="14.00">b1</text>
</g>
<!-- b0&#45;&gt;b1 -->
<g id="edge16" class="edge"><title>b0&#45;&gt;b1</title>
<path fill="none" stroke="black" d="M160.003,-62C168.028,-62 176.967,-62 185.531,-62"/>
<polygon fill="black" stroke="black" points="185.705,-65.5001 195.705,-62 185.705,-58.5001 185.705,-65.5001"/>
</g>
<!-- b2 -->
<g id="node17" class="node"><title>b2</title>
<ellipse fill="none" stroke="black" cx="313" cy="-62" rx="27" ry="19.0919"/>
<text text-anchor="middle" x="313" y="-58.9" font-family="Times Roman,serif" font-size="14.00">b2</text>
</g>
<!-- b1&#45;&gt;b2 -->
<g id="edge18" class="edge"><title>b1&#45;&gt;b2</title>
<path fill="none" stroke="black" d="M250.003,-62C258.028,-62 266.967,-62 275.531,-62"/>
<polygon fill="black" stroke="black" points="275.705,-65.5001 285.705,-62 275.705,-58.5001 275.705,-65.5001"/>
</g>
<!-- b3 -->
<g id="node19" class="node"><title>b3</title>
<ellipse fill="none" stroke="black" cx="403" cy="-62" rx="27" ry="19.0919"/>
<text text-anchor="middle" x="403" y="-58.9" font-family="Times Roman,serif" font-size="14.00">b3</text>
</g>
<!-- b2&#45;&gt;b3 -->
<g id="edge20" class="edge"><title>b2&#45;&gt;b3</title>
<path fill="none" stroke="black" d="M340.003,-62C348.028,-62 356.967,-62 365.531,-62"/>
<polygon fill="black" stroke="black" points="365.705,-65.5001 375.705,-62 365.705,-58.5001 365.705,-65.5001"/>
</g>
</g>
</svg>
