<?xml version="1.0" encoding="UTF-8" standalone="no"?>
<!DOCTYPE svg PUBLIC "-//W3C//DTD SVG 1.1//EN"
 "http://www.w3.org/Graphics/SVG/1.1/DTD/svg11.dtd">
<!-- Generated by graphviz version 2.26.3 (20100126.1600)
 -->
<!-- Title: graph_55 Pages: 1 -->
<svg width="372pt" height="612pt"
 viewBox="0.00 0.00 372.00 612.00" xmlns="http://www.w3.org/2000/svg" xmlns:xlink="http://www.w3.org/1999/xlink">
<g id="graph1" class="graph" transform="scale(1 1) rotate(0) translate(4 608)">
<title>graph_55</title>
<polygon fill="white" stroke="white" points="-4,5 -4,-608 369,-608 369,5 -4,5"/>
<text text-anchor="middle" x="182" y="-10.4" font-family="Times Roman,serif" font-size="14.00">Complex Syntax Test</text>
<g id="graph2" class="cluster"><title>cluster A</title>
<polygon fill="none" stroke="black" points="8,-35 8,-586 78,-586 78,-35 8,-35"/>
<text text-anchor="middle" x="43" y="-569.4" font-family="Times Roman,serif" font-size="14.00">Cluster A</text>
</g>
<g id="graph3" class="cluster"><title>cluster F</title>
<polygon fill="none" stroke="black" points="86,-377 86,-589 156,-589 156,-377 86,-377"/>
<text text-anchor="middle" x="121" y="-572.4" font-family="Times Roman,serif" font-size="14.00">Cluster F</text>
</g>
<g id="graph4" class="cluster"><title>cluster H</title>
<polygon fill="none" stroke="black" points="164,-372 164,-596 234,-596 234,-372 164,-372"/>
<text text-anchor="middle" x="199" y="-579.4" font-family="Times Roman,serif" font-size="14.00">Cluster H</text>
</g>
<g id="graph5" class="cluster"><title>cluster J</title>
<polygon fill="none" stroke="black" points="242,-343 242,-588 356,-588 356,-343 242,-343"/>
<text text-anchor="middle" x="299" y="-571.4" font-family="Times Roman,serif" font-size="14.00">Cluster J</text>
</g>
<!-- A -->
<g id="node2" class="node"><title>A</title>
<ellipse fill="none" stroke="blue" cx="43" cy="-532" rx="27" ry="19.0919"/>
<text text-anchor="middle" x="43" y="-528.9" font-family="Times Roman,serif" font-size="14.00">A</text>
</g>
<!-- B -->
<g id="node3" class="node"><title>B</title>
<polygon fill="goldenrod" stroke="mediumseagreen" points="61,-427 25,-427 25,-391 61,-391 61,-427"/>
<text text-anchor="middle" x="43" y="-405.9" font-family="Times Roman,serif" font-size="14.00">B</text>
</g>
<!-- A&#45;&gt;B -->
<g id="edge3" class="edge"><title>A&#45;&gt;B</title>
<path fill="none" stroke="purple" d="M43,-512.781C43,-492.6 43,-460.644 43,-437.521"/>
<polygon fill="purple" stroke="purple" points="46.5001,-437.281 43,-427.282 39.5001,-437.282 46.5001,-437.281"/>
</g>
<!-- C -->
<g id="node5" class="node"><title>C</title>
<polygon fill="none" stroke="#ff3030" points="70,-298.292 43,-314.599 16,-298.292 16.0252,-271.908 69.9748,-271.908 70,-298.292"/>
<text text-anchor="middle" x="43" y="-287.9" font-family="Times Roman,serif" font-size="14.00">C</text>
</g>
<!-- B&#45;&gt;C -->
<g id="edge5" class="edge"><title>B&#45;&gt;C</title>
<path fill="none" stroke="orange" stroke-width="5" d="M43,-390.821C43,-373.265 43,-346.251 43,-324.75"/>
<polygon fill="orange" stroke="orange" points="47.3751,-324.704 43,-314.704 38.6251,-324.704 47.3751,-324.704"/>
</g>
<!-- D -->
<g id="node7" class="node"><title>D</title>
<ellipse fill="#00868b" stroke="black" cx="43" cy="-174" rx="19.0919" ry="19.0919"/>
<text text-anchor="middle" x="43" y="-170.9" font-family="Times Roman,serif" font-size="14.00">D</text>
</g>
<!-- C&#45;&gt;D -->
<g id="edge7" class="edge"><title>C&#45;&gt;D</title>
<path fill="none" stroke="purple" d="M43,-261.528C43,-243.759 43,-221.205 43,-203.442"/>
<polygon fill="none" stroke="purple" points="47,-271.68 39,-271.68 39.0001,-263.68 47.0001,-263.68 47,-271.68"/>
<polyline fill="none" stroke="purple" points="43.0001,-263.68 43.0001,-261.68 "/>
<polygon fill="purple" stroke="purple" points="43.0001,-203.349 47.5,-193.349 43,-198.349 43,-193.349 43,-193.349 43,-193.349 43,-198.349 38.5,-193.349 43.0001,-203.349 43.0001,-203.349"/>
</g>
<!-- E -->
<g id="node9" class="node"><title>E</title>
<ellipse fill="#00868b" stroke="black" cx="43" cy="-62" rx="19.0919" ry="19.0919"/>
<text text-anchor="middle" x="43" y="-58.9" font-family="Times Roman,serif" font-size="14.00">E</text>
</g>
<!-- D&#45;&gt;E -->
<g id="edge9" class="edge"><title>D&#45;&gt;E</title>
<path fill="none" stroke="purple" stroke-width="5" d="M43,-146.495C43,-129.015 43,-106.485 43,-89.0866"/>
<ellipse fill="none" stroke="purple" cx="43" cy="-150.747" rx="4" ry="4"/>
<ellipse fill="purple" stroke="purple" cx="43" cy="-85.0022" rx="4" ry="4"/>
</g>
<!-- F -->
<g id="node12" class="node"><title>F</title>
<polygon fill="yellow" stroke="darkorchid" stroke-width="5" points="148,-532 134.5,-554.045 107.5,-554.045 94,-532 107.5,-509.955 134.5,-509.955 148,-532"/>
<text text-anchor="middle" x="121" y="-528.9" font-family="Times Roman,serif" font-size="14.00">F</text>
</g>
<!-- G -->
<g id="node13" class="node"><title>G</title>
<polygon fill="darkorchid" stroke="crimson" stroke-width="7" points="148,-416.292 121,-432.599 94,-416.292 104.313,-389.908 137.687,-389.908 148,-416.292"/>
<text text-anchor="middle" x="121" y="-405.9" font-family="Times Roman,serif" font-size="14.00">G</text>
</g>
<!-- F&#45;&gt;G -->
<g id="edge12" class="edge"><title>F&#45;&gt;G</title>
<path fill="none" stroke="purple" d="M121,-509.726C121,-491.13 121,-464.321 121,-443.036"/>
<polygon fill="purple" stroke="purple" points="124.5,-442.787 121,-432.787 117.5,-442.787 124.5,-442.787"/>
</g>
<!-- H -->
<g id="node16" class="node"><title>H</title>
<polygon fill="lightblue" stroke="black" points="226.095,-540.913 199,-560.843 171.905,-540.913 171.93,-508.665 226.07,-508.665 226.095,-540.913"/>
<text text-anchor="middle" x="199" y="-526.5" font-family="Times Roman,serif" font-size="20.00">H</text>
</g>
<!-- I -->
<g id="node17" class="node"><title>I</title>
<polygon fill="lightblue" stroke="black" points="226,-417.913 199,-437.843 172,-417.913 172.025,-385.665 225.975,-385.665 226,-417.913"/>
<text text-anchor="middle" x="199" y="-403.5" font-family="Times Roman,serif" font-size="20.00">I</text>
</g>
<!-- H&#45;&gt;I -->
<g id="edge15" class="edge"><title>H&#45;&gt;I</title>
<path fill="none" stroke="purple" d="M199,-508.575C199,-491.481 199,-467.916 199,-448.002"/>
<polygon fill="purple" stroke="purple" points="202.5,-447.974 199,-437.974 195.5,-447.974 202.5,-447.974"/>
</g>
<!-- J -->
<g id="node20" class="node"><title>J</title>
<polygon fill="magenta" stroke="yellow" points="319,-552.5 279,-552.5 279,-511.5 319,-511.5 319,-552.5"/>
<text text-anchor="middle" x="299" y="-525.1" font-family="Times Roman,serif" font-size="26.00">J</text>
</g>
<!-- K -->
<g id="node21" class="node"><title>K</title>
<polygon fill="magenta" stroke="black" points="299,-466.983 250.002,-380.009 347.998,-380.009 299,-466.983"/>
<text text-anchor="middle" x="299" y="-402.1" font-family="Times Roman,serif" font-size="26.00">K</text>
</g>
<!-- J&#45;&gt;K -->
<g id="edge18" class="edge"><title>J&#45;&gt;K</title>
<path fill="none" stroke="blue" d="M299,-511.413C299,-501.753 299,-489.629 299,-477.136"/>
<polygon fill="blue" stroke="blue" points="302.5,-477.077 299,-467.078 295.5,-477.078 302.5,-477.077"/>
</g>
</g>
</svg>
