<?xml version="1.0" encoding="UTF-8" standalone="no"?>
<!DOCTYPE svg PUBLIC "-//W3C//DTD SVG 1.1//EN"
 "http://www.w3.org/Graphics/SVG/1.1/DTD/svg11.dtd">
<!-- Generated by graphviz version 2.26.3 (20100126.1600)
 -->
<!-- Title: syntax Pages: 1 -->
<svg width="492pt" height="254pt"
 viewBox="0.00 0.00 492.00 254.00" xmlns="http://www.w3.org/2000/svg" xmlns:xlink="http://www.w3.org/1999/xlink">
<g id="graph1" class="graph" transform="scale(1 1) rotate(0) translate(4 250)">
<title>syntax</title>
<polygon fill="white" stroke="white" points="-4,5 -4,-250 489,-250 489,5 -4,5"/>
<text text-anchor="middle" x="242" y="-10.4" font-family="Times Roman,serif" font-size="14.00">Cluster set</text>
<g id="graph2" class="cluster"><title>cluster A</title>
<polygon fill="none" stroke="black" points="8,-49 8,-233 78,-233 78,-49 8,-49"/>
<text text-anchor="middle" x="43" y="-216.4" font-family="Times Roman,serif" font-size="14.00">Cluster A</text>
</g>
<g id="graph3" class="cluster"><title>cluster C</title>
<polygon fill="none" stroke="black" points="86,-54 86,-238 156,-238 156,-54 86,-54"/>
<text text-anchor="middle" x="121" y="-221.4" font-family="Times Roman,serif" font-size="14.00">Cluster C</text>
</g>
<g id="graph4" class="cluster"><title>cluster E</title>
<polygon fill="none" stroke="black" points="164,-49 164,-238 234,-238 234,-49 164,-49"/>
<text text-anchor="middle" x="199" y="-221.4" font-family="Times Roman,serif" font-size="14.00">Cluster E</text>
</g>
<g id="graph5" class="cluster"><title>cluster G</title>
<polygon fill="none" stroke="black" points="242,-49 242,-238 312,-238 312,-49 242,-49"/>
<text text-anchor="middle" x="277" y="-221.4" font-family="Times Roman,serif" font-size="14.00">Cluster G</text>
</g>
<g id="graph6" class="cluster"><title>cluster I</title>
<polygon fill="none" stroke="black" points="320,-35 320,-232 398,-232 398,-35 320,-35"/>
<text text-anchor="middle" x="359" y="-215.4" font-family="Times Roman,serif" font-size="14.00">Cluster I</text>
</g>
<g id="graph7" class="cluster"><title>cluster K</title>
<polygon fill="none" stroke="black" points="406,-49 406,-238 476,-238 476,-49 406,-49"/>
<text text-anchor="middle" x="441" y="-221.4" font-family="Times Roman,serif" font-size="14.00">Cluster K</text>
</g>
<!-- A -->
<g id="node2" class="node"><title>A</title>
<ellipse fill="none" stroke="black" cx="43" cy="-179" rx="27" ry="19.0919"/>
<text text-anchor="middle" x="43" y="-175.9" font-family="Times Roman,serif" font-size="14.00">A</text>
</g>
<!-- B -->
<g id="node3" class="node"><title>B</title>
<polygon fill="none" stroke="black" points="70,-88.2925 43,-104.599 16,-88.2925 16.0252,-61.9081 69.9748,-61.9081 70,-88.2925"/>
<text text-anchor="middle" x="43" y="-77.9" font-family="Times Roman,serif" font-size="14.00">B</text>
</g>
<!-- A&#45;&gt;B -->
<g id="edge3" class="edge"><title>A&#45;&gt;B</title>
<path fill="none" stroke="black" d="M43,-159.638C43,-146.98 43,-130.095 43,-115.217"/>
<polygon fill="black" stroke="black" points="46.5001,-114.827 43,-104.827 39.5001,-114.827 46.5001,-114.827"/>
</g>
<!-- C -->
<g id="node6" class="node"><title>C</title>
<polygon fill="none" stroke="black" points="148,-186.292 121,-202.599 94,-186.292 94.0252,-159.908 147.975,-159.908 148,-186.292"/>
<text text-anchor="middle" x="121" y="-175.9" font-family="Times Roman,serif" font-size="14.00">C</text>
</g>
<!-- D -->
<g id="node7" class="node"><title>D</title>
<ellipse fill="none" stroke="black" cx="121" cy="-81" rx="27" ry="19.0919"/>
<text text-anchor="middle" x="121" y="-77.9" font-family="Times Roman,serif" font-size="14.00">D</text>
</g>
<!-- C&#45;&gt;D -->
<g id="edge6" class="edge"><title>C&#45;&gt;D</title>
<path fill="none" stroke="black" d="M121,-159.638C121,-145.679 121,-126.579 121,-110.699"/>
<polygon fill="black" stroke="black" points="124.5,-110.321 121,-100.321 117.5,-110.321 124.5,-110.321"/>
</g>
<!-- E -->
<g id="node10" class="node"><title>E</title>
<polygon fill="green" stroke="green" points="226,-186.292 199,-202.599 172,-186.292 172.025,-159.908 225.975,-159.908 226,-186.292"/>
<text text-anchor="middle" x="199" y="-175.9" font-family="Times Roman,serif" font-size="14.00">E</text>
</g>
<!-- F -->
<g id="node11" class="node"><title>F</title>
<polygon fill="green" stroke="green" points="226,-88.2925 199,-104.599 172,-88.2925 172.025,-61.9081 225.975,-61.9081 226,-88.2925"/>
<text text-anchor="middle" x="199" y="-77.9" font-family="Times Roman,serif" font-size="14.00">F</text>
</g>
<!-- E&#45;&gt;F -->
<g id="edge9" class="edge"><title>E&#45;&gt;F</title>
<path fill="none" stroke="black" d="M199,-159.638C199,-146.98 199,-130.095 199,-115.217"/>
<polygon fill="black" stroke="black" points="202.5,-114.827 199,-104.827 195.5,-114.827 202.5,-114.827"/>
</g>
<!-- G -->
<g id="node14" class="node"><title>G</title>
<polygon fill="green" stroke="green" points="304,-186.292 277,-202.599 250,-186.292 250.025,-159.908 303.975,-159.908 304,-186.292"/>
<text text-anchor="middle" x="277" y="-175.9" font-family="Times Roman,serif" font-size="14.00">G</text>
</g>
<!-- H -->
<g id="node15" class="node"><title>H</title>
<polygon fill="green" stroke="green" points="304,-88.2925 277,-104.599 250,-88.2925 250.025,-61.9081 303.975,-61.9081 304,-88.2925"/>
<text text-anchor="middle" x="277" y="-77.9" font-family="Times Roman,serif" font-size="14.00">H</text>
</g>
<!-- G&#45;&gt;H -->
<g id="edge12" class="edge"><title>G&#45;&gt;H</title>
<path fill="none" stroke="black" d="M277,-159.638C277,-146.98 277,-130.095 277,-115.217"/>
<polygon fill="black" stroke="black" points="280.5,-114.827 277,-104.827 273.5,-114.827 280.5,-114.827"/>
</g>
<!-- I -->
<g id="node18" class="node"><title>I</title>
<polygon fill="pink" stroke="pink" points="377,-197 341,-197 341,-161 377,-161 377,-197"/>
<text text-anchor="middle" x="359" y="-175.9" font-family="Times Roman,serif" font-size="14.00">I</text>
</g>
<!-- J -->
<g id="node19" class="node"><title>J</title>
<polygon fill="red" stroke="red" points="359,-119.184 327.887,-61.9081 390.113,-61.9081 359,-119.184"/>
<text text-anchor="middle" x="359" y="-77.9" font-family="Times Roman,serif" font-size="14.00">J</text>
</g>
<!-- I&#45;&gt;J -->
<g id="edge15" class="edge"><title>I&#45;&gt;J</title>
<path fill="none" stroke="black" d="M359,-160.567C359,-151.652 359,-140.49 359,-129.371"/>
<polygon fill="black" stroke="black" points="362.5,-129.238 359,-119.238 355.5,-129.238 362.5,-129.238"/>
</g>
<!-- K -->
<g id="node22" class="node"><title>K</title>
<polygon fill="orange" stroke="orange" points="468,-186.292 441,-202.599 414,-186.292 414.025,-159.908 467.975,-159.908 468,-186.292"/>
<text text-anchor="middle" x="441" y="-175.9" font-family="Times Roman,serif" font-size="14.00">K</text>
</g>
<!-- L -->
<g id="node23" class="node"><title>L</title>
<polygon fill="orange" stroke="orange" points="468,-88.2925 441,-104.599 414,-88.2925 414.025,-61.9081 467.975,-61.9081 468,-88.2925"/>
<text text-anchor="middle" x="441" y="-77.9" font-family="Times Roman,serif" font-size="14.00">L</text>
</g>
<!-- K&#45;&gt;L -->
<g id="edge18" class="edge"><title>K&#45;&gt;L</title>
<path fill="none" stroke="black" d="M441,-159.638C441,-146.98 441,-130.095 441,-115.217"/>
<polygon fill="black" stroke="black" points="444.5,-114.827 441,-104.827 437.5,-114.827 444.5,-114.827"/>
</g>
</g>
</svg>
