<?xml version="1.0" encoding="UTF-8" standalone="no"?>
<!DOCTYPE svg PUBLIC "-//W3C//DTD SVG 1.1//EN"
 "http://www.w3.org/Graphics/SVG/1.1/DTD/svg11.dtd">
<!-- Generated by graphviz version 2.26.3 (20100126.1600)
 -->
<!-- Title: Perl Pages: 1 -->
<svg width="184pt" height="577pt"
 viewBox="0.00 0.00 184.00 577.00" xmlns="http://www.w3.org/2000/svg" xmlns:xlink="http://www.w3.org/1999/xlink">
<g id="graph1" class="graph" transform="scale(1 1) rotate(0) translate(4 573)">
<title>Perl</title>
<polygon fill="white" stroke="white" points="-4,5 -4,-573 181,-573 181,5 -4,5"/>
<text text-anchor="middle" x="88" y="-10.4" font-family="Times Roman,serif" font-size="14.00">Cluster set</text>
<g id="graph2" class="cluster"><title>cluster A</title>
<polygon fill="none" stroke="black" points="8,-35 8,-116 168,-116 168,-35 8,-35"/>
<text text-anchor="middle" x="88" y="-99.4" font-family="Times Roman,serif" font-size="14.00">Cluster A</text>
</g>
<g id="graph3" class="cluster"><title>cluster C</title>
<polygon fill="none" stroke="black" points="8,-124 8,-205 168,-205 168,-124 8,-124"/>
<text text-anchor="middle" x="88" y="-188.4" font-family="Times Roman,serif" font-size="14.00">Cluster C</text>
</g>
<g id="graph4" class="cluster"><title>cluster E</title>
<polygon fill="none" stroke="black" points="8,-213 8,-294 168,-294 168,-213 8,-213"/>
<text text-anchor="middle" x="88" y="-277.4" font-family="Times Roman,serif" font-size="14.00">Cluster E</text>
</g>
<g id="graph5" class="cluster"><title>cluster G</title>
<polygon fill="none" stroke="black" points="8,-302 8,-383 168,-383 168,-302 8,-302"/>
<text text-anchor="middle" x="88" y="-366.4" font-family="Times Roman,serif" font-size="14.00">Cluster G</text>
</g>
<g id="graph6" class="cluster"><title>cluster I</title>
<polygon fill="none" stroke="black" points="8,-391 8,-472 168,-472 168,-391 8,-391"/>
<text text-anchor="middle" x="88" y="-455.4" font-family="Times Roman,serif" font-size="14.00">Cluster I</text>
</g>
<g id="graph7" class="cluster"><title>cluster K</title>
<polygon fill="none" stroke="black" points="8,-480 8,-561 168,-561 168,-480 8,-480"/>
<text text-anchor="middle" x="88" y="-544.4" font-family="Times Roman,serif" font-size="14.00">Cluster K</text>
</g>
<!-- A -->
<g id="node2" class="node"><title>A</title>
<ellipse fill="none" stroke="black" cx="43" cy="-62" rx="27" ry="19.0919"/>
<text text-anchor="middle" x="43" y="-58.9" font-family="Times Roman,serif" font-size="14.00">A</text>
</g>
<!-- B -->
<g id="node3" class="node"><title>B</title>
<ellipse fill="none" stroke="black" cx="133" cy="-62" rx="27" ry="19.0919"/>
<text text-anchor="middle" x="133" y="-58.9" font-family="Times Roman,serif" font-size="14.00">B</text>
</g>
<!-- A&#45;&#45;B -->
<g id="edge3" class="edge"><title>A&#45;&#45;B</title>
<path fill="none" stroke="black" d="M70.003,-62C81.2905,-62 94.3867,-62 105.705,-62"/>
</g>
<!-- C -->
<g id="node6" class="node"><title>C</title>
<ellipse fill="none" stroke="black" cx="43" cy="-151" rx="27" ry="19.0919"/>
<text text-anchor="middle" x="43" y="-147.9" font-family="Times Roman,serif" font-size="14.00">C</text>
</g>
<!-- D -->
<g id="node7" class="node"><title>D</title>
<ellipse fill="none" stroke="black" cx="133" cy="-151" rx="27" ry="19.0919"/>
<text text-anchor="middle" x="133" y="-147.9" font-family="Times Roman,serif" font-size="14.00">D</text>
</g>
<!-- C&#45;&#45;D -->
<g id="edge6" class="edge"><title>C&#45;&#45;D</title>
<path fill="none" stroke="black" d="M70.003,-151C81.2905,-151 94.3867,-151 105.705,-151"/>
</g>
<!-- E -->
<g id="node10" class="node"><title>E</title>
<ellipse fill="none" stroke="black" cx="43" cy="-240" rx="27" ry="19.0919"/>
<text text-anchor="middle" x="43" y="-236.9" font-family="Times Roman,serif" font-size="14.00">E</text>
</g>
<!-- F -->
<g id="node11" class="node"><title>F</title>
<ellipse fill="none" stroke="black" cx="133" cy="-240" rx="27" ry="19.0919"/>
<text text-anchor="middle" x="133" y="-236.9" font-family="Times Roman,serif" font-size="14.00">F</text>
</g>
<!-- E&#45;&#45;F -->
<g id="edge9" class="edge"><title>E&#45;&#45;F</title>
<path fill="none" stroke="black" d="M70.003,-240C81.2905,-240 94.3867,-240 105.705,-240"/>
</g>
<!-- G -->
<g id="node14" class="node"><title>G</title>
<ellipse fill="none" stroke="black" cx="43" cy="-329" rx="27" ry="19.0919"/>
<text text-anchor="middle" x="43" y="-325.9" font-family="Times Roman,serif" font-size="14.00">G</text>
</g>
<!-- H -->
<g id="node15" class="node"><title>H</title>
<ellipse fill="none" stroke="black" cx="133" cy="-329" rx="27" ry="19.0919"/>
<text text-anchor="middle" x="133" y="-325.9" font-family="Times Roman,serif" font-size="14.00">H</text>
</g>
<!-- G&#45;&#45;H -->
<g id="edge12" class="edge"><title>G&#45;&#45;H</title>
<path fill="none" stroke="black" d="M70.003,-329C81.2905,-329 94.3867,-329 105.705,-329"/>
</g>
<!-- I -->
<g id="node18" class="node"><title>I</title>
<ellipse fill="none" stroke="black" cx="43" cy="-418" rx="27" ry="19.0919"/>
<text text-anchor="middle" x="43" y="-414.9" font-family="Times Roman,serif" font-size="14.00">I</text>
</g>
<!-- J -->
<g id="node19" class="node"><title>J</title>
<ellipse fill="none" stroke="black" cx="133" cy="-418" rx="27" ry="19.0919"/>
<text text-anchor="middle" x="133" y="-414.9" font-family="Times Roman,serif" font-size="14.00">J</text>
</g>
<!-- I&#45;&#45;J -->
<g id="edge15" class="edge"><title>I&#45;&#45;J</title>
<path fill="none" stroke="black" d="M70.003,-418C81.2905,-418 94.3867,-418 105.705,-418"/>
</g>
<!-- K -->
<g id="node22" class="node"><title>K</title>
<ellipse fill="none" stroke="black" cx="43" cy="-507" rx="27" ry="19.0919"/>
<text text-anchor="middle" x="43" y="-503.9" font-family="Times Roman,serif" font-size="14.00">K</text>
</g>
<!-- L -->
<g id="node23" class="node"><title>L</title>
<ellipse fill="none" stroke="black" cx="133" cy="-507" rx="27" ry="19.0919"/>
<text text-anchor="middle" x="133" y="-503.9" font-family="Times Roman,serif" font-size="14.00">L</text>
</g>
<!-- K&#45;&#45;L -->
<g id="edge18" class="edge"><title>K&#45;&#45;L</title>
<path fill="none" stroke="black" d="M70.003,-507C81.2905,-507 94.3867,-507 105.705,-507"/>
</g>
</g>
</svg>
