<?xml version="1.0" encoding="UTF-8" standalone="no"?>
<!DOCTYPE svg PUBLIC "-//W3C//DTD SVG 1.1//EN"
 "http://www.w3.org/Graphics/SVG/1.1/DTD/svg11.dtd">
<!-- Generated by graphviz version 2.26.3 (20100126.1600)
 -->
<!-- Title: graph_55 Pages: 1 -->
<svg width="372pt" height="626pt"
 viewBox="0.00 0.00 372.00 626.00" xmlns="http://www.w3.org/2000/svg" xmlns:xlink="http://www.w3.org/1999/xlink">
<g id="graph1" class="graph" transform="scale(1 1) rotate(0) translate(4 622)">
<title>graph_55</title>
<polygon fill="white" stroke="white" points="-4,5 -4,-622 369,-622 369,5 -4,5"/>
<text text-anchor="middle" x="182" y="-10.4" font-family="Times Roman,serif" font-size="14.00">Complex Syntax Test</text>
<g id="graph2" class="cluster"><title>cluster A</title>
<polygon fill="none" stroke="black" points="8,-273 8,-600 78,-600 78,-273 8,-273"/>
<text text-anchor="middle" x="43" y="-583.4" font-family="Times Roman,serif" font-size="14.00">Cluster A</text>
</g>
<g id="graph3" class="cluster"><title>cluster B</title>
<polygon fill="none" stroke="black" points="12,-154 12,-235 80,-235 80,-154 12,-154"/>
<text text-anchor="middle" x="46" y="-218.4" font-family="Times Roman,serif" font-size="14.00">Cluster B</text>
</g>
<g id="graph4" class="cluster"><title>cluster C</title>
<polygon fill="none" stroke="black" points="12,-35 12,-116 80,-116 80,-35 12,-35"/>
<text text-anchor="middle" x="46" y="-99.4" font-family="Times Roman,serif" font-size="14.00">Cluster C</text>
</g>
<g id="graph5" class="cluster"><title>cluster F</title>
<polygon fill="none" stroke="black" points="86,-391 86,-603 156,-603 156,-391 86,-391"/>
<text text-anchor="middle" x="121" y="-586.4" font-family="Times Roman,serif" font-size="14.00">Cluster F</text>
</g>
<g id="graph6" class="cluster"><title>cluster H</title>
<polygon fill="none" stroke="black" points="164,-386 164,-610 234,-610 234,-386 164,-386"/>
<text text-anchor="middle" x="199" y="-593.4" font-family="Times Roman,serif" font-size="14.00">Cluster H</text>
</g>
<g id="graph7" class="cluster"><title>cluster J</title>
<polygon fill="none" stroke="black" points="242,-357 242,-602 356,-602 356,-357 242,-357"/>
<text text-anchor="middle" x="299" y="-585.4" font-family="Times Roman,serif" font-size="14.00">Cluster J</text>
</g>
<!-- A -->
<g id="node2" class="node"><title>A</title>
<ellipse fill="none" stroke="blue" cx="43" cy="-546" rx="27" ry="19.0919"/>
<text text-anchor="middle" x="43" y="-542.9" font-family="Times Roman,serif" font-size="14.00">A</text>
</g>
<!-- B -->
<g id="node3" class="node"><title>B</title>
<polygon fill="goldenrod" stroke="mediumseagreen" points="61,-441 25,-441 25,-405 61,-405 61,-441"/>
<text text-anchor="middle" x="43" y="-419.9" font-family="Times Roman,serif" font-size="14.00">B</text>
</g>
<!-- A&#45;&gt;B -->
<g id="edge3" class="edge"><title>A&#45;&gt;B</title>
<path fill="none" stroke="purple" d="M43,-526.781C43,-506.6 43,-474.644 43,-451.521"/>
<polygon fill="purple" stroke="purple" points="46.5001,-451.281 43,-441.282 39.5001,-451.282 46.5001,-451.281"/>
</g>
<!-- C -->
<g id="node5" class="node"><title>C</title>
<polygon fill="none" stroke="#ff3030" points="70,-312.292 43,-328.599 16,-312.292 16.0252,-285.908 69.9748,-285.908 70,-312.292"/>
<text text-anchor="middle" x="43" y="-301.9" font-family="Times Roman,serif" font-size="14.00">C</text>
</g>
<!-- B&#45;&gt;C -->
<g id="edge5" class="edge"><title>B&#45;&gt;C</title>
<path fill="none" stroke="orange" stroke-width="5" d="M43,-404.821C43,-387.265 43,-360.251 43,-338.75"/>
<polygon fill="orange" stroke="orange" points="47.3751,-338.704 43,-328.704 38.6251,-338.704 47.3751,-338.704"/>
</g>
<!-- D -->
<g id="node9" class="node"><title>D</title>
<ellipse fill="#00868b" stroke="black" cx="43" cy="-181" rx="19.0919" ry="19.0919"/>
<text text-anchor="middle" x="43" y="-177.9" font-family="Times Roman,serif" font-size="14.00">D</text>
</g>
<!-- C&#45;&gt;D -->
<g id="edge10" class="edge"><title>C&#45;&gt;D</title>
<path fill="none" stroke="purple" d="M43,-275.879C43,-256.221 43,-230.357 43,-210.6"/>
<polygon fill="none" stroke="purple" points="47,-285.897 39,-285.897 39.0001,-277.897 47.0001,-277.897 47,-285.897"/>
<polyline fill="none" stroke="purple" points="43.0001,-277.897 43.0001,-275.897 "/>
<polygon fill="purple" stroke="purple" points="43.0001,-210.329 47.5,-200.329 43,-205.329 43,-200.329 43,-200.329 43,-200.329 43,-205.329 38.5,-200.329 43.0001,-210.329 43.0001,-210.329"/>
</g>
<!-- E -->
<g id="node13" class="node"><title>E</title>
<ellipse fill="#00868b" stroke="black" cx="43" cy="-62" rx="19.0919" ry="19.0919"/>
<text text-anchor="middle" x="43" y="-58.9" font-family="Times Roman,serif" font-size="14.00">E</text>
</g>
<!-- D&#45;&gt;E -->
<g id="edge15" class="edge"><title>D&#45;&gt;E</title>
<path fill="none" stroke="purple" stroke-width="5" d="M43,-153.828C43,-134.471 43,-108.558 43,-89.1952"/>
<ellipse fill="none" stroke="purple" cx="43" cy="-157.881" rx="4" ry="4"/>
<ellipse fill="purple" stroke="purple" cx="43" cy="-85.072" rx="4" ry="4"/>
</g>
<!-- F -->
<g id="node16" class="node"><title>F</title>
<polygon fill="yellow" stroke="darkorchid" stroke-width="5" points="148,-546 134.5,-568.045 107.5,-568.045 94,-546 107.5,-523.955 134.5,-523.955 148,-546"/>
<text text-anchor="middle" x="121" y="-542.9" font-family="Times Roman,serif" font-size="14.00">F</text>
</g>
<!-- G -->
<g id="node17" class="node"><title>G</title>
<polygon fill="darkorchid" stroke="crimson" stroke-width="7" points="148,-430.292 121,-446.599 94,-430.292 104.313,-403.908 137.687,-403.908 148,-430.292"/>
<text text-anchor="middle" x="121" y="-419.9" font-family="Times Roman,serif" font-size="14.00">G</text>
</g>
<!-- F&#45;&gt;G -->
<g id="edge18" class="edge"><title>F&#45;&gt;G</title>
<path fill="none" stroke="purple" d="M121,-523.726C121,-505.13 121,-478.321 121,-457.036"/>
<polygon fill="purple" stroke="purple" points="124.5,-456.787 121,-446.787 117.5,-456.787 124.5,-456.787"/>
</g>
<!-- H -->
<g id="node20" class="node"><title>H</title>
<polygon fill="lightblue" stroke="black" points="226.095,-554.913 199,-574.843 171.905,-554.913 171.93,-522.665 226.07,-522.665 226.095,-554.913"/>
<text text-anchor="middle" x="199" y="-540.5" font-family="Times Roman,serif" font-size="20.00">H</text>
</g>
<!-- I -->
<g id="node21" class="node"><title>I</title>
<polygon fill="lightblue" stroke="black" points="226,-431.913 199,-451.843 172,-431.913 172.025,-399.665 225.975,-399.665 226,-431.913"/>
<text text-anchor="middle" x="199" y="-417.5" font-family="Times Roman,serif" font-size="20.00">I</text>
</g>
<!-- H&#45;&gt;I -->
<g id="edge21" class="edge"><title>H&#45;&gt;I</title>
<path fill="none" stroke="purple" d="M199,-522.575C199,-505.481 199,-481.916 199,-462.002"/>
<polygon fill="purple" stroke="purple" points="202.5,-461.974 199,-451.974 195.5,-461.974 202.5,-461.974"/>
</g>
<!-- J -->
<g id="node24" class="node"><title>J</title>
<polygon fill="magenta" stroke="yellow" points="319,-566.5 279,-566.5 279,-525.5 319,-525.5 319,-566.5"/>
<text text-anchor="middle" x="299" y="-539.1" font-family="Times Roman,serif" font-size="26.00">J</text>
</g>
<!-- K -->
<g id="node25" class="node"><title>K</title>
<polygon fill="magenta" stroke="black" points="299,-480.983 250.002,-394.009 347.998,-394.009 299,-480.983"/>
<text text-anchor="middle" x="299" y="-416.1" font-family="Times Roman,serif" font-size="26.00">K</text>
</g>
<!-- J&#45;&gt;K -->
<g id="edge24" class="edge"><title>J&#45;&gt;K</title>
<path fill="none" stroke="blue" d="M299,-525.413C299,-515.753 299,-503.629 299,-491.136"/>
<polygon fill="blue" stroke="blue" points="302.5,-491.077 299,-481.078 295.5,-491.078 302.5,-491.077"/>
</g>
</g>
</svg>
