<?xml version="1.0" encoding="UTF-8" standalone="no"?>
<!DOCTYPE svg PUBLIC "-//W3C//DTD SVG 1.1//EN"
 "http://www.w3.org/Graphics/SVG/1.1/DTD/svg11.dtd">
<!-- Generated by graphviz version 2.26.3 (20100126.1600)
 -->
<!-- Title: Perl Pages: 1 -->
<svg width="-2147483648pt" height="591pt"
 viewBox="0.00 0.00 2147483789.00 591.00" xmlns="http://www.w3.org/2000/svg" xmlns:xlink="http://www.w3.org/1999/xlink">
<g id="graph1" class="graph" transform="scale(1 1) rotate(0) translate(4 587)">
<title>Perl</title>
<polygon fill="white" stroke="white" points="-4,5 -4,-587 2.14748e+09,-587 2.14748e+09,5 -4,5"/>
<text text-anchor="middle" x="1.07374e+09" y="-10.4" font-family="Times Roman,serif" font-size="14.00">Cluster set</text>
<g id="graph2" class="cluster"><title>cluster A</title>
<polygon fill="none" stroke="black" points="8,-115 8,-196 78,-196 78,-115 8,-115"/>
<text text-anchor="middle" x="43" y="-179.4" font-family="Times Roman,serif" font-size="14.00">Cluster A</text>
</g>
<g id="graph3" class="cluster"><title>cluster B</title>
<polygon fill="none" stroke="black" points="8,-204 8,-285 168,-285 168,-204 8,-204"/>
<text text-anchor="middle" x="88" y="-268.4" font-family="Times Roman,serif" font-size="14.00">Cluster B</text>
</g>
<g id="graph4" class="cluster"><title>cluster D</title>
<polygon fill="none" stroke="black" points="8,-293 8,-430 258,-430 258,-293 8,-293"/>
<text text-anchor="middle" x="133" y="-413.4" font-family="Times Roman,serif" font-size="14.00">Cluster D</text>
</g>
<g id="graph5" class="cluster"><title>cluster H</title>
<polygon fill="none" stroke="black" points="8,-438 8,-575 528,-575 528,-438 8,-438"/>
<text text-anchor="middle" x="268" y="-558.4" font-family="Times Roman,serif" font-size="14.00">Cluster H</text>
</g>
<!-- A -->
<g id="node2" class="node"><title>A</title>
<ellipse fill="bisque" stroke="bisque" cx="43" cy="-142" rx="27" ry="19.0919"/>
<text text-anchor="middle" x="43" y="-138.9" font-family="Times Roman,serif" font-size="14.00">A</text>
</g>
<!-- B -->
<g id="node4" class="node"><title>B</title>
<ellipse fill="aquamarine" stroke="aquamarine" cx="43" cy="-231" rx="27" ry="19.0919"/>
<text text-anchor="middle" x="43" y="-227.9" font-family="Times Roman,serif" font-size="14.00">B</text>
</g>
<!-- C -->
<g id="node5" class="node"><title>C</title>
<ellipse fill="lightgrey" stroke="black" cx="133" cy="-231" rx="27" ry="19.0919"/>
<text text-anchor="middle" x="133" y="-227.9" font-family="Times Roman,serif" font-size="14.00">C</text>
</g>
<!-- B&#45;&gt;C -->
<g id="edge4" class="edge"><title>B&#45;&gt;C</title>
<path fill="none" stroke="grey" d="M70.003,-231C81.2905,-231 94.3867,-231 105.705,-231"/>
</g>
<!-- D -->
<g id="node8" class="node"><title>D</title>
<ellipse fill="lawngreen" stroke="lawngreen" cx="43" cy="-376" rx="27" ry="19.0919"/>
<text text-anchor="middle" x="43" y="-372.9" font-family="Times Roman,serif" font-size="14.00">D</text>
</g>
<!-- F -->
<g id="node9" class="node"><title>F</title>
<ellipse fill="lightgrey" stroke="black" cx="133" cy="-348" rx="27" ry="19.0919"/>
<text text-anchor="middle" x="133" y="-344.9" font-family="Times Roman,serif" font-size="14.00">F</text>
</g>
<!-- D&#45;&gt;F -->
<g id="edge7" class="edge"><title>D&#45;&gt;F</title>
<path fill="none" stroke="grey" d="M66.1011,-365.733C84.0813,-357.742 106,-348 106,-348"/>
</g>
<!-- G -->
<g id="node13" class="node"><title>G</title>
<ellipse fill="crimson" stroke="crimson" cx="223" cy="-348" rx="27" ry="19.0919"/>
<text text-anchor="middle" x="223" y="-344.9" font-family="Times Roman,serif" font-size="14.00">G</text>
</g>
<!-- F&#45;&gt;G -->
<g id="edge11" class="edge"><title>F&#45;&gt;G</title>
<path fill="none" stroke="grey" d="M106,-348C106,-348 151.418,-348 185.659,-348"/>
<polygon fill="grey" stroke="grey" points="185.864,-351.5 195.864,-348 185.864,-344.5 185.864,-351.5"/>
</g>
<!-- E -->
<g id="node11" class="node"><title>E</title>
<ellipse fill="coral" stroke="coral" cx="43" cy="-320" rx="27" ry="19.0919"/>
<text text-anchor="middle" x="43" y="-316.9" font-family="Times Roman,serif" font-size="14.00">E</text>
</g>
<!-- E&#45;&gt;F -->
<g id="edge9" class="edge"><title>E&#45;&gt;F</title>
<path fill="none" stroke="grey" d="M66.1011,-330.267C84.0813,-338.258 106,-348 106,-348"/>
</g>
<!-- H -->
<g id="node16" class="node"><title>H</title>
<ellipse fill="aquamarine" stroke="aquamarine" cx="43" cy="-521" rx="27" ry="19.0919"/>
<text text-anchor="middle" x="43" y="-517.9" font-family="Times Roman,serif" font-size="14.00">H</text>
</g>
<!-- J -->
<g id="node17" class="node"><title>J</title>
<ellipse fill="lightgrey" stroke="black" cx="133" cy="-493" rx="27" ry="19.0919"/>
<text text-anchor="middle" x="133" y="-489.9" font-family="Times Roman,serif" font-size="14.00">J</text>
</g>
<!-- H&#45;&gt;J -->
<g id="edge14" class="edge"><title>H&#45;&gt;J</title>
<path fill="none" stroke="grey" d="M70.0926,-521C278562,-520.989 2.14748e+09,-434 2.14748e+09,-434"/>
</g>
<!-- L -->
<g id="node21" class="node"><title>L</title>
<ellipse fill="yellow" stroke="yellow" cx="223" cy="-465" rx="27" ry="19.0919"/>
<text text-anchor="middle" x="223" y="-461.9" font-family="Times Roman,serif" font-size="14.00">L</text>
</g>
<!-- J&#45;&gt;L -->
<g id="edge18" class="edge"><title>J&#45;&gt;L</title>
<path fill="none" stroke="grey" d="M196,-27C196,-27 164.285,-349.298 196,-434 197.032,-436.757 198.433,-439.431 200.057,-441.976"/>
<polygon fill="grey" stroke="grey" points="197.379,-444.237 206.223,-450.07 202.947,-439.995 197.379,-444.237"/>
</g>
<!-- K -->
<g id="node23" class="node"><title>K</title>
<ellipse fill="blueviolet" stroke="blueviolet" cx="223" cy="-521" rx="27" ry="19.0919"/>
<text text-anchor="middle" x="223" y="-517.9" font-family="Times Roman,serif" font-size="14.00">K</text>
</g>
<!-- J&#45;&gt;K -->
<g id="edge20" class="edge"><title>J&#45;&gt;K</title>
<path fill="none" stroke="grey" d="M196,-27C196,-27 157.242,-396.971 196,-493 196.758,-494.879 197.71,-496.702 198.798,-498.456"/>
<polygon fill="grey" stroke="grey" points="196.228,-500.852 205.129,-506.598 201.754,-496.555 196.228,-500.852"/>
</g>
<!-- I -->
<g id="node19" class="node"><title>I</title>
<ellipse fill="bisque" stroke="bisque" cx="43" cy="-465" rx="27" ry="19.0919"/>
<text text-anchor="middle" x="43" y="-461.9" font-family="Times Roman,serif" font-size="14.00">I</text>
</g>
<!-- I&#45;&gt;J -->
<g id="edge16" class="edge"><title>I&#45;&gt;J</title>
<path fill="none" stroke="grey" d="M70.0926,-465C278562,-464.996 2.14748e+09,-434 2.14748e+09,-434"/>
</g>
<!-- M -->
<g id="node25" class="node"><title>M</title>
<ellipse fill="pink" stroke="pink" cx="313" cy="-465" rx="27" ry="19.0919"/>
<text text-anchor="middle" x="313" y="-461.9" font-family="Times Roman,serif" font-size="14.00">M</text>
</g>
<!-- L&#45;&gt;M -->
<g id="edge22" class="edge"><title>L&#45;&gt;M</title>
<path fill="none" stroke="grey" d="M250.003,-465C258.645,-465 268.347,-465 277.5,-465"/>
<ellipse fill="none" stroke="grey" cx="281.705" cy="-465" rx="4" ry="4"/>
</g>
<!-- N -->
<g id="node27" class="node"><title>N</title>
<ellipse fill="lightgrey" stroke="black" cx="403" cy="-465" rx="27" ry="19.0919"/>
<text text-anchor="middle" x="403" y="-461.9" font-family="Times Roman,serif" font-size="14.00">N</text>
</g>
<!-- M&#45;&gt;N -->
<g id="edge24" class="edge"><title>M&#45;&gt;N</title>
<path fill="none" stroke="grey" d="M340.003,-465C348.645,-465 358.347,-465 367.5,-465"/>
<ellipse fill="none" stroke="grey" cx="371.705" cy="-465" rx="4" ry="4"/>
</g>
<!-- O -->
<g id="node29" class="node"><title>O</title>
<ellipse fill="lightgrey" stroke="black" cx="493" cy="-465" rx="27" ry="19.0919"/>
<text text-anchor="middle" x="493" y="-461.9" font-family="Times Roman,serif" font-size="14.00">O</text>
</g>
<!-- N&#45;&gt;O -->
<g id="edge26" class="edge"><title>N&#45;&gt;O</title>
<path fill="none" stroke="grey" d="M430.003,-465C438.645,-465 448.347,-465 457.5,-465"/>
<ellipse fill="none" stroke="grey" cx="461.705" cy="-465" rx="4" ry="4"/>
</g>
</g>
</svg>
