<?xml version="1.0" encoding="UTF-8" standalone="no"?>
<!DOCTYPE svg PUBLIC "-//W3C//DTD SVG 1.1//EN"
 "http://www.w3.org/Graphics/SVG/1.1/DTD/svg11.dtd">
<!-- Generated by graphviz version 2.26.3 (20100126.1600)
 -->
<!-- Title: Perl Pages: 1 -->
<svg width="544pt" height="422pt"
 viewBox="0.00 0.00 544.00 422.00" xmlns="http://www.w3.org/2000/svg" xmlns:xlink="http://www.w3.org/1999/xlink">
<g id="graph1" class="graph" transform="scale(1 1) rotate(0) translate(4 418)">
<title>Perl</title>
<polygon fill="white" stroke="white" points="-4,5 -4,-418 541,-418 541,5 -4,5"/>
<text text-anchor="middle" x="268" y="-10.4" font-family="Times Roman,serif" font-size="14.00">Cluster set</text>
<g id="graph2" class="cluster"><title>cluster A</title>
<polygon fill="none" stroke="black" points="8,-35 8,-172 528,-172 528,-35 8,-35"/>
<text text-anchor="middle" x="268" y="-155.4" font-family="Times Roman,serif" font-size="14.00">Cluster A</text>
</g>
<g id="graph3" class="cluster"><title>cluster F</title>
<polygon fill="none" stroke="black" points="8,-180 8,-317 258,-317 258,-180 8,-180"/>
<text text-anchor="middle" x="133" y="-300.4" font-family="Times Roman,serif" font-size="14.00">Cluster F</text>
</g>
<g id="graph4" class="cluster"><title>cluster I</title>
<polygon fill="none" stroke="black" points="8,-325 8,-406 168,-406 168,-325 8,-325"/>
<text text-anchor="middle" x="88" y="-389.4" font-family="Times Roman,serif" font-size="14.00">Cluster I</text>
</g>
<!-- A -->
<g id="node2" class="node"><title>A</title>
<ellipse fill="none" stroke="black" cx="43" cy="-118" rx="27" ry="19.0919"/>
<text text-anchor="middle" x="43" y="-114.9" font-family="Times Roman,serif" font-size="14.00">A</text>
</g>
<!-- K -->
<g id="node3" class="node"><title>K</title>
<ellipse fill="none" stroke="black" cx="133" cy="-90" rx="27" ry="19.0919"/>
<text text-anchor="middle" x="133" y="-86.9" font-family="Times Roman,serif" font-size="14.00">K</text>
</g>
<!-- A&#45;&#45;K -->
<g id="edge3" class="edge"><title>A&#45;&#45;K</title>
<path fill="none" stroke="black" d="M63.874,-105.705C76.4405,-100.699 92.5707,-95.5341 106.088,-92.1326"/>
</g>
<!-- A&#45;&#45;K -->
<g id="edge9" class="edge"><title>A&#45;&#45;K</title>
<path fill="none" stroke="black" d="M70.003,-115.844C83.5687,-112.426 99.7469,-107.239 112.312,-102.221"/>
</g>
<!-- E -->
<g id="node7" class="node"><title>E</title>
<ellipse fill="none" stroke="black" cx="223" cy="-62" rx="27" ry="19.0919"/>
<text text-anchor="middle" x="223" y="-58.9" font-family="Times Roman,serif" font-size="14.00">E</text>
</g>
<!-- K&#45;&#45;E -->
<g id="edge7" class="edge"><title>K&#45;&#45;E</title>
<path fill="none" stroke="black" d="M158.07,-82.2004C170.553,-78.3169 185.6,-73.6356 198.064,-69.7577"/>
</g>
<!-- B -->
<g id="node10" class="node"><title>B</title>
<ellipse fill="none" stroke="black" cx="223" cy="-118" rx="27" ry="19.0919"/>
<text text-anchor="middle" x="223" y="-114.9" font-family="Times Roman,serif" font-size="14.00">B</text>
</g>
<!-- K&#45;&#45;B -->
<g id="edge17" class="edge"><title>K&#45;&#45;B</title>
<path fill="none" stroke="black" d="M158.07,-97.7996C170.553,-101.683 185.6,-106.364 198.064,-110.242"/>
</g>
<!-- D -->
<g id="node5" class="node"><title>D</title>
<ellipse fill="none" stroke="black" cx="43" cy="-62" rx="27" ry="19.0919"/>
<text text-anchor="middle" x="43" y="-58.9" font-family="Times Roman,serif" font-size="14.00">D</text>
</g>
<!-- D&#45;&#45;K -->
<g id="edge5" class="edge"><title>D&#45;&#45;K</title>
<path fill="none" stroke="black" d="M70.003,-64.1556C83.5687,-67.5742 99.7469,-72.7611 112.312,-77.7791"/>
</g>
<!-- D&#45;&#45;K -->
<g id="edge15" class="edge"><title>D&#45;&#45;K</title>
<path fill="none" stroke="black" d="M63.874,-74.2949C76.4405,-79.3012 92.5707,-84.4659 106.088,-87.8674"/>
</g>
<!-- C -->
<g id="node11" class="node"><title>C</title>
<ellipse fill="none" stroke="black" cx="313" cy="-118" rx="27" ry="19.0919"/>
<text text-anchor="middle" x="313" y="-114.9" font-family="Times Roman,serif" font-size="14.00">C</text>
</g>
<!-- B&#45;&#45;C -->
<g id="edge11" class="edge"><title>B&#45;&#45;C</title>
<path fill="none" stroke="black" d="M250.003,-118C261.29,-118 274.387,-118 285.705,-118"/>
</g>
<!-- X -->
<g id="node13" class="node"><title>X</title>
<ellipse fill="none" stroke="black" cx="403" cy="-118" rx="27" ry="19.0919"/>
<text text-anchor="middle" x="403" y="-114.9" font-family="Times Roman,serif" font-size="14.00">X</text>
</g>
<!-- C&#45;&#45;X -->
<g id="edge13" class="edge"><title>C&#45;&#45;X</title>
<path fill="none" stroke="black" d="M340.003,-118C351.29,-118 364.387,-118 375.705,-118"/>
</g>
<!-- Y -->
<g id="node17" class="node"><title>Y</title>
<ellipse fill="none" stroke="black" cx="493" cy="-118" rx="27" ry="19.0919"/>
<text text-anchor="middle" x="493" y="-114.9" font-family="Times Roman,serif" font-size="14.00">Y</text>
</g>
<!-- X&#45;&#45;Y -->
<g id="edge19" class="edge"><title>X&#45;&#45;Y</title>
<path fill="none" stroke="black" d="M430.003,-118C441.29,-118 454.387,-118 465.705,-118"/>
</g>
<!-- F -->
<g id="node20" class="node"><title>F</title>
<ellipse fill="none" stroke="black" cx="43" cy="-263" rx="27" ry="19.0919"/>
<text text-anchor="middle" x="43" y="-259.9" font-family="Times Roman,serif" font-size="14.00">F</text>
</g>
<!-- L -->
<g id="node21" class="node"><title>L</title>
<ellipse fill="none" stroke="black" cx="133" cy="-235" rx="27" ry="19.0919"/>
<text text-anchor="middle" x="133" y="-231.9" font-family="Times Roman,serif" font-size="14.00">L</text>
</g>
<!-- F&#45;&#45;L -->
<g id="edge22" class="edge"><title>F&#45;&#45;L</title>
<path fill="none" stroke="black" d="M68.07,-255.2C80.553,-251.317 95.6,-246.636 108.064,-242.758"/>
</g>
<!-- H -->
<g id="node25" class="node"><title>H</title>
<ellipse fill="none" stroke="black" cx="223" cy="-235" rx="27" ry="19.0919"/>
<text text-anchor="middle" x="223" y="-231.9" font-family="Times Roman,serif" font-size="14.00">H</text>
</g>
<!-- L&#45;&#45;H -->
<g id="edge26" class="edge"><title>L&#45;&#45;H</title>
<path fill="none" stroke="black" d="M160.003,-235C171.29,-235 184.387,-235 195.705,-235"/>
</g>
<!-- G -->
<g id="node23" class="node"><title>G</title>
<ellipse fill="none" stroke="black" cx="43" cy="-207" rx="27" ry="19.0919"/>
<text text-anchor="middle" x="43" y="-203.9" font-family="Times Roman,serif" font-size="14.00">G</text>
</g>
<!-- G&#45;&#45;L -->
<g id="edge24" class="edge"><title>G&#45;&#45;L</title>
<path fill="none" stroke="black" d="M68.07,-214.8C80.553,-218.683 95.6,-223.364 108.064,-227.242"/>
</g>
<!-- I -->
<g id="node28" class="node"><title>I</title>
<ellipse fill="none" stroke="black" cx="43" cy="-352" rx="27" ry="19.0919"/>
<text text-anchor="middle" x="43" y="-348.9" font-family="Times Roman,serif" font-size="14.00">I</text>
</g>
<!-- M -->
<g id="node29" class="node"><title>M</title>
<ellipse fill="none" stroke="black" cx="133" cy="-352" rx="27" ry="19.0919"/>
<text text-anchor="middle" x="133" y="-348.9" font-family="Times Roman,serif" font-size="14.00">M</text>
</g>
<!-- I&#45;&#45;M -->
<g id="edge29" class="edge"><title>I&#45;&#45;M</title>
<path fill="none" stroke="black" d="M70.003,-352C81.2905,-352 94.3867,-352 105.705,-352"/>
</g>
</g>
</svg>
