<?xml version="1.0" encoding="UTF-8" standalone="no"?>
<!DOCTYPE svg PUBLIC "-//W3C//DTD SVG 1.1//EN"
 "http://www.w3.org/Graphics/SVG/1.1/DTD/svg11.dtd">
<!-- Generated by graphviz version 2.26.3 (20100126.1600)
 -->
<!-- Title: Perl Pages: 1 -->
<svg width="96pt" height="1378pt"
 viewBox="0.00 0.00 96.00 1378.00" xmlns="http://www.w3.org/2000/svg" xmlns:xlink="http://www.w3.org/1999/xlink">
<g id="graph1" class="graph" transform="scale(1 1) rotate(0) translate(4 1374)">
<title>Perl</title>
<polygon fill="white" stroke="white" points="-4,5 -4,-1374 93,-1374 93,5 -4,5"/>
<text text-anchor="middle" x="44" y="-10.4" font-family="Times Roman,serif" font-size="14.00">Cluster set</text>
<g id="graph2" class="cluster"><title>cluster A</title>
<polygon fill="none" stroke="black" points="9,-35 9,-116 79,-116 79,-35 9,-35"/>
<text text-anchor="middle" x="44" y="-99.4" font-family="Times Roman,serif" font-size="14.00">Cluster A</text>
</g>
<g id="graph3" class="cluster"><title>cluster B</title>
<polygon fill="none" stroke="black" points="9,-124 9,-205 79,-205 79,-124 9,-124"/>
<text text-anchor="middle" x="44" y="-188.4" font-family="Times Roman,serif" font-size="14.00">Cluster B</text>
</g>
<g id="graph4" class="cluster"><title>cluster C</title>
<polygon fill="none" stroke="black" points="9,-213 9,-294 79,-294 79,-213 9,-213"/>
<text text-anchor="middle" x="44" y="-277.4" font-family="Times Roman,serif" font-size="14.00">Cluster C</text>
</g>
<g id="graph5" class="cluster"><title>cluster D</title>
<polygon fill="none" stroke="black" points="9,-302 9,-383 79,-383 79,-302 9,-302"/>
<text text-anchor="middle" x="44" y="-366.4" font-family="Times Roman,serif" font-size="14.00">Cluster D</text>
</g>
<g id="graph6" class="cluster"><title>cluster E</title>
<polygon fill="none" stroke="black" points="9,-391 9,-472 79,-472 79,-391 9,-391"/>
<text text-anchor="middle" x="44" y="-455.4" font-family="Times Roman,serif" font-size="14.00">Cluster E</text>
</g>
<g id="graph7" class="cluster"><title>cluster F</title>
<polygon fill="none" stroke="black" points="9,-480 9,-561 79,-561 79,-480 9,-480"/>
<text text-anchor="middle" x="44" y="-544.4" font-family="Times Roman,serif" font-size="14.00">Cluster F</text>
</g>
<g id="graph8" class="cluster"><title>cluster G</title>
<polygon fill="none" stroke="black" points="9,-569 9,-650 79,-650 79,-569 9,-569"/>
<text text-anchor="middle" x="44" y="-633.4" font-family="Times Roman,serif" font-size="14.00">Cluster G</text>
</g>
<g id="graph9" class="cluster"><title>cluster H</title>
<polygon fill="none" stroke="black" points="9,-658 9,-739 79,-739 79,-658 9,-658"/>
<text text-anchor="middle" x="44" y="-722.4" font-family="Times Roman,serif" font-size="14.00">Cluster H</text>
</g>
<g id="graph10" class="cluster"><title>cluster I</title>
<polygon fill="none" stroke="black" points="9,-747 9,-828 79,-828 79,-747 9,-747"/>
<text text-anchor="middle" x="44" y="-811.4" font-family="Times Roman,serif" font-size="14.00">Cluster I</text>
</g>
<g id="graph11" class="cluster"><title>cluster J</title>
<polygon fill="none" stroke="black" points="9,-836 9,-917 79,-917 79,-836 9,-836"/>
<text text-anchor="middle" x="44" y="-900.4" font-family="Times Roman,serif" font-size="14.00">Cluster J</text>
</g>
<g id="graph12" class="cluster"><title>cluster K</title>
<polygon fill="none" stroke="black" points="9,-925 9,-1006 79,-1006 79,-925 9,-925"/>
<text text-anchor="middle" x="44" y="-989.4" font-family="Times Roman,serif" font-size="14.00">Cluster K</text>
</g>
<g id="graph13" class="cluster"><title>cluster L</title>
<polygon fill="none" stroke="black" points="9,-1014 9,-1095 79,-1095 79,-1014 9,-1014"/>
<text text-anchor="middle" x="44" y="-1078.4" font-family="Times Roman,serif" font-size="14.00">Cluster L</text>
</g>
<g id="graph14" class="cluster"><title>cluster M</title>
<polygon fill="none" stroke="black" points="8,-1103 8,-1184 80,-1184 80,-1103 8,-1103"/>
<text text-anchor="middle" x="44" y="-1167.4" font-family="Times Roman,serif" font-size="14.00">Cluster M</text>
</g>
<g id="graph15" class="cluster"><title>cluster N</title>
<polygon fill="none" stroke="black" points="9,-1192 9,-1273 79,-1273 79,-1192 9,-1192"/>
<text text-anchor="middle" x="44" y="-1256.4" font-family="Times Roman,serif" font-size="14.00">Cluster N</text>
</g>
<g id="graph16" class="cluster"><title>cluster O</title>
<polygon fill="none" stroke="black" points="9,-1281 9,-1362 79,-1362 79,-1281 9,-1281"/>
<text text-anchor="middle" x="44" y="-1345.4" font-family="Times Roman,serif" font-size="14.00">Cluster O</text>
</g>
<!-- A -->
<g id="node2" class="node"><title>A</title>
<ellipse fill="bisque" stroke="bisque" cx="44" cy="-62" rx="27" ry="19.0919"/>
<text text-anchor="middle" x="44" y="-58.9" font-family="Times Roman,serif" font-size="14.00">A</text>
</g>
<!-- B -->
<g id="node4" class="node"><title>B</title>
<ellipse fill="aquamarine" stroke="aquamarine" cx="44" cy="-151" rx="27" ry="19.0919"/>
<text text-anchor="middle" x="44" y="-147.9" font-family="Times Roman,serif" font-size="14.00">B</text>
</g>
<!-- C -->
<g id="node6" class="node"><title>C</title>
<ellipse fill="lightgrey" stroke="black" cx="44" cy="-240" rx="27" ry="19.0919"/>
<text text-anchor="middle" x="44" y="-236.9" font-family="Times Roman,serif" font-size="14.00">C</text>
</g>
<!-- D -->
<g id="node8" class="node"><title>D</title>
<ellipse fill="lawngreen" stroke="lawngreen" cx="44" cy="-329" rx="27" ry="19.0919"/>
<text text-anchor="middle" x="44" y="-325.9" font-family="Times Roman,serif" font-size="14.00">D</text>
</g>
<!-- E -->
<g id="node10" class="node"><title>E</title>
<ellipse fill="coral" stroke="coral" cx="44" cy="-418" rx="27" ry="19.0919"/>
<text text-anchor="middle" x="44" y="-414.9" font-family="Times Roman,serif" font-size="14.00">E</text>
</g>
<!-- F -->
<g id="node12" class="node"><title>F</title>
<ellipse fill="lightgrey" stroke="black" cx="44" cy="-507" rx="27" ry="19.0919"/>
<text text-anchor="middle" x="44" y="-503.9" font-family="Times Roman,serif" font-size="14.00">F</text>
</g>
<!-- G -->
<g id="node14" class="node"><title>G</title>
<ellipse fill="crimson" stroke="crimson" cx="44" cy="-596" rx="27" ry="19.0919"/>
<text text-anchor="middle" x="44" y="-592.9" font-family="Times Roman,serif" font-size="14.00">G</text>
</g>
<!-- H -->
<g id="node16" class="node"><title>H</title>
<ellipse fill="aquamarine" stroke="aquamarine" cx="44" cy="-685" rx="27" ry="19.0919"/>
<text text-anchor="middle" x="44" y="-681.9" font-family="Times Roman,serif" font-size="14.00">H</text>
</g>
<!-- I -->
<g id="node18" class="node"><title>I</title>
<ellipse fill="bisque" stroke="bisque" cx="44" cy="-774" rx="27" ry="19.0919"/>
<text text-anchor="middle" x="44" y="-770.9" font-family="Times Roman,serif" font-size="14.00">I</text>
</g>
<!-- J -->
<g id="node20" class="node"><title>J</title>
<ellipse fill="lightgrey" stroke="black" cx="44" cy="-863" rx="27" ry="19.0919"/>
<text text-anchor="middle" x="44" y="-859.9" font-family="Times Roman,serif" font-size="14.00">J</text>
</g>
<!-- K -->
<g id="node22" class="node"><title>K</title>
<ellipse fill="blueviolet" stroke="blueviolet" cx="44" cy="-952" rx="27" ry="19.0919"/>
<text text-anchor="middle" x="44" y="-948.9" font-family="Times Roman,serif" font-size="14.00">K</text>
</g>
<!-- L -->
<g id="node24" class="node"><title>L</title>
<ellipse fill="yellow" stroke="yellow" cx="44" cy="-1041" rx="27" ry="19.0919"/>
<text text-anchor="middle" x="44" y="-1037.9" font-family="Times Roman,serif" font-size="14.00">L</text>
</g>
<!-- M -->
<g id="node26" class="node"><title>M</title>
<ellipse fill="pink" stroke="pink" cx="44" cy="-1130" rx="27" ry="19.0919"/>
<text text-anchor="middle" x="44" y="-1126.9" font-family="Times Roman,serif" font-size="14.00">M</text>
</g>
<!-- N -->
<g id="node28" class="node"><title>N</title>
<ellipse fill="lightgrey" stroke="black" cx="44" cy="-1219" rx="27" ry="19.0919"/>
<text text-anchor="middle" x="44" y="-1215.9" font-family="Times Roman,serif" font-size="14.00">N</text>
</g>
<!-- O -->
<g id="node30" class="node"><title>O</title>
<ellipse fill="lightgrey" stroke="black" cx="44" cy="-1308" rx="27" ry="19.0919"/>
<text text-anchor="middle" x="44" y="-1304.9" font-family="Times Roman,serif" font-size="14.00">O</text>
</g>
</g>
</svg>
