<?xml version="1.0" encoding="UTF-8" standalone="no"?>
<!DOCTYPE svg PUBLIC "-//W3C//DTD SVG 1.1//EN"
 "http://www.w3.org/Graphics/SVG/1.1/DTD/svg11.dtd">
<!-- Generated by graphviz version 2.26.3 (20100126.1600)
 -->
<!-- Title: Perl Pages: 1 -->
<svg width="544pt" height="511pt"
 viewBox="0.00 0.00 544.00 511.00" xmlns="http://www.w3.org/2000/svg" xmlns:xlink="http://www.w3.org/1999/xlink">
<g id="graph1" class="graph" transform="scale(1 1) rotate(0) translate(4 507)">
<title>Perl</title>
<polygon fill="white" stroke="white" points="-4,5 -4,-507 541,-507 541,5 -4,5"/>
<text text-anchor="middle" x="268" y="-10.4" font-family="Times Roman,serif" font-size="14.00">Cluster set</text>
<g id="graph2" class="cluster"><title>cluster A</title>
<polygon fill="none" stroke="black" points="8,-35 8,-116 78,-116 78,-35 8,-35"/>
<text text-anchor="middle" x="43" y="-99.4" font-family="Times Roman,serif" font-size="14.00">Cluster A</text>
</g>
<g id="graph3" class="cluster"><title>cluster B</title>
<polygon fill="none" stroke="black" points="8,-124 8,-205 168,-205 168,-124 8,-124"/>
<text text-anchor="middle" x="88" y="-188.4" font-family="Times Roman,serif" font-size="14.00">Cluster B</text>
</g>
<g id="graph4" class="cluster"><title>cluster D</title>
<polygon fill="none" stroke="black" points="8,-213 8,-350 258,-350 258,-213 8,-213"/>
<text text-anchor="middle" x="133" y="-333.4" font-family="Times Roman,serif" font-size="14.00">Cluster D</text>
</g>
<g id="graph5" class="cluster"><title>cluster H</title>
<polygon fill="none" stroke="black" points="8,-358 8,-495 528,-495 528,-358 8,-358"/>
<text text-anchor="middle" x="268" y="-478.4" font-family="Times Roman,serif" font-size="14.00">Cluster H</text>
</g>
<!-- A -->
<g id="node2" class="node"><title>A</title>
<ellipse fill="bisque" stroke="bisque" cx="43" cy="-62" rx="27" ry="19.0919"/>
<text text-anchor="middle" x="43" y="-58.9" font-family="Times Roman,serif" font-size="14.00">A</text>
</g>
<!-- B -->
<g id="node4" class="node"><title>B</title>
<ellipse fill="aquamarine" stroke="aquamarine" cx="43" cy="-151" rx="27" ry="19.0919"/>
<text text-anchor="middle" x="43" y="-147.9" font-family="Times Roman,serif" font-size="14.00">B</text>
</g>
<!-- C -->
<g id="node5" class="node"><title>C</title>
<ellipse fill="lightgrey" stroke="black" cx="133" cy="-151" rx="27" ry="19.0919"/>
<text text-anchor="middle" x="133" y="-147.9" font-family="Times Roman,serif" font-size="14.00">C</text>
</g>
<!-- B&#45;&gt;C -->
<g id="edge4" class="edge"><title>B&#45;&gt;C</title>
<path fill="none" stroke="grey" d="M70.003,-151C81.2905,-151 94.3867,-151 105.705,-151"/>
</g>
<!-- D -->
<g id="node8" class="node"><title>D</title>
<ellipse fill="lawngreen" stroke="lawngreen" cx="43" cy="-296" rx="27" ry="19.0919"/>
<text text-anchor="middle" x="43" y="-292.9" font-family="Times Roman,serif" font-size="14.00">D</text>
</g>
<!-- F -->
<g id="node9" class="node"><title>F</title>
<ellipse fill="lightgrey" stroke="black" cx="133" cy="-268" rx="27" ry="19.0919"/>
<text text-anchor="middle" x="133" y="-264.9" font-family="Times Roman,serif" font-size="14.00">F</text>
</g>
<!-- D&#45;&gt;F -->
<g id="edge7" class="edge"><title>D&#45;&gt;F</title>
<path fill="none" stroke="grey" d="M66.1011,-285.733C84.0813,-277.742 106,-268 106,-268"/>
</g>
<!-- G -->
<g id="node13" class="node"><title>G</title>
<ellipse fill="crimson" stroke="crimson" cx="223" cy="-268" rx="27" ry="19.0919"/>
<text text-anchor="middle" x="223" y="-264.9" font-family="Times Roman,serif" font-size="14.00">G</text>
</g>
<!-- F&#45;&gt;G -->
<g id="edge11" class="edge"><title>F&#45;&gt;G</title>
<path fill="none" stroke="grey" d="M106,-268C106,-268 151.418,-268 185.659,-268"/>
<polygon fill="grey" stroke="grey" points="185.864,-271.5 195.864,-268 185.864,-264.5 185.864,-271.5"/>
</g>
<!-- E -->
<g id="node11" class="node"><title>E</title>
<ellipse fill="coral" stroke="coral" cx="43" cy="-240" rx="27" ry="19.0919"/>
<text text-anchor="middle" x="43" y="-236.9" font-family="Times Roman,serif" font-size="14.00">E</text>
</g>
<!-- E&#45;&gt;F -->
<g id="edge9" class="edge"><title>E&#45;&gt;F</title>
<path fill="none" stroke="grey" d="M66.1011,-250.267C84.0813,-258.258 106,-268 106,-268"/>
</g>
<!-- H -->
<g id="node16" class="node"><title>H</title>
<ellipse fill="aquamarine" stroke="aquamarine" cx="43" cy="-441" rx="27" ry="19.0919"/>
<text text-anchor="middle" x="43" y="-437.9" font-family="Times Roman,serif" font-size="14.00">H</text>
</g>
<!-- J -->
<g id="node17" class="node"><title>J</title>
<ellipse fill="lightgrey" stroke="black" cx="133" cy="-413" rx="27" ry="19.0919"/>
<text text-anchor="middle" x="133" y="-409.9" font-family="Times Roman,serif" font-size="14.00">J</text>
</g>
<!-- H&#45;&gt;J -->
<g id="edge14" class="edge"><title>H&#45;&gt;J</title>
<path fill="none" stroke="grey" d="M61.2222,-426.715C79.8285,-416.769 106,-407.199 106,-413"/>
</g>
<!-- H&#45;&gt;J -->
<g id="edge20" class="edge"><title>H&#45;&gt;J</title>
<path fill="none" stroke="grey" d="M69.3526,-435.957C86.6163,-428.83 106,-417.992 106,-413"/>
</g>
<!-- K -->
<g id="node21" class="node"><title>K</title>
<ellipse fill="blueviolet" stroke="blueviolet" cx="223" cy="-385" rx="27" ry="19.0919"/>
<text text-anchor="middle" x="223" y="-381.9" font-family="Times Roman,serif" font-size="14.00">K</text>
</g>
<!-- J&#45;&gt;K -->
<g id="edge18" class="edge"><title>J&#45;&gt;K</title>
<path fill="none" stroke="grey" d="M106,-413C106,-413 153.121,-401.723 187.555,-393.483"/>
<polygon fill="grey" stroke="grey" points="188.413,-396.876 197.324,-391.145 186.784,-390.068 188.413,-396.876"/>
</g>
<!-- L -->
<g id="node25" class="node"><title>L</title>
<ellipse fill="yellow" stroke="yellow" cx="223" cy="-441" rx="27" ry="19.0919"/>
<text text-anchor="middle" x="223" y="-437.9" font-family="Times Roman,serif" font-size="14.00">L</text>
</g>
<!-- J&#45;&gt;L -->
<g id="edge24" class="edge"><title>J&#45;&gt;L</title>
<path fill="none" stroke="grey" d="M106,-413C106,-413 153.121,-424.277 187.555,-432.517"/>
<polygon fill="grey" stroke="grey" points="186.784,-435.932 197.324,-434.855 188.413,-429.124 186.784,-435.932"/>
</g>
<!-- I -->
<g id="node19" class="node"><title>I</title>
<ellipse fill="bisque" stroke="bisque" cx="43" cy="-385" rx="27" ry="19.0919"/>
<text text-anchor="middle" x="43" y="-381.9" font-family="Times Roman,serif" font-size="14.00">I</text>
</g>
<!-- I&#45;&gt;J -->
<g id="edge16" class="edge"><title>I&#45;&gt;J</title>
<path fill="none" stroke="grey" d="M69.3526,-390.043C86.6163,-397.17 106,-408.008 106,-413"/>
</g>
<!-- I&#45;&gt;J -->
<g id="edge22" class="edge"><title>I&#45;&gt;J</title>
<path fill="none" stroke="grey" d="M61.2222,-399.285C79.8285,-409.231 106,-418.801 106,-413"/>
</g>
<!-- M -->
<g id="node27" class="node"><title>M</title>
<ellipse fill="pink" stroke="pink" cx="313" cy="-441" rx="27" ry="19.0919"/>
<text text-anchor="middle" x="313" y="-437.9" font-family="Times Roman,serif" font-size="14.00">M</text>
</g>
<!-- L&#45;&gt;M -->
<g id="edge26" class="edge"><title>L&#45;&gt;M</title>
<path fill="none" stroke="grey" d="M250.003,-441C258.645,-441 268.347,-441 277.5,-441"/>
<ellipse fill="none" stroke="grey" cx="281.705" cy="-441" rx="4" ry="4"/>
</g>
<!-- N -->
<g id="node29" class="node"><title>N</title>
<ellipse fill="lightgrey" stroke="black" cx="403" cy="-441" rx="27" ry="19.0919"/>
<text text-anchor="middle" x="403" y="-437.9" font-family="Times Roman,serif" font-size="14.00">N</text>
</g>
<!-- M&#45;&gt;N -->
<g id="edge28" class="edge"><title>M&#45;&gt;N</title>
<path fill="none" stroke="grey" d="M340.003,-441C348.645,-441 358.347,-441 367.5,-441"/>
<ellipse fill="none" stroke="grey" cx="371.705" cy="-441" rx="4" ry="4"/>
</g>
<!-- O -->
<g id="node31" class="node"><title>O</title>
<ellipse fill="lightgrey" stroke="black" cx="493" cy="-441" rx="27" ry="19.0919"/>
<text text-anchor="middle" x="493" y="-437.9" font-family="Times Roman,serif" font-size="14.00">O</text>
</g>
<!-- N&#45;&gt;O -->
<g id="edge30" class="edge"><title>N&#45;&gt;O</title>
<path fill="none" stroke="grey" d="M430.003,-441C438.645,-441 448.347,-441 457.5,-441"/>
<ellipse fill="none" stroke="grey" cx="461.705" cy="-441" rx="4" ry="4"/>
</g>
</g>
</svg>
