<?xml version="1.0" encoding="UTF-8" standalone="no"?>
<!DOCTYPE svg PUBLIC "-//W3C//DTD SVG 1.1//EN"
 "http://www.w3.org/Graphics/SVG/1.1/DTD/svg11.dtd">
<!-- Generated by graphviz version 2.38.0 (20140413.2041)
 -->
<!-- Title: graph_55 Pages: 1 -->
<svg width="143pt" height="172pt"
 viewBox="0.00 0.00 143.00 171.88" xmlns="http://www.w3.org/2000/svg" xmlns:xlink="http://www.w3.org/1999/xlink">
<g id="graph0" class="graph" transform="scale(1 1) rotate(0) translate(4 167.884)">
<title>graph_55</title>
<polygon fill="white" stroke="none" points="-4,4 -4,-167.884 139,-167.884 139,4 -4,4"/>
<text text-anchor="middle" x="67.5" y="-7.8" font-family="Times,serif" font-size="14.00">Complex Syntax Test</text>
<!-- H -->
<g id="node1" class="node"><title>H</title>
<polygon fill="lightblue" stroke="black" points="94.6903,-145.834 67.5,-164.107 40.3097,-145.834 40.3351,-116.269 94.6649,-116.269 94.6903,-145.834"/>
<text text-anchor="middle" x="67.5" y="-132.663" font-family="Times,serif" font-size="20.00">H</text>
</g>
<!-- I -->
<g id="node2" class="node"><title>I</title>
<polygon fill="lightblue" stroke="black" points="94.5,-57.3925 67.5,-75.6648 40.5,-57.3925 40.5252,-27.8275 94.4748,-27.8275 94.5,-57.3925"/>
<text text-anchor="middle" x="67.5" y="-44.221" font-family="Times,serif" font-size="20.00">I</text>
</g>
<!-- H&#45;&gt;I -->
<g id="edge1" class="edge"><title>H&#45;&gt;I</title>
<path fill="none" stroke="purple" d="M67.5,-116.177C67.5,-107.041 67.5,-96.0097 67.5,-85.6052"/>
<polygon fill="purple" stroke="purple" points="71.0001,-85.5032 67.5,-75.5032 64.0001,-85.5032 71.0001,-85.5032"/>
</g>
</g>
</svg>
