<?xml version="1.0" encoding="UTF-8" standalone="no"?>
<!DOCTYPE svg PUBLIC "-//W3C//DTD SVG 1.1//EN"
 "http://www.w3.org/Graphics/SVG/1.1/DTD/svg11.dtd">
<!-- Generated by graphviz version 2.38.0 (20140413.2041)
 -->
<!-- Title: fixed_length_paths Pages: 1 -->
<svg width="698pt" height="127pt"
 viewBox="0.00 0.00 698.35 127.00" xmlns="http://www.w3.org/2000/svg" xmlns:xlink="http://www.w3.org/1999/xlink">
<g id="graph0" class="graph" transform="scale(1 1) rotate(0) translate(4 123)">
<title>fixed_length_paths</title>
<polygon fill="white" stroke="none" points="-4,4 -4,-123 694.348,-123 694.348,4 -4,4"/>
<text text-anchor="middle" x="345.174" y="-67.8" font-family="Times,serif" font-size="14.00">Input file: fixed.length.paths.in.04.gv</text>
<text text-anchor="middle" x="345.174" y="-52.8" font-family="Times,serif" font-size="14.00">Starting node: node_10_01</text>
<text text-anchor="middle" x="345.174" y="-37.8" font-family="Times,serif" font-size="14.00">Path length: 3</text>
<text text-anchor="middle" x="345.174" y="-22.8" font-family="Times,serif" font-size="14.00">Allow cycles: 0</text>
<text text-anchor="middle" x="345.174" y="-7.8" font-family="Times,serif" font-size="14.00">Paths: 1</text>
<!-- 1 -->
<g id="node1" class="node"><title>1</title>
<ellipse fill="none" stroke="black" cx="76.6932" cy="-101" rx="76.8869" ry="18"/>
<text text-anchor="middle" x="76.6932" y="-97.3" font-family="Times,serif" font-size="14.00">node_10_01:p12:n</text>
</g>
<!-- 2 -->
<g id="node2" class="node"><title>2</title>
<ellipse fill="none" stroke="black" cx="258.93" cy="-101" rx="69.5877" ry="18"/>
<text text-anchor="middle" x="258.93" y="-97.3" font-family="Times,serif" font-size="14.00">node_10_02:p22</text>
</g>
<!-- 1&#45;&gt;2 -->
<g id="edge1" class="edge"><title>1&#45;&gt;2</title>
<path fill="none" stroke="black" d="M153.608,-101C162.02,-101 170.602,-101 179.051,-101"/>
<polygon fill="black" stroke="black" points="179.269,-104.5 189.269,-101 179.269,-97.5001 179.269,-104.5"/>
</g>
<!-- 3 -->
<g id="node3" class="node"><title>3</title>
<ellipse fill="none" stroke="black" cx="434.018" cy="-101" rx="69.5877" ry="18"/>
<text text-anchor="middle" x="434.018" y="-97.3" font-family="Times,serif" font-size="14.00">node_10_03:p11</text>
</g>
<!-- 2&#45;&gt;3 -->
<g id="edge2" class="edge"><title>2&#45;&gt;3</title>
<path fill="none" stroke="black" d="M328.836,-101C337.147,-101 345.685,-101 354.125,-101"/>
<polygon fill="black" stroke="black" points="354.349,-104.5 364.349,-101 354.349,-97.5001 354.349,-104.5"/>
</g>
<!-- 4 -->
<g id="node4" class="node"><title>4</title>
<ellipse fill="none" stroke="black" cx="614.955" cy="-101" rx="75.2868" ry="18"/>
<text text-anchor="middle" x="614.955" y="-97.3" font-family="Times,serif" font-size="14.00">node_10_04:p22:s</text>
</g>
<!-- 3&#45;&gt;4 -->
<g id="edge3" class="edge"><title>3&#45;&gt;4</title>
<path fill="none" stroke="black" d="M503.688,-101C512.118,-101 520.808,-101 529.437,-101"/>
<polygon fill="black" stroke="black" points="529.519,-104.5 539.519,-101 529.519,-97.5001 529.519,-104.5"/>
</g>
</g>
</svg>
