<?xml version="1.0" encoding="UTF-8" standalone="no"?>
<!DOCTYPE svg PUBLIC "-//W3C//DTD SVG 1.1//EN"
 "http://www.w3.org/Graphics/SVG/1.1/DTD/svg11.dtd">
<!-- Generated by graphviz version 2.38.0 (20140413.2041)
 -->
<!-- Title: fixed_length_paths Pages: 1 -->
<svg width="1324pt" height="179pt"
 viewBox="0.00 0.00 1323.70 179.00" xmlns="http://www.w3.org/2000/svg" xmlns:xlink="http://www.w3.org/1999/xlink">
<g id="graph0" class="graph" transform="scale(1 1) rotate(0) translate(4 175)">
<title>fixed_length_paths</title>
<polygon fill="white" stroke="none" points="-4,4 -4,-175 1319.7,-175 1319.7,4 -4,4"/>
<text text-anchor="middle" x="657.851" y="-67.8" font-family="Times,serif" font-size="14.00">Input file: fixed.length.paths.in.01.gv</text>
<text text-anchor="middle" x="657.851" y="-52.8" font-family="Times,serif" font-size="14.00">Starting node: Act_1</text>
<text text-anchor="middle" x="657.851" y="-37.8" font-family="Times,serif" font-size="14.00">Path length: 3</text>
<text text-anchor="middle" x="657.851" y="-22.8" font-family="Times,serif" font-size="14.00">Allow cycles: 0</text>
<text text-anchor="middle" x="657.851" y="-7.8" font-family="Times,serif" font-size="14.00">Paths: 4</text>
<!-- Act_1 -->
<g id="node1" class="node"><title>Act_1</title>
<ellipse fill="none" stroke="black" cx="78.643" cy="-128" rx="78.7863" ry="18"/>
<text text-anchor="middle" x="78.643" y="-124.3" font-family="Times,serif" font-size="14.00">HASH(0x3ca4dc0)</text>
</g>
<!-- Act_23 -->
<g id="node2" class="node"><title>Act_23</title>
<ellipse fill="none" stroke="black" cx="659.151" cy="-153" rx="79.0865" ry="18"/>
<text text-anchor="middle" x="659.151" y="-149.3" font-family="Times,serif" font-size="14.00">HASH(0x3ca5138)</text>
</g>
<!-- Act_1&#45;&gt;Act_23 -->
<g id="edge1" class="edge"><title>Act_1&#45;&gt;Act_23</title>
<path fill="none" stroke="black" d="M157.063,-126.571C266.487,-128.696 465.444,-137.264 576.91,-144.626"/>
<polygon fill="black" stroke="black" points="576.876,-148.131 587.088,-145.312 577.346,-141.147 576.876,-148.131"/>
</g>
<!-- Act_1&#45;&gt;Act_23 -->
<g id="edge4" class="edge"><title>Act_1&#45;&gt;Act_23</title>
<path fill="none" stroke="black" d="M150.001,-135.64C255.521,-142.92 454.635,-151.664 569.798,-154.202"/>
<polygon fill="black" stroke="black" points="569.92,-157.705 579.991,-154.414 570.066,-150.706 569.92,-157.705"/>
</g>
<!-- Act_21 -->
<g id="node6" class="node"><title>Act_21</title>
<ellipse fill="none" stroke="black" cx="271.279" cy="-101" rx="77.9862" ry="18"/>
<text text-anchor="middle" x="271.279" y="-97.3" font-family="Times,serif" font-size="14.00">HASH(0x3ca4ec8)</text>
</g>
<!-- Act_1&#45;&gt;Act_21 -->
<g id="edge7" class="edge"><title>Act_1&#45;&gt;Act_21</title>
<path fill="none" stroke="black" d="M131.483,-114.575C148.042,-111.684 166.83,-108.812 185.113,-106.346"/>
<polygon fill="black" stroke="black" points="185.742,-109.794 195.201,-105.021 184.83,-102.853 185.742,-109.794"/>
</g>
<!-- Act_1&#45;&gt;Act_21 -->
<g id="edge10" class="edge"><title>Act_1&#45;&gt;Act_21</title>
<path fill="none" stroke="black" d="M155.261,-123.91C172.909,-121.646 191.499,-118.928 208.466,-116.119"/>
<polygon fill="black" stroke="black" points="209.526,-119.489 218.798,-114.362 208.352,-112.589 209.526,-119.489"/>
</g>
<!-- Act_25 -->
<g id="node3" class="node"><title>Act_25</title>
<ellipse fill="none" stroke="black" cx="1043.77" cy="-130" rx="78.7863" ry="18"/>
<text text-anchor="middle" x="1043.77" y="-126.3" font-family="Times,serif" font-size="14.00">HASH(0x3ca4e68)</text>
</g>
<!-- Act_23&#45;&gt;Act_25 -->
<g id="edge2" class="edge"><title>Act_23&#45;&gt;Act_25</title>
<path fill="none" stroke="black" d="M736.202,-148.428C800.05,-144.59 891.203,-139.111 957.51,-135.125"/>
<polygon fill="black" stroke="black" points="957.746,-138.618 967.518,-134.524 957.326,-131.63 957.746,-138.618"/>
</g>
<!-- Act_24 -->
<g id="node5" class="node"><title>Act_24</title>
<ellipse fill="none" stroke="black" cx="851.787" cy="-107" rx="77.1866" ry="18"/>
<text text-anchor="middle" x="851.787" y="-103.3" font-family="Times,serif" font-size="14.00">HASH(0x3ca4fe8)</text>
</g>
<!-- Act_23&#45;&gt;Act_24 -->
<g id="edge5" class="edge"><title>Act_23&#45;&gt;Act_24</title>
<path fill="none" stroke="black" d="M714.015,-140.003C736.848,-134.493 763.622,-128.033 787.399,-122.295"/>
<polygon fill="black" stroke="black" points="788.486,-125.634 797.386,-119.886 786.844,-118.829 788.486,-125.634"/>
</g>
<!-- Act_3 -->
<g id="node4" class="node"><title>Act_3</title>
<ellipse fill="none" stroke="black" cx="1237.06" cy="-130" rx="78.7863" ry="18"/>
<text text-anchor="middle" x="1237.06" y="-126.3" font-family="Times,serif" font-size="14.00">HASH(0x3ca4c70)</text>
</g>
<!-- Act_25&#45;&gt;Act_3 -->
<g id="edge3" class="edge"><title>Act_25&#45;&gt;Act_3</title>
<path fill="none" stroke="black" d="M1122.58,-130C1131.05,-130 1139.72,-130 1148.3,-130"/>
<polygon fill="black" stroke="black" points="1148.33,-133.5 1158.32,-130 1148.32,-126.5 1148.33,-133.5"/>
</g>
<!-- Act_24&#45;&gt;Act_25 -->
<g id="edge6" class="edge"><title>Act_24&#45;&gt;Act_25</title>
<path fill="none" stroke="black" d="M920.84,-115.239C934.72,-116.919 949.436,-118.7 963.663,-120.423"/>
<polygon fill="black" stroke="black" points="963.569,-123.937 973.917,-121.664 964.411,-116.988 963.569,-123.937"/>
</g>
<!-- Act_22 -->
<g id="node7" class="node"><title>Act_22</title>
<ellipse fill="none" stroke="black" cx="464.565" cy="-101" rx="79.0865" ry="18"/>
<text text-anchor="middle" x="464.565" y="-97.3" font-family="Times,serif" font-size="14.00">HASH(0x3ca5018)</text>
</g>
<!-- Act_21&#45;&gt;Act_22 -->
<g id="edge8" class="edge"><title>Act_21&#45;&gt;Act_22</title>
<path fill="none" stroke="black" d="M344.051,-94.4404C355.895,-94.2478 368.26,-94.2013 380.355,-94.301"/>
<polygon fill="black" stroke="black" points="380.394,-97.8016 390.435,-94.419 380.476,-90.802 380.394,-97.8016"/>
</g>
<!-- Act_21&#45;&gt;Act_22 -->
<g id="edge11" class="edge"><title>Act_21&#45;&gt;Act_22</title>
<path fill="none" stroke="black" d="M344.051,-107.56C355.895,-107.752 368.26,-107.799 380.355,-107.699"/>
<polygon fill="black" stroke="black" points="380.476,-111.198 390.435,-107.581 380.394,-104.198 380.476,-111.198"/>
</g>
<!-- Act_22&#45;&gt;Act_23 -->
<g id="edge12" class="edge"><title>Act_22&#45;&gt;Act_23</title>
<path fill="none" stroke="black" d="M516.417,-114.73C541.319,-121.454 571.481,-129.598 597.569,-136.642"/>
<polygon fill="black" stroke="black" points="596.782,-140.055 607.349,-139.283 598.607,-133.297 596.782,-140.055"/>
</g>
<!-- Act_22&#45;&gt;Act_24 -->
<g id="edge9" class="edge"><title>Act_22&#45;&gt;Act_24</title>
<path fill="none" stroke="black" d="M543.985,-102.221C607.882,-103.217 698.021,-104.621 764.063,-105.649"/>
<polygon fill="black" stroke="black" points="764.394,-109.155 774.448,-105.811 764.504,-102.156 764.394,-109.155"/>
</g>
</g>
</svg>
