<?xml version="1.0" encoding="UTF-8" standalone="no"?>
<!DOCTYPE svg PUBLIC "-//W3C//DTD SVG 1.1//EN"
 "http://www.w3.org/Graphics/SVG/1.1/DTD/svg11.dtd">
<!-- Generated by graphviz version 2.38.0 (20140413.2041)
 -->
<!-- Title: fixed_length_paths Pages: 1 -->
<svg width="1339pt" height="179pt"
 viewBox="0.00 0.00 1339.30 179.00" xmlns="http://www.w3.org/2000/svg" xmlns:xlink="http://www.w3.org/1999/xlink">
<g id="graph0" class="graph" transform="scale(1 1) rotate(0) translate(4 175)">
<title>fixed_length_paths</title>
<polygon fill="white" stroke="none" points="-4,4 -4,-175 1335.3,-175 1335.3,4 -4,4"/>
<text text-anchor="middle" x="665.651" y="-67.8" font-family="Times,serif" font-size="14.00">Input file: fixed.length.paths.in.01.gv</text>
<text text-anchor="middle" x="665.651" y="-52.8" font-family="Times,serif" font-size="14.00">Starting node: Act_1</text>
<text text-anchor="middle" x="665.651" y="-37.8" font-family="Times,serif" font-size="14.00">Path length: 3</text>
<text text-anchor="middle" x="665.651" y="-22.8" font-family="Times,serif" font-size="14.00">Allow cycles: 0</text>
<text text-anchor="middle" x="665.651" y="-7.8" font-family="Times,serif" font-size="14.00">Paths: 4</text>
<!-- Act_1 -->
<g id="node1" class="node"><title>Act_1</title>
<ellipse fill="none" stroke="black" cx="79.9429" cy="-128" rx="79.8859" ry="18"/>
<text text-anchor="middle" x="79.9429" y="-124.3" font-family="Times,serif" font-size="14.00">HASH(0x4218368)</text>
</g>
<!-- Act_23 -->
<g id="node2" class="node"><title>Act_23</title>
<ellipse fill="none" stroke="black" cx="665.001" cy="-153" rx="79.8859" ry="18"/>
<text text-anchor="middle" x="665.001" y="-149.3" font-family="Times,serif" font-size="14.00">HASH(0x4218668)</text>
</g>
<!-- Act_1&#45;&gt;Act_23 -->
<g id="edge1" class="edge"><title>Act_1&#45;&gt;Act_23</title>
<path fill="none" stroke="black" d="M159.88,-126.589C270.447,-128.745 470.422,-137.299 582.403,-144.644"/>
<polygon fill="black" stroke="black" points="582.417,-148.153 592.628,-145.329 582.884,-141.169 582.417,-148.153"/>
</g>
<!-- Act_1&#45;&gt;Act_23 -->
<g id="edge4" class="edge"><title>Act_1&#45;&gt;Act_23</title>
<path fill="none" stroke="black" d="M152.437,-135.68C258.849,-142.946 458.771,-151.655 574.671,-154.195"/>
<polygon fill="black" stroke="black" points="574.86,-157.7 584.931,-154.408 575.006,-150.702 574.86,-157.7"/>
</g>
<!-- Act_21 -->
<g id="node6" class="node"><title>Act_21</title>
<ellipse fill="none" stroke="black" cx="274.529" cy="-101" rx="78.7863" ry="18"/>
<text text-anchor="middle" x="274.529" y="-97.3" font-family="Times,serif" font-size="14.00">HASH(0x42183f8)</text>
</g>
<!-- Act_1&#45;&gt;Act_21 -->
<g id="edge7" class="edge"><title>Act_1&#45;&gt;Act_21</title>
<path fill="none" stroke="black" d="M133.313,-114.575C150.119,-111.671 169.197,-108.786 187.748,-106.312"/>
<polygon fill="black" stroke="black" points="188.217,-109.781 197.683,-105.021 187.315,-102.839 188.217,-109.781"/>
</g>
<!-- Act_1&#45;&gt;Act_21 -->
<g id="edge10" class="edge"><title>Act_1&#45;&gt;Act_21</title>
<path fill="none" stroke="black" d="M157.888,-123.84C175.755,-121.564 194.549,-118.837 211.67,-116.023"/>
<polygon fill="black" stroke="black" points="212.259,-119.473 221.537,-114.359 211.094,-112.571 212.259,-119.473"/>
</g>
<!-- Act_25 -->
<g id="node3" class="node"><title>Act_25</title>
<ellipse fill="none" stroke="black" cx="1056.77" cy="-130" rx="79.8859" ry="18"/>
<text text-anchor="middle" x="1056.77" y="-126.3" font-family="Times,serif" font-size="14.00">HASH(0x4218398)</text>
</g>
<!-- Act_23&#45;&gt;Act_25 -->
<g id="edge2" class="edge"><title>Act_23&#45;&gt;Act_25</title>
<path fill="none" stroke="black" d="M742.542,-148.483C807.598,-144.645 900.969,-139.135 968.831,-135.13"/>
<polygon fill="black" stroke="black" points="969.297,-138.609 979.073,-134.526 968.885,-131.621 969.297,-138.609"/>
</g>
<!-- Act_24 -->
<g id="node5" class="node"><title>Act_24</title>
<ellipse fill="none" stroke="black" cx="860.886" cy="-107" rx="79.8859" ry="18"/>
<text text-anchor="middle" x="860.886" y="-103.3" font-family="Times,serif" font-size="14.00">HASH(0x4218518)</text>
</g>
<!-- Act_23&#45;&gt;Act_24 -->
<g id="edge5" class="edge"><title>Act_23&#45;&gt;Act_24</title>
<path fill="none" stroke="black" d="M720.783,-140.003C744.01,-134.492 771.248,-128.03 795.434,-122.291"/>
<polygon fill="black" stroke="black" points="796.317,-125.679 805.239,-119.965 794.701,-118.868 796.317,-125.679"/>
</g>
<!-- Act_3 -->
<g id="node4" class="node"><title>Act_3</title>
<ellipse fill="none" stroke="black" cx="1252.01" cy="-130" rx="79.0865" ry="18"/>
<text text-anchor="middle" x="1252.01" y="-126.3" font-family="Times,serif" font-size="14.00">HASH(0x42181a0)</text>
</g>
<!-- Act_25&#45;&gt;Act_3 -->
<g id="edge3" class="edge"><title>Act_25&#45;&gt;Act_3</title>
<path fill="none" stroke="black" d="M1136.93,-130C1145.3,-130 1153.85,-130 1162.33,-130"/>
<polygon fill="black" stroke="black" points="1162.6,-133.5 1172.6,-130 1162.6,-126.5 1162.6,-133.5"/>
</g>
<!-- Act_24&#45;&gt;Act_25 -->
<g id="edge6" class="edge"><title>Act_24&#45;&gt;Act_25</title>
<path fill="none" stroke="black" d="M931.884,-115.304C946.073,-116.987 961.098,-118.769 975.607,-120.49"/>
<polygon fill="black" stroke="black" points="975.21,-123.968 985.552,-121.67 976.034,-117.016 975.21,-123.968"/>
</g>
<!-- Act_22 -->
<g id="node7" class="node"><title>Act_22</title>
<ellipse fill="none" stroke="black" cx="469.115" cy="-101" rx="79.8859" ry="18"/>
<text text-anchor="middle" x="469.115" y="-97.3" font-family="Times,serif" font-size="14.00">HASH(0x4218548)</text>
</g>
<!-- Act_21&#45;&gt;Act_22 -->
<g id="edge8" class="edge"><title>Act_21&#45;&gt;Act_22</title>
<path fill="none" stroke="black" d="M347.789,-94.4404C359.713,-94.2478 372.162,-94.2013 384.34,-94.301"/>
<polygon fill="black" stroke="black" points="384.447,-97.8023 394.487,-94.419 384.529,-90.8028 384.447,-97.8023"/>
</g>
<!-- Act_21&#45;&gt;Act_22 -->
<g id="edge11" class="edge"><title>Act_21&#45;&gt;Act_22</title>
<path fill="none" stroke="black" d="M347.789,-107.56C359.713,-107.752 372.162,-107.799 384.34,-107.699"/>
<polygon fill="black" stroke="black" points="384.529,-111.197 394.487,-107.581 384.447,-104.198 384.529,-111.197"/>
</g>
<!-- Act_22&#45;&gt;Act_23 -->
<g id="edge12" class="edge"><title>Act_22&#45;&gt;Act_23</title>
<path fill="none" stroke="black" d="M521.31,-114.73C546.379,-121.454 576.745,-129.598 603.01,-136.642"/>
<polygon fill="black" stroke="black" points="602.29,-140.073 612.855,-139.283 604.103,-133.312 602.29,-140.073"/>
</g>
<!-- Act_22&#45;&gt;Act_24 -->
<g id="edge9" class="edge"><title>Act_22&#45;&gt;Act_24</title>
<path fill="none" stroke="black" d="M548.991,-102.214C613.207,-103.203 703.844,-104.598 770.694,-105.627"/>
<polygon fill="black" stroke="black" points="770.741,-109.128 780.794,-105.782 770.849,-102.129 770.741,-109.128"/>
</g>
</g>
</svg>
