<?xml version="1.0" encoding="UTF-8" standalone="no"?>
<!DOCTYPE svg PUBLIC "-//W3C//DTD SVG 1.1//EN"
 "http://www.w3.org/Graphics/SVG/1.1/DTD/svg11.dtd">
<!-- Generated by graphviz version 2.38.0 (20140413.2041)
 -->
<!-- Title: fixed_length_paths Pages: 1 -->
<svg width="182pt" height="166pt"
 viewBox="0.00 0.00 181.79 166.00" xmlns="http://www.w3.org/2000/svg" xmlns:xlink="http://www.w3.org/1999/xlink">
<g id="graph0" class="graph" transform="scale(1 1) rotate(0) translate(4 162)">
<title>fixed_length_paths</title>
<polygon fill="white" stroke="none" points="-4,4 -4,-162 177.788,-162 177.788,4 -4,4"/>
<text text-anchor="middle" x="86.8939" y="-52.8" font-family="Times,serif" font-size="14.00">Starting node: Act_1</text>
<text text-anchor="middle" x="86.8939" y="-37.8" font-family="Times,serif" font-size="14.00">Path length: 1</text>
<text text-anchor="middle" x="86.8939" y="-22.8" font-family="Times,serif" font-size="14.00">Allow cycles: 0</text>
<text text-anchor="middle" x="86.8939" y="-7.8" font-family="Times,serif" font-size="14.00">Solutions: 2</text>
<!-- 1 -->
<g id="node1" class="node"><title>1</title>
<ellipse fill="none" stroke="black" cx="32.4971" cy="-86" rx="32.4942" ry="18"/>
<text text-anchor="middle" x="32.4971" y="-82.3" font-family="Times,serif" font-size="14.00">Act_1</text>
</g>
<!-- 2 -->
<g id="node2" class="node"><title>2</title>
<ellipse fill="none" stroke="black" cx="137.391" cy="-86" rx="36.2938" ry="18"/>
<text text-anchor="middle" x="137.391" y="-82.3" font-family="Times,serif" font-size="14.00">Act_23</text>
</g>
<!-- 1&#45;&gt;2 -->
<g id="edge1" class="edge"><title>1&#45;&gt;2</title>
<path fill="none" stroke="black" d="M65.2083,-86C73.1844,-86 81.9065,-86 90.4257,-86"/>
<polygon fill="black" stroke="black" points="90.6531,-89.5001 100.653,-86 90.653,-82.5001 90.6531,-89.5001"/>
</g>
<!-- 3 -->
<g id="node3" class="node"><title>3</title>
<ellipse fill="none" stroke="black" cx="32.4971" cy="-140" rx="32.4942" ry="18"/>
<text text-anchor="middle" x="32.4971" y="-136.3" font-family="Times,serif" font-size="14.00">Act_1</text>
</g>
<!-- 4 -->
<g id="node4" class="node"><title>4</title>
<ellipse fill="none" stroke="black" cx="137.391" cy="-140" rx="36.2938" ry="18"/>
<text text-anchor="middle" x="137.391" y="-136.3" font-family="Times,serif" font-size="14.00">Act_21</text>
</g>
<!-- 3&#45;&gt;4 -->
<g id="edge2" class="edge"><title>3&#45;&gt;4</title>
<path fill="none" stroke="black" d="M65.2083,-140C73.1844,-140 81.9065,-140 90.4257,-140"/>
<polygon fill="black" stroke="black" points="90.6531,-143.5 100.653,-140 90.653,-136.5 90.6531,-143.5"/>
</g>
</g>
</svg>
