<?xml version="1.0" encoding="UTF-8" standalone="no"?>
<!DOCTYPE svg PUBLIC "-//W3C//DTD SVG 1.1//EN"
 "http://www.w3.org/Graphics/SVG/1.1/DTD/svg11.dtd">
<!-- Generated by graphviz version 2.38.0 (20140413.2041)
 -->
<!-- Title: G Pages: 1 -->
<svg width="692pt" height="100pt"
 viewBox="0.00 0.00 692.00 99.90" xmlns="http://www.w3.org/2000/svg" xmlns:xlink="http://www.w3.org/1999/xlink">
<g id="graph0" class="graph" transform="scale(1 1) rotate(0) translate(4 95.8977)">
<title>G</title>
<polygon fill="white" stroke="none" points="-4,4 -4,-95.8977 688,-95.8977 688,4 -4,4"/>
<!-- A -->
<g id="node1" class="node"><title>A</title>
<ellipse fill="none" stroke="red" cx="27" cy="-50.8977" rx="27" ry="18"/>
<text text-anchor="middle" x="27" y="-47.1977" font-family="Times,serif" font-size="14.00">A</text>
</g>
<!-- B -->
<g id="node2" class="node"><title>B</title>
<ellipse fill="none" stroke="green" cx="117" cy="-27.8977" rx="27" ry="18"/>
<text text-anchor="middle" x="117" y="-24.1977" font-family="Times,serif" font-size="14.00">B</text>
</g>
<!-- A&#45;&gt;B -->
<g id="edge4" class="edge"><title>A&#45;&gt;B</title>
<path fill="none" stroke="black" d="M52.5129,-44.4909C61.5717,-42.1233 72.0115,-39.3947 81.775,-36.8429"/>
<polygon fill="black" stroke="black" points="82.8286,-40.1852 91.6186,-34.2701 81.0585,-33.4127 82.8286,-40.1852"/>
</g>
<!-- C -->
<g id="node3" class="node"><title>C</title>
<ellipse fill="none" stroke="blue" cx="207" cy="-73.8977" rx="27" ry="18"/>
<text text-anchor="middle" x="207" y="-70.1977" font-family="Times,serif" font-size="14.00">C</text>
</g>
<!-- A&#45;&gt;C -->
<g id="edge5" class="edge"><title>A&#45;&gt;C</title>
<path fill="none" stroke="black" d="M53.8827,-54.2421C84.5538,-58.2052 135.829,-64.8307 170.269,-69.2808"/>
<polygon fill="black" stroke="black" points="170.009,-72.7762 180.375,-70.5866 170.906,-65.8339 170.009,-72.7762"/>
</g>
<!-- B&#45;&gt;C -->
<g id="edge1" class="edge"><title>B&#45;&gt;C</title>
<path fill="none" stroke="black" d="M138.855,-38.7991C150.033,-44.6424 163.998,-51.9421 176.293,-58.3688"/>
<polygon fill="black" stroke="black" points="174.811,-61.5438 185.295,-63.0746 178.054,-55.3402 174.811,-61.5438"/>
</g>
<!-- D -->
<g id="node4" class="node"><title>D</title>
<ellipse fill="none" stroke="magenta" cx="297" cy="-50.8977" rx="27" ry="18"/>
<text text-anchor="middle" x="297" y="-47.1977" font-family="Times,serif" font-size="14.00">D</text>
</g>
<!-- B&#45;&gt;D -->
<g id="edge6" class="edge"><title>B&#45;&gt;D</title>
<path fill="none" stroke="black" d="M143.883,-31.2421C174.554,-35.2052 225.829,-41.8307 260.269,-46.2808"/>
<polygon fill="black" stroke="black" points="260.009,-49.7762 270.375,-47.5866 260.906,-42.8339 260.009,-49.7762"/>
</g>
<!-- C&#45;&gt;D -->
<g id="edge7" class="edge"><title>C&#45;&gt;D</title>
<path fill="none" stroke="black" d="M232.513,-67.4909C241.572,-65.1233 252.012,-62.3947 261.775,-59.8429"/>
<polygon fill="black" stroke="black" points="262.829,-63.1852 271.619,-57.2701 261.058,-56.4127 262.829,-63.1852"/>
</g>
<!-- E -->
<g id="node5" class="node"><title>E</title>
<ellipse fill="none" stroke="pink" cx="387" cy="-27.8977" rx="27" ry="18"/>
<text text-anchor="middle" x="387" y="-24.1977" font-family="Times,serif" font-size="14.00">E</text>
</g>
<!-- D&#45;&gt;E -->
<g id="edge8" class="edge"><title>D&#45;&gt;E</title>
<path fill="none" stroke="black" d="M322.513,-44.4909C331.572,-42.1233 342.012,-39.3947 351.775,-36.8429"/>
<polygon fill="black" stroke="black" points="352.829,-40.1852 361.619,-34.2701 351.058,-33.4127 352.829,-40.1852"/>
</g>
<!-- F -->
<g id="node6" class="node"><title>F</title>
<ellipse fill="none" stroke="lime" cx="477" cy="-73.8977" rx="27" ry="18"/>
<text text-anchor="middle" x="477" y="-70.1977" font-family="Times,serif" font-size="14.00">F</text>
</g>
<!-- D&#45;&gt;F -->
<g id="edge9" class="edge"><title>D&#45;&gt;F</title>
<path fill="none" stroke="black" d="M323.883,-54.2421C354.554,-58.2052 405.829,-64.8307 440.269,-69.2808"/>
<polygon fill="black" stroke="black" points="440.009,-72.7762 450.375,-70.5866 440.906,-65.8339 440.009,-72.7762"/>
</g>
<!-- E&#45;&gt;F -->
<g id="edge2" class="edge"><title>E&#45;&gt;F</title>
<path fill="none" stroke="black" d="M408.855,-38.7991C420.033,-44.6424 433.998,-51.9421 446.293,-58.3688"/>
<polygon fill="black" stroke="black" points="444.811,-61.5438 455.295,-63.0746 448.054,-55.3402 444.811,-61.5438"/>
</g>
<!-- G -->
<g id="node7" class="node"><title>G</title>
<ellipse fill="none" stroke="cyan" cx="567" cy="-31.8977" rx="27" ry="18"/>
<text text-anchor="middle" x="567" y="-28.1977" font-family="Times,serif" font-size="14.00">G</text>
</g>
<!-- E&#45;&gt;G -->
<g id="edge10" class="edge"><title>E&#45;&gt;G</title>
<path fill="none" stroke="black" d="M414.265,-28.4879C444.851,-29.1753 495.551,-30.3146 529.843,-31.0852"/>
<polygon fill="black" stroke="black" points="529.842,-34.586 539.918,-31.3116 529.999,-27.5877 529.842,-34.586"/>
</g>
<!-- H -->
<g id="node8" class="node"><title>H</title>
<ellipse fill="none" stroke="purple" cx="657" cy="-31.8977" rx="27" ry="18"/>
<text text-anchor="middle" x="657" y="-28.1977" font-family="Times,serif" font-size="14.00">H</text>
</g>
<!-- E&#45;&gt;H -->
<g id="edge11" class="edge"><title>E&#45;&gt;H</title>
<path fill="none" stroke="black" d="M411.707,-20.4389C450.268,-9.37878 528.825,8.67799 594,-4.89772 605.062,-7.20181 616.569,-11.5895 626.623,-16.1686"/>
<polygon fill="black" stroke="black" points="625.227,-19.3804 635.756,-20.5556 628.258,-13.0707 625.227,-19.3804"/>
</g>
<!-- F&#45;&gt;G -->
<g id="edge12" class="edge"><title>F&#45;&gt;G</title>
<path fill="none" stroke="black" d="M499.302,-63.7307C510.139,-58.5585 523.506,-52.1789 535.421,-46.4923"/>
<polygon fill="black" stroke="black" points="537.072,-49.5827 544.589,-42.1167 534.056,-43.2654 537.072,-49.5827"/>
</g>
<!-- F&#45;&gt;H -->
<g id="edge13" class="edge"><title>F&#45;&gt;H</title>
<path fill="none" stroke="black" d="M504.216,-72.6191C528.003,-70.9646 563.858,-67.2286 594,-58.8977 604.805,-55.9113 616.175,-51.3965 626.186,-46.9089"/>
<polygon fill="black" stroke="black" points="627.714,-50.058 635.304,-42.6654 624.761,-43.7115 627.714,-50.058"/>
</g>
<!-- G&#45;&gt;H -->
<g id="edge3" class="edge"><title>G&#45;&gt;H</title>
<path fill="none" stroke="black" d="M594.403,-31.8977C602.393,-31.8977 611.311,-31.8977 619.824,-31.8977"/>
<polygon fill="black" stroke="black" points="619.919,-35.3978 629.919,-31.8977 619.919,-28.3978 619.919,-35.3978"/>
</g>
</g>
</svg>
