<?xml version="1.0" encoding="UTF-8" standalone="no"?>
<!DOCTYPE svg PUBLIC "-//W3C//DTD SVG 1.1//EN"
 "http://www.w3.org/Graphics/SVG/1.1/DTD/svg11.dtd">
<!-- Generated by graphviz version 2.38.0 (20140413.2041)
 -->
<!-- Title: fixed_length_paths Pages: 1 -->
<svg width="748pt" height="127pt"
 viewBox="0.00 0.00 747.74 127.00" xmlns="http://www.w3.org/2000/svg" xmlns:xlink="http://www.w3.org/1999/xlink">
<g id="graph0" class="graph" transform="scale(1 1) rotate(0) translate(4 123)">
<title>fixed_length_paths</title>
<polygon fill="white" stroke="none" points="-4,4 -4,-123 743.744,-123 743.744,4 -4,4"/>
<text text-anchor="middle" x="369.872" y="-67.8" font-family="Times,serif" font-size="14.00">Input file: fixed.length.paths.in.02.gv</text>
<text text-anchor="middle" x="369.872" y="-52.8" font-family="Times,serif" font-size="14.00">Starting node: 5</text>
<text text-anchor="middle" x="369.872" y="-37.8" font-family="Times,serif" font-size="14.00">Path length: 3</text>
<text text-anchor="middle" x="369.872" y="-22.8" font-family="Times,serif" font-size="14.00">Allow cycles: 0</text>
<text text-anchor="middle" x="369.872" y="-7.8" font-family="Times,serif" font-size="14.00">Paths: 1</text>
<!-- 5 -->
<g id="node1" class="node"><title>5</title>
<ellipse fill="none" stroke="black" cx="79.293" cy="-101" rx="79.0865" ry="18"/>
<text text-anchor="middle" x="79.293" y="-97.3" font-family="Times,serif" font-size="14.00">HASH(0x3ca40d8)</text>
</g>
<!-- 7 -->
<g id="node2" class="node"><title>7</title>
<ellipse fill="none" stroke="black" cx="273.229" cy="-101" rx="78.7863" ry="18"/>
<text text-anchor="middle" x="273.229" y="-97.3" font-family="Times,serif" font-size="14.00">HASH(0x3cb0ac0)</text>
</g>
<!-- 5&#45;&#45;7 -->
<g id="edge1" class="edge"><title>5&#45;&#45;7</title>
<path fill="none" stroke="black" d="M158.638,-101C170.454,-101 182.64,-101 194.445,-101"/>
</g>
<!-- 9 -->
<g id="node3" class="node"><title>9</title>
<ellipse fill="none" stroke="black" cx="467.165" cy="-101" rx="79.0865" ry="18"/>
<text text-anchor="middle" x="467.165" y="-97.3" font-family="Times,serif" font-size="14.00">HASH(0x3cab378)</text>
</g>
<!-- 7&#45;&#45;9 -->
<g id="edge2" class="edge"><title>7&#45;&#45;9</title>
<path fill="none" stroke="black" d="M352.02,-101C363.762,-101 375.881,-101 387.639,-101"/>
</g>
<!-- 6 -->
<g id="node4" class="node"><title>6</title>
<ellipse fill="none" stroke="black" cx="661.101" cy="-101" rx="78.7863" ry="18"/>
<text text-anchor="middle" x="661.101" y="-97.3" font-family="Times,serif" font-size="14.00">HASH(0x3caad18)</text>
</g>
<!-- 9&#45;&#45;6 -->
<g id="edge3" class="edge"><title>9&#45;&#45;6</title>
<path fill="none" stroke="black" d="M546.509,-101C558.326,-101 570.512,-101 582.317,-101"/>
</g>
</g>
</svg>
