<?xml version="1.0" encoding="UTF-8" standalone="no"?>
<!DOCTYPE svg PUBLIC "-//W3C//DTD SVG 1.1//EN"
 "http://www.w3.org/Graphics/SVG/1.1/DTD/svg11.dtd">
<!-- Generated by graphviz version 2.38.0 (20140413.2041)
 -->
<!-- Title: fixed_length_paths Pages: 1 -->
<svg width="739pt" height="186pt"
 viewBox="0.00 0.00 738.64 185.85" xmlns="http://www.w3.org/2000/svg" xmlns:xlink="http://www.w3.org/1999/xlink">
<g id="graph0" class="graph" transform="scale(1 1) rotate(0) translate(4 181.846)">
<title>fixed_length_paths</title>
<polygon fill="white" stroke="none" points="-4,4 -4,-181.846 734.645,-181.846 734.645,4 -4,4"/>
<text text-anchor="middle" x="365.322" y="-67.8" font-family="Times,serif" font-size="14.00">Input file: fixed.length.paths.in.03.gv</text>
<text text-anchor="middle" x="365.322" y="-52.8" font-family="Times,serif" font-size="14.00">Starting node: A</text>
<text text-anchor="middle" x="365.322" y="-37.8" font-family="Times,serif" font-size="14.00">Path length: 3</text>
<text text-anchor="middle" x="365.322" y="-22.8" font-family="Times,serif" font-size="14.00">Allow cycles: 0</text>
<text text-anchor="middle" x="365.322" y="-7.8" font-family="Times,serif" font-size="14.00">Paths: 8</text>
<!-- A -->
<g id="node1" class="node"><title>A</title>
<ellipse fill="none" stroke="black" cx="77.9931" cy="-130.423" rx="77.9862" ry="18"/>
<text text-anchor="middle" x="77.9931" y="-126.723" font-family="Times,serif" font-size="14.00">HASH(0x3f5be90)</text>
</g>
<!-- B -->
<g id="node2" class="node"><title>B</title>
<ellipse fill="none" stroke="black" cx="269.329" cy="-130.423" rx="77.1866" ry="18"/>
<text text-anchor="middle" x="269.329" y="-126.723" font-family="Times,serif" font-size="14.00">HASH(0x3fa68c0)</text>
</g>
<!-- A&#45;&gt;B -->
<g id="edge1" class="edge"><title>A&#45;&gt;B</title>
<path fill="none" stroke="black" d="M85.0782,-112.301C111.618,-76.1449 217.584,-73.6489 255.09,-104.813"/>
<polygon fill="black" stroke="black" points="252.935,-107.626 262.361,-112.462 258.008,-102.803 252.935,-107.626"/>
</g>
<!-- A&#45;&gt;B -->
<g id="edge4" class="edge"><title>A&#45;&gt;B</title>
<path fill="none" stroke="black" d="M91.416,-112.625C122.966,-93.0732 206.508,-91.4945 246.454,-107.889"/>
<polygon fill="black" stroke="black" points="245.1,-111.125 255.612,-112.445 248.218,-104.857 245.1,-111.125"/>
</g>
<!-- A&#45;&gt;B -->
<g id="edge7" class="edge"><title>A&#45;&gt;B</title>
<path fill="none" stroke="black" d="M113.72,-114.331C144.68,-109.296 190.169,-108.834 223.796,-112.944"/>
<polygon fill="black" stroke="black" points="223.43,-116.427 233.822,-114.367 224.413,-109.497 223.43,-116.427"/>
</g>
<!-- A&#45;&gt;B -->
<g id="edge10" class="edge"><title>A&#45;&gt;B</title>
<path fill="none" stroke="black" d="M150.843,-123.851C162.694,-123.663 175.052,-123.624 187.112,-123.734"/>
<polygon fill="black" stroke="black" points="187.112,-127.234 197.156,-123.861 187.201,-120.235 187.112,-127.234"/>
</g>
<!-- A&#45;&gt;B -->
<g id="edge13" class="edge"><title>A&#45;&gt;B</title>
<path fill="none" stroke="black" d="M150.843,-136.996C162.694,-137.183 175.052,-137.222 187.112,-137.112"/>
<polygon fill="black" stroke="black" points="187.201,-140.612 197.156,-136.985 187.112,-133.612 187.201,-140.612"/>
</g>
<!-- A&#45;&gt;B -->
<g id="edge16" class="edge"><title>A&#45;&gt;B</title>
<path fill="none" stroke="black" d="M113.72,-146.515C144.68,-151.55 190.169,-152.012 223.796,-147.902"/>
<polygon fill="black" stroke="black" points="224.413,-151.35 233.822,-146.479 223.43,-144.419 224.413,-151.35"/>
</g>
<!-- A&#45;&gt;B -->
<g id="edge19" class="edge"><title>A&#45;&gt;B</title>
<path fill="none" stroke="black" d="M91.416,-148.221C122.966,-167.773 206.508,-169.352 246.454,-152.957"/>
<polygon fill="black" stroke="black" points="248.218,-155.989 255.612,-148.402 245.1,-149.722 248.218,-155.989"/>
</g>
<!-- A&#45;&gt;B -->
<g id="edge22" class="edge"><title>A&#45;&gt;B</title>
<path fill="none" stroke="black" d="M85.0782,-148.545C111.618,-184.701 217.584,-187.198 255.09,-156.033"/>
<polygon fill="black" stroke="black" points="258.008,-158.044 262.361,-148.385 252.935,-153.221 258.008,-158.044"/>
</g>
<!-- C -->
<g id="node3" class="node"><title>C</title>
<ellipse fill="none" stroke="black" cx="461.315" cy="-130.423" rx="78.7863" ry="18"/>
<text text-anchor="middle" x="461.315" y="-126.723" font-family="Times,serif" font-size="14.00">HASH(0x3f80428)</text>
</g>
<!-- B&#45;&gt;C -->
<g id="edge2" class="edge"><title>B&#45;&gt;C</title>
<path fill="none" stroke="black" d="M276.435,-112.301C303.066,-76.1449 409.396,-73.6489 447.031,-104.813"/>
<polygon fill="black" stroke="black" points="444.892,-107.642 454.327,-112.462 449.957,-102.81 444.892,-107.642"/>
</g>
<!-- B&#45;&gt;C -->
<g id="edge5" class="edge"><title>B&#45;&gt;C</title>
<path fill="none" stroke="black" d="M282.795,-112.625C314.454,-93.0732 398.282,-91.4945 438.365,-107.889"/>
<polygon fill="black" stroke="black" points="437.041,-111.139 447.555,-112.445 440.15,-104.867 437.041,-111.139"/>
</g>
<!-- B&#45;&gt;C -->
<g id="edge8" class="edge"><title>B&#45;&gt;C</title>
<path fill="none" stroke="black" d="M304.734,-114.403C335.744,-109.311 381.539,-108.816 415.421,-112.919"/>
<polygon fill="black" stroke="black" points="415.134,-116.413 425.524,-114.34 416.109,-109.481 415.134,-116.413"/>
</g>
<!-- B&#45;&gt;C -->
<g id="edge11" class="edge"><title>B&#45;&gt;C</title>
<path fill="none" stroke="black" d="M341.614,-123.864C353.459,-123.67 365.83,-123.624 377.923,-123.726"/>
<polygon fill="black" stroke="black" points="377.957,-127.227 387.999,-123.847 378.041,-120.227 377.957,-127.227"/>
</g>
<!-- B&#45;&gt;C -->
<g id="edge14" class="edge"><title>B&#45;&gt;C</title>
<path fill="none" stroke="black" d="M341.614,-136.983C353.459,-137.177 365.83,-137.223 377.923,-137.12"/>
<polygon fill="black" stroke="black" points="378.041,-140.619 387.999,-136.999 377.957,-133.62 378.041,-140.619"/>
</g>
<!-- B&#45;&gt;C -->
<g id="edge17" class="edge"><title>B&#45;&gt;C</title>
<path fill="none" stroke="black" d="M304.734,-146.443C335.744,-151.535 381.539,-152.03 415.421,-147.927"/>
<polygon fill="black" stroke="black" points="416.109,-151.365 425.524,-146.506 415.134,-144.433 416.109,-151.365"/>
</g>
<!-- B&#45;&gt;C -->
<g id="edge20" class="edge"><title>B&#45;&gt;C</title>
<path fill="none" stroke="black" d="M282.795,-148.221C314.454,-167.773 398.282,-169.352 438.365,-152.957"/>
<polygon fill="black" stroke="black" points="440.15,-155.979 447.555,-148.402 437.041,-149.707 440.15,-155.979"/>
</g>
<!-- B&#45;&gt;C -->
<g id="edge23" class="edge"><title>B&#45;&gt;C</title>
<path fill="none" stroke="black" d="M276.435,-148.545C303.066,-184.701 409.396,-187.198 447.031,-156.033"/>
<polygon fill="black" stroke="black" points="449.957,-158.036 454.327,-148.385 444.892,-153.205 449.957,-158.036"/>
</g>
<!-- D -->
<g id="node4" class="node"><title>D</title>
<ellipse fill="none" stroke="black" cx="653.302" cy="-130.423" rx="77.1866" ry="18"/>
<text text-anchor="middle" x="653.302" y="-126.723" font-family="Times,serif" font-size="14.00">HASH(0x3fa6ad0)</text>
</g>
<!-- C&#45;&gt;D -->
<g id="edge3" class="edge"><title>C&#45;&gt;D</title>
<path fill="none" stroke="black" d="M468.421,-112.301C495.052,-76.1449 601.383,-73.6489 639.017,-104.813"/>
<polygon fill="black" stroke="black" points="636.878,-107.642 646.313,-112.462 641.943,-102.81 636.878,-107.642"/>
</g>
<!-- C&#45;&gt;D -->
<g id="edge6" class="edge"><title>C&#45;&gt;D</title>
<path fill="none" stroke="black" d="M474.781,-112.625C506.44,-93.0732 590.268,-91.4945 630.351,-107.889"/>
<polygon fill="black" stroke="black" points="629.027,-111.139 639.541,-112.445 632.136,-104.867 629.027,-111.139"/>
</g>
<!-- C&#45;&gt;D -->
<g id="edge9" class="edge"><title>C&#45;&gt;D</title>
<path fill="none" stroke="black" d="M497.162,-114.331C528.228,-109.296 573.873,-108.834 607.616,-112.944"/>
<polygon fill="black" stroke="black" points="607.285,-116.432 617.676,-114.367 608.265,-109.501 607.285,-116.432"/>
</g>
<!-- C&#45;&gt;D -->
<g id="edge12" class="edge"><title>C&#45;&gt;D</title>
<path fill="none" stroke="black" d="M534.683,-123.846C546.562,-123.661 558.942,-123.625 571.02,-123.736"/>
<polygon fill="black" stroke="black" points="571.034,-127.236 581.077,-123.865 571.123,-120.237 571.034,-127.236"/>
</g>
<!-- C&#45;&gt;D -->
<g id="edge15" class="edge"><title>C&#45;&gt;D</title>
<path fill="none" stroke="black" d="M534.683,-137C546.562,-137.185 558.942,-137.222 571.02,-137.11"/>
<polygon fill="black" stroke="black" points="571.123,-140.609 581.077,-136.982 571.034,-133.61 571.123,-140.609"/>
</g>
<!-- C&#45;&gt;D -->
<g id="edge18" class="edge"><title>C&#45;&gt;D</title>
<path fill="none" stroke="black" d="M497.162,-146.515C528.228,-151.55 573.873,-152.012 607.616,-147.902"/>
<polygon fill="black" stroke="black" points="608.265,-151.345 617.676,-146.479 607.285,-144.414 608.265,-151.345"/>
</g>
<!-- C&#45;&gt;D -->
<g id="edge21" class="edge"><title>C&#45;&gt;D</title>
<path fill="none" stroke="black" d="M474.781,-148.221C506.44,-167.773 590.268,-169.352 630.351,-152.957"/>
<polygon fill="black" stroke="black" points="632.136,-155.979 639.541,-148.402 629.027,-149.707 632.136,-155.979"/>
</g>
<!-- C&#45;&gt;D -->
<g id="edge24" class="edge"><title>C&#45;&gt;D</title>
<path fill="none" stroke="black" d="M468.421,-148.545C495.052,-184.701 601.383,-187.198 639.017,-156.033"/>
<polygon fill="black" stroke="black" points="641.943,-158.036 646.313,-148.385 636.878,-153.205 641.943,-158.036"/>
</g>
</g>
</svg>
