<?xml version="1.0" encoding="UTF-8" standalone="no"?>
<!DOCTYPE svg PUBLIC "-//W3C//DTD SVG 1.1//EN"
 "http://www.w3.org/Graphics/SVG/1.1/DTD/svg11.dtd">
<!-- Generated by graphviz version 2.38.0 (20140413.2041)
 -->
<!-- Title: fixed_length_paths Pages: 1 -->
<svg width="750pt" height="186pt"
 viewBox="0.00 0.00 750.34 185.84" xmlns="http://www.w3.org/2000/svg" xmlns:xlink="http://www.w3.org/1999/xlink">
<g id="graph0" class="graph" transform="scale(1 1) rotate(0) translate(4 181.844)">
<title>fixed_length_paths</title>
<polygon fill="white" stroke="none" points="-4,4 -4,-181.844 746.344,-181.844 746.344,4 -4,4"/>
<text text-anchor="middle" x="371.172" y="-67.8" font-family="Times,serif" font-size="14.00">Input file: fixed.length.paths.in.03.gv</text>
<text text-anchor="middle" x="371.172" y="-52.8" font-family="Times,serif" font-size="14.00">Starting node: A</text>
<text text-anchor="middle" x="371.172" y="-37.8" font-family="Times,serif" font-size="14.00">Path length: 3</text>
<text text-anchor="middle" x="371.172" y="-22.8" font-family="Times,serif" font-size="14.00">Allow cycles: 0</text>
<text text-anchor="middle" x="371.172" y="-7.8" font-family="Times,serif" font-size="14.00">Paths: 8</text>
<!-- A -->
<g id="node1" class="node"><title>A</title>
<ellipse fill="none" stroke="black" cx="79.293" cy="-130.422" rx="79.0865" ry="18"/>
<text text-anchor="middle" x="79.293" y="-126.722" font-family="Times,serif" font-size="14.00">HASH(0x3a73628)</text>
</g>
<!-- B -->
<g id="node2" class="node"><title>B</title>
<ellipse fill="none" stroke="black" cx="273.879" cy="-130.422" rx="79.0865" ry="18"/>
<text text-anchor="middle" x="273.879" y="-126.722" font-family="Times,serif" font-size="14.00">HASH(0x3a88db0)</text>
</g>
<!-- A&#45;&gt;B -->
<g id="edge1" class="edge"><title>A&#45;&gt;B</title>
<path fill="none" stroke="black" d="M86.4825,-112.3C113.591,-75.9918 222.17,-73.6273 259.89,-105.207"/>
<polygon fill="black" stroke="black" points="257.374,-107.64 266.808,-112.461 262.439,-102.809 257.374,-107.64"/>
</g>
<!-- A&#45;&gt;B -->
<g id="edge4" class="edge"><title>A&#45;&gt;B</title>
<path fill="none" stroke="black" d="M92.9291,-112.624C125.089,-93.0306 210.356,-91.4867 250.886,-107.992"/>
<polygon fill="black" stroke="black" points="249.425,-111.174 259.944,-112.443 252.512,-104.892 249.425,-111.174"/>
</g>
<!-- A&#45;&gt;B -->
<g id="edge7" class="edge"><title>A&#45;&gt;B</title>
<path fill="none" stroke="black" d="M115.616,-114.33C147.107,-109.295 193.377,-108.833 227.582,-112.943"/>
<polygon fill="black" stroke="black" points="227.392,-116.451 237.78,-114.366 228.359,-109.518 227.392,-116.451"/>
</g>
<!-- A&#45;&gt;B -->
<g id="edge10" class="edge"><title>A&#45;&gt;B</title>
<path fill="none" stroke="black" d="M153.376,-123.849C165.264,-123.664 177.654,-123.624 189.76,-123.728"/>
<polygon fill="black" stroke="black" points="189.804,-127.229 199.846,-123.85 189.889,-120.23 189.804,-127.229"/>
</g>
<!-- A&#45;&gt;B -->
<g id="edge13" class="edge"><title>A&#45;&gt;B</title>
<path fill="none" stroke="black" d="M153.376,-136.995C165.264,-137.18 177.654,-137.22 189.76,-137.116"/>
<polygon fill="black" stroke="black" points="189.889,-140.614 199.846,-136.994 189.804,-133.615 189.889,-140.614"/>
</g>
<!-- A&#45;&gt;B -->
<g id="edge16" class="edge"><title>A&#45;&gt;B</title>
<path fill="none" stroke="black" d="M115.616,-146.514C147.107,-151.549 193.377,-152.011 227.582,-147.901"/>
<polygon fill="black" stroke="black" points="228.359,-151.326 237.78,-146.478 227.392,-144.393 228.359,-151.326"/>
</g>
<!-- A&#45;&gt;B -->
<g id="edge19" class="edge"><title>A&#45;&gt;B</title>
<path fill="none" stroke="black" d="M92.9291,-148.22C125.089,-167.813 210.356,-169.357 250.886,-152.852"/>
<polygon fill="black" stroke="black" points="252.512,-155.952 259.944,-148.401 249.425,-149.67 252.512,-155.952"/>
</g>
<!-- A&#45;&gt;B -->
<g id="edge22" class="edge"><title>A&#45;&gt;B</title>
<path fill="none" stroke="black" d="M86.4825,-148.544C113.591,-184.852 222.17,-187.217 259.89,-155.637"/>
<polygon fill="black" stroke="black" points="262.439,-158.035 266.808,-148.383 257.374,-153.204 262.439,-158.035"/>
</g>
<!-- C -->
<g id="node3" class="node"><title>C</title>
<ellipse fill="none" stroke="black" cx="468.465" cy="-130.422" rx="79.0865" ry="18"/>
<text text-anchor="middle" x="468.465" y="-126.722" font-family="Times,serif" font-size="14.00">HASH(0x3a9b258)</text>
</g>
<!-- B&#45;&gt;C -->
<g id="edge2" class="edge"><title>B&#45;&gt;C</title>
<path fill="none" stroke="black" d="M281.068,-112.3C308.177,-75.9918 416.756,-73.6273 454.476,-105.207"/>
<polygon fill="black" stroke="black" points="451.96,-107.64 461.394,-112.461 457.025,-102.809 451.96,-107.64"/>
</g>
<!-- B&#45;&gt;C -->
<g id="edge5" class="edge"><title>B&#45;&gt;C</title>
<path fill="none" stroke="black" d="M287.515,-112.624C319.675,-93.0306 404.942,-91.4867 445.472,-107.992"/>
<polygon fill="black" stroke="black" points="444.011,-111.174 454.53,-112.443 447.098,-104.892 444.011,-111.174"/>
</g>
<!-- B&#45;&gt;C -->
<g id="edge8" class="edge"><title>B&#45;&gt;C</title>
<path fill="none" stroke="black" d="M310.202,-114.33C341.693,-109.295 387.963,-108.833 422.167,-112.943"/>
<polygon fill="black" stroke="black" points="421.978,-116.451 432.366,-114.366 422.945,-109.518 421.978,-116.451"/>
</g>
<!-- B&#45;&gt;C -->
<g id="edge11" class="edge"><title>B&#45;&gt;C</title>
<path fill="none" stroke="black" d="M347.962,-123.849C359.85,-123.664 372.239,-123.624 384.346,-123.728"/>
<polygon fill="black" stroke="black" points="384.39,-127.229 394.432,-123.85 384.475,-120.23 384.39,-127.229"/>
</g>
<!-- B&#45;&gt;C -->
<g id="edge14" class="edge"><title>B&#45;&gt;C</title>
<path fill="none" stroke="black" d="M347.962,-136.995C359.85,-137.18 372.239,-137.22 384.346,-137.116"/>
<polygon fill="black" stroke="black" points="384.475,-140.614 394.432,-136.994 384.39,-133.615 384.475,-140.614"/>
</g>
<!-- B&#45;&gt;C -->
<g id="edge17" class="edge"><title>B&#45;&gt;C</title>
<path fill="none" stroke="black" d="M310.202,-146.514C341.693,-151.549 387.963,-152.011 422.167,-147.901"/>
<polygon fill="black" stroke="black" points="422.945,-151.326 432.366,-146.478 421.978,-144.393 422.945,-151.326"/>
</g>
<!-- B&#45;&gt;C -->
<g id="edge20" class="edge"><title>B&#45;&gt;C</title>
<path fill="none" stroke="black" d="M287.515,-148.22C319.675,-167.813 404.942,-169.357 445.472,-152.852"/>
<polygon fill="black" stroke="black" points="447.098,-155.952 454.53,-148.401 444.011,-149.67 447.098,-155.952"/>
</g>
<!-- B&#45;&gt;C -->
<g id="edge23" class="edge"><title>B&#45;&gt;C</title>
<path fill="none" stroke="black" d="M281.068,-148.544C308.177,-184.852 416.756,-187.217 454.476,-155.637"/>
<polygon fill="black" stroke="black" points="457.025,-158.035 461.394,-148.383 451.96,-153.204 457.025,-158.035"/>
</g>
<!-- D -->
<g id="node4" class="node"><title>D</title>
<ellipse fill="none" stroke="black" cx="663.051" cy="-130.422" rx="79.0865" ry="18"/>
<text text-anchor="middle" x="663.051" y="-126.722" font-family="Times,serif" font-size="14.00">HASH(0x3a88e40)</text>
</g>
<!-- C&#45;&gt;D -->
<g id="edge3" class="edge"><title>C&#45;&gt;D</title>
<path fill="none" stroke="black" d="M475.654,-112.3C502.763,-75.9918 611.342,-73.6273 649.062,-105.207"/>
<polygon fill="black" stroke="black" points="646.546,-107.64 655.98,-112.461 651.611,-102.809 646.546,-107.64"/>
</g>
<!-- C&#45;&gt;D -->
<g id="edge6" class="edge"><title>C&#45;&gt;D</title>
<path fill="none" stroke="black" d="M482.101,-112.624C514.261,-93.0306 599.528,-91.4867 640.058,-107.992"/>
<polygon fill="black" stroke="black" points="638.597,-111.174 649.116,-112.443 641.684,-104.892 638.597,-111.174"/>
</g>
<!-- C&#45;&gt;D -->
<g id="edge9" class="edge"><title>C&#45;&gt;D</title>
<path fill="none" stroke="black" d="M504.788,-114.33C536.279,-109.295 582.549,-108.833 616.753,-112.943"/>
<polygon fill="black" stroke="black" points="616.564,-116.451 626.951,-114.366 617.531,-109.518 616.564,-116.451"/>
</g>
<!-- C&#45;&gt;D -->
<g id="edge12" class="edge"><title>C&#45;&gt;D</title>
<path fill="none" stroke="black" d="M542.548,-123.849C554.436,-123.664 566.825,-123.624 578.932,-123.728"/>
<polygon fill="black" stroke="black" points="578.976,-127.229 589.018,-123.85 579.061,-120.23 578.976,-127.229"/>
</g>
<!-- C&#45;&gt;D -->
<g id="edge15" class="edge"><title>C&#45;&gt;D</title>
<path fill="none" stroke="black" d="M542.548,-136.995C554.436,-137.18 566.825,-137.22 578.932,-137.116"/>
<polygon fill="black" stroke="black" points="579.061,-140.614 589.018,-136.994 578.976,-133.615 579.061,-140.614"/>
</g>
<!-- C&#45;&gt;D -->
<g id="edge18" class="edge"><title>C&#45;&gt;D</title>
<path fill="none" stroke="black" d="M504.788,-146.514C536.279,-151.549 582.549,-152.011 616.753,-147.901"/>
<polygon fill="black" stroke="black" points="617.531,-151.326 626.951,-146.478 616.564,-144.393 617.531,-151.326"/>
</g>
<!-- C&#45;&gt;D -->
<g id="edge21" class="edge"><title>C&#45;&gt;D</title>
<path fill="none" stroke="black" d="M482.101,-148.22C514.261,-167.813 599.528,-169.357 640.058,-152.852"/>
<polygon fill="black" stroke="black" points="641.684,-155.952 649.116,-148.401 638.597,-149.67 641.684,-155.952"/>
</g>
<!-- C&#45;&gt;D -->
<g id="edge24" class="edge"><title>C&#45;&gt;D</title>
<path fill="none" stroke="black" d="M475.654,-148.544C502.763,-184.852 611.342,-187.217 649.062,-155.637"/>
<polygon fill="black" stroke="black" points="651.611,-158.035 655.98,-148.383 646.546,-153.204 651.611,-158.035"/>
</g>
</g>
</svg>
