<?xml version="1.0" encoding="UTF-8" standalone="no"?>
<!DOCTYPE svg PUBLIC "-//W3C//DTD SVG 1.1//EN"
 "http://www.w3.org/Graphics/SVG/1.1/DTD/svg11.dtd">
<!-- Generated by graphviz version 2.38.0 (20140413.2041)
 -->
<!-- Title: fixed_length_paths Pages: 1 -->
<svg width="217pt" height="181pt"
 viewBox="0.00 0.00 217.00 181.00" xmlns="http://www.w3.org/2000/svg" xmlns:xlink="http://www.w3.org/1999/xlink">
<g id="graph0" class="graph" transform="scale(1 1) rotate(0) translate(4 177)">
<title>fixed_length_paths</title>
<polygon fill="white" stroke="none" points="-4,4 -4,-177 213,-177 213,4 -4,4"/>
<text text-anchor="middle" x="104.5" y="-67.8" font-family="Times,serif" font-size="14.00">Input file: data/fixed.paths.in.01.gv</text>
<text text-anchor="middle" x="104.5" y="-52.8" font-family="Times,serif" font-size="14.00">Starting node: Act_1</text>
<text text-anchor="middle" x="104.5" y="-37.8" font-family="Times,serif" font-size="14.00">Path length: 1</text>
<text text-anchor="middle" x="104.5" y="-22.8" font-family="Times,serif" font-size="14.00">Allow cycles: 0</text>
<text text-anchor="middle" x="104.5" y="-7.8" font-family="Times,serif" font-size="14.00">Paths: 2</text>
<!-- 1 -->
<g id="node1" class="node"><title>1</title>
<ellipse fill="none" stroke="black" cx="50.1032" cy="-101" rx="32.4942" ry="18"/>
<text text-anchor="middle" x="50.1032" y="-97.3" font-family="Times,serif" font-size="14.00">Act_1</text>
</g>
<!-- 2 -->
<g id="node2" class="node"><title>2</title>
<ellipse fill="none" stroke="black" cx="154.997" cy="-101" rx="36.2938" ry="18"/>
<text text-anchor="middle" x="154.997" y="-97.3" font-family="Times,serif" font-size="14.00">Act_23</text>
</g>
<!-- 1&#45;&gt;2 -->
<g id="edge1" class="edge"><title>1&#45;&gt;2</title>
<path fill="none" stroke="black" d="M82.8144,-101C90.7905,-101 99.5126,-101 108.032,-101"/>
<polygon fill="black" stroke="black" points="108.259,-104.5 118.259,-101 108.259,-97.5001 108.259,-104.5"/>
</g>
<!-- 3 -->
<g id="node3" class="node"><title>3</title>
<ellipse fill="none" stroke="black" cx="50.1032" cy="-155" rx="32.4942" ry="18"/>
<text text-anchor="middle" x="50.1032" y="-151.3" font-family="Times,serif" font-size="14.00">Act_1</text>
</g>
<!-- 4 -->
<g id="node4" class="node"><title>4</title>
<ellipse fill="none" stroke="black" cx="154.997" cy="-155" rx="36.2938" ry="18"/>
<text text-anchor="middle" x="154.997" y="-151.3" font-family="Times,serif" font-size="14.00">Act_21</text>
</g>
<!-- 3&#45;&gt;4 -->
<g id="edge2" class="edge"><title>3&#45;&gt;4</title>
<path fill="none" stroke="black" d="M82.8144,-155C90.7905,-155 99.5126,-155 108.032,-155"/>
<polygon fill="black" stroke="black" points="108.259,-158.5 118.259,-155 108.259,-151.5 108.259,-158.5"/>
</g>
</g>
</svg>
