<?xml version="1.0" encoding="UTF-8" standalone="no"?>
<!DOCTYPE svg PUBLIC "-//W3C//DTD SVG 1.1//EN"
 "http://www.w3.org/Graphics/SVG/1.1/DTD/svg11.dtd">
<!-- Generated by graphviz version 2.38.0 (20140413.2041)
 -->
<!-- Title: fixed_length_paths Pages: 1 -->
<svg width="750pt" height="127pt"
 viewBox="0.00 0.00 750.34 127.00" xmlns="http://www.w3.org/2000/svg" xmlns:xlink="http://www.w3.org/1999/xlink">
<g id="graph0" class="graph" transform="scale(1 1) rotate(0) translate(4 123)">
<title>fixed_length_paths</title>
<polygon fill="white" stroke="none" points="-4,4 -4,-123 746.344,-123 746.344,4 -4,4"/>
<text text-anchor="middle" x="371.172" y="-67.8" font-family="Times,serif" font-size="14.00">Input file: fixed.length.paths.in.02.gv</text>
<text text-anchor="middle" x="371.172" y="-52.8" font-family="Times,serif" font-size="14.00">Starting node: 5</text>
<text text-anchor="middle" x="371.172" y="-37.8" font-family="Times,serif" font-size="14.00">Path length: 3</text>
<text text-anchor="middle" x="371.172" y="-22.8" font-family="Times,serif" font-size="14.00">Allow cycles: 0</text>
<text text-anchor="middle" x="371.172" y="-7.8" font-family="Times,serif" font-size="14.00">Paths: 1</text>
<!-- 5 -->
<g id="node1" class="node"><title>5</title>
<ellipse fill="none" stroke="black" cx="77.3431" cy="-101" rx="77.1866" ry="18"/>
<text text-anchor="middle" x="77.3431" y="-97.3" font-family="Times,serif" font-size="14.00">HASH(0x4223ff0)</text>
</g>
<!-- 7 -->
<g id="node2" class="node"><title>7</title>
<ellipse fill="none" stroke="black" cx="270.629" cy="-101" rx="79.8859" ry="18"/>
<text text-anchor="middle" x="270.629" y="-97.3" font-family="Times,serif" font-size="14.00">HASH(0x4224308)</text>
</g>
<!-- 5&#45;&#45;7 -->
<g id="edge1" class="edge"><title>5&#45;&#45;7</title>
<path fill="none" stroke="black" d="M154.769,-101C166.528,-101 178.692,-101 190.508,-101"/>
</g>
<!-- 9 -->
<g id="node3" class="node"><title>9</title>
<ellipse fill="none" stroke="black" cx="466.515" cy="-101" rx="79.8859" ry="18"/>
<text text-anchor="middle" x="466.515" y="-97.3" font-family="Times,serif" font-size="14.00">HASH(0x4220770)</text>
</g>
<!-- 7&#45;&#45;9 -->
<g id="edge2" class="edge"><title>7&#45;&#45;9</title>
<path fill="none" stroke="black" d="M350.77,-101C362.497,-101 374.585,-101 386.313,-101"/>
</g>
<!-- 6 -->
<g id="node4" class="node"><title>6</title>
<ellipse fill="none" stroke="black" cx="662.401" cy="-101" rx="79.8859" ry="18"/>
<text text-anchor="middle" x="662.401" y="-97.3" font-family="Times,serif" font-size="14.00">HASH(0x4034d98)</text>
</g>
<!-- 9&#45;&#45;6 -->
<g id="edge3" class="edge"><title>9&#45;&#45;6</title>
<path fill="none" stroke="black" d="M546.655,-101C558.383,-101 570.47,-101 582.199,-101"/>
</g>
</g>
</svg>
