<?xml version="1.0" encoding="UTF-8" standalone="no"?>
<!DOCTYPE svg PUBLIC "-//W3C//DTD SVG 1.1//EN"
 "http://www.w3.org/Graphics/SVG/1.1/DTD/svg11.dtd">
<!-- Generated by graphviz version 2.38.0 (20140413.2041)
 -->
<!-- Title: fixed_length_paths Pages: 1 -->
<svg width="332pt" height="127pt"
 viewBox="0.00 0.00 332.00 127.00" xmlns="http://www.w3.org/2000/svg" xmlns:xlink="http://www.w3.org/1999/xlink">
<g id="graph0" class="graph" transform="scale(1 1) rotate(0) translate(4 123)">
<title>fixed_length_paths</title>
<polygon fill="white" stroke="none" points="-4,4 -4,-123 328,-123 328,4 -4,4"/>
<text text-anchor="middle" x="162" y="-67.8" font-family="Times,serif" font-size="14.00">Input file: fixed.paths.in.02.gv</text>
<text text-anchor="middle" x="162" y="-52.8" font-family="Times,serif" font-size="14.00">Starting node: 5</text>
<text text-anchor="middle" x="162" y="-37.8" font-family="Times,serif" font-size="14.00">Path length: 3</text>
<text text-anchor="middle" x="162" y="-22.8" font-family="Times,serif" font-size="14.00">Allow cycles: 0</text>
<text text-anchor="middle" x="162" y="-7.8" font-family="Times,serif" font-size="14.00">Paths: 1</text>
<!-- 1 -->
<g id="node1" class="node"><title>1</title>
<ellipse fill="none" stroke="black" cx="27" cy="-101" rx="27" ry="18"/>
<text text-anchor="middle" x="27" y="-97.3" font-family="Times,serif" font-size="14.00">5</text>
</g>
<!-- 2 -->
<g id="node2" class="node"><title>2</title>
<ellipse fill="none" stroke="black" cx="117" cy="-101" rx="27" ry="18"/>
<text text-anchor="middle" x="117" y="-97.3" font-family="Times,serif" font-size="14.00">7</text>
</g>
<!-- 1&#45;&#45;2 -->
<g id="edge1" class="edge"><title>1&#45;&#45;2</title>
<path fill="none" stroke="black" d="M54.4029,-101C65.6421,-101 78.7152,-101 89.919,-101"/>
</g>
<!-- 3 -->
<g id="node3" class="node"><title>3</title>
<ellipse fill="none" stroke="black" cx="207" cy="-101" rx="27" ry="18"/>
<text text-anchor="middle" x="207" y="-97.3" font-family="Times,serif" font-size="14.00">9</text>
</g>
<!-- 2&#45;&#45;3 -->
<g id="edge2" class="edge"><title>2&#45;&#45;3</title>
<path fill="none" stroke="black" d="M144.403,-101C155.642,-101 168.715,-101 179.919,-101"/>
</g>
<!-- 4 -->
<g id="node4" class="node"><title>4</title>
<ellipse fill="none" stroke="black" cx="297" cy="-101" rx="27" ry="18"/>
<text text-anchor="middle" x="297" y="-97.3" font-family="Times,serif" font-size="14.00">6</text>
</g>
<!-- 3&#45;&#45;4 -->
<g id="edge3" class="edge"><title>3&#45;&#45;4</title>
<path fill="none" stroke="black" d="M234.403,-101C245.642,-101 258.715,-101 269.919,-101"/>
</g>
</g>
</svg>
