<?xml version="1.0" encoding="UTF-8" standalone="no"?>
<!DOCTYPE svg PUBLIC "-//W3C//DTD SVG 1.1//EN"
 "http://www.w3.org/Graphics/SVG/1.1/DTD/svg11.dtd">
<!-- Generated by graphviz version 2.38.0 (20140413.2041)
 -->
<!-- Title: Cluster Analysis Pages: 1 -->
<svg width="904pt" height="122pt"
 viewBox="0.00 0.00 904.00 122.00" xmlns="http://www.w3.org/2000/svg" xmlns:xlink="http://www.w3.org/1999/xlink">
<g id="graph0" class="graph" transform="scale(1 1) rotate(0) translate(4 118)">
<title>Cluster Analysis</title>
<polygon fill="white" stroke="none" points="-4,4 -4,-118 900,-118 900,4 -4,4"/>
<text text-anchor="middle" x="448" y="-7.8" font-family="Times,serif" font-size="14.00">Cluster Analysis</text>
<g id="clust1" class="cluster"><title>cluster 1</title>
<polygon fill="none" stroke="black" points="8,-31 8,-106 294,-106 294,-31 8,-31"/>
<text text-anchor="middle" x="151" y="-90.8" font-family="Times,serif" font-size="14.00">Cluster 1</text>
</g>
<g id="clust2" class="cluster"><title>cluster 2</title>
<polygon fill="none" stroke="black" points="302,-31 302,-106 516,-106 516,-31 302,-31"/>
<text text-anchor="middle" x="409" y="-90.8" font-family="Times,serif" font-size="14.00">Cluster 2</text>
</g>
<g id="clust3" class="cluster"><title>cluster 3</title>
<polygon fill="none" stroke="black" points="524,-31 524,-106 738,-106 738,-31 524,-31"/>
<text text-anchor="middle" x="631" y="-90.8" font-family="Times,serif" font-size="14.00">Cluster 3</text>
</g>
<g id="clust4" class="cluster"><title>cluster 4</title>
<polygon fill="none" stroke="black" points="746,-31 746,-106 888,-106 888,-31 746,-31"/>
<text text-anchor="middle" x="817" y="-90.8" font-family="Times,serif" font-size="14.00">Cluster 4</text>
</g>
<!-- i -->
<g id="node1" class="node"><title>i</title>
<ellipse fill="lemonchiffon" stroke="lemonchiffon" cx="259" cy="-57" rx="27" ry="18"/>
<text text-anchor="middle" x="259" y="-53.3" font-family="Times,serif" font-size="14.00">i</text>
</g>
<!-- j -->
<g id="node2" class="node"><title>j</title>
<ellipse fill="yellow" stroke="yellow" cx="187" cy="-57" rx="27" ry="18"/>
<text text-anchor="middle" x="187" y="-53.3" font-family="Times,serif" font-size="14.00">j</text>
</g>
<!-- k -->
<g id="node3" class="node"><title>k</title>
<ellipse fill="olivedrab" stroke="olivedrab" cx="115" cy="-57" rx="27" ry="18"/>
<text text-anchor="middle" x="115" y="-53.3" font-family="Times,serif" font-size="14.00">k</text>
</g>
<!-- l -->
<g id="node4" class="node"><title>l</title>
<ellipse fill="lime" stroke="lime" cx="43" cy="-57" rx="27" ry="18"/>
<text text-anchor="middle" x="43" y="-53.3" font-family="Times,serif" font-size="14.00">l</text>
</g>
<!-- f -->
<g id="node5" class="node"><title>f</title>
<ellipse fill="coral" stroke="coral" cx="481" cy="-57" rx="27" ry="18"/>
<text text-anchor="middle" x="481" y="-53.3" font-family="Times,serif" font-size="14.00">f</text>
</g>
<!-- g -->
<g id="node6" class="node"><title>g</title>
<ellipse fill="salmon" stroke="salmon" cx="409" cy="-57" rx="27" ry="18"/>
<text text-anchor="middle" x="409" y="-53.3" font-family="Times,serif" font-size="14.00">g</text>
</g>
<!-- h -->
<g id="node7" class="node"><title>h</title>
<ellipse fill="mistyrose" stroke="mistyrose" cx="337" cy="-57" rx="27" ry="18"/>
<text text-anchor="middle" x="337" y="-53.3" font-family="Times,serif" font-size="14.00">h</text>
</g>
<!-- c -->
<g id="node8" class="node"><title>c</title>
<ellipse fill="blue" stroke="blue" cx="703" cy="-57" rx="27" ry="18"/>
<text text-anchor="middle" x="703" y="-53.3" font-family="Times,serif" font-size="14.00">c</text>
</g>
<!-- d -->
<g id="node9" class="node"><title>d</title>
<ellipse fill="orange" stroke="orange" cx="631" cy="-57" rx="27" ry="18"/>
<text text-anchor="middle" x="631" y="-53.3" font-family="Times,serif" font-size="14.00">d</text>
</g>
<!-- e -->
<g id="node10" class="node"><title>e</title>
<ellipse fill="goldenrod" stroke="goldenrod" cx="559" cy="-57" rx="27" ry="18"/>
<text text-anchor="middle" x="559" y="-53.3" font-family="Times,serif" font-size="14.00">e</text>
</g>
<!-- a -->
<g id="node11" class="node"><title>a</title>
<ellipse fill="red" stroke="red" cx="853" cy="-57" rx="27" ry="18"/>
<text text-anchor="middle" x="853" y="-53.3" font-family="Times,serif" font-size="14.00">a</text>
</g>
<!-- b -->
<g id="node12" class="node"><title>b</title>
<ellipse fill="green" stroke="green" cx="781" cy="-57" rx="27" ry="18"/>
<text text-anchor="middle" x="781" y="-53.3" font-family="Times,serif" font-size="14.00">b</text>
</g>
</g>
</svg>
